%TF.GenerationSoftware,KiCad,Pcbnew,(5.1.9)-1*%
%TF.CreationDate,2021-05-12T14:49:38+07:00*%
%TF.ProjectId,finalProject,66696e61-6c50-4726-9f6a-6563742e6b69,rev?*%
%TF.SameCoordinates,Original*%
%TF.FileFunction,Legend,Top*%
%TF.FilePolarity,Positive*%
%FSLAX46Y46*%
G04 Gerber Fmt 4.6, Leading zero omitted, Abs format (unit mm)*
G04 Created by KiCad (PCBNEW (5.1.9)-1) date 2021-05-12 14:49:38*
%MOMM*%
%LPD*%
G01*
G04 APERTURE LIST*
%ADD10C,0.300000*%
%ADD11C,0.150000*%
%ADD12C,0.120000*%
G04 APERTURE END LIST*
D10*
X115633571Y-85832142D02*
X116776428Y-85832142D01*
X110553571Y-85832142D02*
X111696428Y-85832142D01*
X111125000Y-86403571D02*
X111125000Y-85260714D01*
D11*
X168783095Y-94750000D02*
X168687857Y-94702380D01*
X168545000Y-94702380D01*
X168402142Y-94750000D01*
X168306904Y-94845238D01*
X168259285Y-94940476D01*
X168211666Y-95130952D01*
X168211666Y-95273809D01*
X168259285Y-95464285D01*
X168306904Y-95559523D01*
X168402142Y-95654761D01*
X168545000Y-95702380D01*
X168640238Y-95702380D01*
X168783095Y-95654761D01*
X168830714Y-95607142D01*
X168830714Y-95273809D01*
X168640238Y-95273809D01*
X169259285Y-95702380D02*
X169259285Y-94702380D01*
X169830714Y-95702380D01*
X169830714Y-94702380D01*
X170306904Y-95702380D02*
X170306904Y-94702380D01*
X170545000Y-94702380D01*
X170687857Y-94750000D01*
X170783095Y-94845238D01*
X170830714Y-94940476D01*
X170878333Y-95130952D01*
X170878333Y-95273809D01*
X170830714Y-95464285D01*
X170783095Y-95559523D01*
X170687857Y-95654761D01*
X170545000Y-95702380D01*
X170306904Y-95702380D01*
X168283095Y-92162380D02*
X168854523Y-92162380D01*
X168568809Y-93162380D02*
X168568809Y-92162380D01*
X169092619Y-92162380D02*
X169759285Y-93162380D01*
X169759285Y-92162380D02*
X169092619Y-93162380D01*
X170140238Y-93162380D02*
X170140238Y-92162380D01*
X170378333Y-92162380D01*
X170521190Y-92210000D01*
X170616428Y-92305238D01*
X170664047Y-92400476D01*
X170711666Y-92590952D01*
X170711666Y-92733809D01*
X170664047Y-92924285D01*
X170616428Y-93019523D01*
X170521190Y-93114761D01*
X170378333Y-93162380D01*
X170140238Y-93162380D01*
X168878333Y-90622380D02*
X168545000Y-90146190D01*
X168306904Y-90622380D02*
X168306904Y-89622380D01*
X168687857Y-89622380D01*
X168783095Y-89670000D01*
X168830714Y-89717619D01*
X168878333Y-89812857D01*
X168878333Y-89955714D01*
X168830714Y-90050952D01*
X168783095Y-90098571D01*
X168687857Y-90146190D01*
X168306904Y-90146190D01*
X169211666Y-89622380D02*
X169878333Y-90622380D01*
X169878333Y-89622380D02*
X169211666Y-90622380D01*
X170259285Y-90622380D02*
X170259285Y-89622380D01*
X170497380Y-89622380D01*
X170640238Y-89670000D01*
X170735476Y-89765238D01*
X170783095Y-89860476D01*
X170830714Y-90050952D01*
X170830714Y-90193809D01*
X170783095Y-90384285D01*
X170735476Y-90479523D01*
X170640238Y-90574761D01*
X170497380Y-90622380D01*
X170259285Y-90622380D01*
D12*
%TO.C,C12*%
X138803748Y-98325000D02*
X139326252Y-98325000D01*
X138803748Y-99795000D02*
X139326252Y-99795000D01*
%TO.C,C11*%
X140574752Y-87095000D02*
X140052248Y-87095000D01*
X140574752Y-85625000D02*
X140052248Y-85625000D01*
%TO.C,C10*%
X171711252Y-109955000D02*
X171188748Y-109955000D01*
X171711252Y-108485000D02*
X171188748Y-108485000D01*
%TO.C,C9*%
X162821252Y-109955000D02*
X162298748Y-109955000D01*
X162821252Y-108485000D02*
X162298748Y-108485000D01*
%TO.C,C8*%
X153931252Y-109955000D02*
X153408748Y-109955000D01*
X153931252Y-108485000D02*
X153408748Y-108485000D01*
%TO.C,C7*%
X145041252Y-109955000D02*
X144518748Y-109955000D01*
X145041252Y-108485000D02*
X144518748Y-108485000D01*
%TO.C,C6*%
X136151252Y-109955000D02*
X135628748Y-109955000D01*
X136151252Y-108485000D02*
X135628748Y-108485000D01*
%TO.C,C5*%
X127261252Y-109955000D02*
X126738748Y-109955000D01*
X127261252Y-108485000D02*
X126738748Y-108485000D01*
%TO.C,C4*%
X118371252Y-109955000D02*
X117848748Y-109955000D01*
X118371252Y-108485000D02*
X117848748Y-108485000D01*
%TO.C,C3*%
X109481252Y-109955000D02*
X108958748Y-109955000D01*
X109481252Y-108485000D02*
X108958748Y-108485000D01*
%TO.C,J1*%
X172025000Y-96580000D02*
X174685000Y-96580000D01*
X172025000Y-91440000D02*
X172025000Y-96580000D01*
X174685000Y-91440000D02*
X174685000Y-96580000D01*
X172025000Y-91440000D02*
X174685000Y-91440000D01*
X172025000Y-90170000D02*
X172025000Y-88840000D01*
X172025000Y-88840000D02*
X173355000Y-88840000D01*
%TO.C,U2*%
X153575000Y-83860000D02*
X153575000Y-73620000D01*
X158216000Y-83860000D02*
X158216000Y-73620000D01*
X153575000Y-83860000D02*
X158216000Y-83860000D01*
X153575000Y-73620000D02*
X158216000Y-73620000D01*
X155085000Y-83860000D02*
X155085000Y-73620000D01*
X153575000Y-80590000D02*
X155085000Y-80590000D01*
X153575000Y-76889000D02*
X155085000Y-76889000D01*
%TO.C,U1*%
X158175000Y-91710000D02*
X158175000Y-90060000D01*
X158175000Y-90060000D02*
X122495000Y-90060000D01*
X122495000Y-90060000D02*
X122495000Y-95360000D01*
X122495000Y-95360000D02*
X158175000Y-95360000D01*
X158175000Y-95360000D02*
X158175000Y-93710000D01*
X158175000Y-93710000D02*
G75*
G02*
X158175000Y-91710000I0J1000000D01*
G01*
%TO.C,SW1*%
X133475000Y-84330000D02*
X132175000Y-84330000D01*
X133475000Y-83030000D02*
X133475000Y-84330000D01*
X121225000Y-76680000D02*
X131125000Y-76680000D01*
X131125000Y-83380000D02*
X121225000Y-83380000D01*
X133175000Y-77430000D02*
X133175000Y-82630000D01*
X119175000Y-82630000D02*
X119175000Y-77430000D01*
%TO.C,R1*%
X170195000Y-87280000D02*
X170195000Y-85440000D01*
X170195000Y-85440000D02*
X166355000Y-85440000D01*
X166355000Y-85440000D02*
X166355000Y-87280000D01*
X166355000Y-87280000D02*
X170195000Y-87280000D01*
X171145000Y-86360000D02*
X170195000Y-86360000D01*
X165405000Y-86360000D02*
X166355000Y-86360000D01*
%TO.C,D10*%
X172119000Y-79665000D02*
X172275000Y-79665000D01*
X174435000Y-79665000D02*
X174591000Y-79665000D01*
X174434837Y-77063870D02*
G75*
G02*
X174435000Y-79145961I-1079837J-1041130D01*
G01*
X172275163Y-77063870D02*
G75*
G03*
X172275000Y-79145961I1079837J-1041130D01*
G01*
X174433608Y-76432665D02*
G75*
G02*
X174590516Y-79665000I-1078608J-1672335D01*
G01*
X172276392Y-76432665D02*
G75*
G03*
X172119484Y-79665000I1078608J-1672335D01*
G01*
%TO.C,D9*%
X135055000Y-82730000D02*
X137995000Y-82730000D01*
X137995000Y-82730000D02*
X137995000Y-77290000D01*
X137995000Y-77290000D02*
X135055000Y-77290000D01*
X135055000Y-77290000D02*
X135055000Y-82730000D01*
X136525000Y-83750000D02*
X136525000Y-82730000D01*
X136525000Y-76270000D02*
X136525000Y-77290000D01*
X135055000Y-81830000D02*
X137995000Y-81830000D01*
X135055000Y-81710000D02*
X137995000Y-81710000D01*
X135055000Y-81950000D02*
X137995000Y-81950000D01*
%TO.C,D8*%
X167850000Y-101440000D02*
X173950000Y-101440000D01*
X167850000Y-102540000D02*
X167850000Y-101440000D01*
X173950000Y-106840000D02*
X168950000Y-106840000D01*
%TO.C,D7*%
X158960000Y-101440000D02*
X165060000Y-101440000D01*
X158960000Y-102540000D02*
X158960000Y-101440000D01*
X165060000Y-106840000D02*
X160060000Y-106840000D01*
%TO.C,D6*%
X150070000Y-101440000D02*
X156170000Y-101440000D01*
X150070000Y-102540000D02*
X150070000Y-101440000D01*
X156170000Y-106840000D02*
X151170000Y-106840000D01*
%TO.C,D5*%
X141180000Y-101440000D02*
X147280000Y-101440000D01*
X141180000Y-102540000D02*
X141180000Y-101440000D01*
X147280000Y-106840000D02*
X142280000Y-106840000D01*
%TO.C,D4*%
X132290000Y-101440000D02*
X138390000Y-101440000D01*
X132290000Y-102540000D02*
X132290000Y-101440000D01*
X138390000Y-106840000D02*
X133390000Y-106840000D01*
%TO.C,D3*%
X123400000Y-101440000D02*
X129500000Y-101440000D01*
X123400000Y-102540000D02*
X123400000Y-101440000D01*
X129500000Y-106840000D02*
X124500000Y-106840000D01*
%TO.C,D2*%
X114510000Y-101440000D02*
X120610000Y-101440000D01*
X114510000Y-102540000D02*
X114510000Y-101440000D01*
X120610000Y-106840000D02*
X115610000Y-106840000D01*
%TO.C,D1*%
X105620000Y-101440000D02*
X111720000Y-101440000D01*
X105620000Y-102540000D02*
X105620000Y-101440000D01*
X111720000Y-106840000D02*
X106720000Y-106840000D01*
%TO.C,C2*%
X169220000Y-78065000D02*
G75*
G03*
X169220000Y-78065000I-4120000J0D01*
G01*
X169180000Y-78065000D02*
X161020000Y-78065000D01*
X169180000Y-78105000D02*
X161020000Y-78105000D01*
X169180000Y-78145000D02*
X161020000Y-78145000D01*
X169179000Y-78185000D02*
X161021000Y-78185000D01*
X169177000Y-78225000D02*
X161023000Y-78225000D01*
X169176000Y-78265000D02*
X161024000Y-78265000D01*
X169174000Y-78305000D02*
X161026000Y-78305000D01*
X169171000Y-78345000D02*
X161029000Y-78345000D01*
X169168000Y-78385000D02*
X161032000Y-78385000D01*
X169165000Y-78425000D02*
X161035000Y-78425000D01*
X169161000Y-78465000D02*
X161039000Y-78465000D01*
X169157000Y-78505000D02*
X161043000Y-78505000D01*
X169152000Y-78545000D02*
X161048000Y-78545000D01*
X169148000Y-78585000D02*
X161052000Y-78585000D01*
X169142000Y-78625000D02*
X161058000Y-78625000D01*
X169137000Y-78665000D02*
X161063000Y-78665000D01*
X169130000Y-78705000D02*
X161070000Y-78705000D01*
X169124000Y-78745000D02*
X161076000Y-78745000D01*
X169117000Y-78786000D02*
X161083000Y-78786000D01*
X169110000Y-78826000D02*
X161090000Y-78826000D01*
X169102000Y-78866000D02*
X161098000Y-78866000D01*
X169094000Y-78906000D02*
X161106000Y-78906000D01*
X169085000Y-78946000D02*
X161115000Y-78946000D01*
X169076000Y-78986000D02*
X161124000Y-78986000D01*
X169067000Y-79026000D02*
X161133000Y-79026000D01*
X169057000Y-79066000D02*
X161143000Y-79066000D01*
X169047000Y-79106000D02*
X161153000Y-79106000D01*
X169036000Y-79146000D02*
X161164000Y-79146000D01*
X169025000Y-79186000D02*
X161175000Y-79186000D01*
X169014000Y-79226000D02*
X161186000Y-79226000D01*
X169002000Y-79266000D02*
X161198000Y-79266000D01*
X168989000Y-79306000D02*
X161211000Y-79306000D01*
X168977000Y-79346000D02*
X161223000Y-79346000D01*
X168963000Y-79386000D02*
X161237000Y-79386000D01*
X168950000Y-79426000D02*
X161250000Y-79426000D01*
X168935000Y-79466000D02*
X161265000Y-79466000D01*
X168921000Y-79506000D02*
X161279000Y-79506000D01*
X168905000Y-79546000D02*
X166140000Y-79546000D01*
X164060000Y-79546000D02*
X161295000Y-79546000D01*
X168890000Y-79586000D02*
X166140000Y-79586000D01*
X164060000Y-79586000D02*
X161310000Y-79586000D01*
X168874000Y-79626000D02*
X166140000Y-79626000D01*
X164060000Y-79626000D02*
X161326000Y-79626000D01*
X168857000Y-79666000D02*
X166140000Y-79666000D01*
X164060000Y-79666000D02*
X161343000Y-79666000D01*
X168840000Y-79706000D02*
X166140000Y-79706000D01*
X164060000Y-79706000D02*
X161360000Y-79706000D01*
X168822000Y-79746000D02*
X166140000Y-79746000D01*
X164060000Y-79746000D02*
X161378000Y-79746000D01*
X168804000Y-79786000D02*
X166140000Y-79786000D01*
X164060000Y-79786000D02*
X161396000Y-79786000D01*
X168786000Y-79826000D02*
X166140000Y-79826000D01*
X164060000Y-79826000D02*
X161414000Y-79826000D01*
X168766000Y-79866000D02*
X166140000Y-79866000D01*
X164060000Y-79866000D02*
X161434000Y-79866000D01*
X168747000Y-79906000D02*
X166140000Y-79906000D01*
X164060000Y-79906000D02*
X161453000Y-79906000D01*
X168727000Y-79946000D02*
X166140000Y-79946000D01*
X164060000Y-79946000D02*
X161473000Y-79946000D01*
X168706000Y-79986000D02*
X166140000Y-79986000D01*
X164060000Y-79986000D02*
X161494000Y-79986000D01*
X168684000Y-80026000D02*
X166140000Y-80026000D01*
X164060000Y-80026000D02*
X161516000Y-80026000D01*
X168662000Y-80066000D02*
X166140000Y-80066000D01*
X164060000Y-80066000D02*
X161538000Y-80066000D01*
X168640000Y-80106000D02*
X166140000Y-80106000D01*
X164060000Y-80106000D02*
X161560000Y-80106000D01*
X168617000Y-80146000D02*
X166140000Y-80146000D01*
X164060000Y-80146000D02*
X161583000Y-80146000D01*
X168593000Y-80186000D02*
X166140000Y-80186000D01*
X164060000Y-80186000D02*
X161607000Y-80186000D01*
X168569000Y-80226000D02*
X166140000Y-80226000D01*
X164060000Y-80226000D02*
X161631000Y-80226000D01*
X168544000Y-80266000D02*
X166140000Y-80266000D01*
X164060000Y-80266000D02*
X161656000Y-80266000D01*
X168518000Y-80306000D02*
X166140000Y-80306000D01*
X164060000Y-80306000D02*
X161682000Y-80306000D01*
X168492000Y-80346000D02*
X166140000Y-80346000D01*
X164060000Y-80346000D02*
X161708000Y-80346000D01*
X168465000Y-80386000D02*
X166140000Y-80386000D01*
X164060000Y-80386000D02*
X161735000Y-80386000D01*
X168438000Y-80426000D02*
X166140000Y-80426000D01*
X164060000Y-80426000D02*
X161762000Y-80426000D01*
X168409000Y-80466000D02*
X166140000Y-80466000D01*
X164060000Y-80466000D02*
X161791000Y-80466000D01*
X168380000Y-80506000D02*
X166140000Y-80506000D01*
X164060000Y-80506000D02*
X161820000Y-80506000D01*
X168350000Y-80546000D02*
X166140000Y-80546000D01*
X164060000Y-80546000D02*
X161850000Y-80546000D01*
X168320000Y-80586000D02*
X166140000Y-80586000D01*
X164060000Y-80586000D02*
X161880000Y-80586000D01*
X168289000Y-80626000D02*
X166140000Y-80626000D01*
X164060000Y-80626000D02*
X161911000Y-80626000D01*
X168256000Y-80666000D02*
X166140000Y-80666000D01*
X164060000Y-80666000D02*
X161944000Y-80666000D01*
X168224000Y-80706000D02*
X166140000Y-80706000D01*
X164060000Y-80706000D02*
X161976000Y-80706000D01*
X168190000Y-80746000D02*
X166140000Y-80746000D01*
X164060000Y-80746000D02*
X162010000Y-80746000D01*
X168155000Y-80786000D02*
X166140000Y-80786000D01*
X164060000Y-80786000D02*
X162045000Y-80786000D01*
X168119000Y-80826000D02*
X166140000Y-80826000D01*
X164060000Y-80826000D02*
X162081000Y-80826000D01*
X168083000Y-80866000D02*
X166140000Y-80866000D01*
X164060000Y-80866000D02*
X162117000Y-80866000D01*
X168045000Y-80906000D02*
X166140000Y-80906000D01*
X164060000Y-80906000D02*
X162155000Y-80906000D01*
X168007000Y-80946000D02*
X166140000Y-80946000D01*
X164060000Y-80946000D02*
X162193000Y-80946000D01*
X167967000Y-80986000D02*
X166140000Y-80986000D01*
X164060000Y-80986000D02*
X162233000Y-80986000D01*
X167926000Y-81026000D02*
X166140000Y-81026000D01*
X164060000Y-81026000D02*
X162274000Y-81026000D01*
X167884000Y-81066000D02*
X166140000Y-81066000D01*
X164060000Y-81066000D02*
X162316000Y-81066000D01*
X167841000Y-81106000D02*
X166140000Y-81106000D01*
X164060000Y-81106000D02*
X162359000Y-81106000D01*
X167797000Y-81146000D02*
X166140000Y-81146000D01*
X164060000Y-81146000D02*
X162403000Y-81146000D01*
X167751000Y-81186000D02*
X166140000Y-81186000D01*
X164060000Y-81186000D02*
X162449000Y-81186000D01*
X167704000Y-81226000D02*
X166140000Y-81226000D01*
X164060000Y-81226000D02*
X162496000Y-81226000D01*
X167656000Y-81266000D02*
X166140000Y-81266000D01*
X164060000Y-81266000D02*
X162544000Y-81266000D01*
X167605000Y-81306000D02*
X166140000Y-81306000D01*
X164060000Y-81306000D02*
X162595000Y-81306000D01*
X167554000Y-81346000D02*
X166140000Y-81346000D01*
X164060000Y-81346000D02*
X162646000Y-81346000D01*
X167500000Y-81386000D02*
X166140000Y-81386000D01*
X164060000Y-81386000D02*
X162700000Y-81386000D01*
X167445000Y-81426000D02*
X166140000Y-81426000D01*
X164060000Y-81426000D02*
X162755000Y-81426000D01*
X167387000Y-81466000D02*
X166140000Y-81466000D01*
X164060000Y-81466000D02*
X162813000Y-81466000D01*
X167328000Y-81506000D02*
X166140000Y-81506000D01*
X164060000Y-81506000D02*
X162872000Y-81506000D01*
X167266000Y-81546000D02*
X166140000Y-81546000D01*
X164060000Y-81546000D02*
X162934000Y-81546000D01*
X167202000Y-81586000D02*
X166140000Y-81586000D01*
X164060000Y-81586000D02*
X162998000Y-81586000D01*
X167134000Y-81626000D02*
X163066000Y-81626000D01*
X167064000Y-81666000D02*
X163136000Y-81666000D01*
X166990000Y-81706000D02*
X163210000Y-81706000D01*
X166913000Y-81746000D02*
X163287000Y-81746000D01*
X166831000Y-81786000D02*
X163369000Y-81786000D01*
X166745000Y-81826000D02*
X163455000Y-81826000D01*
X166652000Y-81866000D02*
X163548000Y-81866000D01*
X166553000Y-81906000D02*
X163647000Y-81906000D01*
X166446000Y-81946000D02*
X163754000Y-81946000D01*
X166329000Y-81986000D02*
X163871000Y-81986000D01*
X166198000Y-82026000D02*
X164002000Y-82026000D01*
X166048000Y-82066000D02*
X164152000Y-82066000D01*
X165868000Y-82106000D02*
X164332000Y-82106000D01*
X165633000Y-82146000D02*
X164567000Y-82146000D01*
X167415000Y-73655302D02*
X167415000Y-74455302D01*
X167815000Y-74055302D02*
X167015000Y-74055302D01*
%TO.C,C1*%
X150805000Y-78145000D02*
G75*
G03*
X150805000Y-78145000I-4120000J0D01*
G01*
X142605000Y-78145000D02*
X150765000Y-78145000D01*
X142605000Y-78105000D02*
X150765000Y-78105000D01*
X142605000Y-78065000D02*
X150765000Y-78065000D01*
X142606000Y-78025000D02*
X150764000Y-78025000D01*
X142608000Y-77985000D02*
X150762000Y-77985000D01*
X142609000Y-77945000D02*
X150761000Y-77945000D01*
X142611000Y-77905000D02*
X150759000Y-77905000D01*
X142614000Y-77865000D02*
X150756000Y-77865000D01*
X142617000Y-77825000D02*
X150753000Y-77825000D01*
X142620000Y-77785000D02*
X150750000Y-77785000D01*
X142624000Y-77745000D02*
X150746000Y-77745000D01*
X142628000Y-77705000D02*
X150742000Y-77705000D01*
X142633000Y-77665000D02*
X150737000Y-77665000D01*
X142637000Y-77625000D02*
X150733000Y-77625000D01*
X142643000Y-77585000D02*
X150727000Y-77585000D01*
X142648000Y-77545000D02*
X150722000Y-77545000D01*
X142655000Y-77505000D02*
X150715000Y-77505000D01*
X142661000Y-77465000D02*
X150709000Y-77465000D01*
X142668000Y-77424000D02*
X150702000Y-77424000D01*
X142675000Y-77384000D02*
X150695000Y-77384000D01*
X142683000Y-77344000D02*
X150687000Y-77344000D01*
X142691000Y-77304000D02*
X150679000Y-77304000D01*
X142700000Y-77264000D02*
X150670000Y-77264000D01*
X142709000Y-77224000D02*
X150661000Y-77224000D01*
X142718000Y-77184000D02*
X150652000Y-77184000D01*
X142728000Y-77144000D02*
X150642000Y-77144000D01*
X142738000Y-77104000D02*
X150632000Y-77104000D01*
X142749000Y-77064000D02*
X150621000Y-77064000D01*
X142760000Y-77024000D02*
X150610000Y-77024000D01*
X142771000Y-76984000D02*
X150599000Y-76984000D01*
X142783000Y-76944000D02*
X150587000Y-76944000D01*
X142796000Y-76904000D02*
X150574000Y-76904000D01*
X142808000Y-76864000D02*
X150562000Y-76864000D01*
X142822000Y-76824000D02*
X150548000Y-76824000D01*
X142835000Y-76784000D02*
X150535000Y-76784000D01*
X142850000Y-76744000D02*
X150520000Y-76744000D01*
X142864000Y-76704000D02*
X150506000Y-76704000D01*
X142880000Y-76664000D02*
X145645000Y-76664000D01*
X147725000Y-76664000D02*
X150490000Y-76664000D01*
X142895000Y-76624000D02*
X145645000Y-76624000D01*
X147725000Y-76624000D02*
X150475000Y-76624000D01*
X142911000Y-76584000D02*
X145645000Y-76584000D01*
X147725000Y-76584000D02*
X150459000Y-76584000D01*
X142928000Y-76544000D02*
X145645000Y-76544000D01*
X147725000Y-76544000D02*
X150442000Y-76544000D01*
X142945000Y-76504000D02*
X145645000Y-76504000D01*
X147725000Y-76504000D02*
X150425000Y-76504000D01*
X142963000Y-76464000D02*
X145645000Y-76464000D01*
X147725000Y-76464000D02*
X150407000Y-76464000D01*
X142981000Y-76424000D02*
X145645000Y-76424000D01*
X147725000Y-76424000D02*
X150389000Y-76424000D01*
X142999000Y-76384000D02*
X145645000Y-76384000D01*
X147725000Y-76384000D02*
X150371000Y-76384000D01*
X143019000Y-76344000D02*
X145645000Y-76344000D01*
X147725000Y-76344000D02*
X150351000Y-76344000D01*
X143038000Y-76304000D02*
X145645000Y-76304000D01*
X147725000Y-76304000D02*
X150332000Y-76304000D01*
X143058000Y-76264000D02*
X145645000Y-76264000D01*
X147725000Y-76264000D02*
X150312000Y-76264000D01*
X143079000Y-76224000D02*
X145645000Y-76224000D01*
X147725000Y-76224000D02*
X150291000Y-76224000D01*
X143101000Y-76184000D02*
X145645000Y-76184000D01*
X147725000Y-76184000D02*
X150269000Y-76184000D01*
X143123000Y-76144000D02*
X145645000Y-76144000D01*
X147725000Y-76144000D02*
X150247000Y-76144000D01*
X143145000Y-76104000D02*
X145645000Y-76104000D01*
X147725000Y-76104000D02*
X150225000Y-76104000D01*
X143168000Y-76064000D02*
X145645000Y-76064000D01*
X147725000Y-76064000D02*
X150202000Y-76064000D01*
X143192000Y-76024000D02*
X145645000Y-76024000D01*
X147725000Y-76024000D02*
X150178000Y-76024000D01*
X143216000Y-75984000D02*
X145645000Y-75984000D01*
X147725000Y-75984000D02*
X150154000Y-75984000D01*
X143241000Y-75944000D02*
X145645000Y-75944000D01*
X147725000Y-75944000D02*
X150129000Y-75944000D01*
X143267000Y-75904000D02*
X145645000Y-75904000D01*
X147725000Y-75904000D02*
X150103000Y-75904000D01*
X143293000Y-75864000D02*
X145645000Y-75864000D01*
X147725000Y-75864000D02*
X150077000Y-75864000D01*
X143320000Y-75824000D02*
X145645000Y-75824000D01*
X147725000Y-75824000D02*
X150050000Y-75824000D01*
X143347000Y-75784000D02*
X145645000Y-75784000D01*
X147725000Y-75784000D02*
X150023000Y-75784000D01*
X143376000Y-75744000D02*
X145645000Y-75744000D01*
X147725000Y-75744000D02*
X149994000Y-75744000D01*
X143405000Y-75704000D02*
X145645000Y-75704000D01*
X147725000Y-75704000D02*
X149965000Y-75704000D01*
X143435000Y-75664000D02*
X145645000Y-75664000D01*
X147725000Y-75664000D02*
X149935000Y-75664000D01*
X143465000Y-75624000D02*
X145645000Y-75624000D01*
X147725000Y-75624000D02*
X149905000Y-75624000D01*
X143496000Y-75584000D02*
X145645000Y-75584000D01*
X147725000Y-75584000D02*
X149874000Y-75584000D01*
X143529000Y-75544000D02*
X145645000Y-75544000D01*
X147725000Y-75544000D02*
X149841000Y-75544000D01*
X143561000Y-75504000D02*
X145645000Y-75504000D01*
X147725000Y-75504000D02*
X149809000Y-75504000D01*
X143595000Y-75464000D02*
X145645000Y-75464000D01*
X147725000Y-75464000D02*
X149775000Y-75464000D01*
X143630000Y-75424000D02*
X145645000Y-75424000D01*
X147725000Y-75424000D02*
X149740000Y-75424000D01*
X143666000Y-75384000D02*
X145645000Y-75384000D01*
X147725000Y-75384000D02*
X149704000Y-75384000D01*
X143702000Y-75344000D02*
X145645000Y-75344000D01*
X147725000Y-75344000D02*
X149668000Y-75344000D01*
X143740000Y-75304000D02*
X145645000Y-75304000D01*
X147725000Y-75304000D02*
X149630000Y-75304000D01*
X143778000Y-75264000D02*
X145645000Y-75264000D01*
X147725000Y-75264000D02*
X149592000Y-75264000D01*
X143818000Y-75224000D02*
X145645000Y-75224000D01*
X147725000Y-75224000D02*
X149552000Y-75224000D01*
X143859000Y-75184000D02*
X145645000Y-75184000D01*
X147725000Y-75184000D02*
X149511000Y-75184000D01*
X143901000Y-75144000D02*
X145645000Y-75144000D01*
X147725000Y-75144000D02*
X149469000Y-75144000D01*
X143944000Y-75104000D02*
X145645000Y-75104000D01*
X147725000Y-75104000D02*
X149426000Y-75104000D01*
X143988000Y-75064000D02*
X145645000Y-75064000D01*
X147725000Y-75064000D02*
X149382000Y-75064000D01*
X144034000Y-75024000D02*
X145645000Y-75024000D01*
X147725000Y-75024000D02*
X149336000Y-75024000D01*
X144081000Y-74984000D02*
X145645000Y-74984000D01*
X147725000Y-74984000D02*
X149289000Y-74984000D01*
X144129000Y-74944000D02*
X145645000Y-74944000D01*
X147725000Y-74944000D02*
X149241000Y-74944000D01*
X144180000Y-74904000D02*
X145645000Y-74904000D01*
X147725000Y-74904000D02*
X149190000Y-74904000D01*
X144231000Y-74864000D02*
X145645000Y-74864000D01*
X147725000Y-74864000D02*
X149139000Y-74864000D01*
X144285000Y-74824000D02*
X145645000Y-74824000D01*
X147725000Y-74824000D02*
X149085000Y-74824000D01*
X144340000Y-74784000D02*
X145645000Y-74784000D01*
X147725000Y-74784000D02*
X149030000Y-74784000D01*
X144398000Y-74744000D02*
X145645000Y-74744000D01*
X147725000Y-74744000D02*
X148972000Y-74744000D01*
X144457000Y-74704000D02*
X145645000Y-74704000D01*
X147725000Y-74704000D02*
X148913000Y-74704000D01*
X144519000Y-74664000D02*
X145645000Y-74664000D01*
X147725000Y-74664000D02*
X148851000Y-74664000D01*
X144583000Y-74624000D02*
X145645000Y-74624000D01*
X147725000Y-74624000D02*
X148787000Y-74624000D01*
X144651000Y-74584000D02*
X148719000Y-74584000D01*
X144721000Y-74544000D02*
X148649000Y-74544000D01*
X144795000Y-74504000D02*
X148575000Y-74504000D01*
X144872000Y-74464000D02*
X148498000Y-74464000D01*
X144954000Y-74424000D02*
X148416000Y-74424000D01*
X145040000Y-74384000D02*
X148330000Y-74384000D01*
X145133000Y-74344000D02*
X148237000Y-74344000D01*
X145232000Y-74304000D02*
X148138000Y-74304000D01*
X145339000Y-74264000D02*
X148031000Y-74264000D01*
X145456000Y-74224000D02*
X147914000Y-74224000D01*
X145587000Y-74184000D02*
X147783000Y-74184000D01*
X145737000Y-74144000D02*
X147633000Y-74144000D01*
X145917000Y-74104000D02*
X147453000Y-74104000D01*
X146152000Y-74064000D02*
X147218000Y-74064000D01*
X144370000Y-82554698D02*
X144370000Y-81754698D01*
X143970000Y-82154698D02*
X144770000Y-82154698D01*
%TO.C,BT1*%
X109450000Y-81111000D02*
X110220000Y-81111000D01*
X113300000Y-81111000D02*
X114127000Y-81111000D01*
X116394000Y-81111000D02*
X117570000Y-81111000D01*
X109450000Y-76250000D02*
X117570000Y-76250000D01*
X109450000Y-84670000D02*
X117570000Y-84670000D01*
X109450000Y-76250000D02*
X109450000Y-84670000D01*
X117570000Y-76250000D02*
X117570000Y-84670000D01*
X110360000Y-77010000D02*
X113160000Y-77010000D01*
X110360000Y-77010000D02*
X110360000Y-78470000D01*
X113160000Y-77010000D02*
X113160000Y-78470000D01*
X113860000Y-77010000D02*
X116660000Y-77010000D01*
X113860000Y-80760000D02*
X113861000Y-80760000D01*
X116660000Y-80760000D02*
X116660000Y-80760000D01*
X113860000Y-77010000D02*
X113860000Y-79321000D01*
X113860000Y-80699000D02*
X113860000Y-80760000D01*
X116660000Y-77010000D02*
X116660000Y-79321000D01*
X116660000Y-80699000D02*
X116660000Y-80760000D01*
X109210000Y-82670000D02*
X109210000Y-84910000D01*
X109210000Y-84910000D02*
X111210000Y-84910000D01*
X114320085Y-78752233D02*
G75*
G02*
X116200000Y-78752000I939915J342233D01*
G01*
X110762110Y-78480566D02*
G75*
G02*
X112758000Y-78479000I997890J70566D01*
G01*
%TO.C,C12*%
D11*
X142232142Y-99417142D02*
X142184523Y-99464761D01*
X142041666Y-99512380D01*
X141946428Y-99512380D01*
X141803571Y-99464761D01*
X141708333Y-99369523D01*
X141660714Y-99274285D01*
X141613095Y-99083809D01*
X141613095Y-98940952D01*
X141660714Y-98750476D01*
X141708333Y-98655238D01*
X141803571Y-98560000D01*
X141946428Y-98512380D01*
X142041666Y-98512380D01*
X142184523Y-98560000D01*
X142232142Y-98607619D01*
X143184523Y-99512380D02*
X142613095Y-99512380D01*
X142898809Y-99512380D02*
X142898809Y-98512380D01*
X142803571Y-98655238D01*
X142708333Y-98750476D01*
X142613095Y-98798095D01*
X143565476Y-98607619D02*
X143613095Y-98560000D01*
X143708333Y-98512380D01*
X143946428Y-98512380D01*
X144041666Y-98560000D01*
X144089285Y-98607619D01*
X144136904Y-98702857D01*
X144136904Y-98798095D01*
X144089285Y-98940952D01*
X143517857Y-99512380D01*
X144136904Y-99512380D01*
%TO.C,C11*%
X143099642Y-86844142D02*
X143052023Y-86891761D01*
X142909166Y-86939380D01*
X142813928Y-86939380D01*
X142671071Y-86891761D01*
X142575833Y-86796523D01*
X142528214Y-86701285D01*
X142480595Y-86510809D01*
X142480595Y-86367952D01*
X142528214Y-86177476D01*
X142575833Y-86082238D01*
X142671071Y-85987000D01*
X142813928Y-85939380D01*
X142909166Y-85939380D01*
X143052023Y-85987000D01*
X143099642Y-86034619D01*
X144052023Y-86939380D02*
X143480595Y-86939380D01*
X143766309Y-86939380D02*
X143766309Y-85939380D01*
X143671071Y-86082238D01*
X143575833Y-86177476D01*
X143480595Y-86225095D01*
X145004404Y-86939380D02*
X144432976Y-86939380D01*
X144718690Y-86939380D02*
X144718690Y-85939380D01*
X144623452Y-86082238D01*
X144528214Y-86177476D01*
X144432976Y-86225095D01*
%TO.C,C10*%
X170807142Y-111257142D02*
X170759523Y-111304761D01*
X170616666Y-111352380D01*
X170521428Y-111352380D01*
X170378571Y-111304761D01*
X170283333Y-111209523D01*
X170235714Y-111114285D01*
X170188095Y-110923809D01*
X170188095Y-110780952D01*
X170235714Y-110590476D01*
X170283333Y-110495238D01*
X170378571Y-110400000D01*
X170521428Y-110352380D01*
X170616666Y-110352380D01*
X170759523Y-110400000D01*
X170807142Y-110447619D01*
X171759523Y-111352380D02*
X171188095Y-111352380D01*
X171473809Y-111352380D02*
X171473809Y-110352380D01*
X171378571Y-110495238D01*
X171283333Y-110590476D01*
X171188095Y-110638095D01*
X172378571Y-110352380D02*
X172473809Y-110352380D01*
X172569047Y-110400000D01*
X172616666Y-110447619D01*
X172664285Y-110542857D01*
X172711904Y-110733333D01*
X172711904Y-110971428D01*
X172664285Y-111161904D01*
X172616666Y-111257142D01*
X172569047Y-111304761D01*
X172473809Y-111352380D01*
X172378571Y-111352380D01*
X172283333Y-111304761D01*
X172235714Y-111257142D01*
X172188095Y-111161904D01*
X172140476Y-110971428D01*
X172140476Y-110733333D01*
X172188095Y-110542857D01*
X172235714Y-110447619D01*
X172283333Y-110400000D01*
X172378571Y-110352380D01*
%TO.C,C9*%
X162393333Y-111257142D02*
X162345714Y-111304761D01*
X162202857Y-111352380D01*
X162107619Y-111352380D01*
X161964761Y-111304761D01*
X161869523Y-111209523D01*
X161821904Y-111114285D01*
X161774285Y-110923809D01*
X161774285Y-110780952D01*
X161821904Y-110590476D01*
X161869523Y-110495238D01*
X161964761Y-110400000D01*
X162107619Y-110352380D01*
X162202857Y-110352380D01*
X162345714Y-110400000D01*
X162393333Y-110447619D01*
X162869523Y-111352380D02*
X163060000Y-111352380D01*
X163155238Y-111304761D01*
X163202857Y-111257142D01*
X163298095Y-111114285D01*
X163345714Y-110923809D01*
X163345714Y-110542857D01*
X163298095Y-110447619D01*
X163250476Y-110400000D01*
X163155238Y-110352380D01*
X162964761Y-110352380D01*
X162869523Y-110400000D01*
X162821904Y-110447619D01*
X162774285Y-110542857D01*
X162774285Y-110780952D01*
X162821904Y-110876190D01*
X162869523Y-110923809D01*
X162964761Y-110971428D01*
X163155238Y-110971428D01*
X163250476Y-110923809D01*
X163298095Y-110876190D01*
X163345714Y-110780952D01*
%TO.C,C8*%
X153503333Y-111257142D02*
X153455714Y-111304761D01*
X153312857Y-111352380D01*
X153217619Y-111352380D01*
X153074761Y-111304761D01*
X152979523Y-111209523D01*
X152931904Y-111114285D01*
X152884285Y-110923809D01*
X152884285Y-110780952D01*
X152931904Y-110590476D01*
X152979523Y-110495238D01*
X153074761Y-110400000D01*
X153217619Y-110352380D01*
X153312857Y-110352380D01*
X153455714Y-110400000D01*
X153503333Y-110447619D01*
X154074761Y-110780952D02*
X153979523Y-110733333D01*
X153931904Y-110685714D01*
X153884285Y-110590476D01*
X153884285Y-110542857D01*
X153931904Y-110447619D01*
X153979523Y-110400000D01*
X154074761Y-110352380D01*
X154265238Y-110352380D01*
X154360476Y-110400000D01*
X154408095Y-110447619D01*
X154455714Y-110542857D01*
X154455714Y-110590476D01*
X154408095Y-110685714D01*
X154360476Y-110733333D01*
X154265238Y-110780952D01*
X154074761Y-110780952D01*
X153979523Y-110828571D01*
X153931904Y-110876190D01*
X153884285Y-110971428D01*
X153884285Y-111161904D01*
X153931904Y-111257142D01*
X153979523Y-111304761D01*
X154074761Y-111352380D01*
X154265238Y-111352380D01*
X154360476Y-111304761D01*
X154408095Y-111257142D01*
X154455714Y-111161904D01*
X154455714Y-110971428D01*
X154408095Y-110876190D01*
X154360476Y-110828571D01*
X154265238Y-110780952D01*
%TO.C,C7*%
X144613333Y-111257142D02*
X144565714Y-111304761D01*
X144422857Y-111352380D01*
X144327619Y-111352380D01*
X144184761Y-111304761D01*
X144089523Y-111209523D01*
X144041904Y-111114285D01*
X143994285Y-110923809D01*
X143994285Y-110780952D01*
X144041904Y-110590476D01*
X144089523Y-110495238D01*
X144184761Y-110400000D01*
X144327619Y-110352380D01*
X144422857Y-110352380D01*
X144565714Y-110400000D01*
X144613333Y-110447619D01*
X144946666Y-110352380D02*
X145613333Y-110352380D01*
X145184761Y-111352380D01*
%TO.C,C6*%
X135723333Y-111257142D02*
X135675714Y-111304761D01*
X135532857Y-111352380D01*
X135437619Y-111352380D01*
X135294761Y-111304761D01*
X135199523Y-111209523D01*
X135151904Y-111114285D01*
X135104285Y-110923809D01*
X135104285Y-110780952D01*
X135151904Y-110590476D01*
X135199523Y-110495238D01*
X135294761Y-110400000D01*
X135437619Y-110352380D01*
X135532857Y-110352380D01*
X135675714Y-110400000D01*
X135723333Y-110447619D01*
X136580476Y-110352380D02*
X136390000Y-110352380D01*
X136294761Y-110400000D01*
X136247142Y-110447619D01*
X136151904Y-110590476D01*
X136104285Y-110780952D01*
X136104285Y-111161904D01*
X136151904Y-111257142D01*
X136199523Y-111304761D01*
X136294761Y-111352380D01*
X136485238Y-111352380D01*
X136580476Y-111304761D01*
X136628095Y-111257142D01*
X136675714Y-111161904D01*
X136675714Y-110923809D01*
X136628095Y-110828571D01*
X136580476Y-110780952D01*
X136485238Y-110733333D01*
X136294761Y-110733333D01*
X136199523Y-110780952D01*
X136151904Y-110828571D01*
X136104285Y-110923809D01*
%TO.C,C5*%
X126833333Y-111257142D02*
X126785714Y-111304761D01*
X126642857Y-111352380D01*
X126547619Y-111352380D01*
X126404761Y-111304761D01*
X126309523Y-111209523D01*
X126261904Y-111114285D01*
X126214285Y-110923809D01*
X126214285Y-110780952D01*
X126261904Y-110590476D01*
X126309523Y-110495238D01*
X126404761Y-110400000D01*
X126547619Y-110352380D01*
X126642857Y-110352380D01*
X126785714Y-110400000D01*
X126833333Y-110447619D01*
X127738095Y-110352380D02*
X127261904Y-110352380D01*
X127214285Y-110828571D01*
X127261904Y-110780952D01*
X127357142Y-110733333D01*
X127595238Y-110733333D01*
X127690476Y-110780952D01*
X127738095Y-110828571D01*
X127785714Y-110923809D01*
X127785714Y-111161904D01*
X127738095Y-111257142D01*
X127690476Y-111304761D01*
X127595238Y-111352380D01*
X127357142Y-111352380D01*
X127261904Y-111304761D01*
X127214285Y-111257142D01*
%TO.C,C4*%
X117943333Y-111257142D02*
X117895714Y-111304761D01*
X117752857Y-111352380D01*
X117657619Y-111352380D01*
X117514761Y-111304761D01*
X117419523Y-111209523D01*
X117371904Y-111114285D01*
X117324285Y-110923809D01*
X117324285Y-110780952D01*
X117371904Y-110590476D01*
X117419523Y-110495238D01*
X117514761Y-110400000D01*
X117657619Y-110352380D01*
X117752857Y-110352380D01*
X117895714Y-110400000D01*
X117943333Y-110447619D01*
X118800476Y-110685714D02*
X118800476Y-111352380D01*
X118562380Y-110304761D02*
X118324285Y-111019047D01*
X118943333Y-111019047D01*
%TO.C,C3*%
X109053333Y-111257142D02*
X109005714Y-111304761D01*
X108862857Y-111352380D01*
X108767619Y-111352380D01*
X108624761Y-111304761D01*
X108529523Y-111209523D01*
X108481904Y-111114285D01*
X108434285Y-110923809D01*
X108434285Y-110780952D01*
X108481904Y-110590476D01*
X108529523Y-110495238D01*
X108624761Y-110400000D01*
X108767619Y-110352380D01*
X108862857Y-110352380D01*
X109005714Y-110400000D01*
X109053333Y-110447619D01*
X109386666Y-110352380D02*
X110005714Y-110352380D01*
X109672380Y-110733333D01*
X109815238Y-110733333D01*
X109910476Y-110780952D01*
X109958095Y-110828571D01*
X110005714Y-110923809D01*
X110005714Y-111161904D01*
X109958095Y-111257142D01*
X109910476Y-111304761D01*
X109815238Y-111352380D01*
X109529523Y-111352380D01*
X109434285Y-111304761D01*
X109386666Y-111257142D01*
%TO.C,J1*%
X173021666Y-97242380D02*
X173021666Y-97956666D01*
X172974047Y-98099523D01*
X172878809Y-98194761D01*
X172735952Y-98242380D01*
X172640714Y-98242380D01*
X174021666Y-98242380D02*
X173450238Y-98242380D01*
X173735952Y-98242380D02*
X173735952Y-97242380D01*
X173640714Y-97385238D01*
X173545476Y-97480476D01*
X173450238Y-97528095D01*
%TO.C,U2*%
X154813095Y-84542380D02*
X154813095Y-85351904D01*
X154860714Y-85447142D01*
X154908333Y-85494761D01*
X155003571Y-85542380D01*
X155194047Y-85542380D01*
X155289285Y-85494761D01*
X155336904Y-85447142D01*
X155384523Y-85351904D01*
X155384523Y-84542380D01*
X155813095Y-84637619D02*
X155860714Y-84590000D01*
X155955952Y-84542380D01*
X156194047Y-84542380D01*
X156289285Y-84590000D01*
X156336904Y-84637619D01*
X156384523Y-84732857D01*
X156384523Y-84828095D01*
X156336904Y-84970952D01*
X155765476Y-85542380D01*
X156384523Y-85542380D01*
%TO.C,U1*%
X158627380Y-93471904D02*
X159436904Y-93471904D01*
X159532142Y-93424285D01*
X159579761Y-93376666D01*
X159627380Y-93281428D01*
X159627380Y-93090952D01*
X159579761Y-92995714D01*
X159532142Y-92948095D01*
X159436904Y-92900476D01*
X158627380Y-92900476D01*
X159627380Y-91900476D02*
X159627380Y-92471904D01*
X159627380Y-92186190D02*
X158627380Y-92186190D01*
X158770238Y-92281428D01*
X158865476Y-92376666D01*
X158913095Y-92471904D01*
%TO.C,SW1*%
X124841666Y-85621761D02*
X124984523Y-85669380D01*
X125222619Y-85669380D01*
X125317857Y-85621761D01*
X125365476Y-85574142D01*
X125413095Y-85478904D01*
X125413095Y-85383666D01*
X125365476Y-85288428D01*
X125317857Y-85240809D01*
X125222619Y-85193190D01*
X125032142Y-85145571D01*
X124936904Y-85097952D01*
X124889285Y-85050333D01*
X124841666Y-84955095D01*
X124841666Y-84859857D01*
X124889285Y-84764619D01*
X124936904Y-84717000D01*
X125032142Y-84669380D01*
X125270238Y-84669380D01*
X125413095Y-84717000D01*
X125746428Y-84669380D02*
X125984523Y-85669380D01*
X126175000Y-84955095D01*
X126365476Y-85669380D01*
X126603571Y-84669380D01*
X127508333Y-85669380D02*
X126936904Y-85669380D01*
X127222619Y-85669380D02*
X127222619Y-84669380D01*
X127127380Y-84812238D01*
X127032142Y-84907476D01*
X126936904Y-84955095D01*
%TO.C,R1*%
X168743333Y-84907380D02*
X168410000Y-84431190D01*
X168171904Y-84907380D02*
X168171904Y-83907380D01*
X168552857Y-83907380D01*
X168648095Y-83955000D01*
X168695714Y-84002619D01*
X168743333Y-84097857D01*
X168743333Y-84240714D01*
X168695714Y-84335952D01*
X168648095Y-84383571D01*
X168552857Y-84431190D01*
X168171904Y-84431190D01*
X169695714Y-84907380D02*
X169124285Y-84907380D01*
X169410000Y-84907380D02*
X169410000Y-83907380D01*
X169314761Y-84050238D01*
X169219523Y-84145476D01*
X169124285Y-84193095D01*
%TO.C,D10*%
X172140714Y-82367380D02*
X172140714Y-81367380D01*
X172378809Y-81367380D01*
X172521666Y-81415000D01*
X172616904Y-81510238D01*
X172664523Y-81605476D01*
X172712142Y-81795952D01*
X172712142Y-81938809D01*
X172664523Y-82129285D01*
X172616904Y-82224523D01*
X172521666Y-82319761D01*
X172378809Y-82367380D01*
X172140714Y-82367380D01*
X173664523Y-82367380D02*
X173093095Y-82367380D01*
X173378809Y-82367380D02*
X173378809Y-81367380D01*
X173283571Y-81510238D01*
X173188333Y-81605476D01*
X173093095Y-81653095D01*
X174283571Y-81367380D02*
X174378809Y-81367380D01*
X174474047Y-81415000D01*
X174521666Y-81462619D01*
X174569285Y-81557857D01*
X174616904Y-81748333D01*
X174616904Y-81986428D01*
X174569285Y-82176904D01*
X174521666Y-82272142D01*
X174474047Y-82319761D01*
X174378809Y-82367380D01*
X174283571Y-82367380D01*
X174188333Y-82319761D01*
X174140714Y-82272142D01*
X174093095Y-82176904D01*
X174045476Y-81986428D01*
X174045476Y-81748333D01*
X174093095Y-81557857D01*
X174140714Y-81462619D01*
X174188333Y-81415000D01*
X174283571Y-81367380D01*
%TO.C,D9*%
X138453904Y-80208380D02*
X138453904Y-79208380D01*
X138692000Y-79208380D01*
X138834857Y-79256000D01*
X138930095Y-79351238D01*
X138977714Y-79446476D01*
X139025333Y-79636952D01*
X139025333Y-79779809D01*
X138977714Y-79970285D01*
X138930095Y-80065523D01*
X138834857Y-80160761D01*
X138692000Y-80208380D01*
X138453904Y-80208380D01*
X139501523Y-80208380D02*
X139692000Y-80208380D01*
X139787238Y-80160761D01*
X139834857Y-80113142D01*
X139930095Y-79970285D01*
X139977714Y-79779809D01*
X139977714Y-79398857D01*
X139930095Y-79303619D01*
X139882476Y-79256000D01*
X139787238Y-79208380D01*
X139596761Y-79208380D01*
X139501523Y-79256000D01*
X139453904Y-79303619D01*
X139406285Y-79398857D01*
X139406285Y-79636952D01*
X139453904Y-79732190D01*
X139501523Y-79779809D01*
X139596761Y-79827428D01*
X139787238Y-79827428D01*
X139882476Y-79779809D01*
X139930095Y-79732190D01*
X139977714Y-79636952D01*
X134163095Y-85542380D02*
X134163095Y-84542380D01*
X134734523Y-85542380D02*
X134305952Y-84970952D01*
X134734523Y-84542380D02*
X134163095Y-85113809D01*
%TO.C,D8*%
X170711904Y-101092380D02*
X170711904Y-100092380D01*
X170950000Y-100092380D01*
X171092857Y-100140000D01*
X171188095Y-100235238D01*
X171235714Y-100330476D01*
X171283333Y-100520952D01*
X171283333Y-100663809D01*
X171235714Y-100854285D01*
X171188095Y-100949523D01*
X171092857Y-101044761D01*
X170950000Y-101092380D01*
X170711904Y-101092380D01*
X171854761Y-100520952D02*
X171759523Y-100473333D01*
X171711904Y-100425714D01*
X171664285Y-100330476D01*
X171664285Y-100282857D01*
X171711904Y-100187619D01*
X171759523Y-100140000D01*
X171854761Y-100092380D01*
X172045238Y-100092380D01*
X172140476Y-100140000D01*
X172188095Y-100187619D01*
X172235714Y-100282857D01*
X172235714Y-100330476D01*
X172188095Y-100425714D01*
X172140476Y-100473333D01*
X172045238Y-100520952D01*
X171854761Y-100520952D01*
X171759523Y-100568571D01*
X171711904Y-100616190D01*
X171664285Y-100711428D01*
X171664285Y-100901904D01*
X171711904Y-100997142D01*
X171759523Y-101044761D01*
X171854761Y-101092380D01*
X172045238Y-101092380D01*
X172140476Y-101044761D01*
X172188095Y-100997142D01*
X172235714Y-100901904D01*
X172235714Y-100711428D01*
X172188095Y-100616190D01*
X172140476Y-100568571D01*
X172045238Y-100520952D01*
%TO.C,D7*%
X161821904Y-101092380D02*
X161821904Y-100092380D01*
X162060000Y-100092380D01*
X162202857Y-100140000D01*
X162298095Y-100235238D01*
X162345714Y-100330476D01*
X162393333Y-100520952D01*
X162393333Y-100663809D01*
X162345714Y-100854285D01*
X162298095Y-100949523D01*
X162202857Y-101044761D01*
X162060000Y-101092380D01*
X161821904Y-101092380D01*
X162726666Y-100092380D02*
X163393333Y-100092380D01*
X162964761Y-101092380D01*
%TO.C,D6*%
X152931904Y-101092380D02*
X152931904Y-100092380D01*
X153170000Y-100092380D01*
X153312857Y-100140000D01*
X153408095Y-100235238D01*
X153455714Y-100330476D01*
X153503333Y-100520952D01*
X153503333Y-100663809D01*
X153455714Y-100854285D01*
X153408095Y-100949523D01*
X153312857Y-101044761D01*
X153170000Y-101092380D01*
X152931904Y-101092380D01*
X154360476Y-100092380D02*
X154170000Y-100092380D01*
X154074761Y-100140000D01*
X154027142Y-100187619D01*
X153931904Y-100330476D01*
X153884285Y-100520952D01*
X153884285Y-100901904D01*
X153931904Y-100997142D01*
X153979523Y-101044761D01*
X154074761Y-101092380D01*
X154265238Y-101092380D01*
X154360476Y-101044761D01*
X154408095Y-100997142D01*
X154455714Y-100901904D01*
X154455714Y-100663809D01*
X154408095Y-100568571D01*
X154360476Y-100520952D01*
X154265238Y-100473333D01*
X154074761Y-100473333D01*
X153979523Y-100520952D01*
X153931904Y-100568571D01*
X153884285Y-100663809D01*
%TO.C,D5*%
X144041904Y-101092380D02*
X144041904Y-100092380D01*
X144280000Y-100092380D01*
X144422857Y-100140000D01*
X144518095Y-100235238D01*
X144565714Y-100330476D01*
X144613333Y-100520952D01*
X144613333Y-100663809D01*
X144565714Y-100854285D01*
X144518095Y-100949523D01*
X144422857Y-101044761D01*
X144280000Y-101092380D01*
X144041904Y-101092380D01*
X145518095Y-100092380D02*
X145041904Y-100092380D01*
X144994285Y-100568571D01*
X145041904Y-100520952D01*
X145137142Y-100473333D01*
X145375238Y-100473333D01*
X145470476Y-100520952D01*
X145518095Y-100568571D01*
X145565714Y-100663809D01*
X145565714Y-100901904D01*
X145518095Y-100997142D01*
X145470476Y-101044761D01*
X145375238Y-101092380D01*
X145137142Y-101092380D01*
X145041904Y-101044761D01*
X144994285Y-100997142D01*
%TO.C,D4*%
X135151904Y-101092380D02*
X135151904Y-100092380D01*
X135390000Y-100092380D01*
X135532857Y-100140000D01*
X135628095Y-100235238D01*
X135675714Y-100330476D01*
X135723333Y-100520952D01*
X135723333Y-100663809D01*
X135675714Y-100854285D01*
X135628095Y-100949523D01*
X135532857Y-101044761D01*
X135390000Y-101092380D01*
X135151904Y-101092380D01*
X136580476Y-100425714D02*
X136580476Y-101092380D01*
X136342380Y-100044761D02*
X136104285Y-100759047D01*
X136723333Y-100759047D01*
%TO.C,D3*%
X126261904Y-101092380D02*
X126261904Y-100092380D01*
X126500000Y-100092380D01*
X126642857Y-100140000D01*
X126738095Y-100235238D01*
X126785714Y-100330476D01*
X126833333Y-100520952D01*
X126833333Y-100663809D01*
X126785714Y-100854285D01*
X126738095Y-100949523D01*
X126642857Y-101044761D01*
X126500000Y-101092380D01*
X126261904Y-101092380D01*
X127166666Y-100092380D02*
X127785714Y-100092380D01*
X127452380Y-100473333D01*
X127595238Y-100473333D01*
X127690476Y-100520952D01*
X127738095Y-100568571D01*
X127785714Y-100663809D01*
X127785714Y-100901904D01*
X127738095Y-100997142D01*
X127690476Y-101044761D01*
X127595238Y-101092380D01*
X127309523Y-101092380D01*
X127214285Y-101044761D01*
X127166666Y-100997142D01*
%TO.C,D2*%
X117371904Y-101092380D02*
X117371904Y-100092380D01*
X117610000Y-100092380D01*
X117752857Y-100140000D01*
X117848095Y-100235238D01*
X117895714Y-100330476D01*
X117943333Y-100520952D01*
X117943333Y-100663809D01*
X117895714Y-100854285D01*
X117848095Y-100949523D01*
X117752857Y-101044761D01*
X117610000Y-101092380D01*
X117371904Y-101092380D01*
X118324285Y-100187619D02*
X118371904Y-100140000D01*
X118467142Y-100092380D01*
X118705238Y-100092380D01*
X118800476Y-100140000D01*
X118848095Y-100187619D01*
X118895714Y-100282857D01*
X118895714Y-100378095D01*
X118848095Y-100520952D01*
X118276666Y-101092380D01*
X118895714Y-101092380D01*
%TO.C,D1*%
X108481904Y-101092380D02*
X108481904Y-100092380D01*
X108720000Y-100092380D01*
X108862857Y-100140000D01*
X108958095Y-100235238D01*
X109005714Y-100330476D01*
X109053333Y-100520952D01*
X109053333Y-100663809D01*
X109005714Y-100854285D01*
X108958095Y-100949523D01*
X108862857Y-101044761D01*
X108720000Y-101092380D01*
X108481904Y-101092380D01*
X110005714Y-101092380D02*
X109434285Y-101092380D01*
X109720000Y-101092380D02*
X109720000Y-100092380D01*
X109624761Y-100235238D01*
X109529523Y-100330476D01*
X109434285Y-100378095D01*
%TO.C,C2*%
X164933333Y-83542142D02*
X164885714Y-83589761D01*
X164742857Y-83637380D01*
X164647619Y-83637380D01*
X164504761Y-83589761D01*
X164409523Y-83494523D01*
X164361904Y-83399285D01*
X164314285Y-83208809D01*
X164314285Y-83065952D01*
X164361904Y-82875476D01*
X164409523Y-82780238D01*
X164504761Y-82685000D01*
X164647619Y-82637380D01*
X164742857Y-82637380D01*
X164885714Y-82685000D01*
X164933333Y-82732619D01*
X165314285Y-82732619D02*
X165361904Y-82685000D01*
X165457142Y-82637380D01*
X165695238Y-82637380D01*
X165790476Y-82685000D01*
X165838095Y-82732619D01*
X165885714Y-82827857D01*
X165885714Y-82923095D01*
X165838095Y-83065952D01*
X165266666Y-83637380D01*
X165885714Y-83637380D01*
%TO.C,C1*%
X146518333Y-83669142D02*
X146470714Y-83716761D01*
X146327857Y-83764380D01*
X146232619Y-83764380D01*
X146089761Y-83716761D01*
X145994523Y-83621523D01*
X145946904Y-83526285D01*
X145899285Y-83335809D01*
X145899285Y-83192952D01*
X145946904Y-83002476D01*
X145994523Y-82907238D01*
X146089761Y-82812000D01*
X146232619Y-82764380D01*
X146327857Y-82764380D01*
X146470714Y-82812000D01*
X146518333Y-82859619D01*
X147470714Y-83764380D02*
X146899285Y-83764380D01*
X147185000Y-83764380D02*
X147185000Y-82764380D01*
X147089761Y-82907238D01*
X146994523Y-83002476D01*
X146899285Y-83050095D01*
%TO.C,BT1*%
X113006285Y-85907571D02*
X113149142Y-85955190D01*
X113196761Y-86002809D01*
X113244380Y-86098047D01*
X113244380Y-86240904D01*
X113196761Y-86336142D01*
X113149142Y-86383761D01*
X113053904Y-86431380D01*
X112672952Y-86431380D01*
X112672952Y-85431380D01*
X113006285Y-85431380D01*
X113101523Y-85479000D01*
X113149142Y-85526619D01*
X113196761Y-85621857D01*
X113196761Y-85717095D01*
X113149142Y-85812333D01*
X113101523Y-85859952D01*
X113006285Y-85907571D01*
X112672952Y-85907571D01*
X113530095Y-85431380D02*
X114101523Y-85431380D01*
X113815809Y-86431380D02*
X113815809Y-85431380D01*
X114958666Y-86431380D02*
X114387238Y-86431380D01*
X114672952Y-86431380D02*
X114672952Y-85431380D01*
X114577714Y-85574238D01*
X114482476Y-85669476D01*
X114387238Y-85717095D01*
%TD*%
M02*
