%TF.GenerationSoftware,KiCad,Pcbnew,(5.1.9)-1*%
%TF.CreationDate,2021-05-12T14:49:38+07:00*%
%TF.ProjectId,finalProject,66696e61-6c50-4726-9f6a-6563742e6b69,rev?*%
%TF.SameCoordinates,Original*%
%TF.FileFunction,Copper,L1,Top*%
%TF.FilePolarity,Positive*%
%FSLAX46Y46*%
G04 Gerber Fmt 4.6, Leading zero omitted, Abs format (unit mm)*
G04 Created by KiCad (PCBNEW (5.1.9)-1) date 2021-05-12 14:49:38*
%MOMM*%
%LPD*%
G01*
G04 APERTURE LIST*
%TA.AperFunction,ComponentPad*%
%ADD10O,1.700000X1.700000*%
%TD*%
%TA.AperFunction,ComponentPad*%
%ADD11R,1.700000X1.700000*%
%TD*%
%TA.AperFunction,ComponentPad*%
%ADD12O,2.000000X1.905000*%
%TD*%
%TA.AperFunction,ComponentPad*%
%ADD13R,2.000000X1.905000*%
%TD*%
%TA.AperFunction,ComponentPad*%
%ADD14O,1.600000X1.600000*%
%TD*%
%TA.AperFunction,ComponentPad*%
%ADD15R,1.600000X1.600000*%
%TD*%
%TA.AperFunction,ComponentPad*%
%ADD16C,1.700000*%
%TD*%
%TA.AperFunction,ComponentPad*%
%ADD17C,2.000000*%
%TD*%
%TA.AperFunction,ComponentPad*%
%ADD18O,1.400000X1.400000*%
%TD*%
%TA.AperFunction,ComponentPad*%
%ADD19C,1.400000*%
%TD*%
%TA.AperFunction,ComponentPad*%
%ADD20C,1.800000*%
%TD*%
%TA.AperFunction,ComponentPad*%
%ADD21R,1.800000X1.800000*%
%TD*%
%TA.AperFunction,ComponentPad*%
%ADD22O,2.200000X2.200000*%
%TD*%
%TA.AperFunction,ComponentPad*%
%ADD23R,2.200000X2.200000*%
%TD*%
%TA.AperFunction,SMDPad,CuDef*%
%ADD24R,2.000000X1.100000*%
%TD*%
%TA.AperFunction,ComponentPad*%
%ADD25C,1.600000*%
%TD*%
%TA.AperFunction,ComponentPad*%
%ADD26C,2.600000*%
%TD*%
%TA.AperFunction,ComponentPad*%
%ADD27R,2.600000X2.600000*%
%TD*%
%TA.AperFunction,Conductor*%
%ADD28C,0.500000*%
%TD*%
%TA.AperFunction,Conductor*%
%ADD29C,0.300000*%
%TD*%
%TA.AperFunction,Conductor*%
%ADD30C,0.254000*%
%TD*%
%TA.AperFunction,Conductor*%
%ADD31C,0.100000*%
%TD*%
G04 APERTURE END LIST*
%TO.P,C12,2*%
%TO.N,GND*%
%TA.AperFunction,SMDPad,CuDef*%
G36*
G01*
X139515000Y-99535000D02*
X139515000Y-98585000D01*
G75*
G02*
X139765000Y-98335000I250000J0D01*
G01*
X140440000Y-98335000D01*
G75*
G02*
X140690000Y-98585000I0J-250000D01*
G01*
X140690000Y-99535000D01*
G75*
G02*
X140440000Y-99785000I-250000J0D01*
G01*
X139765000Y-99785000D01*
G75*
G02*
X139515000Y-99535000I0J250000D01*
G01*
G37*
%TD.AperFunction*%
%TO.P,C12,1*%
%TO.N,+5V*%
%TA.AperFunction,SMDPad,CuDef*%
G36*
G01*
X137440000Y-99535000D02*
X137440000Y-98585000D01*
G75*
G02*
X137690000Y-98335000I250000J0D01*
G01*
X138365000Y-98335000D01*
G75*
G02*
X138615000Y-98585000I0J-250000D01*
G01*
X138615000Y-99535000D01*
G75*
G02*
X138365000Y-99785000I-250000J0D01*
G01*
X137690000Y-99785000D01*
G75*
G02*
X137440000Y-99535000I0J250000D01*
G01*
G37*
%TD.AperFunction*%
%TD*%
%TO.P,C11,2*%
%TO.N,GND*%
%TA.AperFunction,SMDPad,CuDef*%
G36*
G01*
X139863500Y-85885000D02*
X139863500Y-86835000D01*
G75*
G02*
X139613500Y-87085000I-250000J0D01*
G01*
X138938500Y-87085000D01*
G75*
G02*
X138688500Y-86835000I0J250000D01*
G01*
X138688500Y-85885000D01*
G75*
G02*
X138938500Y-85635000I250000J0D01*
G01*
X139613500Y-85635000D01*
G75*
G02*
X139863500Y-85885000I0J-250000D01*
G01*
G37*
%TD.AperFunction*%
%TO.P,C11,1*%
%TO.N,+5V*%
%TA.AperFunction,SMDPad,CuDef*%
G36*
G01*
X141938500Y-85885000D02*
X141938500Y-86835000D01*
G75*
G02*
X141688500Y-87085000I-250000J0D01*
G01*
X141013500Y-87085000D01*
G75*
G02*
X140763500Y-86835000I0J250000D01*
G01*
X140763500Y-85885000D01*
G75*
G02*
X141013500Y-85635000I250000J0D01*
G01*
X141688500Y-85635000D01*
G75*
G02*
X141938500Y-85885000I0J-250000D01*
G01*
G37*
%TD.AperFunction*%
%TD*%
%TO.P,C10,2*%
%TO.N,GND*%
%TA.AperFunction,SMDPad,CuDef*%
G36*
G01*
X171000000Y-108745000D02*
X171000000Y-109695000D01*
G75*
G02*
X170750000Y-109945000I-250000J0D01*
G01*
X170075000Y-109945000D01*
G75*
G02*
X169825000Y-109695000I0J250000D01*
G01*
X169825000Y-108745000D01*
G75*
G02*
X170075000Y-108495000I250000J0D01*
G01*
X170750000Y-108495000D01*
G75*
G02*
X171000000Y-108745000I0J-250000D01*
G01*
G37*
%TD.AperFunction*%
%TO.P,C10,1*%
%TO.N,+5V*%
%TA.AperFunction,SMDPad,CuDef*%
G36*
G01*
X173075000Y-108745000D02*
X173075000Y-109695000D01*
G75*
G02*
X172825000Y-109945000I-250000J0D01*
G01*
X172150000Y-109945000D01*
G75*
G02*
X171900000Y-109695000I0J250000D01*
G01*
X171900000Y-108745000D01*
G75*
G02*
X172150000Y-108495000I250000J0D01*
G01*
X172825000Y-108495000D01*
G75*
G02*
X173075000Y-108745000I0J-250000D01*
G01*
G37*
%TD.AperFunction*%
%TD*%
%TO.P,C9,2*%
%TO.N,GND*%
%TA.AperFunction,SMDPad,CuDef*%
G36*
G01*
X162110000Y-108745000D02*
X162110000Y-109695000D01*
G75*
G02*
X161860000Y-109945000I-250000J0D01*
G01*
X161185000Y-109945000D01*
G75*
G02*
X160935000Y-109695000I0J250000D01*
G01*
X160935000Y-108745000D01*
G75*
G02*
X161185000Y-108495000I250000J0D01*
G01*
X161860000Y-108495000D01*
G75*
G02*
X162110000Y-108745000I0J-250000D01*
G01*
G37*
%TD.AperFunction*%
%TO.P,C9,1*%
%TO.N,+5V*%
%TA.AperFunction,SMDPad,CuDef*%
G36*
G01*
X164185000Y-108745000D02*
X164185000Y-109695000D01*
G75*
G02*
X163935000Y-109945000I-250000J0D01*
G01*
X163260000Y-109945000D01*
G75*
G02*
X163010000Y-109695000I0J250000D01*
G01*
X163010000Y-108745000D01*
G75*
G02*
X163260000Y-108495000I250000J0D01*
G01*
X163935000Y-108495000D01*
G75*
G02*
X164185000Y-108745000I0J-250000D01*
G01*
G37*
%TD.AperFunction*%
%TD*%
%TO.P,C8,2*%
%TO.N,GND*%
%TA.AperFunction,SMDPad,CuDef*%
G36*
G01*
X153220000Y-108745000D02*
X153220000Y-109695000D01*
G75*
G02*
X152970000Y-109945000I-250000J0D01*
G01*
X152295000Y-109945000D01*
G75*
G02*
X152045000Y-109695000I0J250000D01*
G01*
X152045000Y-108745000D01*
G75*
G02*
X152295000Y-108495000I250000J0D01*
G01*
X152970000Y-108495000D01*
G75*
G02*
X153220000Y-108745000I0J-250000D01*
G01*
G37*
%TD.AperFunction*%
%TO.P,C8,1*%
%TO.N,+5V*%
%TA.AperFunction,SMDPad,CuDef*%
G36*
G01*
X155295000Y-108745000D02*
X155295000Y-109695000D01*
G75*
G02*
X155045000Y-109945000I-250000J0D01*
G01*
X154370000Y-109945000D01*
G75*
G02*
X154120000Y-109695000I0J250000D01*
G01*
X154120000Y-108745000D01*
G75*
G02*
X154370000Y-108495000I250000J0D01*
G01*
X155045000Y-108495000D01*
G75*
G02*
X155295000Y-108745000I0J-250000D01*
G01*
G37*
%TD.AperFunction*%
%TD*%
%TO.P,C7,2*%
%TO.N,GND*%
%TA.AperFunction,SMDPad,CuDef*%
G36*
G01*
X144330000Y-108745000D02*
X144330000Y-109695000D01*
G75*
G02*
X144080000Y-109945000I-250000J0D01*
G01*
X143405000Y-109945000D01*
G75*
G02*
X143155000Y-109695000I0J250000D01*
G01*
X143155000Y-108745000D01*
G75*
G02*
X143405000Y-108495000I250000J0D01*
G01*
X144080000Y-108495000D01*
G75*
G02*
X144330000Y-108745000I0J-250000D01*
G01*
G37*
%TD.AperFunction*%
%TO.P,C7,1*%
%TO.N,+5V*%
%TA.AperFunction,SMDPad,CuDef*%
G36*
G01*
X146405000Y-108745000D02*
X146405000Y-109695000D01*
G75*
G02*
X146155000Y-109945000I-250000J0D01*
G01*
X145480000Y-109945000D01*
G75*
G02*
X145230000Y-109695000I0J250000D01*
G01*
X145230000Y-108745000D01*
G75*
G02*
X145480000Y-108495000I250000J0D01*
G01*
X146155000Y-108495000D01*
G75*
G02*
X146405000Y-108745000I0J-250000D01*
G01*
G37*
%TD.AperFunction*%
%TD*%
%TO.P,C6,2*%
%TO.N,GND*%
%TA.AperFunction,SMDPad,CuDef*%
G36*
G01*
X135440000Y-108745000D02*
X135440000Y-109695000D01*
G75*
G02*
X135190000Y-109945000I-250000J0D01*
G01*
X134515000Y-109945000D01*
G75*
G02*
X134265000Y-109695000I0J250000D01*
G01*
X134265000Y-108745000D01*
G75*
G02*
X134515000Y-108495000I250000J0D01*
G01*
X135190000Y-108495000D01*
G75*
G02*
X135440000Y-108745000I0J-250000D01*
G01*
G37*
%TD.AperFunction*%
%TO.P,C6,1*%
%TO.N,+5V*%
%TA.AperFunction,SMDPad,CuDef*%
G36*
G01*
X137515000Y-108745000D02*
X137515000Y-109695000D01*
G75*
G02*
X137265000Y-109945000I-250000J0D01*
G01*
X136590000Y-109945000D01*
G75*
G02*
X136340000Y-109695000I0J250000D01*
G01*
X136340000Y-108745000D01*
G75*
G02*
X136590000Y-108495000I250000J0D01*
G01*
X137265000Y-108495000D01*
G75*
G02*
X137515000Y-108745000I0J-250000D01*
G01*
G37*
%TD.AperFunction*%
%TD*%
%TO.P,C5,2*%
%TO.N,GND*%
%TA.AperFunction,SMDPad,CuDef*%
G36*
G01*
X126550000Y-108745000D02*
X126550000Y-109695000D01*
G75*
G02*
X126300000Y-109945000I-250000J0D01*
G01*
X125625000Y-109945000D01*
G75*
G02*
X125375000Y-109695000I0J250000D01*
G01*
X125375000Y-108745000D01*
G75*
G02*
X125625000Y-108495000I250000J0D01*
G01*
X126300000Y-108495000D01*
G75*
G02*
X126550000Y-108745000I0J-250000D01*
G01*
G37*
%TD.AperFunction*%
%TO.P,C5,1*%
%TO.N,+5V*%
%TA.AperFunction,SMDPad,CuDef*%
G36*
G01*
X128625000Y-108745000D02*
X128625000Y-109695000D01*
G75*
G02*
X128375000Y-109945000I-250000J0D01*
G01*
X127700000Y-109945000D01*
G75*
G02*
X127450000Y-109695000I0J250000D01*
G01*
X127450000Y-108745000D01*
G75*
G02*
X127700000Y-108495000I250000J0D01*
G01*
X128375000Y-108495000D01*
G75*
G02*
X128625000Y-108745000I0J-250000D01*
G01*
G37*
%TD.AperFunction*%
%TD*%
%TO.P,C4,2*%
%TO.N,GND*%
%TA.AperFunction,SMDPad,CuDef*%
G36*
G01*
X117660000Y-108745000D02*
X117660000Y-109695000D01*
G75*
G02*
X117410000Y-109945000I-250000J0D01*
G01*
X116735000Y-109945000D01*
G75*
G02*
X116485000Y-109695000I0J250000D01*
G01*
X116485000Y-108745000D01*
G75*
G02*
X116735000Y-108495000I250000J0D01*
G01*
X117410000Y-108495000D01*
G75*
G02*
X117660000Y-108745000I0J-250000D01*
G01*
G37*
%TD.AperFunction*%
%TO.P,C4,1*%
%TO.N,+5V*%
%TA.AperFunction,SMDPad,CuDef*%
G36*
G01*
X119735000Y-108745000D02*
X119735000Y-109695000D01*
G75*
G02*
X119485000Y-109945000I-250000J0D01*
G01*
X118810000Y-109945000D01*
G75*
G02*
X118560000Y-109695000I0J250000D01*
G01*
X118560000Y-108745000D01*
G75*
G02*
X118810000Y-108495000I250000J0D01*
G01*
X119485000Y-108495000D01*
G75*
G02*
X119735000Y-108745000I0J-250000D01*
G01*
G37*
%TD.AperFunction*%
%TD*%
%TO.P,C3,2*%
%TO.N,GND*%
%TA.AperFunction,SMDPad,CuDef*%
G36*
G01*
X108770000Y-108745000D02*
X108770000Y-109695000D01*
G75*
G02*
X108520000Y-109945000I-250000J0D01*
G01*
X107845000Y-109945000D01*
G75*
G02*
X107595000Y-109695000I0J250000D01*
G01*
X107595000Y-108745000D01*
G75*
G02*
X107845000Y-108495000I250000J0D01*
G01*
X108520000Y-108495000D01*
G75*
G02*
X108770000Y-108745000I0J-250000D01*
G01*
G37*
%TD.AperFunction*%
%TO.P,C3,1*%
%TO.N,+5V*%
%TA.AperFunction,SMDPad,CuDef*%
G36*
G01*
X110845000Y-108745000D02*
X110845000Y-109695000D01*
G75*
G02*
X110595000Y-109945000I-250000J0D01*
G01*
X109920000Y-109945000D01*
G75*
G02*
X109670000Y-109695000I0J250000D01*
G01*
X109670000Y-108745000D01*
G75*
G02*
X109920000Y-108495000I250000J0D01*
G01*
X110595000Y-108495000D01*
G75*
G02*
X110845000Y-108745000I0J-250000D01*
G01*
G37*
%TD.AperFunction*%
%TD*%
D10*
%TO.P,J1,3*%
%TO.N,GND*%
X173355000Y-95250000D03*
%TO.P,J1,2*%
%TO.N,Net-(J1-Pad2)*%
X173355000Y-92710000D03*
D11*
%TO.P,J1,1*%
%TO.N,Net-(J1-Pad1)*%
X173355000Y-90170000D03*
%TD*%
D12*
%TO.P,U2,3*%
%TO.N,+5V*%
X156845000Y-76200000D03*
%TO.P,U2,2*%
%TO.N,GND*%
X156845000Y-78740000D03*
D13*
%TO.P,U2,1*%
%TO.N,Net-(C1-Pad1)*%
X156845000Y-81280000D03*
%TD*%
D14*
%TO.P,U1,28*%
%TO.N,Net-(U1-Pad28)*%
X156845000Y-96520000D03*
%TO.P,U1,14*%
%TO.N,Net-(D1-Pad1)*%
X123825000Y-88900000D03*
%TO.P,U1,27*%
%TO.N,Net-(U1-Pad27)*%
X154305000Y-96520000D03*
%TO.P,U1,13*%
%TO.N,Net-(U1-Pad13)*%
X126365000Y-88900000D03*
%TO.P,U1,26*%
%TO.N,Net-(U1-Pad26)*%
X151765000Y-96520000D03*
%TO.P,U1,12*%
%TO.N,Net-(U1-Pad12)*%
X128905000Y-88900000D03*
%TO.P,U1,25*%
%TO.N,Net-(U1-Pad25)*%
X149225000Y-96520000D03*
%TO.P,U1,11*%
%TO.N,Net-(U1-Pad11)*%
X131445000Y-88900000D03*
%TO.P,U1,24*%
%TO.N,Net-(U1-Pad24)*%
X146685000Y-96520000D03*
%TO.P,U1,10*%
%TO.N,Net-(U1-Pad10)*%
X133985000Y-88900000D03*
%TO.P,U1,23*%
%TO.N,Net-(U1-Pad23)*%
X144145000Y-96520000D03*
%TO.P,U1,9*%
%TO.N,Net-(U1-Pad9)*%
X136525000Y-88900000D03*
%TO.P,U1,22*%
%TO.N,GND*%
X141605000Y-96520000D03*
%TO.P,U1,8*%
X139065000Y-88900000D03*
%TO.P,U1,21*%
%TO.N,Net-(U1-Pad21)*%
X139065000Y-96520000D03*
%TO.P,U1,7*%
%TO.N,+5V*%
X141605000Y-88900000D03*
%TO.P,U1,20*%
X136525000Y-96520000D03*
%TO.P,U1,6*%
%TO.N,Net-(U1-Pad6)*%
X144145000Y-88900000D03*
%TO.P,U1,19*%
%TO.N,Net-(U1-Pad19)*%
X133985000Y-96520000D03*
%TO.P,U1,5*%
%TO.N,Net-(U1-Pad5)*%
X146685000Y-88900000D03*
%TO.P,U1,18*%
%TO.N,Net-(U1-Pad18)*%
X131445000Y-96520000D03*
%TO.P,U1,4*%
%TO.N,Net-(U1-Pad4)*%
X149225000Y-88900000D03*
%TO.P,U1,17*%
%TO.N,Net-(U1-Pad17)*%
X128905000Y-96520000D03*
%TO.P,U1,3*%
%TO.N,Net-(J1-Pad2)*%
X151765000Y-88900000D03*
%TO.P,U1,16*%
%TO.N,Net-(U1-Pad16)*%
X126365000Y-96520000D03*
%TO.P,U1,2*%
%TO.N,Net-(J1-Pad1)*%
X154305000Y-88900000D03*
%TO.P,U1,15*%
%TO.N,Net-(D1-Pad2)*%
X123825000Y-96520000D03*
D15*
%TO.P,U1,1*%
%TO.N,Net-(U1-Pad1)*%
X156845000Y-88900000D03*
%TD*%
D16*
%TO.P,SW1,3*%
%TO.N,N/C*%
X122175000Y-81280000D03*
%TO.P,SW1,2*%
%TO.N,Net-(D9-Pad2)*%
X126175000Y-81280000D03*
%TO.P,SW1,1*%
%TO.N,Net-(BT1-Pad1)*%
X130175000Y-81280000D03*
D17*
%TO.P,SW1,*%
%TO.N,*%
X132175000Y-77030000D03*
X120175000Y-77030000D03*
X120175000Y-83030000D03*
X132175000Y-83030000D03*
%TD*%
D18*
%TO.P,R1,2*%
%TO.N,+5V*%
X164465000Y-86360000D03*
D19*
%TO.P,R1,1*%
%TO.N,Net-(D10-Pad2)*%
X172085000Y-86360000D03*
%TD*%
D20*
%TO.P,D10,2*%
%TO.N,Net-(D10-Pad2)*%
X173355000Y-76835000D03*
D21*
%TO.P,D10,1*%
%TO.N,GND*%
X173355000Y-79375000D03*
%TD*%
D22*
%TO.P,D9,2*%
%TO.N,Net-(D9-Pad2)*%
X136525000Y-74930000D03*
D23*
%TO.P,D9,1*%
%TO.N,Net-(C1-Pad1)*%
X136525000Y-85090000D03*
%TD*%
D24*
%TO.P,D8,6*%
%TO.N,Net-(D8-Pad6)*%
X173850000Y-102440000D03*
%TO.P,D8,5*%
%TO.N,Net-(D8-Pad5)*%
X173850000Y-104140000D03*
%TO.P,D8,4*%
%TO.N,+5V*%
X173850000Y-105840000D03*
%TO.P,D8,3*%
%TO.N,GND*%
X169050000Y-105840000D03*
%TO.P,D8,2*%
%TO.N,Net-(D7-Pad5)*%
X169050000Y-104140000D03*
%TO.P,D8,1*%
%TO.N,Net-(D7-Pad6)*%
X169050000Y-102440000D03*
%TD*%
%TO.P,D7,6*%
%TO.N,Net-(D7-Pad6)*%
X164960000Y-102440000D03*
%TO.P,D7,5*%
%TO.N,Net-(D7-Pad5)*%
X164960000Y-104140000D03*
%TO.P,D7,4*%
%TO.N,+5V*%
X164960000Y-105840000D03*
%TO.P,D7,3*%
%TO.N,GND*%
X160160000Y-105840000D03*
%TO.P,D7,2*%
%TO.N,Net-(D6-Pad5)*%
X160160000Y-104140000D03*
%TO.P,D7,1*%
%TO.N,Net-(D6-Pad6)*%
X160160000Y-102440000D03*
%TD*%
%TO.P,D6,6*%
%TO.N,Net-(D6-Pad6)*%
X156070000Y-102440000D03*
%TO.P,D6,5*%
%TO.N,Net-(D6-Pad5)*%
X156070000Y-104140000D03*
%TO.P,D6,4*%
%TO.N,+5V*%
X156070000Y-105840000D03*
%TO.P,D6,3*%
%TO.N,GND*%
X151270000Y-105840000D03*
%TO.P,D6,2*%
%TO.N,Net-(D5-Pad5)*%
X151270000Y-104140000D03*
%TO.P,D6,1*%
%TO.N,Net-(D5-Pad6)*%
X151270000Y-102440000D03*
%TD*%
%TO.P,D5,6*%
%TO.N,Net-(D5-Pad6)*%
X147180000Y-102440000D03*
%TO.P,D5,5*%
%TO.N,Net-(D5-Pad5)*%
X147180000Y-104140000D03*
%TO.P,D5,4*%
%TO.N,+5V*%
X147180000Y-105840000D03*
%TO.P,D5,3*%
%TO.N,GND*%
X142380000Y-105840000D03*
%TO.P,D5,2*%
%TO.N,Net-(D4-Pad5)*%
X142380000Y-104140000D03*
%TO.P,D5,1*%
%TO.N,Net-(D4-Pad6)*%
X142380000Y-102440000D03*
%TD*%
%TO.P,D4,6*%
%TO.N,Net-(D4-Pad6)*%
X138290000Y-102440000D03*
%TO.P,D4,5*%
%TO.N,Net-(D4-Pad5)*%
X138290000Y-104140000D03*
%TO.P,D4,4*%
%TO.N,+5V*%
X138290000Y-105840000D03*
%TO.P,D4,3*%
%TO.N,GND*%
X133490000Y-105840000D03*
%TO.P,D4,2*%
%TO.N,Net-(D3-Pad5)*%
X133490000Y-104140000D03*
%TO.P,D4,1*%
%TO.N,Net-(D3-Pad6)*%
X133490000Y-102440000D03*
%TD*%
%TO.P,D3,6*%
%TO.N,Net-(D3-Pad6)*%
X129400000Y-102440000D03*
%TO.P,D3,5*%
%TO.N,Net-(D3-Pad5)*%
X129400000Y-104140000D03*
%TO.P,D3,4*%
%TO.N,+5V*%
X129400000Y-105840000D03*
%TO.P,D3,3*%
%TO.N,GND*%
X124600000Y-105840000D03*
%TO.P,D3,2*%
%TO.N,Net-(D2-Pad5)*%
X124600000Y-104140000D03*
%TO.P,D3,1*%
%TO.N,Net-(D2-Pad6)*%
X124600000Y-102440000D03*
%TD*%
%TO.P,D2,6*%
%TO.N,Net-(D2-Pad6)*%
X120510000Y-102440000D03*
%TO.P,D2,5*%
%TO.N,Net-(D2-Pad5)*%
X120510000Y-104140000D03*
%TO.P,D2,4*%
%TO.N,+5V*%
X120510000Y-105840000D03*
%TO.P,D2,3*%
%TO.N,GND*%
X115710000Y-105840000D03*
%TO.P,D2,2*%
%TO.N,Net-(D1-Pad5)*%
X115710000Y-104140000D03*
%TO.P,D2,1*%
%TO.N,Net-(D1-Pad6)*%
X115710000Y-102440000D03*
%TD*%
%TO.P,D1,6*%
%TO.N,Net-(D1-Pad6)*%
X111620000Y-102440000D03*
%TO.P,D1,5*%
%TO.N,Net-(D1-Pad5)*%
X111620000Y-104140000D03*
%TO.P,D1,4*%
%TO.N,+5V*%
X111620000Y-105840000D03*
%TO.P,D1,3*%
%TO.N,GND*%
X106820000Y-105840000D03*
%TO.P,D1,2*%
%TO.N,Net-(D1-Pad2)*%
X106820000Y-104140000D03*
%TO.P,D1,1*%
%TO.N,Net-(D1-Pad1)*%
X106820000Y-102440000D03*
%TD*%
D25*
%TO.P,C2,2*%
%TO.N,GND*%
X165100000Y-80565000D03*
D15*
%TO.P,C2,1*%
%TO.N,+5V*%
X165100000Y-75565000D03*
%TD*%
D25*
%TO.P,C1,2*%
%TO.N,GND*%
X146685000Y-75645000D03*
D15*
%TO.P,C1,1*%
%TO.N,Net-(C1-Pad1)*%
X146685000Y-80645000D03*
%TD*%
D26*
%TO.P,BT1,2*%
%TO.N,GND*%
X115260000Y-80010000D03*
D27*
%TO.P,BT1,1*%
%TO.N,Net-(BT1-Pad1)*%
X111760000Y-80010000D03*
%TD*%
D28*
%TO.N,GND*%
X117072500Y-107202500D02*
X115710000Y-105840000D01*
X117072500Y-109220000D02*
X117072500Y-107202500D01*
X134852500Y-107202500D02*
X133490000Y-105840000D01*
X134852500Y-109220000D02*
X134852500Y-107202500D01*
X143742500Y-107202500D02*
X142380000Y-105840000D01*
X143742500Y-109220000D02*
X143742500Y-107202500D01*
X152632500Y-107202500D02*
X151270000Y-105840000D01*
X152632500Y-109220000D02*
X152632500Y-107202500D01*
X161522500Y-107202500D02*
X160160000Y-105840000D01*
X161522500Y-109220000D02*
X161522500Y-107202500D01*
X170412500Y-107202500D02*
X169050000Y-105840000D01*
X170412500Y-109220000D02*
X170412500Y-107202500D01*
X116559999Y-78710001D02*
X142904999Y-78710001D01*
X115260000Y-80010000D02*
X116559999Y-78710001D01*
X145970000Y-75645000D02*
X146685000Y-75645000D01*
X142904999Y-78710001D02*
X145970000Y-75645000D01*
X125962500Y-107202500D02*
X124600000Y-105840000D01*
X125962500Y-109220000D02*
X125962500Y-107202500D01*
X108182500Y-107202500D02*
X106820000Y-105840000D01*
X108182500Y-109220000D02*
X108182500Y-107202500D01*
X139276000Y-88689000D02*
X139065000Y-88900000D01*
X139276000Y-86360000D02*
X139276000Y-88689000D01*
X140102500Y-98022500D02*
X141605000Y-96520000D01*
X140102500Y-99060000D02*
X140102500Y-98022500D01*
%TO.N,Net-(BT1-Pad1)*%
X128874999Y-79979999D02*
X130175000Y-81280000D01*
X121078999Y-79979999D02*
X128874999Y-79979999D01*
X119298997Y-81760001D02*
X121078999Y-79979999D01*
X113510001Y-81760001D02*
X119298997Y-81760001D01*
X111760000Y-80010000D02*
X113510001Y-81760001D01*
%TO.N,+5V*%
X119147500Y-107202500D02*
X120510000Y-105840000D01*
X119147500Y-109220000D02*
X119147500Y-107202500D01*
X128037500Y-107202500D02*
X129400000Y-105840000D01*
X128037500Y-109220000D02*
X128037500Y-107202500D01*
X136927500Y-107202500D02*
X138290000Y-105840000D01*
X136927500Y-109220000D02*
X136927500Y-107202500D01*
X145817500Y-107202500D02*
X147180000Y-105840000D01*
X145817500Y-109220000D02*
X145817500Y-107202500D01*
X154707500Y-107202500D02*
X156070000Y-105840000D01*
X154707500Y-109220000D02*
X154707500Y-107202500D01*
X163597500Y-107202500D02*
X164960000Y-105840000D01*
X163597500Y-109220000D02*
X163597500Y-107202500D01*
X172487500Y-107202500D02*
X173850000Y-105840000D01*
X172487500Y-109220000D02*
X172487500Y-107202500D01*
X141372500Y-88667500D02*
X141605000Y-88900000D01*
X110257500Y-107202500D02*
X111620000Y-105840000D01*
X110257500Y-109220000D02*
X110257500Y-107202500D01*
X110257500Y-109622500D02*
X111760000Y-111125000D01*
X110257500Y-109220000D02*
X110257500Y-109622500D01*
X119147500Y-110257500D02*
X120015000Y-111125000D01*
X119147500Y-109220000D02*
X119147500Y-110257500D01*
X111760000Y-111125000D02*
X120015000Y-111125000D01*
X128037500Y-110257500D02*
X128905000Y-111125000D01*
X128037500Y-109220000D02*
X128037500Y-110257500D01*
X120015000Y-111125000D02*
X128905000Y-111125000D01*
D29*
X163597500Y-109220000D02*
X163597500Y-110087500D01*
D28*
X136927500Y-110257500D02*
X137795000Y-111125000D01*
X136927500Y-109220000D02*
X136927500Y-110257500D01*
X128905000Y-111125000D02*
X137795000Y-111125000D01*
X145817500Y-110257500D02*
X146685000Y-111125000D01*
X145817500Y-109220000D02*
X145817500Y-110257500D01*
X137795000Y-111125000D02*
X146685000Y-111125000D01*
X154707500Y-110257500D02*
X155575000Y-111125000D01*
X154707500Y-109220000D02*
X154707500Y-110257500D01*
X146685000Y-111125000D02*
X155575000Y-111125000D01*
X163597500Y-110257500D02*
X164465000Y-111125000D01*
X163597500Y-109220000D02*
X163597500Y-110257500D01*
X155575000Y-111125000D02*
X164465000Y-111125000D01*
X138027500Y-98022500D02*
X136525000Y-96520000D01*
X138027500Y-99060000D02*
X138027500Y-98022500D01*
X141605000Y-91440000D02*
X136525000Y-96520000D01*
X141605000Y-88900000D02*
X141605000Y-91440000D01*
X164465000Y-111125000D02*
X173355000Y-111125000D01*
X173355000Y-111125000D02*
X175300001Y-109179999D01*
X175300001Y-109179999D02*
X175300001Y-107274999D01*
X172487500Y-109220000D02*
X173355000Y-109220000D01*
X173355000Y-109220000D02*
X175300001Y-107274999D01*
X165100000Y-75565000D02*
X165100000Y-76200000D01*
X166350001Y-84474999D02*
X164465000Y-86360000D01*
X166350001Y-77450001D02*
X166350001Y-84474999D01*
X165100000Y-76200000D02*
X166350001Y-77450001D01*
X164465000Y-86360000D02*
X141351000Y-86360000D01*
X141351000Y-88646000D02*
X141605000Y-88900000D01*
X141351000Y-86360000D02*
X141351000Y-88646000D01*
X165180001Y-75484999D02*
X165100000Y-75565000D01*
X174003001Y-75484999D02*
X165180001Y-75484999D01*
X176530000Y-78011998D02*
X174003001Y-75484999D01*
X176530000Y-106045000D02*
X176530000Y-78011998D01*
X175300001Y-107274999D02*
X176530000Y-106045000D01*
D29*
%TO.N,Net-(D1-Pad6)*%
X111620000Y-102440000D02*
X115710000Y-102440000D01*
%TO.N,Net-(D1-Pad5)*%
X111620000Y-104140000D02*
X115710000Y-104140000D01*
D28*
%TO.N,Net-(D1-Pad2)*%
X106820000Y-104140000D02*
X107315000Y-104140000D01*
D29*
X114890000Y-96520000D02*
X123825000Y-96520000D01*
X107270000Y-104140000D02*
X114890000Y-96520000D01*
X106820000Y-104140000D02*
X107270000Y-104140000D01*
%TO.N,Net-(D1-Pad1)*%
X120360000Y-88900000D02*
X123825000Y-88900000D01*
X106820000Y-102440000D02*
X120360000Y-88900000D01*
%TO.N,Net-(D2-Pad6)*%
X120510000Y-102440000D02*
X124600000Y-102440000D01*
%TO.N,Net-(D2-Pad5)*%
X120510000Y-104140000D02*
X124600000Y-104140000D01*
%TO.N,Net-(D3-Pad6)*%
X129400000Y-102440000D02*
X133490000Y-102440000D01*
%TO.N,Net-(D3-Pad5)*%
X129400000Y-104140000D02*
X133490000Y-104140000D01*
%TO.N,Net-(D4-Pad6)*%
X138290000Y-102440000D02*
X142380000Y-102440000D01*
%TO.N,Net-(D4-Pad5)*%
X142380000Y-104140000D02*
X138290000Y-104140000D01*
%TO.N,Net-(D5-Pad6)*%
X147180000Y-102440000D02*
X151270000Y-102440000D01*
%TO.N,Net-(D5-Pad5)*%
X147180000Y-104140000D02*
X151270000Y-104140000D01*
%TO.N,Net-(D6-Pad6)*%
X156070000Y-102440000D02*
X160160000Y-102440000D01*
%TO.N,Net-(D6-Pad5)*%
X156070000Y-104140000D02*
X160160000Y-104140000D01*
%TO.N,Net-(D7-Pad6)*%
X164960000Y-102440000D02*
X169050000Y-102440000D01*
%TO.N,Net-(D7-Pad5)*%
X164960000Y-104140000D02*
X169050000Y-104140000D01*
D28*
%TO.N,Net-(D10-Pad2)*%
X174705001Y-83739999D02*
X172085000Y-86360000D01*
X174705001Y-78185001D02*
X174705001Y-83739999D01*
X173355000Y-76835000D02*
X174705001Y-78185001D01*
%TD*%
D30*
%TO.N,GND*%
X177775001Y-112370000D02*
X104800000Y-112370000D01*
X104800000Y-109945000D01*
X106956928Y-109945000D01*
X106969188Y-110069482D01*
X107005498Y-110189180D01*
X107064463Y-110299494D01*
X107143815Y-110396185D01*
X107240506Y-110475537D01*
X107350820Y-110534502D01*
X107470518Y-110570812D01*
X107595000Y-110583072D01*
X107896750Y-110580000D01*
X108055500Y-110421250D01*
X108055500Y-109347000D01*
X107118750Y-109347000D01*
X106960000Y-109505750D01*
X106956928Y-109945000D01*
X104800000Y-109945000D01*
X104800000Y-108495000D01*
X106956928Y-108495000D01*
X106960000Y-108934250D01*
X107118750Y-109093000D01*
X108055500Y-109093000D01*
X108055500Y-108018750D01*
X107896750Y-107860000D01*
X107595000Y-107856928D01*
X107470518Y-107869188D01*
X107350820Y-107905498D01*
X107240506Y-107964463D01*
X107143815Y-108043815D01*
X107064463Y-108140506D01*
X107005498Y-108250820D01*
X106969188Y-108370518D01*
X106956928Y-108495000D01*
X104800000Y-108495000D01*
X104800000Y-106390000D01*
X105181928Y-106390000D01*
X105194188Y-106514482D01*
X105230498Y-106634180D01*
X105289463Y-106744494D01*
X105368815Y-106841185D01*
X105465506Y-106920537D01*
X105575820Y-106979502D01*
X105695518Y-107015812D01*
X105820000Y-107028072D01*
X106534250Y-107025000D01*
X106693000Y-106866250D01*
X106693000Y-105967000D01*
X106947000Y-105967000D01*
X106947000Y-106866250D01*
X107105750Y-107025000D01*
X107820000Y-107028072D01*
X107944482Y-107015812D01*
X108064180Y-106979502D01*
X108174494Y-106920537D01*
X108271185Y-106841185D01*
X108350537Y-106744494D01*
X108409502Y-106634180D01*
X108445812Y-106514482D01*
X108458072Y-106390000D01*
X108455000Y-106125750D01*
X108296250Y-105967000D01*
X106947000Y-105967000D01*
X106693000Y-105967000D01*
X105343750Y-105967000D01*
X105185000Y-106125750D01*
X105181928Y-106390000D01*
X104800000Y-106390000D01*
X104800000Y-101890000D01*
X105181928Y-101890000D01*
X105181928Y-102990000D01*
X105194188Y-103114482D01*
X105230498Y-103234180D01*
X105260335Y-103290000D01*
X105230498Y-103345820D01*
X105194188Y-103465518D01*
X105181928Y-103590000D01*
X105181928Y-104690000D01*
X105194188Y-104814482D01*
X105230498Y-104934180D01*
X105260335Y-104990000D01*
X105230498Y-105045820D01*
X105194188Y-105165518D01*
X105181928Y-105290000D01*
X105185000Y-105554250D01*
X105343750Y-105713000D01*
X106693000Y-105713000D01*
X106693000Y-105693000D01*
X106947000Y-105693000D01*
X106947000Y-105713000D01*
X108296250Y-105713000D01*
X108455000Y-105554250D01*
X108458072Y-105290000D01*
X108445812Y-105165518D01*
X108409502Y-105045820D01*
X108379665Y-104990000D01*
X108409502Y-104934180D01*
X108445812Y-104814482D01*
X108458072Y-104690000D01*
X108458072Y-104062085D01*
X109981928Y-102538229D01*
X109981928Y-102990000D01*
X109994188Y-103114482D01*
X110030498Y-103234180D01*
X110060335Y-103290000D01*
X110030498Y-103345820D01*
X109994188Y-103465518D01*
X109981928Y-103590000D01*
X109981928Y-104690000D01*
X109994188Y-104814482D01*
X110030498Y-104934180D01*
X110060335Y-104990000D01*
X110030498Y-105045820D01*
X109994188Y-105165518D01*
X109981928Y-105290000D01*
X109981928Y-106226494D01*
X109662451Y-106545971D01*
X109628684Y-106573683D01*
X109600971Y-106607451D01*
X109600968Y-106607454D01*
X109518090Y-106708441D01*
X109435912Y-106862187D01*
X109385305Y-107029010D01*
X109368219Y-107202500D01*
X109372501Y-107245979D01*
X109372501Y-108051004D01*
X109292038Y-108117038D01*
X109286658Y-108123594D01*
X109221185Y-108043815D01*
X109124494Y-107964463D01*
X109014180Y-107905498D01*
X108894482Y-107869188D01*
X108770000Y-107856928D01*
X108468250Y-107860000D01*
X108309500Y-108018750D01*
X108309500Y-109093000D01*
X108329500Y-109093000D01*
X108329500Y-109347000D01*
X108309500Y-109347000D01*
X108309500Y-110421250D01*
X108468250Y-110580000D01*
X108770000Y-110583072D01*
X108894482Y-110570812D01*
X109014180Y-110534502D01*
X109124494Y-110475537D01*
X109221185Y-110396185D01*
X109286658Y-110316406D01*
X109292038Y-110322962D01*
X109426614Y-110433405D01*
X109580150Y-110515472D01*
X109746746Y-110566008D01*
X109920000Y-110583072D01*
X109966494Y-110583072D01*
X111103470Y-111720049D01*
X111131183Y-111753817D01*
X111164951Y-111781530D01*
X111164953Y-111781532D01*
X111265940Y-111864410D01*
X111265941Y-111864411D01*
X111419687Y-111946589D01*
X111586510Y-111997195D01*
X111716523Y-112010000D01*
X111716531Y-112010000D01*
X111760000Y-112014281D01*
X111803469Y-112010000D01*
X119971533Y-112010000D01*
X120014999Y-112014281D01*
X120058465Y-112010000D01*
X128861533Y-112010000D01*
X128904999Y-112014281D01*
X128948465Y-112010000D01*
X137751533Y-112010000D01*
X137794999Y-112014281D01*
X137838465Y-112010000D01*
X146641533Y-112010000D01*
X146684999Y-112014281D01*
X146728465Y-112010000D01*
X155531533Y-112010000D01*
X155574999Y-112014281D01*
X155618465Y-112010000D01*
X164421533Y-112010000D01*
X164464999Y-112014281D01*
X164508465Y-112010000D01*
X173311531Y-112010000D01*
X173355000Y-112014281D01*
X173398469Y-112010000D01*
X173398477Y-112010000D01*
X173528490Y-111997195D01*
X173695313Y-111946589D01*
X173849059Y-111864411D01*
X173983817Y-111753817D01*
X174011534Y-111720044D01*
X175895051Y-109836528D01*
X175928818Y-109808816D01*
X176039412Y-109674058D01*
X176121590Y-109520312D01*
X176172196Y-109353489D01*
X176185001Y-109223476D01*
X176185001Y-109223468D01*
X176189282Y-109179999D01*
X176185001Y-109136530D01*
X176185001Y-107641577D01*
X177125050Y-106701529D01*
X177158817Y-106673817D01*
X177269411Y-106539059D01*
X177351589Y-106385313D01*
X177402195Y-106218490D01*
X177415000Y-106088477D01*
X177415000Y-106088467D01*
X177419281Y-106045001D01*
X177415000Y-106001535D01*
X177415000Y-78055463D01*
X177419281Y-78011997D01*
X177415000Y-77968531D01*
X177415000Y-77968521D01*
X177402195Y-77838508D01*
X177351589Y-77671685D01*
X177269411Y-77517939D01*
X177245210Y-77488450D01*
X177186532Y-77416951D01*
X177186530Y-77416949D01*
X177158817Y-77383181D01*
X177125049Y-77355468D01*
X174659535Y-74889955D01*
X174631818Y-74856182D01*
X174497060Y-74745588D01*
X174343314Y-74663410D01*
X174176491Y-74612804D01*
X174046478Y-74599999D01*
X174046470Y-74599999D01*
X174003001Y-74595718D01*
X173959532Y-74599999D01*
X166513521Y-74599999D01*
X166489502Y-74520820D01*
X166430537Y-74410506D01*
X166351185Y-74313815D01*
X166254494Y-74234463D01*
X166144180Y-74175498D01*
X166024482Y-74139188D01*
X165900000Y-74126928D01*
X164300000Y-74126928D01*
X164175518Y-74139188D01*
X164055820Y-74175498D01*
X163945506Y-74234463D01*
X163848815Y-74313815D01*
X163769463Y-74410506D01*
X163710498Y-74520820D01*
X163674188Y-74640518D01*
X163661928Y-74765000D01*
X163661928Y-76365000D01*
X163674188Y-76489482D01*
X163710498Y-76609180D01*
X163769463Y-76719494D01*
X163848815Y-76816185D01*
X163945506Y-76895537D01*
X164055820Y-76954502D01*
X164175518Y-76990812D01*
X164300000Y-77003072D01*
X164651494Y-77003072D01*
X165465001Y-77816580D01*
X165465001Y-79177098D01*
X165311816Y-79138700D01*
X165029488Y-79124783D01*
X164749870Y-79166213D01*
X164483708Y-79261397D01*
X164358486Y-79328329D01*
X164286903Y-79572298D01*
X165100000Y-80385395D01*
X165114143Y-80371253D01*
X165293748Y-80550858D01*
X165279605Y-80565000D01*
X165293748Y-80579143D01*
X165114143Y-80758748D01*
X165100000Y-80744605D01*
X164286903Y-81557702D01*
X164358486Y-81801671D01*
X164613996Y-81922571D01*
X164888184Y-81991300D01*
X165170512Y-82005217D01*
X165450130Y-81963787D01*
X165465002Y-81958469D01*
X165465002Y-84108419D01*
X164548422Y-85025000D01*
X164333514Y-85025000D01*
X164075595Y-85076304D01*
X163832641Y-85176939D01*
X163613987Y-85323038D01*
X163462025Y-85475000D01*
X142471476Y-85475000D01*
X142426905Y-85391614D01*
X142316462Y-85257038D01*
X142181886Y-85146595D01*
X142028350Y-85064528D01*
X141861754Y-85013992D01*
X141688500Y-84996928D01*
X141013500Y-84996928D01*
X140840246Y-85013992D01*
X140673650Y-85064528D01*
X140520114Y-85146595D01*
X140385538Y-85257038D01*
X140380158Y-85263594D01*
X140314685Y-85183815D01*
X140217994Y-85104463D01*
X140107680Y-85045498D01*
X139987982Y-85009188D01*
X139863500Y-84996928D01*
X139561750Y-85000000D01*
X139403000Y-85158750D01*
X139403000Y-86233000D01*
X139423000Y-86233000D01*
X139423000Y-86487000D01*
X139403000Y-86487000D01*
X139403000Y-86507000D01*
X139149000Y-86507000D01*
X139149000Y-86487000D01*
X139129000Y-86487000D01*
X139129000Y-86233000D01*
X139149000Y-86233000D01*
X139149000Y-85158750D01*
X138990250Y-85000000D01*
X138688500Y-84996928D01*
X138564018Y-85009188D01*
X138444320Y-85045498D01*
X138334006Y-85104463D01*
X138263072Y-85162677D01*
X138263072Y-83990000D01*
X138250812Y-83865518D01*
X138214502Y-83745820D01*
X138155537Y-83635506D01*
X138076185Y-83538815D01*
X137979494Y-83459463D01*
X137869180Y-83400498D01*
X137749482Y-83364188D01*
X137625000Y-83351928D01*
X135425000Y-83351928D01*
X135300518Y-83364188D01*
X135180820Y-83400498D01*
X135070506Y-83459463D01*
X134973815Y-83538815D01*
X134894463Y-83635506D01*
X134835498Y-83745820D01*
X134799188Y-83865518D01*
X134786928Y-83990000D01*
X134786928Y-86190000D01*
X134799188Y-86314482D01*
X134835498Y-86434180D01*
X134894463Y-86544494D01*
X134973815Y-86641185D01*
X135070506Y-86720537D01*
X135180820Y-86779502D01*
X135300518Y-86815812D01*
X135425000Y-86828072D01*
X137625000Y-86828072D01*
X137749482Y-86815812D01*
X137869180Y-86779502D01*
X137979494Y-86720537D01*
X138053401Y-86659883D01*
X138050428Y-87085000D01*
X138062688Y-87209482D01*
X138098998Y-87329180D01*
X138157963Y-87439494D01*
X138237315Y-87536185D01*
X138334006Y-87615537D01*
X138384036Y-87642279D01*
X138327580Y-87668963D01*
X138101586Y-87836481D01*
X137912615Y-88044869D01*
X137801067Y-88230865D01*
X137796680Y-88220273D01*
X137639637Y-87985241D01*
X137439759Y-87785363D01*
X137204727Y-87628320D01*
X136943574Y-87520147D01*
X136666335Y-87465000D01*
X136383665Y-87465000D01*
X136106426Y-87520147D01*
X135845273Y-87628320D01*
X135610241Y-87785363D01*
X135410363Y-87985241D01*
X135255000Y-88217759D01*
X135099637Y-87985241D01*
X134899759Y-87785363D01*
X134664727Y-87628320D01*
X134403574Y-87520147D01*
X134126335Y-87465000D01*
X133843665Y-87465000D01*
X133566426Y-87520147D01*
X133305273Y-87628320D01*
X133070241Y-87785363D01*
X132870363Y-87985241D01*
X132715000Y-88217759D01*
X132559637Y-87985241D01*
X132359759Y-87785363D01*
X132124727Y-87628320D01*
X131863574Y-87520147D01*
X131586335Y-87465000D01*
X131303665Y-87465000D01*
X131026426Y-87520147D01*
X130765273Y-87628320D01*
X130530241Y-87785363D01*
X130330363Y-87985241D01*
X130175000Y-88217759D01*
X130019637Y-87985241D01*
X129819759Y-87785363D01*
X129584727Y-87628320D01*
X129323574Y-87520147D01*
X129046335Y-87465000D01*
X128763665Y-87465000D01*
X128486426Y-87520147D01*
X128225273Y-87628320D01*
X127990241Y-87785363D01*
X127790363Y-87985241D01*
X127635000Y-88217759D01*
X127479637Y-87985241D01*
X127279759Y-87785363D01*
X127044727Y-87628320D01*
X126783574Y-87520147D01*
X126506335Y-87465000D01*
X126223665Y-87465000D01*
X125946426Y-87520147D01*
X125685273Y-87628320D01*
X125450241Y-87785363D01*
X125250363Y-87985241D01*
X125095000Y-88217759D01*
X124939637Y-87985241D01*
X124739759Y-87785363D01*
X124504727Y-87628320D01*
X124243574Y-87520147D01*
X123966335Y-87465000D01*
X123683665Y-87465000D01*
X123406426Y-87520147D01*
X123145273Y-87628320D01*
X122910241Y-87785363D01*
X122710363Y-87985241D01*
X122623661Y-88115000D01*
X120398556Y-88115000D01*
X120360000Y-88111203D01*
X120321444Y-88115000D01*
X120321439Y-88115000D01*
X120281026Y-88118980D01*
X120206113Y-88126358D01*
X120058140Y-88171246D01*
X119921767Y-88244138D01*
X119802236Y-88342236D01*
X119777653Y-88372190D01*
X106897915Y-101251928D01*
X105820000Y-101251928D01*
X105695518Y-101264188D01*
X105575820Y-101300498D01*
X105465506Y-101359463D01*
X105368815Y-101438815D01*
X105289463Y-101535506D01*
X105230498Y-101645820D01*
X105194188Y-101765518D01*
X105181928Y-101890000D01*
X104800000Y-101890000D01*
X104800000Y-78710000D01*
X109821928Y-78710000D01*
X109821928Y-81310000D01*
X109834188Y-81434482D01*
X109870498Y-81554180D01*
X109929463Y-81664494D01*
X110008815Y-81761185D01*
X110105506Y-81840537D01*
X110215820Y-81899502D01*
X110335518Y-81935812D01*
X110460000Y-81948072D01*
X112446493Y-81948072D01*
X112853471Y-82355050D01*
X112881184Y-82388818D01*
X112914952Y-82416531D01*
X112914954Y-82416533D01*
X112935598Y-82433475D01*
X113015942Y-82499412D01*
X113169688Y-82581590D01*
X113336511Y-82632196D01*
X113466524Y-82645001D01*
X113466534Y-82645001D01*
X113510000Y-82649282D01*
X113553466Y-82645001D01*
X118584549Y-82645001D01*
X118540000Y-82868967D01*
X118540000Y-83191033D01*
X118602832Y-83506912D01*
X118726082Y-83804463D01*
X118905013Y-84072252D01*
X119132748Y-84299987D01*
X119400537Y-84478918D01*
X119698088Y-84602168D01*
X120013967Y-84665000D01*
X120336033Y-84665000D01*
X120651912Y-84602168D01*
X120949463Y-84478918D01*
X121217252Y-84299987D01*
X121444987Y-84072252D01*
X121623918Y-83804463D01*
X121747168Y-83506912D01*
X121810000Y-83191033D01*
X121810000Y-82868967D01*
X121779457Y-82715414D01*
X122028740Y-82765000D01*
X122321260Y-82765000D01*
X122608158Y-82707932D01*
X122878411Y-82595990D01*
X123121632Y-82433475D01*
X123328475Y-82226632D01*
X123490990Y-81983411D01*
X123602932Y-81713158D01*
X123660000Y-81426260D01*
X123660000Y-81133740D01*
X123606544Y-80864999D01*
X124743456Y-80864999D01*
X124690000Y-81133740D01*
X124690000Y-81426260D01*
X124747068Y-81713158D01*
X124859010Y-81983411D01*
X125021525Y-82226632D01*
X125228368Y-82433475D01*
X125471589Y-82595990D01*
X125741842Y-82707932D01*
X126028740Y-82765000D01*
X126321260Y-82765000D01*
X126608158Y-82707932D01*
X126878411Y-82595990D01*
X127121632Y-82433475D01*
X127328475Y-82226632D01*
X127490990Y-81983411D01*
X127602932Y-81713158D01*
X127660000Y-81426260D01*
X127660000Y-81133740D01*
X127606544Y-80864999D01*
X128508421Y-80864999D01*
X128704461Y-81061039D01*
X128690000Y-81133740D01*
X128690000Y-81426260D01*
X128747068Y-81713158D01*
X128859010Y-81983411D01*
X129021525Y-82226632D01*
X129228368Y-82433475D01*
X129471589Y-82595990D01*
X129741842Y-82707932D01*
X130028740Y-82765000D01*
X130321260Y-82765000D01*
X130570543Y-82715414D01*
X130540000Y-82868967D01*
X130540000Y-83191033D01*
X130602832Y-83506912D01*
X130726082Y-83804463D01*
X130905013Y-84072252D01*
X131132748Y-84299987D01*
X131400537Y-84478918D01*
X131698088Y-84602168D01*
X132013967Y-84665000D01*
X132336033Y-84665000D01*
X132651912Y-84602168D01*
X132949463Y-84478918D01*
X133217252Y-84299987D01*
X133444987Y-84072252D01*
X133623918Y-83804463D01*
X133747168Y-83506912D01*
X133810000Y-83191033D01*
X133810000Y-82868967D01*
X133747168Y-82553088D01*
X133623918Y-82255537D01*
X133444987Y-81987748D01*
X133217252Y-81760013D01*
X132949463Y-81581082D01*
X132651912Y-81457832D01*
X132336033Y-81395000D01*
X132013967Y-81395000D01*
X131698088Y-81457832D01*
X131649736Y-81477860D01*
X131660000Y-81426260D01*
X131660000Y-81133740D01*
X131602932Y-80846842D01*
X131490990Y-80576589D01*
X131328475Y-80333368D01*
X131121632Y-80126525D01*
X130878411Y-79964010D01*
X130608158Y-79852068D01*
X130572626Y-79845000D01*
X145246928Y-79845000D01*
X145246928Y-81445000D01*
X145259188Y-81569482D01*
X145295498Y-81689180D01*
X145354463Y-81799494D01*
X145433815Y-81896185D01*
X145530506Y-81975537D01*
X145640820Y-82034502D01*
X145760518Y-82070812D01*
X145885000Y-82083072D01*
X147485000Y-82083072D01*
X147609482Y-82070812D01*
X147729180Y-82034502D01*
X147839494Y-81975537D01*
X147936185Y-81896185D01*
X148015537Y-81799494D01*
X148074502Y-81689180D01*
X148110812Y-81569482D01*
X148123072Y-81445000D01*
X148123072Y-80327500D01*
X155206928Y-80327500D01*
X155206928Y-82232500D01*
X155219188Y-82356982D01*
X155255498Y-82476680D01*
X155314463Y-82586994D01*
X155393815Y-82683685D01*
X155490506Y-82763037D01*
X155600820Y-82822002D01*
X155720518Y-82858312D01*
X155845000Y-82870572D01*
X157845000Y-82870572D01*
X157969482Y-82858312D01*
X158089180Y-82822002D01*
X158199494Y-82763037D01*
X158296185Y-82683685D01*
X158375537Y-82586994D01*
X158434502Y-82476680D01*
X158470812Y-82356982D01*
X158483072Y-82232500D01*
X158483072Y-80635512D01*
X163659783Y-80635512D01*
X163701213Y-80915130D01*
X163796397Y-81181292D01*
X163863329Y-81306514D01*
X164107298Y-81378097D01*
X164920395Y-80565000D01*
X164107298Y-79751903D01*
X163863329Y-79823486D01*
X163742429Y-80078996D01*
X163673700Y-80353184D01*
X163659783Y-80635512D01*
X158483072Y-80635512D01*
X158483072Y-80327500D01*
X158470812Y-80203018D01*
X158434502Y-80083320D01*
X158375537Y-79973006D01*
X158296185Y-79876315D01*
X158199494Y-79796963D01*
X158107781Y-79747941D01*
X158220969Y-79606923D01*
X158364571Y-79331094D01*
X158435563Y-79112980D01*
X158315594Y-78867000D01*
X156972000Y-78867000D01*
X156972000Y-78887000D01*
X156718000Y-78887000D01*
X156718000Y-78867000D01*
X155374406Y-78867000D01*
X155254437Y-79112980D01*
X155325429Y-79331094D01*
X155469031Y-79606923D01*
X155582219Y-79747941D01*
X155490506Y-79796963D01*
X155393815Y-79876315D01*
X155314463Y-79973006D01*
X155255498Y-80083320D01*
X155219188Y-80203018D01*
X155206928Y-80327500D01*
X148123072Y-80327500D01*
X148123072Y-79845000D01*
X148110812Y-79720518D01*
X148074502Y-79600820D01*
X148015537Y-79490506D01*
X147936185Y-79393815D01*
X147839494Y-79314463D01*
X147729180Y-79255498D01*
X147609482Y-79219188D01*
X147485000Y-79206928D01*
X145885000Y-79206928D01*
X145760518Y-79219188D01*
X145640820Y-79255498D01*
X145530506Y-79314463D01*
X145433815Y-79393815D01*
X145354463Y-79490506D01*
X145295498Y-79600820D01*
X145259188Y-79720518D01*
X145246928Y-79845000D01*
X130572626Y-79845000D01*
X130321260Y-79795000D01*
X130028740Y-79795000D01*
X129956039Y-79809461D01*
X129531533Y-79384955D01*
X129503816Y-79351182D01*
X129369058Y-79240588D01*
X129215312Y-79158410D01*
X129048489Y-79107804D01*
X128918476Y-79094999D01*
X128918468Y-79094999D01*
X128874999Y-79090718D01*
X128831530Y-79094999D01*
X121122468Y-79094999D01*
X121078999Y-79090718D01*
X121035530Y-79094999D01*
X121035522Y-79094999D01*
X120920305Y-79106347D01*
X120905508Y-79107804D01*
X120854902Y-79123156D01*
X120738686Y-79158410D01*
X120584940Y-79240588D01*
X120584938Y-79240589D01*
X120584939Y-79240589D01*
X120483952Y-79323467D01*
X120483950Y-79323469D01*
X120450182Y-79351182D01*
X120422469Y-79384950D01*
X118932419Y-80875001D01*
X116990898Y-80875001D01*
X117075159Y-80706955D01*
X117176250Y-80339443D01*
X117203701Y-79959271D01*
X117156457Y-79581049D01*
X117036333Y-79219310D01*
X116904312Y-78972317D01*
X116609224Y-78840381D01*
X115439605Y-80010000D01*
X115453748Y-80024143D01*
X115274143Y-80203748D01*
X115260000Y-80189605D01*
X115245858Y-80203748D01*
X115066253Y-80024143D01*
X115080395Y-80010000D01*
X113910776Y-78840381D01*
X113698072Y-78935483D01*
X113698072Y-78710000D01*
X113693225Y-78660776D01*
X114090381Y-78660776D01*
X115260000Y-79830395D01*
X116429619Y-78660776D01*
X116297683Y-78365688D01*
X115956955Y-78194841D01*
X115589443Y-78093750D01*
X115209271Y-78066299D01*
X114831049Y-78113543D01*
X114469310Y-78233667D01*
X114222317Y-78365688D01*
X114090381Y-78660776D01*
X113693225Y-78660776D01*
X113685812Y-78585518D01*
X113649502Y-78465820D01*
X113590537Y-78355506D01*
X113511185Y-78258815D01*
X113414494Y-78179463D01*
X113304180Y-78120498D01*
X113184482Y-78084188D01*
X113060000Y-78071928D01*
X110460000Y-78071928D01*
X110335518Y-78084188D01*
X110215820Y-78120498D01*
X110105506Y-78179463D01*
X110008815Y-78258815D01*
X109929463Y-78355506D01*
X109870498Y-78465820D01*
X109834188Y-78585518D01*
X109821928Y-78710000D01*
X104800000Y-78710000D01*
X104800000Y-76868967D01*
X118540000Y-76868967D01*
X118540000Y-77191033D01*
X118602832Y-77506912D01*
X118726082Y-77804463D01*
X118905013Y-78072252D01*
X119132748Y-78299987D01*
X119400537Y-78478918D01*
X119698088Y-78602168D01*
X120013967Y-78665000D01*
X120336033Y-78665000D01*
X120651912Y-78602168D01*
X120949463Y-78478918D01*
X121217252Y-78299987D01*
X121444987Y-78072252D01*
X121623918Y-77804463D01*
X121747168Y-77506912D01*
X121810000Y-77191033D01*
X121810000Y-76868967D01*
X130540000Y-76868967D01*
X130540000Y-77191033D01*
X130602832Y-77506912D01*
X130726082Y-77804463D01*
X130905013Y-78072252D01*
X131132748Y-78299987D01*
X131400537Y-78478918D01*
X131698088Y-78602168D01*
X132013967Y-78665000D01*
X132336033Y-78665000D01*
X132651912Y-78602168D01*
X132949463Y-78478918D01*
X133217252Y-78299987D01*
X133444987Y-78072252D01*
X133623918Y-77804463D01*
X133747168Y-77506912D01*
X133810000Y-77191033D01*
X133810000Y-76868967D01*
X133747168Y-76553088D01*
X133623918Y-76255537D01*
X133444987Y-75987748D01*
X133217252Y-75760013D01*
X132949463Y-75581082D01*
X132651912Y-75457832D01*
X132336033Y-75395000D01*
X132013967Y-75395000D01*
X131698088Y-75457832D01*
X131400537Y-75581082D01*
X131132748Y-75760013D01*
X130905013Y-75987748D01*
X130726082Y-76255537D01*
X130602832Y-76553088D01*
X130540000Y-76868967D01*
X121810000Y-76868967D01*
X121747168Y-76553088D01*
X121623918Y-76255537D01*
X121444987Y-75987748D01*
X121217252Y-75760013D01*
X120949463Y-75581082D01*
X120651912Y-75457832D01*
X120336033Y-75395000D01*
X120013967Y-75395000D01*
X119698088Y-75457832D01*
X119400537Y-75581082D01*
X119132748Y-75760013D01*
X118905013Y-75987748D01*
X118726082Y-76255537D01*
X118602832Y-76553088D01*
X118540000Y-76868967D01*
X104800000Y-76868967D01*
X104800000Y-74759117D01*
X134790000Y-74759117D01*
X134790000Y-75100883D01*
X134856675Y-75436081D01*
X134987463Y-75751831D01*
X135177337Y-76035998D01*
X135419002Y-76277663D01*
X135703169Y-76467537D01*
X136018919Y-76598325D01*
X136354117Y-76665000D01*
X136695883Y-76665000D01*
X136833119Y-76637702D01*
X145871903Y-76637702D01*
X145943486Y-76881671D01*
X146198996Y-77002571D01*
X146473184Y-77071300D01*
X146755512Y-77085217D01*
X147035130Y-77043787D01*
X147301292Y-76948603D01*
X147426514Y-76881671D01*
X147498097Y-76637702D01*
X146685000Y-75824605D01*
X145871903Y-76637702D01*
X136833119Y-76637702D01*
X137031081Y-76598325D01*
X137346831Y-76467537D01*
X137630998Y-76277663D01*
X137872663Y-76035998D01*
X138062537Y-75751831D01*
X138077580Y-75715512D01*
X145244783Y-75715512D01*
X145286213Y-75995130D01*
X145381397Y-76261292D01*
X145448329Y-76386514D01*
X145692298Y-76458097D01*
X146505395Y-75645000D01*
X146864605Y-75645000D01*
X147677702Y-76458097D01*
X147921671Y-76386514D01*
X148009924Y-76200000D01*
X155202319Y-76200000D01*
X155232970Y-76511204D01*
X155323745Y-76810449D01*
X155471155Y-77086235D01*
X155669537Y-77327963D01*
X155848899Y-77475163D01*
X155663685Y-77630563D01*
X155469031Y-77873077D01*
X155325429Y-78148906D01*
X155254437Y-78367020D01*
X155374406Y-78613000D01*
X156718000Y-78613000D01*
X156718000Y-78593000D01*
X156972000Y-78593000D01*
X156972000Y-78613000D01*
X158315594Y-78613000D01*
X158435563Y-78367020D01*
X158364571Y-78148906D01*
X158220969Y-77873077D01*
X158026315Y-77630563D01*
X157841101Y-77475163D01*
X158020463Y-77327963D01*
X158218845Y-77086235D01*
X158366255Y-76810449D01*
X158457030Y-76511204D01*
X158487681Y-76200000D01*
X158457030Y-75888796D01*
X158366255Y-75589551D01*
X158218845Y-75313765D01*
X158020463Y-75072037D01*
X157778735Y-74873655D01*
X157502949Y-74726245D01*
X157203704Y-74635470D01*
X156970486Y-74612500D01*
X156719514Y-74612500D01*
X156486296Y-74635470D01*
X156187051Y-74726245D01*
X155911265Y-74873655D01*
X155669537Y-75072037D01*
X155471155Y-75313765D01*
X155323745Y-75589551D01*
X155232970Y-75888796D01*
X155202319Y-76200000D01*
X148009924Y-76200000D01*
X148042571Y-76131004D01*
X148111300Y-75856816D01*
X148125217Y-75574488D01*
X148083787Y-75294870D01*
X147988603Y-75028708D01*
X147921671Y-74903486D01*
X147677702Y-74831903D01*
X146864605Y-75645000D01*
X146505395Y-75645000D01*
X145692298Y-74831903D01*
X145448329Y-74903486D01*
X145327429Y-75158996D01*
X145258700Y-75433184D01*
X145244783Y-75715512D01*
X138077580Y-75715512D01*
X138193325Y-75436081D01*
X138260000Y-75100883D01*
X138260000Y-74759117D01*
X138238753Y-74652298D01*
X145871903Y-74652298D01*
X146685000Y-75465395D01*
X147498097Y-74652298D01*
X147426514Y-74408329D01*
X147171004Y-74287429D01*
X146896816Y-74218700D01*
X146614488Y-74204783D01*
X146334870Y-74246213D01*
X146068708Y-74341397D01*
X145943486Y-74408329D01*
X145871903Y-74652298D01*
X138238753Y-74652298D01*
X138193325Y-74423919D01*
X138062537Y-74108169D01*
X137872663Y-73824002D01*
X137630998Y-73582337D01*
X137346831Y-73392463D01*
X137031081Y-73261675D01*
X136695883Y-73195000D01*
X136354117Y-73195000D01*
X136018919Y-73261675D01*
X135703169Y-73392463D01*
X135419002Y-73582337D01*
X135177337Y-73824002D01*
X134987463Y-74108169D01*
X134856675Y-74423919D01*
X134790000Y-74759117D01*
X104800000Y-74759117D01*
X104800000Y-73050000D01*
X177775000Y-73050000D01*
X177775001Y-112370000D01*
%TA.AperFunction,Conductor*%
D31*
G36*
X177775001Y-112370000D02*
G01*
X104800000Y-112370000D01*
X104800000Y-109945000D01*
X106956928Y-109945000D01*
X106969188Y-110069482D01*
X107005498Y-110189180D01*
X107064463Y-110299494D01*
X107143815Y-110396185D01*
X107240506Y-110475537D01*
X107350820Y-110534502D01*
X107470518Y-110570812D01*
X107595000Y-110583072D01*
X107896750Y-110580000D01*
X108055500Y-110421250D01*
X108055500Y-109347000D01*
X107118750Y-109347000D01*
X106960000Y-109505750D01*
X106956928Y-109945000D01*
X104800000Y-109945000D01*
X104800000Y-108495000D01*
X106956928Y-108495000D01*
X106960000Y-108934250D01*
X107118750Y-109093000D01*
X108055500Y-109093000D01*
X108055500Y-108018750D01*
X107896750Y-107860000D01*
X107595000Y-107856928D01*
X107470518Y-107869188D01*
X107350820Y-107905498D01*
X107240506Y-107964463D01*
X107143815Y-108043815D01*
X107064463Y-108140506D01*
X107005498Y-108250820D01*
X106969188Y-108370518D01*
X106956928Y-108495000D01*
X104800000Y-108495000D01*
X104800000Y-106390000D01*
X105181928Y-106390000D01*
X105194188Y-106514482D01*
X105230498Y-106634180D01*
X105289463Y-106744494D01*
X105368815Y-106841185D01*
X105465506Y-106920537D01*
X105575820Y-106979502D01*
X105695518Y-107015812D01*
X105820000Y-107028072D01*
X106534250Y-107025000D01*
X106693000Y-106866250D01*
X106693000Y-105967000D01*
X106947000Y-105967000D01*
X106947000Y-106866250D01*
X107105750Y-107025000D01*
X107820000Y-107028072D01*
X107944482Y-107015812D01*
X108064180Y-106979502D01*
X108174494Y-106920537D01*
X108271185Y-106841185D01*
X108350537Y-106744494D01*
X108409502Y-106634180D01*
X108445812Y-106514482D01*
X108458072Y-106390000D01*
X108455000Y-106125750D01*
X108296250Y-105967000D01*
X106947000Y-105967000D01*
X106693000Y-105967000D01*
X105343750Y-105967000D01*
X105185000Y-106125750D01*
X105181928Y-106390000D01*
X104800000Y-106390000D01*
X104800000Y-101890000D01*
X105181928Y-101890000D01*
X105181928Y-102990000D01*
X105194188Y-103114482D01*
X105230498Y-103234180D01*
X105260335Y-103290000D01*
X105230498Y-103345820D01*
X105194188Y-103465518D01*
X105181928Y-103590000D01*
X105181928Y-104690000D01*
X105194188Y-104814482D01*
X105230498Y-104934180D01*
X105260335Y-104990000D01*
X105230498Y-105045820D01*
X105194188Y-105165518D01*
X105181928Y-105290000D01*
X105185000Y-105554250D01*
X105343750Y-105713000D01*
X106693000Y-105713000D01*
X106693000Y-105693000D01*
X106947000Y-105693000D01*
X106947000Y-105713000D01*
X108296250Y-105713000D01*
X108455000Y-105554250D01*
X108458072Y-105290000D01*
X108445812Y-105165518D01*
X108409502Y-105045820D01*
X108379665Y-104990000D01*
X108409502Y-104934180D01*
X108445812Y-104814482D01*
X108458072Y-104690000D01*
X108458072Y-104062085D01*
X109981928Y-102538229D01*
X109981928Y-102990000D01*
X109994188Y-103114482D01*
X110030498Y-103234180D01*
X110060335Y-103290000D01*
X110030498Y-103345820D01*
X109994188Y-103465518D01*
X109981928Y-103590000D01*
X109981928Y-104690000D01*
X109994188Y-104814482D01*
X110030498Y-104934180D01*
X110060335Y-104990000D01*
X110030498Y-105045820D01*
X109994188Y-105165518D01*
X109981928Y-105290000D01*
X109981928Y-106226494D01*
X109662451Y-106545971D01*
X109628684Y-106573683D01*
X109600971Y-106607451D01*
X109600968Y-106607454D01*
X109518090Y-106708441D01*
X109435912Y-106862187D01*
X109385305Y-107029010D01*
X109368219Y-107202500D01*
X109372501Y-107245979D01*
X109372501Y-108051004D01*
X109292038Y-108117038D01*
X109286658Y-108123594D01*
X109221185Y-108043815D01*
X109124494Y-107964463D01*
X109014180Y-107905498D01*
X108894482Y-107869188D01*
X108770000Y-107856928D01*
X108468250Y-107860000D01*
X108309500Y-108018750D01*
X108309500Y-109093000D01*
X108329500Y-109093000D01*
X108329500Y-109347000D01*
X108309500Y-109347000D01*
X108309500Y-110421250D01*
X108468250Y-110580000D01*
X108770000Y-110583072D01*
X108894482Y-110570812D01*
X109014180Y-110534502D01*
X109124494Y-110475537D01*
X109221185Y-110396185D01*
X109286658Y-110316406D01*
X109292038Y-110322962D01*
X109426614Y-110433405D01*
X109580150Y-110515472D01*
X109746746Y-110566008D01*
X109920000Y-110583072D01*
X109966494Y-110583072D01*
X111103470Y-111720049D01*
X111131183Y-111753817D01*
X111164951Y-111781530D01*
X111164953Y-111781532D01*
X111265940Y-111864410D01*
X111265941Y-111864411D01*
X111419687Y-111946589D01*
X111586510Y-111997195D01*
X111716523Y-112010000D01*
X111716531Y-112010000D01*
X111760000Y-112014281D01*
X111803469Y-112010000D01*
X119971533Y-112010000D01*
X120014999Y-112014281D01*
X120058465Y-112010000D01*
X128861533Y-112010000D01*
X128904999Y-112014281D01*
X128948465Y-112010000D01*
X137751533Y-112010000D01*
X137794999Y-112014281D01*
X137838465Y-112010000D01*
X146641533Y-112010000D01*
X146684999Y-112014281D01*
X146728465Y-112010000D01*
X155531533Y-112010000D01*
X155574999Y-112014281D01*
X155618465Y-112010000D01*
X164421533Y-112010000D01*
X164464999Y-112014281D01*
X164508465Y-112010000D01*
X173311531Y-112010000D01*
X173355000Y-112014281D01*
X173398469Y-112010000D01*
X173398477Y-112010000D01*
X173528490Y-111997195D01*
X173695313Y-111946589D01*
X173849059Y-111864411D01*
X173983817Y-111753817D01*
X174011534Y-111720044D01*
X175895051Y-109836528D01*
X175928818Y-109808816D01*
X176039412Y-109674058D01*
X176121590Y-109520312D01*
X176172196Y-109353489D01*
X176185001Y-109223476D01*
X176185001Y-109223468D01*
X176189282Y-109179999D01*
X176185001Y-109136530D01*
X176185001Y-107641577D01*
X177125050Y-106701529D01*
X177158817Y-106673817D01*
X177269411Y-106539059D01*
X177351589Y-106385313D01*
X177402195Y-106218490D01*
X177415000Y-106088477D01*
X177415000Y-106088467D01*
X177419281Y-106045001D01*
X177415000Y-106001535D01*
X177415000Y-78055463D01*
X177419281Y-78011997D01*
X177415000Y-77968531D01*
X177415000Y-77968521D01*
X177402195Y-77838508D01*
X177351589Y-77671685D01*
X177269411Y-77517939D01*
X177245210Y-77488450D01*
X177186532Y-77416951D01*
X177186530Y-77416949D01*
X177158817Y-77383181D01*
X177125049Y-77355468D01*
X174659535Y-74889955D01*
X174631818Y-74856182D01*
X174497060Y-74745588D01*
X174343314Y-74663410D01*
X174176491Y-74612804D01*
X174046478Y-74599999D01*
X174046470Y-74599999D01*
X174003001Y-74595718D01*
X173959532Y-74599999D01*
X166513521Y-74599999D01*
X166489502Y-74520820D01*
X166430537Y-74410506D01*
X166351185Y-74313815D01*
X166254494Y-74234463D01*
X166144180Y-74175498D01*
X166024482Y-74139188D01*
X165900000Y-74126928D01*
X164300000Y-74126928D01*
X164175518Y-74139188D01*
X164055820Y-74175498D01*
X163945506Y-74234463D01*
X163848815Y-74313815D01*
X163769463Y-74410506D01*
X163710498Y-74520820D01*
X163674188Y-74640518D01*
X163661928Y-74765000D01*
X163661928Y-76365000D01*
X163674188Y-76489482D01*
X163710498Y-76609180D01*
X163769463Y-76719494D01*
X163848815Y-76816185D01*
X163945506Y-76895537D01*
X164055820Y-76954502D01*
X164175518Y-76990812D01*
X164300000Y-77003072D01*
X164651494Y-77003072D01*
X165465001Y-77816580D01*
X165465001Y-79177098D01*
X165311816Y-79138700D01*
X165029488Y-79124783D01*
X164749870Y-79166213D01*
X164483708Y-79261397D01*
X164358486Y-79328329D01*
X164286903Y-79572298D01*
X165100000Y-80385395D01*
X165114143Y-80371253D01*
X165293748Y-80550858D01*
X165279605Y-80565000D01*
X165293748Y-80579143D01*
X165114143Y-80758748D01*
X165100000Y-80744605D01*
X164286903Y-81557702D01*
X164358486Y-81801671D01*
X164613996Y-81922571D01*
X164888184Y-81991300D01*
X165170512Y-82005217D01*
X165450130Y-81963787D01*
X165465002Y-81958469D01*
X165465002Y-84108419D01*
X164548422Y-85025000D01*
X164333514Y-85025000D01*
X164075595Y-85076304D01*
X163832641Y-85176939D01*
X163613987Y-85323038D01*
X163462025Y-85475000D01*
X142471476Y-85475000D01*
X142426905Y-85391614D01*
X142316462Y-85257038D01*
X142181886Y-85146595D01*
X142028350Y-85064528D01*
X141861754Y-85013992D01*
X141688500Y-84996928D01*
X141013500Y-84996928D01*
X140840246Y-85013992D01*
X140673650Y-85064528D01*
X140520114Y-85146595D01*
X140385538Y-85257038D01*
X140380158Y-85263594D01*
X140314685Y-85183815D01*
X140217994Y-85104463D01*
X140107680Y-85045498D01*
X139987982Y-85009188D01*
X139863500Y-84996928D01*
X139561750Y-85000000D01*
X139403000Y-85158750D01*
X139403000Y-86233000D01*
X139423000Y-86233000D01*
X139423000Y-86487000D01*
X139403000Y-86487000D01*
X139403000Y-86507000D01*
X139149000Y-86507000D01*
X139149000Y-86487000D01*
X139129000Y-86487000D01*
X139129000Y-86233000D01*
X139149000Y-86233000D01*
X139149000Y-85158750D01*
X138990250Y-85000000D01*
X138688500Y-84996928D01*
X138564018Y-85009188D01*
X138444320Y-85045498D01*
X138334006Y-85104463D01*
X138263072Y-85162677D01*
X138263072Y-83990000D01*
X138250812Y-83865518D01*
X138214502Y-83745820D01*
X138155537Y-83635506D01*
X138076185Y-83538815D01*
X137979494Y-83459463D01*
X137869180Y-83400498D01*
X137749482Y-83364188D01*
X137625000Y-83351928D01*
X135425000Y-83351928D01*
X135300518Y-83364188D01*
X135180820Y-83400498D01*
X135070506Y-83459463D01*
X134973815Y-83538815D01*
X134894463Y-83635506D01*
X134835498Y-83745820D01*
X134799188Y-83865518D01*
X134786928Y-83990000D01*
X134786928Y-86190000D01*
X134799188Y-86314482D01*
X134835498Y-86434180D01*
X134894463Y-86544494D01*
X134973815Y-86641185D01*
X135070506Y-86720537D01*
X135180820Y-86779502D01*
X135300518Y-86815812D01*
X135425000Y-86828072D01*
X137625000Y-86828072D01*
X137749482Y-86815812D01*
X137869180Y-86779502D01*
X137979494Y-86720537D01*
X138053401Y-86659883D01*
X138050428Y-87085000D01*
X138062688Y-87209482D01*
X138098998Y-87329180D01*
X138157963Y-87439494D01*
X138237315Y-87536185D01*
X138334006Y-87615537D01*
X138384036Y-87642279D01*
X138327580Y-87668963D01*
X138101586Y-87836481D01*
X137912615Y-88044869D01*
X137801067Y-88230865D01*
X137796680Y-88220273D01*
X137639637Y-87985241D01*
X137439759Y-87785363D01*
X137204727Y-87628320D01*
X136943574Y-87520147D01*
X136666335Y-87465000D01*
X136383665Y-87465000D01*
X136106426Y-87520147D01*
X135845273Y-87628320D01*
X135610241Y-87785363D01*
X135410363Y-87985241D01*
X135255000Y-88217759D01*
X135099637Y-87985241D01*
X134899759Y-87785363D01*
X134664727Y-87628320D01*
X134403574Y-87520147D01*
X134126335Y-87465000D01*
X133843665Y-87465000D01*
X133566426Y-87520147D01*
X133305273Y-87628320D01*
X133070241Y-87785363D01*
X132870363Y-87985241D01*
X132715000Y-88217759D01*
X132559637Y-87985241D01*
X132359759Y-87785363D01*
X132124727Y-87628320D01*
X131863574Y-87520147D01*
X131586335Y-87465000D01*
X131303665Y-87465000D01*
X131026426Y-87520147D01*
X130765273Y-87628320D01*
X130530241Y-87785363D01*
X130330363Y-87985241D01*
X130175000Y-88217759D01*
X130019637Y-87985241D01*
X129819759Y-87785363D01*
X129584727Y-87628320D01*
X129323574Y-87520147D01*
X129046335Y-87465000D01*
X128763665Y-87465000D01*
X128486426Y-87520147D01*
X128225273Y-87628320D01*
X127990241Y-87785363D01*
X127790363Y-87985241D01*
X127635000Y-88217759D01*
X127479637Y-87985241D01*
X127279759Y-87785363D01*
X127044727Y-87628320D01*
X126783574Y-87520147D01*
X126506335Y-87465000D01*
X126223665Y-87465000D01*
X125946426Y-87520147D01*
X125685273Y-87628320D01*
X125450241Y-87785363D01*
X125250363Y-87985241D01*
X125095000Y-88217759D01*
X124939637Y-87985241D01*
X124739759Y-87785363D01*
X124504727Y-87628320D01*
X124243574Y-87520147D01*
X123966335Y-87465000D01*
X123683665Y-87465000D01*
X123406426Y-87520147D01*
X123145273Y-87628320D01*
X122910241Y-87785363D01*
X122710363Y-87985241D01*
X122623661Y-88115000D01*
X120398556Y-88115000D01*
X120360000Y-88111203D01*
X120321444Y-88115000D01*
X120321439Y-88115000D01*
X120281026Y-88118980D01*
X120206113Y-88126358D01*
X120058140Y-88171246D01*
X119921767Y-88244138D01*
X119802236Y-88342236D01*
X119777653Y-88372190D01*
X106897915Y-101251928D01*
X105820000Y-101251928D01*
X105695518Y-101264188D01*
X105575820Y-101300498D01*
X105465506Y-101359463D01*
X105368815Y-101438815D01*
X105289463Y-101535506D01*
X105230498Y-101645820D01*
X105194188Y-101765518D01*
X105181928Y-101890000D01*
X104800000Y-101890000D01*
X104800000Y-78710000D01*
X109821928Y-78710000D01*
X109821928Y-81310000D01*
X109834188Y-81434482D01*
X109870498Y-81554180D01*
X109929463Y-81664494D01*
X110008815Y-81761185D01*
X110105506Y-81840537D01*
X110215820Y-81899502D01*
X110335518Y-81935812D01*
X110460000Y-81948072D01*
X112446493Y-81948072D01*
X112853471Y-82355050D01*
X112881184Y-82388818D01*
X112914952Y-82416531D01*
X112914954Y-82416533D01*
X112935598Y-82433475D01*
X113015942Y-82499412D01*
X113169688Y-82581590D01*
X113336511Y-82632196D01*
X113466524Y-82645001D01*
X113466534Y-82645001D01*
X113510000Y-82649282D01*
X113553466Y-82645001D01*
X118584549Y-82645001D01*
X118540000Y-82868967D01*
X118540000Y-83191033D01*
X118602832Y-83506912D01*
X118726082Y-83804463D01*
X118905013Y-84072252D01*
X119132748Y-84299987D01*
X119400537Y-84478918D01*
X119698088Y-84602168D01*
X120013967Y-84665000D01*
X120336033Y-84665000D01*
X120651912Y-84602168D01*
X120949463Y-84478918D01*
X121217252Y-84299987D01*
X121444987Y-84072252D01*
X121623918Y-83804463D01*
X121747168Y-83506912D01*
X121810000Y-83191033D01*
X121810000Y-82868967D01*
X121779457Y-82715414D01*
X122028740Y-82765000D01*
X122321260Y-82765000D01*
X122608158Y-82707932D01*
X122878411Y-82595990D01*
X123121632Y-82433475D01*
X123328475Y-82226632D01*
X123490990Y-81983411D01*
X123602932Y-81713158D01*
X123660000Y-81426260D01*
X123660000Y-81133740D01*
X123606544Y-80864999D01*
X124743456Y-80864999D01*
X124690000Y-81133740D01*
X124690000Y-81426260D01*
X124747068Y-81713158D01*
X124859010Y-81983411D01*
X125021525Y-82226632D01*
X125228368Y-82433475D01*
X125471589Y-82595990D01*
X125741842Y-82707932D01*
X126028740Y-82765000D01*
X126321260Y-82765000D01*
X126608158Y-82707932D01*
X126878411Y-82595990D01*
X127121632Y-82433475D01*
X127328475Y-82226632D01*
X127490990Y-81983411D01*
X127602932Y-81713158D01*
X127660000Y-81426260D01*
X127660000Y-81133740D01*
X127606544Y-80864999D01*
X128508421Y-80864999D01*
X128704461Y-81061039D01*
X128690000Y-81133740D01*
X128690000Y-81426260D01*
X128747068Y-81713158D01*
X128859010Y-81983411D01*
X129021525Y-82226632D01*
X129228368Y-82433475D01*
X129471589Y-82595990D01*
X129741842Y-82707932D01*
X130028740Y-82765000D01*
X130321260Y-82765000D01*
X130570543Y-82715414D01*
X130540000Y-82868967D01*
X130540000Y-83191033D01*
X130602832Y-83506912D01*
X130726082Y-83804463D01*
X130905013Y-84072252D01*
X131132748Y-84299987D01*
X131400537Y-84478918D01*
X131698088Y-84602168D01*
X132013967Y-84665000D01*
X132336033Y-84665000D01*
X132651912Y-84602168D01*
X132949463Y-84478918D01*
X133217252Y-84299987D01*
X133444987Y-84072252D01*
X133623918Y-83804463D01*
X133747168Y-83506912D01*
X133810000Y-83191033D01*
X133810000Y-82868967D01*
X133747168Y-82553088D01*
X133623918Y-82255537D01*
X133444987Y-81987748D01*
X133217252Y-81760013D01*
X132949463Y-81581082D01*
X132651912Y-81457832D01*
X132336033Y-81395000D01*
X132013967Y-81395000D01*
X131698088Y-81457832D01*
X131649736Y-81477860D01*
X131660000Y-81426260D01*
X131660000Y-81133740D01*
X131602932Y-80846842D01*
X131490990Y-80576589D01*
X131328475Y-80333368D01*
X131121632Y-80126525D01*
X130878411Y-79964010D01*
X130608158Y-79852068D01*
X130572626Y-79845000D01*
X145246928Y-79845000D01*
X145246928Y-81445000D01*
X145259188Y-81569482D01*
X145295498Y-81689180D01*
X145354463Y-81799494D01*
X145433815Y-81896185D01*
X145530506Y-81975537D01*
X145640820Y-82034502D01*
X145760518Y-82070812D01*
X145885000Y-82083072D01*
X147485000Y-82083072D01*
X147609482Y-82070812D01*
X147729180Y-82034502D01*
X147839494Y-81975537D01*
X147936185Y-81896185D01*
X148015537Y-81799494D01*
X148074502Y-81689180D01*
X148110812Y-81569482D01*
X148123072Y-81445000D01*
X148123072Y-80327500D01*
X155206928Y-80327500D01*
X155206928Y-82232500D01*
X155219188Y-82356982D01*
X155255498Y-82476680D01*
X155314463Y-82586994D01*
X155393815Y-82683685D01*
X155490506Y-82763037D01*
X155600820Y-82822002D01*
X155720518Y-82858312D01*
X155845000Y-82870572D01*
X157845000Y-82870572D01*
X157969482Y-82858312D01*
X158089180Y-82822002D01*
X158199494Y-82763037D01*
X158296185Y-82683685D01*
X158375537Y-82586994D01*
X158434502Y-82476680D01*
X158470812Y-82356982D01*
X158483072Y-82232500D01*
X158483072Y-80635512D01*
X163659783Y-80635512D01*
X163701213Y-80915130D01*
X163796397Y-81181292D01*
X163863329Y-81306514D01*
X164107298Y-81378097D01*
X164920395Y-80565000D01*
X164107298Y-79751903D01*
X163863329Y-79823486D01*
X163742429Y-80078996D01*
X163673700Y-80353184D01*
X163659783Y-80635512D01*
X158483072Y-80635512D01*
X158483072Y-80327500D01*
X158470812Y-80203018D01*
X158434502Y-80083320D01*
X158375537Y-79973006D01*
X158296185Y-79876315D01*
X158199494Y-79796963D01*
X158107781Y-79747941D01*
X158220969Y-79606923D01*
X158364571Y-79331094D01*
X158435563Y-79112980D01*
X158315594Y-78867000D01*
X156972000Y-78867000D01*
X156972000Y-78887000D01*
X156718000Y-78887000D01*
X156718000Y-78867000D01*
X155374406Y-78867000D01*
X155254437Y-79112980D01*
X155325429Y-79331094D01*
X155469031Y-79606923D01*
X155582219Y-79747941D01*
X155490506Y-79796963D01*
X155393815Y-79876315D01*
X155314463Y-79973006D01*
X155255498Y-80083320D01*
X155219188Y-80203018D01*
X155206928Y-80327500D01*
X148123072Y-80327500D01*
X148123072Y-79845000D01*
X148110812Y-79720518D01*
X148074502Y-79600820D01*
X148015537Y-79490506D01*
X147936185Y-79393815D01*
X147839494Y-79314463D01*
X147729180Y-79255498D01*
X147609482Y-79219188D01*
X147485000Y-79206928D01*
X145885000Y-79206928D01*
X145760518Y-79219188D01*
X145640820Y-79255498D01*
X145530506Y-79314463D01*
X145433815Y-79393815D01*
X145354463Y-79490506D01*
X145295498Y-79600820D01*
X145259188Y-79720518D01*
X145246928Y-79845000D01*
X130572626Y-79845000D01*
X130321260Y-79795000D01*
X130028740Y-79795000D01*
X129956039Y-79809461D01*
X129531533Y-79384955D01*
X129503816Y-79351182D01*
X129369058Y-79240588D01*
X129215312Y-79158410D01*
X129048489Y-79107804D01*
X128918476Y-79094999D01*
X128918468Y-79094999D01*
X128874999Y-79090718D01*
X128831530Y-79094999D01*
X121122468Y-79094999D01*
X121078999Y-79090718D01*
X121035530Y-79094999D01*
X121035522Y-79094999D01*
X120920305Y-79106347D01*
X120905508Y-79107804D01*
X120854902Y-79123156D01*
X120738686Y-79158410D01*
X120584940Y-79240588D01*
X120584938Y-79240589D01*
X120584939Y-79240589D01*
X120483952Y-79323467D01*
X120483950Y-79323469D01*
X120450182Y-79351182D01*
X120422469Y-79384950D01*
X118932419Y-80875001D01*
X116990898Y-80875001D01*
X117075159Y-80706955D01*
X117176250Y-80339443D01*
X117203701Y-79959271D01*
X117156457Y-79581049D01*
X117036333Y-79219310D01*
X116904312Y-78972317D01*
X116609224Y-78840381D01*
X115439605Y-80010000D01*
X115453748Y-80024143D01*
X115274143Y-80203748D01*
X115260000Y-80189605D01*
X115245858Y-80203748D01*
X115066253Y-80024143D01*
X115080395Y-80010000D01*
X113910776Y-78840381D01*
X113698072Y-78935483D01*
X113698072Y-78710000D01*
X113693225Y-78660776D01*
X114090381Y-78660776D01*
X115260000Y-79830395D01*
X116429619Y-78660776D01*
X116297683Y-78365688D01*
X115956955Y-78194841D01*
X115589443Y-78093750D01*
X115209271Y-78066299D01*
X114831049Y-78113543D01*
X114469310Y-78233667D01*
X114222317Y-78365688D01*
X114090381Y-78660776D01*
X113693225Y-78660776D01*
X113685812Y-78585518D01*
X113649502Y-78465820D01*
X113590537Y-78355506D01*
X113511185Y-78258815D01*
X113414494Y-78179463D01*
X113304180Y-78120498D01*
X113184482Y-78084188D01*
X113060000Y-78071928D01*
X110460000Y-78071928D01*
X110335518Y-78084188D01*
X110215820Y-78120498D01*
X110105506Y-78179463D01*
X110008815Y-78258815D01*
X109929463Y-78355506D01*
X109870498Y-78465820D01*
X109834188Y-78585518D01*
X109821928Y-78710000D01*
X104800000Y-78710000D01*
X104800000Y-76868967D01*
X118540000Y-76868967D01*
X118540000Y-77191033D01*
X118602832Y-77506912D01*
X118726082Y-77804463D01*
X118905013Y-78072252D01*
X119132748Y-78299987D01*
X119400537Y-78478918D01*
X119698088Y-78602168D01*
X120013967Y-78665000D01*
X120336033Y-78665000D01*
X120651912Y-78602168D01*
X120949463Y-78478918D01*
X121217252Y-78299987D01*
X121444987Y-78072252D01*
X121623918Y-77804463D01*
X121747168Y-77506912D01*
X121810000Y-77191033D01*
X121810000Y-76868967D01*
X130540000Y-76868967D01*
X130540000Y-77191033D01*
X130602832Y-77506912D01*
X130726082Y-77804463D01*
X130905013Y-78072252D01*
X131132748Y-78299987D01*
X131400537Y-78478918D01*
X131698088Y-78602168D01*
X132013967Y-78665000D01*
X132336033Y-78665000D01*
X132651912Y-78602168D01*
X132949463Y-78478918D01*
X133217252Y-78299987D01*
X133444987Y-78072252D01*
X133623918Y-77804463D01*
X133747168Y-77506912D01*
X133810000Y-77191033D01*
X133810000Y-76868967D01*
X133747168Y-76553088D01*
X133623918Y-76255537D01*
X133444987Y-75987748D01*
X133217252Y-75760013D01*
X132949463Y-75581082D01*
X132651912Y-75457832D01*
X132336033Y-75395000D01*
X132013967Y-75395000D01*
X131698088Y-75457832D01*
X131400537Y-75581082D01*
X131132748Y-75760013D01*
X130905013Y-75987748D01*
X130726082Y-76255537D01*
X130602832Y-76553088D01*
X130540000Y-76868967D01*
X121810000Y-76868967D01*
X121747168Y-76553088D01*
X121623918Y-76255537D01*
X121444987Y-75987748D01*
X121217252Y-75760013D01*
X120949463Y-75581082D01*
X120651912Y-75457832D01*
X120336033Y-75395000D01*
X120013967Y-75395000D01*
X119698088Y-75457832D01*
X119400537Y-75581082D01*
X119132748Y-75760013D01*
X118905013Y-75987748D01*
X118726082Y-76255537D01*
X118602832Y-76553088D01*
X118540000Y-76868967D01*
X104800000Y-76868967D01*
X104800000Y-74759117D01*
X134790000Y-74759117D01*
X134790000Y-75100883D01*
X134856675Y-75436081D01*
X134987463Y-75751831D01*
X135177337Y-76035998D01*
X135419002Y-76277663D01*
X135703169Y-76467537D01*
X136018919Y-76598325D01*
X136354117Y-76665000D01*
X136695883Y-76665000D01*
X136833119Y-76637702D01*
X145871903Y-76637702D01*
X145943486Y-76881671D01*
X146198996Y-77002571D01*
X146473184Y-77071300D01*
X146755512Y-77085217D01*
X147035130Y-77043787D01*
X147301292Y-76948603D01*
X147426514Y-76881671D01*
X147498097Y-76637702D01*
X146685000Y-75824605D01*
X145871903Y-76637702D01*
X136833119Y-76637702D01*
X137031081Y-76598325D01*
X137346831Y-76467537D01*
X137630998Y-76277663D01*
X137872663Y-76035998D01*
X138062537Y-75751831D01*
X138077580Y-75715512D01*
X145244783Y-75715512D01*
X145286213Y-75995130D01*
X145381397Y-76261292D01*
X145448329Y-76386514D01*
X145692298Y-76458097D01*
X146505395Y-75645000D01*
X146864605Y-75645000D01*
X147677702Y-76458097D01*
X147921671Y-76386514D01*
X148009924Y-76200000D01*
X155202319Y-76200000D01*
X155232970Y-76511204D01*
X155323745Y-76810449D01*
X155471155Y-77086235D01*
X155669537Y-77327963D01*
X155848899Y-77475163D01*
X155663685Y-77630563D01*
X155469031Y-77873077D01*
X155325429Y-78148906D01*
X155254437Y-78367020D01*
X155374406Y-78613000D01*
X156718000Y-78613000D01*
X156718000Y-78593000D01*
X156972000Y-78593000D01*
X156972000Y-78613000D01*
X158315594Y-78613000D01*
X158435563Y-78367020D01*
X158364571Y-78148906D01*
X158220969Y-77873077D01*
X158026315Y-77630563D01*
X157841101Y-77475163D01*
X158020463Y-77327963D01*
X158218845Y-77086235D01*
X158366255Y-76810449D01*
X158457030Y-76511204D01*
X158487681Y-76200000D01*
X158457030Y-75888796D01*
X158366255Y-75589551D01*
X158218845Y-75313765D01*
X158020463Y-75072037D01*
X157778735Y-74873655D01*
X157502949Y-74726245D01*
X157203704Y-74635470D01*
X156970486Y-74612500D01*
X156719514Y-74612500D01*
X156486296Y-74635470D01*
X156187051Y-74726245D01*
X155911265Y-74873655D01*
X155669537Y-75072037D01*
X155471155Y-75313765D01*
X155323745Y-75589551D01*
X155232970Y-75888796D01*
X155202319Y-76200000D01*
X148009924Y-76200000D01*
X148042571Y-76131004D01*
X148111300Y-75856816D01*
X148125217Y-75574488D01*
X148083787Y-75294870D01*
X147988603Y-75028708D01*
X147921671Y-74903486D01*
X147677702Y-74831903D01*
X146864605Y-75645000D01*
X146505395Y-75645000D01*
X145692298Y-74831903D01*
X145448329Y-74903486D01*
X145327429Y-75158996D01*
X145258700Y-75433184D01*
X145244783Y-75715512D01*
X138077580Y-75715512D01*
X138193325Y-75436081D01*
X138260000Y-75100883D01*
X138260000Y-74759117D01*
X138238753Y-74652298D01*
X145871903Y-74652298D01*
X146685000Y-75465395D01*
X147498097Y-74652298D01*
X147426514Y-74408329D01*
X147171004Y-74287429D01*
X146896816Y-74218700D01*
X146614488Y-74204783D01*
X146334870Y-74246213D01*
X146068708Y-74341397D01*
X145943486Y-74408329D01*
X145871903Y-74652298D01*
X138238753Y-74652298D01*
X138193325Y-74423919D01*
X138062537Y-74108169D01*
X137872663Y-73824002D01*
X137630998Y-73582337D01*
X137346831Y-73392463D01*
X137031081Y-73261675D01*
X136695883Y-73195000D01*
X136354117Y-73195000D01*
X136018919Y-73261675D01*
X135703169Y-73392463D01*
X135419002Y-73582337D01*
X135177337Y-73824002D01*
X134987463Y-74108169D01*
X134856675Y-74423919D01*
X134790000Y-74759117D01*
X104800000Y-74759117D01*
X104800000Y-73050000D01*
X177775000Y-73050000D01*
X177775001Y-112370000D01*
G37*
%TD.AperFunction*%
D30*
X171878989Y-76387257D02*
X171820000Y-76683816D01*
X171820000Y-76986184D01*
X171878989Y-77282743D01*
X171994701Y-77562095D01*
X172162688Y-77813505D01*
X172229127Y-77879944D01*
X172210820Y-77885498D01*
X172100506Y-77944463D01*
X172003815Y-78023815D01*
X171924463Y-78120506D01*
X171865498Y-78230820D01*
X171829188Y-78350518D01*
X171816928Y-78475000D01*
X171820000Y-79089250D01*
X171978750Y-79248000D01*
X173228000Y-79248000D01*
X173228000Y-79228000D01*
X173482000Y-79228000D01*
X173482000Y-79248000D01*
X173502000Y-79248000D01*
X173502000Y-79502000D01*
X173482000Y-79502000D01*
X173482000Y-80751250D01*
X173640750Y-80910000D01*
X173820001Y-80910896D01*
X173820002Y-83373419D01*
X172168422Y-85025000D01*
X171953514Y-85025000D01*
X171695595Y-85076304D01*
X171452641Y-85176939D01*
X171233987Y-85323038D01*
X171048038Y-85508987D01*
X170901939Y-85727641D01*
X170801304Y-85970595D01*
X170750000Y-86228514D01*
X170750000Y-86491486D01*
X170801304Y-86749405D01*
X170901939Y-86992359D01*
X171048038Y-87211013D01*
X171233987Y-87396962D01*
X171452641Y-87543061D01*
X171695595Y-87643696D01*
X171953514Y-87695000D01*
X172216486Y-87695000D01*
X172474405Y-87643696D01*
X172717359Y-87543061D01*
X172936013Y-87396962D01*
X173121962Y-87211013D01*
X173268061Y-86992359D01*
X173368696Y-86749405D01*
X173420000Y-86491486D01*
X173420000Y-86276578D01*
X175300050Y-84396529D01*
X175333818Y-84368816D01*
X175444412Y-84234058D01*
X175526590Y-84080312D01*
X175577196Y-83913489D01*
X175590001Y-83783476D01*
X175590001Y-83783468D01*
X175594282Y-83739999D01*
X175590001Y-83696530D01*
X175590001Y-78323578D01*
X175645001Y-78378578D01*
X175645000Y-105678421D01*
X175488072Y-105835349D01*
X175488072Y-105290000D01*
X175475812Y-105165518D01*
X175439502Y-105045820D01*
X175409665Y-104990000D01*
X175439502Y-104934180D01*
X175475812Y-104814482D01*
X175488072Y-104690000D01*
X175488072Y-103590000D01*
X175475812Y-103465518D01*
X175439502Y-103345820D01*
X175409665Y-103290000D01*
X175439502Y-103234180D01*
X175475812Y-103114482D01*
X175488072Y-102990000D01*
X175488072Y-101890000D01*
X175475812Y-101765518D01*
X175439502Y-101645820D01*
X175380537Y-101535506D01*
X175301185Y-101438815D01*
X175204494Y-101359463D01*
X175094180Y-101300498D01*
X174974482Y-101264188D01*
X174850000Y-101251928D01*
X172850000Y-101251928D01*
X172725518Y-101264188D01*
X172605820Y-101300498D01*
X172495506Y-101359463D01*
X172398815Y-101438815D01*
X172319463Y-101535506D01*
X172260498Y-101645820D01*
X172224188Y-101765518D01*
X172211928Y-101890000D01*
X172211928Y-102990000D01*
X172224188Y-103114482D01*
X172260498Y-103234180D01*
X172290335Y-103290000D01*
X172260498Y-103345820D01*
X172224188Y-103465518D01*
X172211928Y-103590000D01*
X172211928Y-104690000D01*
X172224188Y-104814482D01*
X172260498Y-104934180D01*
X172290335Y-104990000D01*
X172260498Y-105045820D01*
X172224188Y-105165518D01*
X172211928Y-105290000D01*
X172211928Y-106226494D01*
X171892451Y-106545971D01*
X171858684Y-106573683D01*
X171830971Y-106607451D01*
X171830968Y-106607454D01*
X171748090Y-106708441D01*
X171665912Y-106862187D01*
X171615305Y-107029010D01*
X171598219Y-107202500D01*
X171602501Y-107245979D01*
X171602501Y-108051004D01*
X171522038Y-108117038D01*
X171516658Y-108123594D01*
X171451185Y-108043815D01*
X171354494Y-107964463D01*
X171244180Y-107905498D01*
X171124482Y-107869188D01*
X171000000Y-107856928D01*
X170698250Y-107860000D01*
X170539500Y-108018750D01*
X170539500Y-109093000D01*
X170559500Y-109093000D01*
X170559500Y-109347000D01*
X170539500Y-109347000D01*
X170539500Y-109367000D01*
X170285500Y-109367000D01*
X170285500Y-109347000D01*
X169348750Y-109347000D01*
X169190000Y-109505750D01*
X169186928Y-109945000D01*
X169199188Y-110069482D01*
X169235498Y-110189180D01*
X169262662Y-110240000D01*
X164831579Y-110240000D01*
X164710523Y-110118944D01*
X164755472Y-110034850D01*
X164806008Y-109868254D01*
X164823072Y-109695000D01*
X164823072Y-108745000D01*
X164806008Y-108571746D01*
X164782728Y-108495000D01*
X169186928Y-108495000D01*
X169190000Y-108934250D01*
X169348750Y-109093000D01*
X170285500Y-109093000D01*
X170285500Y-108018750D01*
X170126750Y-107860000D01*
X169825000Y-107856928D01*
X169700518Y-107869188D01*
X169580820Y-107905498D01*
X169470506Y-107964463D01*
X169373815Y-108043815D01*
X169294463Y-108140506D01*
X169235498Y-108250820D01*
X169199188Y-108370518D01*
X169186928Y-108495000D01*
X164782728Y-108495000D01*
X164755472Y-108405150D01*
X164673405Y-108251614D01*
X164562962Y-108117038D01*
X164482500Y-108051005D01*
X164482500Y-107569078D01*
X165023507Y-107028072D01*
X165960000Y-107028072D01*
X166084482Y-107015812D01*
X166204180Y-106979502D01*
X166314494Y-106920537D01*
X166411185Y-106841185D01*
X166490537Y-106744494D01*
X166549502Y-106634180D01*
X166585812Y-106514482D01*
X166598072Y-106390000D01*
X167411928Y-106390000D01*
X167424188Y-106514482D01*
X167460498Y-106634180D01*
X167519463Y-106744494D01*
X167598815Y-106841185D01*
X167695506Y-106920537D01*
X167805820Y-106979502D01*
X167925518Y-107015812D01*
X168050000Y-107028072D01*
X168764250Y-107025000D01*
X168923000Y-106866250D01*
X168923000Y-105967000D01*
X169177000Y-105967000D01*
X169177000Y-106866250D01*
X169335750Y-107025000D01*
X170050000Y-107028072D01*
X170174482Y-107015812D01*
X170294180Y-106979502D01*
X170404494Y-106920537D01*
X170501185Y-106841185D01*
X170580537Y-106744494D01*
X170639502Y-106634180D01*
X170675812Y-106514482D01*
X170688072Y-106390000D01*
X170685000Y-106125750D01*
X170526250Y-105967000D01*
X169177000Y-105967000D01*
X168923000Y-105967000D01*
X167573750Y-105967000D01*
X167415000Y-106125750D01*
X167411928Y-106390000D01*
X166598072Y-106390000D01*
X166598072Y-105290000D01*
X166585812Y-105165518D01*
X166549502Y-105045820D01*
X166519665Y-104990000D01*
X166549502Y-104934180D01*
X166552287Y-104925000D01*
X167457713Y-104925000D01*
X167460498Y-104934180D01*
X167490335Y-104990000D01*
X167460498Y-105045820D01*
X167424188Y-105165518D01*
X167411928Y-105290000D01*
X167415000Y-105554250D01*
X167573750Y-105713000D01*
X168923000Y-105713000D01*
X168923000Y-105693000D01*
X169177000Y-105693000D01*
X169177000Y-105713000D01*
X170526250Y-105713000D01*
X170685000Y-105554250D01*
X170688072Y-105290000D01*
X170675812Y-105165518D01*
X170639502Y-105045820D01*
X170609665Y-104990000D01*
X170639502Y-104934180D01*
X170675812Y-104814482D01*
X170688072Y-104690000D01*
X170688072Y-103590000D01*
X170675812Y-103465518D01*
X170639502Y-103345820D01*
X170609665Y-103290000D01*
X170639502Y-103234180D01*
X170675812Y-103114482D01*
X170688072Y-102990000D01*
X170688072Y-101890000D01*
X170675812Y-101765518D01*
X170639502Y-101645820D01*
X170580537Y-101535506D01*
X170501185Y-101438815D01*
X170404494Y-101359463D01*
X170294180Y-101300498D01*
X170174482Y-101264188D01*
X170050000Y-101251928D01*
X168050000Y-101251928D01*
X167925518Y-101264188D01*
X167805820Y-101300498D01*
X167695506Y-101359463D01*
X167598815Y-101438815D01*
X167519463Y-101535506D01*
X167460498Y-101645820D01*
X167457713Y-101655000D01*
X166552287Y-101655000D01*
X166549502Y-101645820D01*
X166490537Y-101535506D01*
X166411185Y-101438815D01*
X166314494Y-101359463D01*
X166204180Y-101300498D01*
X166084482Y-101264188D01*
X165960000Y-101251928D01*
X163960000Y-101251928D01*
X163835518Y-101264188D01*
X163715820Y-101300498D01*
X163605506Y-101359463D01*
X163508815Y-101438815D01*
X163429463Y-101535506D01*
X163370498Y-101645820D01*
X163334188Y-101765518D01*
X163321928Y-101890000D01*
X163321928Y-102990000D01*
X163334188Y-103114482D01*
X163370498Y-103234180D01*
X163400335Y-103290000D01*
X163370498Y-103345820D01*
X163334188Y-103465518D01*
X163321928Y-103590000D01*
X163321928Y-104690000D01*
X163334188Y-104814482D01*
X163370498Y-104934180D01*
X163400335Y-104990000D01*
X163370498Y-105045820D01*
X163334188Y-105165518D01*
X163321928Y-105290000D01*
X163321928Y-106226494D01*
X163002451Y-106545971D01*
X162968684Y-106573683D01*
X162940971Y-106607451D01*
X162940968Y-106607454D01*
X162858090Y-106708441D01*
X162775912Y-106862187D01*
X162725305Y-107029010D01*
X162708219Y-107202500D01*
X162712501Y-107245979D01*
X162712501Y-108051004D01*
X162632038Y-108117038D01*
X162626658Y-108123594D01*
X162561185Y-108043815D01*
X162464494Y-107964463D01*
X162354180Y-107905498D01*
X162234482Y-107869188D01*
X162110000Y-107856928D01*
X161808250Y-107860000D01*
X161649500Y-108018750D01*
X161649500Y-109093000D01*
X161669500Y-109093000D01*
X161669500Y-109347000D01*
X161649500Y-109347000D01*
X161649500Y-109367000D01*
X161395500Y-109367000D01*
X161395500Y-109347000D01*
X160458750Y-109347000D01*
X160300000Y-109505750D01*
X160296928Y-109945000D01*
X160309188Y-110069482D01*
X160345498Y-110189180D01*
X160372662Y-110240000D01*
X155941579Y-110240000D01*
X155820523Y-110118944D01*
X155865472Y-110034850D01*
X155916008Y-109868254D01*
X155933072Y-109695000D01*
X155933072Y-108745000D01*
X155916008Y-108571746D01*
X155892728Y-108495000D01*
X160296928Y-108495000D01*
X160300000Y-108934250D01*
X160458750Y-109093000D01*
X161395500Y-109093000D01*
X161395500Y-108018750D01*
X161236750Y-107860000D01*
X160935000Y-107856928D01*
X160810518Y-107869188D01*
X160690820Y-107905498D01*
X160580506Y-107964463D01*
X160483815Y-108043815D01*
X160404463Y-108140506D01*
X160345498Y-108250820D01*
X160309188Y-108370518D01*
X160296928Y-108495000D01*
X155892728Y-108495000D01*
X155865472Y-108405150D01*
X155783405Y-108251614D01*
X155672962Y-108117038D01*
X155592500Y-108051005D01*
X155592500Y-107569078D01*
X156133507Y-107028072D01*
X157070000Y-107028072D01*
X157194482Y-107015812D01*
X157314180Y-106979502D01*
X157424494Y-106920537D01*
X157521185Y-106841185D01*
X157600537Y-106744494D01*
X157659502Y-106634180D01*
X157695812Y-106514482D01*
X157708072Y-106390000D01*
X158521928Y-106390000D01*
X158534188Y-106514482D01*
X158570498Y-106634180D01*
X158629463Y-106744494D01*
X158708815Y-106841185D01*
X158805506Y-106920537D01*
X158915820Y-106979502D01*
X159035518Y-107015812D01*
X159160000Y-107028072D01*
X159874250Y-107025000D01*
X160033000Y-106866250D01*
X160033000Y-105967000D01*
X160287000Y-105967000D01*
X160287000Y-106866250D01*
X160445750Y-107025000D01*
X161160000Y-107028072D01*
X161284482Y-107015812D01*
X161404180Y-106979502D01*
X161514494Y-106920537D01*
X161611185Y-106841185D01*
X161690537Y-106744494D01*
X161749502Y-106634180D01*
X161785812Y-106514482D01*
X161798072Y-106390000D01*
X161795000Y-106125750D01*
X161636250Y-105967000D01*
X160287000Y-105967000D01*
X160033000Y-105967000D01*
X158683750Y-105967000D01*
X158525000Y-106125750D01*
X158521928Y-106390000D01*
X157708072Y-106390000D01*
X157708072Y-105290000D01*
X157695812Y-105165518D01*
X157659502Y-105045820D01*
X157629665Y-104990000D01*
X157659502Y-104934180D01*
X157662287Y-104925000D01*
X158567713Y-104925000D01*
X158570498Y-104934180D01*
X158600335Y-104990000D01*
X158570498Y-105045820D01*
X158534188Y-105165518D01*
X158521928Y-105290000D01*
X158525000Y-105554250D01*
X158683750Y-105713000D01*
X160033000Y-105713000D01*
X160033000Y-105693000D01*
X160287000Y-105693000D01*
X160287000Y-105713000D01*
X161636250Y-105713000D01*
X161795000Y-105554250D01*
X161798072Y-105290000D01*
X161785812Y-105165518D01*
X161749502Y-105045820D01*
X161719665Y-104990000D01*
X161749502Y-104934180D01*
X161785812Y-104814482D01*
X161798072Y-104690000D01*
X161798072Y-103590000D01*
X161785812Y-103465518D01*
X161749502Y-103345820D01*
X161719665Y-103290000D01*
X161749502Y-103234180D01*
X161785812Y-103114482D01*
X161798072Y-102990000D01*
X161798072Y-101890000D01*
X161785812Y-101765518D01*
X161749502Y-101645820D01*
X161690537Y-101535506D01*
X161611185Y-101438815D01*
X161514494Y-101359463D01*
X161404180Y-101300498D01*
X161284482Y-101264188D01*
X161160000Y-101251928D01*
X159160000Y-101251928D01*
X159035518Y-101264188D01*
X158915820Y-101300498D01*
X158805506Y-101359463D01*
X158708815Y-101438815D01*
X158629463Y-101535506D01*
X158570498Y-101645820D01*
X158567713Y-101655000D01*
X157662287Y-101655000D01*
X157659502Y-101645820D01*
X157600537Y-101535506D01*
X157521185Y-101438815D01*
X157424494Y-101359463D01*
X157314180Y-101300498D01*
X157194482Y-101264188D01*
X157070000Y-101251928D01*
X155070000Y-101251928D01*
X154945518Y-101264188D01*
X154825820Y-101300498D01*
X154715506Y-101359463D01*
X154618815Y-101438815D01*
X154539463Y-101535506D01*
X154480498Y-101645820D01*
X154444188Y-101765518D01*
X154431928Y-101890000D01*
X154431928Y-102990000D01*
X154444188Y-103114482D01*
X154480498Y-103234180D01*
X154510335Y-103290000D01*
X154480498Y-103345820D01*
X154444188Y-103465518D01*
X154431928Y-103590000D01*
X154431928Y-104690000D01*
X154444188Y-104814482D01*
X154480498Y-104934180D01*
X154510335Y-104990000D01*
X154480498Y-105045820D01*
X154444188Y-105165518D01*
X154431928Y-105290000D01*
X154431928Y-106226494D01*
X154112451Y-106545971D01*
X154078684Y-106573683D01*
X154050971Y-106607451D01*
X154050968Y-106607454D01*
X153968090Y-106708441D01*
X153885912Y-106862187D01*
X153835305Y-107029010D01*
X153818219Y-107202500D01*
X153822501Y-107245979D01*
X153822501Y-108051004D01*
X153742038Y-108117038D01*
X153736658Y-108123594D01*
X153671185Y-108043815D01*
X153574494Y-107964463D01*
X153464180Y-107905498D01*
X153344482Y-107869188D01*
X153220000Y-107856928D01*
X152918250Y-107860000D01*
X152759500Y-108018750D01*
X152759500Y-109093000D01*
X152779500Y-109093000D01*
X152779500Y-109347000D01*
X152759500Y-109347000D01*
X152759500Y-109367000D01*
X152505500Y-109367000D01*
X152505500Y-109347000D01*
X151568750Y-109347000D01*
X151410000Y-109505750D01*
X151406928Y-109945000D01*
X151419188Y-110069482D01*
X151455498Y-110189180D01*
X151482662Y-110240000D01*
X147051579Y-110240000D01*
X146930523Y-110118944D01*
X146975472Y-110034850D01*
X147026008Y-109868254D01*
X147043072Y-109695000D01*
X147043072Y-108745000D01*
X147026008Y-108571746D01*
X147002728Y-108495000D01*
X151406928Y-108495000D01*
X151410000Y-108934250D01*
X151568750Y-109093000D01*
X152505500Y-109093000D01*
X152505500Y-108018750D01*
X152346750Y-107860000D01*
X152045000Y-107856928D01*
X151920518Y-107869188D01*
X151800820Y-107905498D01*
X151690506Y-107964463D01*
X151593815Y-108043815D01*
X151514463Y-108140506D01*
X151455498Y-108250820D01*
X151419188Y-108370518D01*
X151406928Y-108495000D01*
X147002728Y-108495000D01*
X146975472Y-108405150D01*
X146893405Y-108251614D01*
X146782962Y-108117038D01*
X146702500Y-108051005D01*
X146702500Y-107569078D01*
X147243507Y-107028072D01*
X148180000Y-107028072D01*
X148304482Y-107015812D01*
X148424180Y-106979502D01*
X148534494Y-106920537D01*
X148631185Y-106841185D01*
X148710537Y-106744494D01*
X148769502Y-106634180D01*
X148805812Y-106514482D01*
X148818072Y-106390000D01*
X149631928Y-106390000D01*
X149644188Y-106514482D01*
X149680498Y-106634180D01*
X149739463Y-106744494D01*
X149818815Y-106841185D01*
X149915506Y-106920537D01*
X150025820Y-106979502D01*
X150145518Y-107015812D01*
X150270000Y-107028072D01*
X150984250Y-107025000D01*
X151143000Y-106866250D01*
X151143000Y-105967000D01*
X151397000Y-105967000D01*
X151397000Y-106866250D01*
X151555750Y-107025000D01*
X152270000Y-107028072D01*
X152394482Y-107015812D01*
X152514180Y-106979502D01*
X152624494Y-106920537D01*
X152721185Y-106841185D01*
X152800537Y-106744494D01*
X152859502Y-106634180D01*
X152895812Y-106514482D01*
X152908072Y-106390000D01*
X152905000Y-106125750D01*
X152746250Y-105967000D01*
X151397000Y-105967000D01*
X151143000Y-105967000D01*
X149793750Y-105967000D01*
X149635000Y-106125750D01*
X149631928Y-106390000D01*
X148818072Y-106390000D01*
X148818072Y-105290000D01*
X148805812Y-105165518D01*
X148769502Y-105045820D01*
X148739665Y-104990000D01*
X148769502Y-104934180D01*
X148772287Y-104925000D01*
X149677713Y-104925000D01*
X149680498Y-104934180D01*
X149710335Y-104990000D01*
X149680498Y-105045820D01*
X149644188Y-105165518D01*
X149631928Y-105290000D01*
X149635000Y-105554250D01*
X149793750Y-105713000D01*
X151143000Y-105713000D01*
X151143000Y-105693000D01*
X151397000Y-105693000D01*
X151397000Y-105713000D01*
X152746250Y-105713000D01*
X152905000Y-105554250D01*
X152908072Y-105290000D01*
X152895812Y-105165518D01*
X152859502Y-105045820D01*
X152829665Y-104990000D01*
X152859502Y-104934180D01*
X152895812Y-104814482D01*
X152908072Y-104690000D01*
X152908072Y-103590000D01*
X152895812Y-103465518D01*
X152859502Y-103345820D01*
X152829665Y-103290000D01*
X152859502Y-103234180D01*
X152895812Y-103114482D01*
X152908072Y-102990000D01*
X152908072Y-101890000D01*
X152895812Y-101765518D01*
X152859502Y-101645820D01*
X152800537Y-101535506D01*
X152721185Y-101438815D01*
X152624494Y-101359463D01*
X152514180Y-101300498D01*
X152394482Y-101264188D01*
X152270000Y-101251928D01*
X150270000Y-101251928D01*
X150145518Y-101264188D01*
X150025820Y-101300498D01*
X149915506Y-101359463D01*
X149818815Y-101438815D01*
X149739463Y-101535506D01*
X149680498Y-101645820D01*
X149677713Y-101655000D01*
X148772287Y-101655000D01*
X148769502Y-101645820D01*
X148710537Y-101535506D01*
X148631185Y-101438815D01*
X148534494Y-101359463D01*
X148424180Y-101300498D01*
X148304482Y-101264188D01*
X148180000Y-101251928D01*
X146180000Y-101251928D01*
X146055518Y-101264188D01*
X145935820Y-101300498D01*
X145825506Y-101359463D01*
X145728815Y-101438815D01*
X145649463Y-101535506D01*
X145590498Y-101645820D01*
X145554188Y-101765518D01*
X145541928Y-101890000D01*
X145541928Y-102990000D01*
X145554188Y-103114482D01*
X145590498Y-103234180D01*
X145620335Y-103290000D01*
X145590498Y-103345820D01*
X145554188Y-103465518D01*
X145541928Y-103590000D01*
X145541928Y-104690000D01*
X145554188Y-104814482D01*
X145590498Y-104934180D01*
X145620335Y-104990000D01*
X145590498Y-105045820D01*
X145554188Y-105165518D01*
X145541928Y-105290000D01*
X145541928Y-106226494D01*
X145222451Y-106545971D01*
X145188684Y-106573683D01*
X145160971Y-106607451D01*
X145160968Y-106607454D01*
X145078090Y-106708441D01*
X144995912Y-106862187D01*
X144945305Y-107029010D01*
X144928219Y-107202500D01*
X144932501Y-107245979D01*
X144932501Y-108051004D01*
X144852038Y-108117038D01*
X144846658Y-108123594D01*
X144781185Y-108043815D01*
X144684494Y-107964463D01*
X144574180Y-107905498D01*
X144454482Y-107869188D01*
X144330000Y-107856928D01*
X144028250Y-107860000D01*
X143869500Y-108018750D01*
X143869500Y-109093000D01*
X143889500Y-109093000D01*
X143889500Y-109347000D01*
X143869500Y-109347000D01*
X143869500Y-109367000D01*
X143615500Y-109367000D01*
X143615500Y-109347000D01*
X142678750Y-109347000D01*
X142520000Y-109505750D01*
X142516928Y-109945000D01*
X142529188Y-110069482D01*
X142565498Y-110189180D01*
X142592662Y-110240000D01*
X138161579Y-110240000D01*
X138040523Y-110118944D01*
X138085472Y-110034850D01*
X138136008Y-109868254D01*
X138153072Y-109695000D01*
X138153072Y-108745000D01*
X138136008Y-108571746D01*
X138112728Y-108495000D01*
X142516928Y-108495000D01*
X142520000Y-108934250D01*
X142678750Y-109093000D01*
X143615500Y-109093000D01*
X143615500Y-108018750D01*
X143456750Y-107860000D01*
X143155000Y-107856928D01*
X143030518Y-107869188D01*
X142910820Y-107905498D01*
X142800506Y-107964463D01*
X142703815Y-108043815D01*
X142624463Y-108140506D01*
X142565498Y-108250820D01*
X142529188Y-108370518D01*
X142516928Y-108495000D01*
X138112728Y-108495000D01*
X138085472Y-108405150D01*
X138003405Y-108251614D01*
X137892962Y-108117038D01*
X137812500Y-108051005D01*
X137812500Y-107569078D01*
X138353507Y-107028072D01*
X139290000Y-107028072D01*
X139414482Y-107015812D01*
X139534180Y-106979502D01*
X139644494Y-106920537D01*
X139741185Y-106841185D01*
X139820537Y-106744494D01*
X139879502Y-106634180D01*
X139915812Y-106514482D01*
X139928072Y-106390000D01*
X140741928Y-106390000D01*
X140754188Y-106514482D01*
X140790498Y-106634180D01*
X140849463Y-106744494D01*
X140928815Y-106841185D01*
X141025506Y-106920537D01*
X141135820Y-106979502D01*
X141255518Y-107015812D01*
X141380000Y-107028072D01*
X142094250Y-107025000D01*
X142253000Y-106866250D01*
X142253000Y-105967000D01*
X142507000Y-105967000D01*
X142507000Y-106866250D01*
X142665750Y-107025000D01*
X143380000Y-107028072D01*
X143504482Y-107015812D01*
X143624180Y-106979502D01*
X143734494Y-106920537D01*
X143831185Y-106841185D01*
X143910537Y-106744494D01*
X143969502Y-106634180D01*
X144005812Y-106514482D01*
X144018072Y-106390000D01*
X144015000Y-106125750D01*
X143856250Y-105967000D01*
X142507000Y-105967000D01*
X142253000Y-105967000D01*
X140903750Y-105967000D01*
X140745000Y-106125750D01*
X140741928Y-106390000D01*
X139928072Y-106390000D01*
X139928072Y-105290000D01*
X139915812Y-105165518D01*
X139879502Y-105045820D01*
X139849665Y-104990000D01*
X139879502Y-104934180D01*
X139882287Y-104925000D01*
X140787713Y-104925000D01*
X140790498Y-104934180D01*
X140820335Y-104990000D01*
X140790498Y-105045820D01*
X140754188Y-105165518D01*
X140741928Y-105290000D01*
X140745000Y-105554250D01*
X140903750Y-105713000D01*
X142253000Y-105713000D01*
X142253000Y-105693000D01*
X142507000Y-105693000D01*
X142507000Y-105713000D01*
X143856250Y-105713000D01*
X144015000Y-105554250D01*
X144018072Y-105290000D01*
X144005812Y-105165518D01*
X143969502Y-105045820D01*
X143939665Y-104990000D01*
X143969502Y-104934180D01*
X144005812Y-104814482D01*
X144018072Y-104690000D01*
X144018072Y-103590000D01*
X144005812Y-103465518D01*
X143969502Y-103345820D01*
X143939665Y-103290000D01*
X143969502Y-103234180D01*
X144005812Y-103114482D01*
X144018072Y-102990000D01*
X144018072Y-101890000D01*
X144005812Y-101765518D01*
X143969502Y-101645820D01*
X143910537Y-101535506D01*
X143831185Y-101438815D01*
X143734494Y-101359463D01*
X143624180Y-101300498D01*
X143504482Y-101264188D01*
X143380000Y-101251928D01*
X141380000Y-101251928D01*
X141255518Y-101264188D01*
X141135820Y-101300498D01*
X141025506Y-101359463D01*
X140928815Y-101438815D01*
X140849463Y-101535506D01*
X140790498Y-101645820D01*
X140787713Y-101655000D01*
X139882287Y-101655000D01*
X139879502Y-101645820D01*
X139820537Y-101535506D01*
X139741185Y-101438815D01*
X139644494Y-101359463D01*
X139534180Y-101300498D01*
X139414482Y-101264188D01*
X139290000Y-101251928D01*
X137290000Y-101251928D01*
X137165518Y-101264188D01*
X137045820Y-101300498D01*
X136935506Y-101359463D01*
X136838815Y-101438815D01*
X136759463Y-101535506D01*
X136700498Y-101645820D01*
X136664188Y-101765518D01*
X136651928Y-101890000D01*
X136651928Y-102990000D01*
X136664188Y-103114482D01*
X136700498Y-103234180D01*
X136730335Y-103290000D01*
X136700498Y-103345820D01*
X136664188Y-103465518D01*
X136651928Y-103590000D01*
X136651928Y-104690000D01*
X136664188Y-104814482D01*
X136700498Y-104934180D01*
X136730335Y-104990000D01*
X136700498Y-105045820D01*
X136664188Y-105165518D01*
X136651928Y-105290000D01*
X136651928Y-106226494D01*
X136332451Y-106545971D01*
X136298684Y-106573683D01*
X136270971Y-106607451D01*
X136270968Y-106607454D01*
X136188090Y-106708441D01*
X136105912Y-106862187D01*
X136055305Y-107029010D01*
X136038219Y-107202500D01*
X136042501Y-107245979D01*
X136042501Y-108051004D01*
X135962038Y-108117038D01*
X135956658Y-108123594D01*
X135891185Y-108043815D01*
X135794494Y-107964463D01*
X135684180Y-107905498D01*
X135564482Y-107869188D01*
X135440000Y-107856928D01*
X135138250Y-107860000D01*
X134979500Y-108018750D01*
X134979500Y-109093000D01*
X134999500Y-109093000D01*
X134999500Y-109347000D01*
X134979500Y-109347000D01*
X134979500Y-109367000D01*
X134725500Y-109367000D01*
X134725500Y-109347000D01*
X133788750Y-109347000D01*
X133630000Y-109505750D01*
X133626928Y-109945000D01*
X133639188Y-110069482D01*
X133675498Y-110189180D01*
X133702662Y-110240000D01*
X129271579Y-110240000D01*
X129150523Y-110118944D01*
X129195472Y-110034850D01*
X129246008Y-109868254D01*
X129263072Y-109695000D01*
X129263072Y-108745000D01*
X129246008Y-108571746D01*
X129222728Y-108495000D01*
X133626928Y-108495000D01*
X133630000Y-108934250D01*
X133788750Y-109093000D01*
X134725500Y-109093000D01*
X134725500Y-108018750D01*
X134566750Y-107860000D01*
X134265000Y-107856928D01*
X134140518Y-107869188D01*
X134020820Y-107905498D01*
X133910506Y-107964463D01*
X133813815Y-108043815D01*
X133734463Y-108140506D01*
X133675498Y-108250820D01*
X133639188Y-108370518D01*
X133626928Y-108495000D01*
X129222728Y-108495000D01*
X129195472Y-108405150D01*
X129113405Y-108251614D01*
X129002962Y-108117038D01*
X128922500Y-108051005D01*
X128922500Y-107569078D01*
X129463507Y-107028072D01*
X130400000Y-107028072D01*
X130524482Y-107015812D01*
X130644180Y-106979502D01*
X130754494Y-106920537D01*
X130851185Y-106841185D01*
X130930537Y-106744494D01*
X130989502Y-106634180D01*
X131025812Y-106514482D01*
X131038072Y-106390000D01*
X131851928Y-106390000D01*
X131864188Y-106514482D01*
X131900498Y-106634180D01*
X131959463Y-106744494D01*
X132038815Y-106841185D01*
X132135506Y-106920537D01*
X132245820Y-106979502D01*
X132365518Y-107015812D01*
X132490000Y-107028072D01*
X133204250Y-107025000D01*
X133363000Y-106866250D01*
X133363000Y-105967000D01*
X133617000Y-105967000D01*
X133617000Y-106866250D01*
X133775750Y-107025000D01*
X134490000Y-107028072D01*
X134614482Y-107015812D01*
X134734180Y-106979502D01*
X134844494Y-106920537D01*
X134941185Y-106841185D01*
X135020537Y-106744494D01*
X135079502Y-106634180D01*
X135115812Y-106514482D01*
X135128072Y-106390000D01*
X135125000Y-106125750D01*
X134966250Y-105967000D01*
X133617000Y-105967000D01*
X133363000Y-105967000D01*
X132013750Y-105967000D01*
X131855000Y-106125750D01*
X131851928Y-106390000D01*
X131038072Y-106390000D01*
X131038072Y-105290000D01*
X131025812Y-105165518D01*
X130989502Y-105045820D01*
X130959665Y-104990000D01*
X130989502Y-104934180D01*
X130992287Y-104925000D01*
X131897713Y-104925000D01*
X131900498Y-104934180D01*
X131930335Y-104990000D01*
X131900498Y-105045820D01*
X131864188Y-105165518D01*
X131851928Y-105290000D01*
X131855000Y-105554250D01*
X132013750Y-105713000D01*
X133363000Y-105713000D01*
X133363000Y-105693000D01*
X133617000Y-105693000D01*
X133617000Y-105713000D01*
X134966250Y-105713000D01*
X135125000Y-105554250D01*
X135128072Y-105290000D01*
X135115812Y-105165518D01*
X135079502Y-105045820D01*
X135049665Y-104990000D01*
X135079502Y-104934180D01*
X135115812Y-104814482D01*
X135128072Y-104690000D01*
X135128072Y-103590000D01*
X135115812Y-103465518D01*
X135079502Y-103345820D01*
X135049665Y-103290000D01*
X135079502Y-103234180D01*
X135115812Y-103114482D01*
X135128072Y-102990000D01*
X135128072Y-101890000D01*
X135115812Y-101765518D01*
X135079502Y-101645820D01*
X135020537Y-101535506D01*
X134941185Y-101438815D01*
X134844494Y-101359463D01*
X134734180Y-101300498D01*
X134614482Y-101264188D01*
X134490000Y-101251928D01*
X132490000Y-101251928D01*
X132365518Y-101264188D01*
X132245820Y-101300498D01*
X132135506Y-101359463D01*
X132038815Y-101438815D01*
X131959463Y-101535506D01*
X131900498Y-101645820D01*
X131897713Y-101655000D01*
X130992287Y-101655000D01*
X130989502Y-101645820D01*
X130930537Y-101535506D01*
X130851185Y-101438815D01*
X130754494Y-101359463D01*
X130644180Y-101300498D01*
X130524482Y-101264188D01*
X130400000Y-101251928D01*
X128400000Y-101251928D01*
X128275518Y-101264188D01*
X128155820Y-101300498D01*
X128045506Y-101359463D01*
X127948815Y-101438815D01*
X127869463Y-101535506D01*
X127810498Y-101645820D01*
X127774188Y-101765518D01*
X127761928Y-101890000D01*
X127761928Y-102990000D01*
X127774188Y-103114482D01*
X127810498Y-103234180D01*
X127840335Y-103290000D01*
X127810498Y-103345820D01*
X127774188Y-103465518D01*
X127761928Y-103590000D01*
X127761928Y-104690000D01*
X127774188Y-104814482D01*
X127810498Y-104934180D01*
X127840335Y-104990000D01*
X127810498Y-105045820D01*
X127774188Y-105165518D01*
X127761928Y-105290000D01*
X127761928Y-106226494D01*
X127442451Y-106545971D01*
X127408684Y-106573683D01*
X127380971Y-106607451D01*
X127380968Y-106607454D01*
X127298090Y-106708441D01*
X127215912Y-106862187D01*
X127165305Y-107029010D01*
X127148219Y-107202500D01*
X127152501Y-107245979D01*
X127152501Y-108051004D01*
X127072038Y-108117038D01*
X127066658Y-108123594D01*
X127001185Y-108043815D01*
X126904494Y-107964463D01*
X126794180Y-107905498D01*
X126674482Y-107869188D01*
X126550000Y-107856928D01*
X126248250Y-107860000D01*
X126089500Y-108018750D01*
X126089500Y-109093000D01*
X126109500Y-109093000D01*
X126109500Y-109347000D01*
X126089500Y-109347000D01*
X126089500Y-109367000D01*
X125835500Y-109367000D01*
X125835500Y-109347000D01*
X124898750Y-109347000D01*
X124740000Y-109505750D01*
X124736928Y-109945000D01*
X124749188Y-110069482D01*
X124785498Y-110189180D01*
X124812662Y-110240000D01*
X120381579Y-110240000D01*
X120260523Y-110118944D01*
X120305472Y-110034850D01*
X120356008Y-109868254D01*
X120373072Y-109695000D01*
X120373072Y-108745000D01*
X120356008Y-108571746D01*
X120332728Y-108495000D01*
X124736928Y-108495000D01*
X124740000Y-108934250D01*
X124898750Y-109093000D01*
X125835500Y-109093000D01*
X125835500Y-108018750D01*
X125676750Y-107860000D01*
X125375000Y-107856928D01*
X125250518Y-107869188D01*
X125130820Y-107905498D01*
X125020506Y-107964463D01*
X124923815Y-108043815D01*
X124844463Y-108140506D01*
X124785498Y-108250820D01*
X124749188Y-108370518D01*
X124736928Y-108495000D01*
X120332728Y-108495000D01*
X120305472Y-108405150D01*
X120223405Y-108251614D01*
X120112962Y-108117038D01*
X120032500Y-108051005D01*
X120032500Y-107569078D01*
X120573507Y-107028072D01*
X121510000Y-107028072D01*
X121634482Y-107015812D01*
X121754180Y-106979502D01*
X121864494Y-106920537D01*
X121961185Y-106841185D01*
X122040537Y-106744494D01*
X122099502Y-106634180D01*
X122135812Y-106514482D01*
X122148072Y-106390000D01*
X122961928Y-106390000D01*
X122974188Y-106514482D01*
X123010498Y-106634180D01*
X123069463Y-106744494D01*
X123148815Y-106841185D01*
X123245506Y-106920537D01*
X123355820Y-106979502D01*
X123475518Y-107015812D01*
X123600000Y-107028072D01*
X124314250Y-107025000D01*
X124473000Y-106866250D01*
X124473000Y-105967000D01*
X124727000Y-105967000D01*
X124727000Y-106866250D01*
X124885750Y-107025000D01*
X125600000Y-107028072D01*
X125724482Y-107015812D01*
X125844180Y-106979502D01*
X125954494Y-106920537D01*
X126051185Y-106841185D01*
X126130537Y-106744494D01*
X126189502Y-106634180D01*
X126225812Y-106514482D01*
X126238072Y-106390000D01*
X126235000Y-106125750D01*
X126076250Y-105967000D01*
X124727000Y-105967000D01*
X124473000Y-105967000D01*
X123123750Y-105967000D01*
X122965000Y-106125750D01*
X122961928Y-106390000D01*
X122148072Y-106390000D01*
X122148072Y-105290000D01*
X122135812Y-105165518D01*
X122099502Y-105045820D01*
X122069665Y-104990000D01*
X122099502Y-104934180D01*
X122102287Y-104925000D01*
X123007713Y-104925000D01*
X123010498Y-104934180D01*
X123040335Y-104990000D01*
X123010498Y-105045820D01*
X122974188Y-105165518D01*
X122961928Y-105290000D01*
X122965000Y-105554250D01*
X123123750Y-105713000D01*
X124473000Y-105713000D01*
X124473000Y-105693000D01*
X124727000Y-105693000D01*
X124727000Y-105713000D01*
X126076250Y-105713000D01*
X126235000Y-105554250D01*
X126238072Y-105290000D01*
X126225812Y-105165518D01*
X126189502Y-105045820D01*
X126159665Y-104990000D01*
X126189502Y-104934180D01*
X126225812Y-104814482D01*
X126238072Y-104690000D01*
X126238072Y-103590000D01*
X126225812Y-103465518D01*
X126189502Y-103345820D01*
X126159665Y-103290000D01*
X126189502Y-103234180D01*
X126225812Y-103114482D01*
X126238072Y-102990000D01*
X126238072Y-101890000D01*
X126225812Y-101765518D01*
X126189502Y-101645820D01*
X126130537Y-101535506D01*
X126051185Y-101438815D01*
X125954494Y-101359463D01*
X125844180Y-101300498D01*
X125724482Y-101264188D01*
X125600000Y-101251928D01*
X123600000Y-101251928D01*
X123475518Y-101264188D01*
X123355820Y-101300498D01*
X123245506Y-101359463D01*
X123148815Y-101438815D01*
X123069463Y-101535506D01*
X123010498Y-101645820D01*
X123007713Y-101655000D01*
X122102287Y-101655000D01*
X122099502Y-101645820D01*
X122040537Y-101535506D01*
X121961185Y-101438815D01*
X121864494Y-101359463D01*
X121754180Y-101300498D01*
X121634482Y-101264188D01*
X121510000Y-101251928D01*
X119510000Y-101251928D01*
X119385518Y-101264188D01*
X119265820Y-101300498D01*
X119155506Y-101359463D01*
X119058815Y-101438815D01*
X118979463Y-101535506D01*
X118920498Y-101645820D01*
X118884188Y-101765518D01*
X118871928Y-101890000D01*
X118871928Y-102990000D01*
X118884188Y-103114482D01*
X118920498Y-103234180D01*
X118950335Y-103290000D01*
X118920498Y-103345820D01*
X118884188Y-103465518D01*
X118871928Y-103590000D01*
X118871928Y-104690000D01*
X118884188Y-104814482D01*
X118920498Y-104934180D01*
X118950335Y-104990000D01*
X118920498Y-105045820D01*
X118884188Y-105165518D01*
X118871928Y-105290000D01*
X118871928Y-106226494D01*
X118552451Y-106545971D01*
X118518684Y-106573683D01*
X118490971Y-106607451D01*
X118490968Y-106607454D01*
X118408090Y-106708441D01*
X118325912Y-106862187D01*
X118275305Y-107029010D01*
X118258219Y-107202500D01*
X118262501Y-107245979D01*
X118262501Y-108051004D01*
X118182038Y-108117038D01*
X118176658Y-108123594D01*
X118111185Y-108043815D01*
X118014494Y-107964463D01*
X117904180Y-107905498D01*
X117784482Y-107869188D01*
X117660000Y-107856928D01*
X117358250Y-107860000D01*
X117199500Y-108018750D01*
X117199500Y-109093000D01*
X117219500Y-109093000D01*
X117219500Y-109347000D01*
X117199500Y-109347000D01*
X117199500Y-109367000D01*
X116945500Y-109367000D01*
X116945500Y-109347000D01*
X116008750Y-109347000D01*
X115850000Y-109505750D01*
X115846928Y-109945000D01*
X115859188Y-110069482D01*
X115895498Y-110189180D01*
X115922662Y-110240000D01*
X112126579Y-110240000D01*
X111483072Y-109596494D01*
X111483072Y-108745000D01*
X111466008Y-108571746D01*
X111442728Y-108495000D01*
X115846928Y-108495000D01*
X115850000Y-108934250D01*
X116008750Y-109093000D01*
X116945500Y-109093000D01*
X116945500Y-108018750D01*
X116786750Y-107860000D01*
X116485000Y-107856928D01*
X116360518Y-107869188D01*
X116240820Y-107905498D01*
X116130506Y-107964463D01*
X116033815Y-108043815D01*
X115954463Y-108140506D01*
X115895498Y-108250820D01*
X115859188Y-108370518D01*
X115846928Y-108495000D01*
X111442728Y-108495000D01*
X111415472Y-108405150D01*
X111333405Y-108251614D01*
X111222962Y-108117038D01*
X111142500Y-108051005D01*
X111142500Y-107569078D01*
X111683507Y-107028072D01*
X112620000Y-107028072D01*
X112744482Y-107015812D01*
X112864180Y-106979502D01*
X112974494Y-106920537D01*
X113071185Y-106841185D01*
X113150537Y-106744494D01*
X113209502Y-106634180D01*
X113245812Y-106514482D01*
X113258072Y-106390000D01*
X114071928Y-106390000D01*
X114084188Y-106514482D01*
X114120498Y-106634180D01*
X114179463Y-106744494D01*
X114258815Y-106841185D01*
X114355506Y-106920537D01*
X114465820Y-106979502D01*
X114585518Y-107015812D01*
X114710000Y-107028072D01*
X115424250Y-107025000D01*
X115583000Y-106866250D01*
X115583000Y-105967000D01*
X115837000Y-105967000D01*
X115837000Y-106866250D01*
X115995750Y-107025000D01*
X116710000Y-107028072D01*
X116834482Y-107015812D01*
X116954180Y-106979502D01*
X117064494Y-106920537D01*
X117161185Y-106841185D01*
X117240537Y-106744494D01*
X117299502Y-106634180D01*
X117335812Y-106514482D01*
X117348072Y-106390000D01*
X117345000Y-106125750D01*
X117186250Y-105967000D01*
X115837000Y-105967000D01*
X115583000Y-105967000D01*
X114233750Y-105967000D01*
X114075000Y-106125750D01*
X114071928Y-106390000D01*
X113258072Y-106390000D01*
X113258072Y-105290000D01*
X113245812Y-105165518D01*
X113209502Y-105045820D01*
X113179665Y-104990000D01*
X113209502Y-104934180D01*
X113212287Y-104925000D01*
X114117713Y-104925000D01*
X114120498Y-104934180D01*
X114150335Y-104990000D01*
X114120498Y-105045820D01*
X114084188Y-105165518D01*
X114071928Y-105290000D01*
X114075000Y-105554250D01*
X114233750Y-105713000D01*
X115583000Y-105713000D01*
X115583000Y-105693000D01*
X115837000Y-105693000D01*
X115837000Y-105713000D01*
X117186250Y-105713000D01*
X117345000Y-105554250D01*
X117348072Y-105290000D01*
X117335812Y-105165518D01*
X117299502Y-105045820D01*
X117269665Y-104990000D01*
X117299502Y-104934180D01*
X117335812Y-104814482D01*
X117348072Y-104690000D01*
X117348072Y-103590000D01*
X117335812Y-103465518D01*
X117299502Y-103345820D01*
X117269665Y-103290000D01*
X117299502Y-103234180D01*
X117335812Y-103114482D01*
X117348072Y-102990000D01*
X117348072Y-101890000D01*
X117335812Y-101765518D01*
X117299502Y-101645820D01*
X117240537Y-101535506D01*
X117161185Y-101438815D01*
X117064494Y-101359463D01*
X116954180Y-101300498D01*
X116834482Y-101264188D01*
X116710000Y-101251928D01*
X114710000Y-101251928D01*
X114585518Y-101264188D01*
X114465820Y-101300498D01*
X114355506Y-101359463D01*
X114258815Y-101438815D01*
X114179463Y-101535506D01*
X114120498Y-101645820D01*
X114117713Y-101655000D01*
X113212287Y-101655000D01*
X113209502Y-101645820D01*
X113150537Y-101535506D01*
X113071185Y-101438815D01*
X112974494Y-101359463D01*
X112864180Y-101300498D01*
X112744482Y-101264188D01*
X112620000Y-101251928D01*
X111268229Y-101251928D01*
X115215158Y-97305000D01*
X122623661Y-97305000D01*
X122710363Y-97434759D01*
X122910241Y-97634637D01*
X123145273Y-97791680D01*
X123406426Y-97899853D01*
X123683665Y-97955000D01*
X123966335Y-97955000D01*
X124243574Y-97899853D01*
X124504727Y-97791680D01*
X124739759Y-97634637D01*
X124939637Y-97434759D01*
X125095000Y-97202241D01*
X125250363Y-97434759D01*
X125450241Y-97634637D01*
X125685273Y-97791680D01*
X125946426Y-97899853D01*
X126223665Y-97955000D01*
X126506335Y-97955000D01*
X126783574Y-97899853D01*
X127044727Y-97791680D01*
X127279759Y-97634637D01*
X127479637Y-97434759D01*
X127635000Y-97202241D01*
X127790363Y-97434759D01*
X127990241Y-97634637D01*
X128225273Y-97791680D01*
X128486426Y-97899853D01*
X128763665Y-97955000D01*
X129046335Y-97955000D01*
X129323574Y-97899853D01*
X129584727Y-97791680D01*
X129819759Y-97634637D01*
X130019637Y-97434759D01*
X130175000Y-97202241D01*
X130330363Y-97434759D01*
X130530241Y-97634637D01*
X130765273Y-97791680D01*
X131026426Y-97899853D01*
X131303665Y-97955000D01*
X131586335Y-97955000D01*
X131863574Y-97899853D01*
X132124727Y-97791680D01*
X132359759Y-97634637D01*
X132559637Y-97434759D01*
X132715000Y-97202241D01*
X132870363Y-97434759D01*
X133070241Y-97634637D01*
X133305273Y-97791680D01*
X133566426Y-97899853D01*
X133843665Y-97955000D01*
X134126335Y-97955000D01*
X134403574Y-97899853D01*
X134664727Y-97791680D01*
X134899759Y-97634637D01*
X135099637Y-97434759D01*
X135255000Y-97202241D01*
X135410363Y-97434759D01*
X135610241Y-97634637D01*
X135845273Y-97791680D01*
X136106426Y-97899853D01*
X136383665Y-97955000D01*
X136666335Y-97955000D01*
X136701439Y-97948017D01*
X136914477Y-98161056D01*
X136869528Y-98245150D01*
X136818992Y-98411746D01*
X136801928Y-98585000D01*
X136801928Y-99535000D01*
X136818992Y-99708254D01*
X136869528Y-99874850D01*
X136951595Y-100028386D01*
X137062038Y-100162962D01*
X137196614Y-100273405D01*
X137350150Y-100355472D01*
X137516746Y-100406008D01*
X137690000Y-100423072D01*
X138365000Y-100423072D01*
X138538254Y-100406008D01*
X138704850Y-100355472D01*
X138858386Y-100273405D01*
X138992962Y-100162962D01*
X138998342Y-100156406D01*
X139063815Y-100236185D01*
X139160506Y-100315537D01*
X139270820Y-100374502D01*
X139390518Y-100410812D01*
X139515000Y-100423072D01*
X139816750Y-100420000D01*
X139975500Y-100261250D01*
X139975500Y-99187000D01*
X140229500Y-99187000D01*
X140229500Y-100261250D01*
X140388250Y-100420000D01*
X140690000Y-100423072D01*
X140814482Y-100410812D01*
X140934180Y-100374502D01*
X141044494Y-100315537D01*
X141141185Y-100236185D01*
X141220537Y-100139494D01*
X141279502Y-100029180D01*
X141315812Y-99909482D01*
X141328072Y-99785000D01*
X141325000Y-99345750D01*
X141166250Y-99187000D01*
X140229500Y-99187000D01*
X139975500Y-99187000D01*
X139955500Y-99187000D01*
X139955500Y-98933000D01*
X139975500Y-98933000D01*
X139975500Y-97858750D01*
X139842860Y-97726110D01*
X139979759Y-97634637D01*
X140179637Y-97434759D01*
X140336680Y-97199727D01*
X140341067Y-97189135D01*
X140452615Y-97375131D01*
X140641586Y-97583519D01*
X140810608Y-97708806D01*
X140690000Y-97696928D01*
X140388250Y-97700000D01*
X140229500Y-97858750D01*
X140229500Y-98933000D01*
X141166250Y-98933000D01*
X141325000Y-98774250D01*
X141328072Y-98335000D01*
X141315812Y-98210518D01*
X141279502Y-98090820D01*
X141220537Y-97980506D01*
X141141185Y-97883815D01*
X141128189Y-97873150D01*
X141255961Y-97911904D01*
X141478000Y-97789915D01*
X141478000Y-96647000D01*
X141458000Y-96647000D01*
X141458000Y-96393000D01*
X141478000Y-96393000D01*
X141478000Y-95250085D01*
X141732000Y-95250085D01*
X141732000Y-96393000D01*
X141752000Y-96393000D01*
X141752000Y-96647000D01*
X141732000Y-96647000D01*
X141732000Y-97789915D01*
X141954039Y-97911904D01*
X142088087Y-97871246D01*
X142342420Y-97751037D01*
X142568414Y-97583519D01*
X142757385Y-97375131D01*
X142868933Y-97189135D01*
X142873320Y-97199727D01*
X143030363Y-97434759D01*
X143230241Y-97634637D01*
X143465273Y-97791680D01*
X143726426Y-97899853D01*
X144003665Y-97955000D01*
X144286335Y-97955000D01*
X144563574Y-97899853D01*
X144824727Y-97791680D01*
X145059759Y-97634637D01*
X145259637Y-97434759D01*
X145415000Y-97202241D01*
X145570363Y-97434759D01*
X145770241Y-97634637D01*
X146005273Y-97791680D01*
X146266426Y-97899853D01*
X146543665Y-97955000D01*
X146826335Y-97955000D01*
X147103574Y-97899853D01*
X147364727Y-97791680D01*
X147599759Y-97634637D01*
X147799637Y-97434759D01*
X147955000Y-97202241D01*
X148110363Y-97434759D01*
X148310241Y-97634637D01*
X148545273Y-97791680D01*
X148806426Y-97899853D01*
X149083665Y-97955000D01*
X149366335Y-97955000D01*
X149643574Y-97899853D01*
X149904727Y-97791680D01*
X150139759Y-97634637D01*
X150339637Y-97434759D01*
X150495000Y-97202241D01*
X150650363Y-97434759D01*
X150850241Y-97634637D01*
X151085273Y-97791680D01*
X151346426Y-97899853D01*
X151623665Y-97955000D01*
X151906335Y-97955000D01*
X152183574Y-97899853D01*
X152444727Y-97791680D01*
X152679759Y-97634637D01*
X152879637Y-97434759D01*
X153035000Y-97202241D01*
X153190363Y-97434759D01*
X153390241Y-97634637D01*
X153625273Y-97791680D01*
X153886426Y-97899853D01*
X154163665Y-97955000D01*
X154446335Y-97955000D01*
X154723574Y-97899853D01*
X154984727Y-97791680D01*
X155219759Y-97634637D01*
X155419637Y-97434759D01*
X155575000Y-97202241D01*
X155730363Y-97434759D01*
X155930241Y-97634637D01*
X156165273Y-97791680D01*
X156426426Y-97899853D01*
X156703665Y-97955000D01*
X156986335Y-97955000D01*
X157263574Y-97899853D01*
X157524727Y-97791680D01*
X157759759Y-97634637D01*
X157959637Y-97434759D01*
X158116680Y-97199727D01*
X158224853Y-96938574D01*
X158280000Y-96661335D01*
X158280000Y-96378665D01*
X158224853Y-96101426D01*
X158116680Y-95840273D01*
X157960739Y-95606890D01*
X171913524Y-95606890D01*
X171958175Y-95754099D01*
X172083359Y-96016920D01*
X172257412Y-96250269D01*
X172473645Y-96445178D01*
X172723748Y-96594157D01*
X172998109Y-96691481D01*
X173228000Y-96570814D01*
X173228000Y-95377000D01*
X173482000Y-95377000D01*
X173482000Y-96570814D01*
X173711891Y-96691481D01*
X173986252Y-96594157D01*
X174236355Y-96445178D01*
X174452588Y-96250269D01*
X174626641Y-96016920D01*
X174751825Y-95754099D01*
X174796476Y-95606890D01*
X174675155Y-95377000D01*
X173482000Y-95377000D01*
X173228000Y-95377000D01*
X172034845Y-95377000D01*
X171913524Y-95606890D01*
X157960739Y-95606890D01*
X157959637Y-95605241D01*
X157759759Y-95405363D01*
X157524727Y-95248320D01*
X157263574Y-95140147D01*
X156986335Y-95085000D01*
X156703665Y-95085000D01*
X156426426Y-95140147D01*
X156165273Y-95248320D01*
X155930241Y-95405363D01*
X155730363Y-95605241D01*
X155575000Y-95837759D01*
X155419637Y-95605241D01*
X155219759Y-95405363D01*
X154984727Y-95248320D01*
X154723574Y-95140147D01*
X154446335Y-95085000D01*
X154163665Y-95085000D01*
X153886426Y-95140147D01*
X153625273Y-95248320D01*
X153390241Y-95405363D01*
X153190363Y-95605241D01*
X153035000Y-95837759D01*
X152879637Y-95605241D01*
X152679759Y-95405363D01*
X152444727Y-95248320D01*
X152183574Y-95140147D01*
X151906335Y-95085000D01*
X151623665Y-95085000D01*
X151346426Y-95140147D01*
X151085273Y-95248320D01*
X150850241Y-95405363D01*
X150650363Y-95605241D01*
X150495000Y-95837759D01*
X150339637Y-95605241D01*
X150139759Y-95405363D01*
X149904727Y-95248320D01*
X149643574Y-95140147D01*
X149366335Y-95085000D01*
X149083665Y-95085000D01*
X148806426Y-95140147D01*
X148545273Y-95248320D01*
X148310241Y-95405363D01*
X148110363Y-95605241D01*
X147955000Y-95837759D01*
X147799637Y-95605241D01*
X147599759Y-95405363D01*
X147364727Y-95248320D01*
X147103574Y-95140147D01*
X146826335Y-95085000D01*
X146543665Y-95085000D01*
X146266426Y-95140147D01*
X146005273Y-95248320D01*
X145770241Y-95405363D01*
X145570363Y-95605241D01*
X145415000Y-95837759D01*
X145259637Y-95605241D01*
X145059759Y-95405363D01*
X144824727Y-95248320D01*
X144563574Y-95140147D01*
X144286335Y-95085000D01*
X144003665Y-95085000D01*
X143726426Y-95140147D01*
X143465273Y-95248320D01*
X143230241Y-95405363D01*
X143030363Y-95605241D01*
X142873320Y-95840273D01*
X142868933Y-95850865D01*
X142757385Y-95664869D01*
X142568414Y-95456481D01*
X142342420Y-95288963D01*
X142088087Y-95168754D01*
X141954039Y-95128096D01*
X141732000Y-95250085D01*
X141478000Y-95250085D01*
X141255961Y-95128096D01*
X141121913Y-95168754D01*
X140867580Y-95288963D01*
X140641586Y-95456481D01*
X140452615Y-95664869D01*
X140341067Y-95850865D01*
X140336680Y-95840273D01*
X140179637Y-95605241D01*
X139979759Y-95405363D01*
X139744727Y-95248320D01*
X139483574Y-95140147D01*
X139210708Y-95085870D01*
X142200049Y-92096530D01*
X142233817Y-92068817D01*
X142344411Y-91934059D01*
X142426589Y-91780313D01*
X142477195Y-91613490D01*
X142490000Y-91483477D01*
X142490000Y-91483469D01*
X142494281Y-91440000D01*
X142490000Y-91396531D01*
X142490000Y-90034521D01*
X142519759Y-90014637D01*
X142719637Y-89814759D01*
X142875000Y-89582241D01*
X143030363Y-89814759D01*
X143230241Y-90014637D01*
X143465273Y-90171680D01*
X143726426Y-90279853D01*
X144003665Y-90335000D01*
X144286335Y-90335000D01*
X144563574Y-90279853D01*
X144824727Y-90171680D01*
X145059759Y-90014637D01*
X145259637Y-89814759D01*
X145415000Y-89582241D01*
X145570363Y-89814759D01*
X145770241Y-90014637D01*
X146005273Y-90171680D01*
X146266426Y-90279853D01*
X146543665Y-90335000D01*
X146826335Y-90335000D01*
X147103574Y-90279853D01*
X147364727Y-90171680D01*
X147599759Y-90014637D01*
X147799637Y-89814759D01*
X147955000Y-89582241D01*
X148110363Y-89814759D01*
X148310241Y-90014637D01*
X148545273Y-90171680D01*
X148806426Y-90279853D01*
X149083665Y-90335000D01*
X149366335Y-90335000D01*
X149643574Y-90279853D01*
X149904727Y-90171680D01*
X150139759Y-90014637D01*
X150339637Y-89814759D01*
X150495000Y-89582241D01*
X150650363Y-89814759D01*
X150850241Y-90014637D01*
X151085273Y-90171680D01*
X151346426Y-90279853D01*
X151623665Y-90335000D01*
X151906335Y-90335000D01*
X152183574Y-90279853D01*
X152444727Y-90171680D01*
X152679759Y-90014637D01*
X152879637Y-89814759D01*
X153035000Y-89582241D01*
X153190363Y-89814759D01*
X153390241Y-90014637D01*
X153625273Y-90171680D01*
X153886426Y-90279853D01*
X154163665Y-90335000D01*
X154446335Y-90335000D01*
X154723574Y-90279853D01*
X154984727Y-90171680D01*
X155219759Y-90014637D01*
X155418357Y-89816039D01*
X155419188Y-89824482D01*
X155455498Y-89944180D01*
X155514463Y-90054494D01*
X155593815Y-90151185D01*
X155690506Y-90230537D01*
X155800820Y-90289502D01*
X155920518Y-90325812D01*
X156045000Y-90338072D01*
X157645000Y-90338072D01*
X157769482Y-90325812D01*
X157889180Y-90289502D01*
X157999494Y-90230537D01*
X158096185Y-90151185D01*
X158175537Y-90054494D01*
X158234502Y-89944180D01*
X158270812Y-89824482D01*
X158283072Y-89700000D01*
X158283072Y-89320000D01*
X171866928Y-89320000D01*
X171866928Y-91020000D01*
X171879188Y-91144482D01*
X171915498Y-91264180D01*
X171974463Y-91374494D01*
X172053815Y-91471185D01*
X172150506Y-91550537D01*
X172260820Y-91609502D01*
X172333380Y-91631513D01*
X172201525Y-91763368D01*
X172039010Y-92006589D01*
X171927068Y-92276842D01*
X171870000Y-92563740D01*
X171870000Y-92856260D01*
X171927068Y-93143158D01*
X172039010Y-93413411D01*
X172201525Y-93656632D01*
X172408368Y-93863475D01*
X172590534Y-93985195D01*
X172473645Y-94054822D01*
X172257412Y-94249731D01*
X172083359Y-94483080D01*
X171958175Y-94745901D01*
X171913524Y-94893110D01*
X172034845Y-95123000D01*
X173228000Y-95123000D01*
X173228000Y-95103000D01*
X173482000Y-95103000D01*
X173482000Y-95123000D01*
X174675155Y-95123000D01*
X174796476Y-94893110D01*
X174751825Y-94745901D01*
X174626641Y-94483080D01*
X174452588Y-94249731D01*
X174236355Y-94054822D01*
X174119466Y-93985195D01*
X174301632Y-93863475D01*
X174508475Y-93656632D01*
X174670990Y-93413411D01*
X174782932Y-93143158D01*
X174840000Y-92856260D01*
X174840000Y-92563740D01*
X174782932Y-92276842D01*
X174670990Y-92006589D01*
X174508475Y-91763368D01*
X174376620Y-91631513D01*
X174449180Y-91609502D01*
X174559494Y-91550537D01*
X174656185Y-91471185D01*
X174735537Y-91374494D01*
X174794502Y-91264180D01*
X174830812Y-91144482D01*
X174843072Y-91020000D01*
X174843072Y-89320000D01*
X174830812Y-89195518D01*
X174794502Y-89075820D01*
X174735537Y-88965506D01*
X174656185Y-88868815D01*
X174559494Y-88789463D01*
X174449180Y-88730498D01*
X174329482Y-88694188D01*
X174205000Y-88681928D01*
X172505000Y-88681928D01*
X172380518Y-88694188D01*
X172260820Y-88730498D01*
X172150506Y-88789463D01*
X172053815Y-88868815D01*
X171974463Y-88965506D01*
X171915498Y-89075820D01*
X171879188Y-89195518D01*
X171866928Y-89320000D01*
X158283072Y-89320000D01*
X158283072Y-88100000D01*
X158270812Y-87975518D01*
X158234502Y-87855820D01*
X158175537Y-87745506D01*
X158096185Y-87648815D01*
X157999494Y-87569463D01*
X157889180Y-87510498D01*
X157769482Y-87474188D01*
X157645000Y-87461928D01*
X156045000Y-87461928D01*
X155920518Y-87474188D01*
X155800820Y-87510498D01*
X155690506Y-87569463D01*
X155593815Y-87648815D01*
X155514463Y-87745506D01*
X155455498Y-87855820D01*
X155419188Y-87975518D01*
X155418357Y-87983961D01*
X155219759Y-87785363D01*
X154984727Y-87628320D01*
X154723574Y-87520147D01*
X154446335Y-87465000D01*
X154163665Y-87465000D01*
X153886426Y-87520147D01*
X153625273Y-87628320D01*
X153390241Y-87785363D01*
X153190363Y-87985241D01*
X153035000Y-88217759D01*
X152879637Y-87985241D01*
X152679759Y-87785363D01*
X152444727Y-87628320D01*
X152183574Y-87520147D01*
X151906335Y-87465000D01*
X151623665Y-87465000D01*
X151346426Y-87520147D01*
X151085273Y-87628320D01*
X150850241Y-87785363D01*
X150650363Y-87985241D01*
X150495000Y-88217759D01*
X150339637Y-87985241D01*
X150139759Y-87785363D01*
X149904727Y-87628320D01*
X149643574Y-87520147D01*
X149366335Y-87465000D01*
X149083665Y-87465000D01*
X148806426Y-87520147D01*
X148545273Y-87628320D01*
X148310241Y-87785363D01*
X148110363Y-87985241D01*
X147955000Y-88217759D01*
X147799637Y-87985241D01*
X147599759Y-87785363D01*
X147364727Y-87628320D01*
X147103574Y-87520147D01*
X146826335Y-87465000D01*
X146543665Y-87465000D01*
X146266426Y-87520147D01*
X146005273Y-87628320D01*
X145770241Y-87785363D01*
X145570363Y-87985241D01*
X145415000Y-88217759D01*
X145259637Y-87985241D01*
X145059759Y-87785363D01*
X144824727Y-87628320D01*
X144563574Y-87520147D01*
X144286335Y-87465000D01*
X144003665Y-87465000D01*
X143726426Y-87520147D01*
X143465273Y-87628320D01*
X143230241Y-87785363D01*
X143030363Y-87985241D01*
X142875000Y-88217759D01*
X142719637Y-87985241D01*
X142519759Y-87785363D01*
X142284727Y-87628320D01*
X142236000Y-87608137D01*
X142236000Y-87528995D01*
X142316462Y-87462962D01*
X142426905Y-87328386D01*
X142471476Y-87245000D01*
X163462025Y-87245000D01*
X163613987Y-87396962D01*
X163832641Y-87543061D01*
X164075595Y-87643696D01*
X164333514Y-87695000D01*
X164596486Y-87695000D01*
X164854405Y-87643696D01*
X165097359Y-87543061D01*
X165316013Y-87396962D01*
X165501962Y-87211013D01*
X165648061Y-86992359D01*
X165748696Y-86749405D01*
X165800000Y-86491486D01*
X165800000Y-86276578D01*
X166945050Y-85131529D01*
X166978818Y-85103816D01*
X167011062Y-85064528D01*
X167089411Y-84969059D01*
X167171589Y-84815313D01*
X167171590Y-84815312D01*
X167206844Y-84699096D01*
X167222196Y-84648490D01*
X167226758Y-84602168D01*
X167235001Y-84518476D01*
X167235001Y-84518468D01*
X167239282Y-84474999D01*
X167235001Y-84431530D01*
X167235001Y-80275000D01*
X171816928Y-80275000D01*
X171829188Y-80399482D01*
X171865498Y-80519180D01*
X171924463Y-80629494D01*
X172003815Y-80726185D01*
X172100506Y-80805537D01*
X172210820Y-80864502D01*
X172330518Y-80900812D01*
X172455000Y-80913072D01*
X173069250Y-80910000D01*
X173228000Y-80751250D01*
X173228000Y-79502000D01*
X171978750Y-79502000D01*
X171820000Y-79660750D01*
X171816928Y-80275000D01*
X167235001Y-80275000D01*
X167235001Y-77493466D01*
X167239282Y-77450000D01*
X167235001Y-77406534D01*
X167235001Y-77406524D01*
X167222196Y-77276511D01*
X167171590Y-77109688D01*
X167089412Y-76955942D01*
X167065211Y-76926453D01*
X167006533Y-76854954D01*
X167006531Y-76854952D01*
X166978818Y-76821184D01*
X166945051Y-76793472D01*
X166536145Y-76384566D01*
X166537580Y-76369999D01*
X171886138Y-76369999D01*
X171878989Y-76387257D01*
%TA.AperFunction,Conductor*%
D31*
G36*
X171878989Y-76387257D02*
G01*
X171820000Y-76683816D01*
X171820000Y-76986184D01*
X171878989Y-77282743D01*
X171994701Y-77562095D01*
X172162688Y-77813505D01*
X172229127Y-77879944D01*
X172210820Y-77885498D01*
X172100506Y-77944463D01*
X172003815Y-78023815D01*
X171924463Y-78120506D01*
X171865498Y-78230820D01*
X171829188Y-78350518D01*
X171816928Y-78475000D01*
X171820000Y-79089250D01*
X171978750Y-79248000D01*
X173228000Y-79248000D01*
X173228000Y-79228000D01*
X173482000Y-79228000D01*
X173482000Y-79248000D01*
X173502000Y-79248000D01*
X173502000Y-79502000D01*
X173482000Y-79502000D01*
X173482000Y-80751250D01*
X173640750Y-80910000D01*
X173820001Y-80910896D01*
X173820002Y-83373419D01*
X172168422Y-85025000D01*
X171953514Y-85025000D01*
X171695595Y-85076304D01*
X171452641Y-85176939D01*
X171233987Y-85323038D01*
X171048038Y-85508987D01*
X170901939Y-85727641D01*
X170801304Y-85970595D01*
X170750000Y-86228514D01*
X170750000Y-86491486D01*
X170801304Y-86749405D01*
X170901939Y-86992359D01*
X171048038Y-87211013D01*
X171233987Y-87396962D01*
X171452641Y-87543061D01*
X171695595Y-87643696D01*
X171953514Y-87695000D01*
X172216486Y-87695000D01*
X172474405Y-87643696D01*
X172717359Y-87543061D01*
X172936013Y-87396962D01*
X173121962Y-87211013D01*
X173268061Y-86992359D01*
X173368696Y-86749405D01*
X173420000Y-86491486D01*
X173420000Y-86276578D01*
X175300050Y-84396529D01*
X175333818Y-84368816D01*
X175444412Y-84234058D01*
X175526590Y-84080312D01*
X175577196Y-83913489D01*
X175590001Y-83783476D01*
X175590001Y-83783468D01*
X175594282Y-83739999D01*
X175590001Y-83696530D01*
X175590001Y-78323578D01*
X175645001Y-78378578D01*
X175645000Y-105678421D01*
X175488072Y-105835349D01*
X175488072Y-105290000D01*
X175475812Y-105165518D01*
X175439502Y-105045820D01*
X175409665Y-104990000D01*
X175439502Y-104934180D01*
X175475812Y-104814482D01*
X175488072Y-104690000D01*
X175488072Y-103590000D01*
X175475812Y-103465518D01*
X175439502Y-103345820D01*
X175409665Y-103290000D01*
X175439502Y-103234180D01*
X175475812Y-103114482D01*
X175488072Y-102990000D01*
X175488072Y-101890000D01*
X175475812Y-101765518D01*
X175439502Y-101645820D01*
X175380537Y-101535506D01*
X175301185Y-101438815D01*
X175204494Y-101359463D01*
X175094180Y-101300498D01*
X174974482Y-101264188D01*
X174850000Y-101251928D01*
X172850000Y-101251928D01*
X172725518Y-101264188D01*
X172605820Y-101300498D01*
X172495506Y-101359463D01*
X172398815Y-101438815D01*
X172319463Y-101535506D01*
X172260498Y-101645820D01*
X172224188Y-101765518D01*
X172211928Y-101890000D01*
X172211928Y-102990000D01*
X172224188Y-103114482D01*
X172260498Y-103234180D01*
X172290335Y-103290000D01*
X172260498Y-103345820D01*
X172224188Y-103465518D01*
X172211928Y-103590000D01*
X172211928Y-104690000D01*
X172224188Y-104814482D01*
X172260498Y-104934180D01*
X172290335Y-104990000D01*
X172260498Y-105045820D01*
X172224188Y-105165518D01*
X172211928Y-105290000D01*
X172211928Y-106226494D01*
X171892451Y-106545971D01*
X171858684Y-106573683D01*
X171830971Y-106607451D01*
X171830968Y-106607454D01*
X171748090Y-106708441D01*
X171665912Y-106862187D01*
X171615305Y-107029010D01*
X171598219Y-107202500D01*
X171602501Y-107245979D01*
X171602501Y-108051004D01*
X171522038Y-108117038D01*
X171516658Y-108123594D01*
X171451185Y-108043815D01*
X171354494Y-107964463D01*
X171244180Y-107905498D01*
X171124482Y-107869188D01*
X171000000Y-107856928D01*
X170698250Y-107860000D01*
X170539500Y-108018750D01*
X170539500Y-109093000D01*
X170559500Y-109093000D01*
X170559500Y-109347000D01*
X170539500Y-109347000D01*
X170539500Y-109367000D01*
X170285500Y-109367000D01*
X170285500Y-109347000D01*
X169348750Y-109347000D01*
X169190000Y-109505750D01*
X169186928Y-109945000D01*
X169199188Y-110069482D01*
X169235498Y-110189180D01*
X169262662Y-110240000D01*
X164831579Y-110240000D01*
X164710523Y-110118944D01*
X164755472Y-110034850D01*
X164806008Y-109868254D01*
X164823072Y-109695000D01*
X164823072Y-108745000D01*
X164806008Y-108571746D01*
X164782728Y-108495000D01*
X169186928Y-108495000D01*
X169190000Y-108934250D01*
X169348750Y-109093000D01*
X170285500Y-109093000D01*
X170285500Y-108018750D01*
X170126750Y-107860000D01*
X169825000Y-107856928D01*
X169700518Y-107869188D01*
X169580820Y-107905498D01*
X169470506Y-107964463D01*
X169373815Y-108043815D01*
X169294463Y-108140506D01*
X169235498Y-108250820D01*
X169199188Y-108370518D01*
X169186928Y-108495000D01*
X164782728Y-108495000D01*
X164755472Y-108405150D01*
X164673405Y-108251614D01*
X164562962Y-108117038D01*
X164482500Y-108051005D01*
X164482500Y-107569078D01*
X165023507Y-107028072D01*
X165960000Y-107028072D01*
X166084482Y-107015812D01*
X166204180Y-106979502D01*
X166314494Y-106920537D01*
X166411185Y-106841185D01*
X166490537Y-106744494D01*
X166549502Y-106634180D01*
X166585812Y-106514482D01*
X166598072Y-106390000D01*
X167411928Y-106390000D01*
X167424188Y-106514482D01*
X167460498Y-106634180D01*
X167519463Y-106744494D01*
X167598815Y-106841185D01*
X167695506Y-106920537D01*
X167805820Y-106979502D01*
X167925518Y-107015812D01*
X168050000Y-107028072D01*
X168764250Y-107025000D01*
X168923000Y-106866250D01*
X168923000Y-105967000D01*
X169177000Y-105967000D01*
X169177000Y-106866250D01*
X169335750Y-107025000D01*
X170050000Y-107028072D01*
X170174482Y-107015812D01*
X170294180Y-106979502D01*
X170404494Y-106920537D01*
X170501185Y-106841185D01*
X170580537Y-106744494D01*
X170639502Y-106634180D01*
X170675812Y-106514482D01*
X170688072Y-106390000D01*
X170685000Y-106125750D01*
X170526250Y-105967000D01*
X169177000Y-105967000D01*
X168923000Y-105967000D01*
X167573750Y-105967000D01*
X167415000Y-106125750D01*
X167411928Y-106390000D01*
X166598072Y-106390000D01*
X166598072Y-105290000D01*
X166585812Y-105165518D01*
X166549502Y-105045820D01*
X166519665Y-104990000D01*
X166549502Y-104934180D01*
X166552287Y-104925000D01*
X167457713Y-104925000D01*
X167460498Y-104934180D01*
X167490335Y-104990000D01*
X167460498Y-105045820D01*
X167424188Y-105165518D01*
X167411928Y-105290000D01*
X167415000Y-105554250D01*
X167573750Y-105713000D01*
X168923000Y-105713000D01*
X168923000Y-105693000D01*
X169177000Y-105693000D01*
X169177000Y-105713000D01*
X170526250Y-105713000D01*
X170685000Y-105554250D01*
X170688072Y-105290000D01*
X170675812Y-105165518D01*
X170639502Y-105045820D01*
X170609665Y-104990000D01*
X170639502Y-104934180D01*
X170675812Y-104814482D01*
X170688072Y-104690000D01*
X170688072Y-103590000D01*
X170675812Y-103465518D01*
X170639502Y-103345820D01*
X170609665Y-103290000D01*
X170639502Y-103234180D01*
X170675812Y-103114482D01*
X170688072Y-102990000D01*
X170688072Y-101890000D01*
X170675812Y-101765518D01*
X170639502Y-101645820D01*
X170580537Y-101535506D01*
X170501185Y-101438815D01*
X170404494Y-101359463D01*
X170294180Y-101300498D01*
X170174482Y-101264188D01*
X170050000Y-101251928D01*
X168050000Y-101251928D01*
X167925518Y-101264188D01*
X167805820Y-101300498D01*
X167695506Y-101359463D01*
X167598815Y-101438815D01*
X167519463Y-101535506D01*
X167460498Y-101645820D01*
X167457713Y-101655000D01*
X166552287Y-101655000D01*
X166549502Y-101645820D01*
X166490537Y-101535506D01*
X166411185Y-101438815D01*
X166314494Y-101359463D01*
X166204180Y-101300498D01*
X166084482Y-101264188D01*
X165960000Y-101251928D01*
X163960000Y-101251928D01*
X163835518Y-101264188D01*
X163715820Y-101300498D01*
X163605506Y-101359463D01*
X163508815Y-101438815D01*
X163429463Y-101535506D01*
X163370498Y-101645820D01*
X163334188Y-101765518D01*
X163321928Y-101890000D01*
X163321928Y-102990000D01*
X163334188Y-103114482D01*
X163370498Y-103234180D01*
X163400335Y-103290000D01*
X163370498Y-103345820D01*
X163334188Y-103465518D01*
X163321928Y-103590000D01*
X163321928Y-104690000D01*
X163334188Y-104814482D01*
X163370498Y-104934180D01*
X163400335Y-104990000D01*
X163370498Y-105045820D01*
X163334188Y-105165518D01*
X163321928Y-105290000D01*
X163321928Y-106226494D01*
X163002451Y-106545971D01*
X162968684Y-106573683D01*
X162940971Y-106607451D01*
X162940968Y-106607454D01*
X162858090Y-106708441D01*
X162775912Y-106862187D01*
X162725305Y-107029010D01*
X162708219Y-107202500D01*
X162712501Y-107245979D01*
X162712501Y-108051004D01*
X162632038Y-108117038D01*
X162626658Y-108123594D01*
X162561185Y-108043815D01*
X162464494Y-107964463D01*
X162354180Y-107905498D01*
X162234482Y-107869188D01*
X162110000Y-107856928D01*
X161808250Y-107860000D01*
X161649500Y-108018750D01*
X161649500Y-109093000D01*
X161669500Y-109093000D01*
X161669500Y-109347000D01*
X161649500Y-109347000D01*
X161649500Y-109367000D01*
X161395500Y-109367000D01*
X161395500Y-109347000D01*
X160458750Y-109347000D01*
X160300000Y-109505750D01*
X160296928Y-109945000D01*
X160309188Y-110069482D01*
X160345498Y-110189180D01*
X160372662Y-110240000D01*
X155941579Y-110240000D01*
X155820523Y-110118944D01*
X155865472Y-110034850D01*
X155916008Y-109868254D01*
X155933072Y-109695000D01*
X155933072Y-108745000D01*
X155916008Y-108571746D01*
X155892728Y-108495000D01*
X160296928Y-108495000D01*
X160300000Y-108934250D01*
X160458750Y-109093000D01*
X161395500Y-109093000D01*
X161395500Y-108018750D01*
X161236750Y-107860000D01*
X160935000Y-107856928D01*
X160810518Y-107869188D01*
X160690820Y-107905498D01*
X160580506Y-107964463D01*
X160483815Y-108043815D01*
X160404463Y-108140506D01*
X160345498Y-108250820D01*
X160309188Y-108370518D01*
X160296928Y-108495000D01*
X155892728Y-108495000D01*
X155865472Y-108405150D01*
X155783405Y-108251614D01*
X155672962Y-108117038D01*
X155592500Y-108051005D01*
X155592500Y-107569078D01*
X156133507Y-107028072D01*
X157070000Y-107028072D01*
X157194482Y-107015812D01*
X157314180Y-106979502D01*
X157424494Y-106920537D01*
X157521185Y-106841185D01*
X157600537Y-106744494D01*
X157659502Y-106634180D01*
X157695812Y-106514482D01*
X157708072Y-106390000D01*
X158521928Y-106390000D01*
X158534188Y-106514482D01*
X158570498Y-106634180D01*
X158629463Y-106744494D01*
X158708815Y-106841185D01*
X158805506Y-106920537D01*
X158915820Y-106979502D01*
X159035518Y-107015812D01*
X159160000Y-107028072D01*
X159874250Y-107025000D01*
X160033000Y-106866250D01*
X160033000Y-105967000D01*
X160287000Y-105967000D01*
X160287000Y-106866250D01*
X160445750Y-107025000D01*
X161160000Y-107028072D01*
X161284482Y-107015812D01*
X161404180Y-106979502D01*
X161514494Y-106920537D01*
X161611185Y-106841185D01*
X161690537Y-106744494D01*
X161749502Y-106634180D01*
X161785812Y-106514482D01*
X161798072Y-106390000D01*
X161795000Y-106125750D01*
X161636250Y-105967000D01*
X160287000Y-105967000D01*
X160033000Y-105967000D01*
X158683750Y-105967000D01*
X158525000Y-106125750D01*
X158521928Y-106390000D01*
X157708072Y-106390000D01*
X157708072Y-105290000D01*
X157695812Y-105165518D01*
X157659502Y-105045820D01*
X157629665Y-104990000D01*
X157659502Y-104934180D01*
X157662287Y-104925000D01*
X158567713Y-104925000D01*
X158570498Y-104934180D01*
X158600335Y-104990000D01*
X158570498Y-105045820D01*
X158534188Y-105165518D01*
X158521928Y-105290000D01*
X158525000Y-105554250D01*
X158683750Y-105713000D01*
X160033000Y-105713000D01*
X160033000Y-105693000D01*
X160287000Y-105693000D01*
X160287000Y-105713000D01*
X161636250Y-105713000D01*
X161795000Y-105554250D01*
X161798072Y-105290000D01*
X161785812Y-105165518D01*
X161749502Y-105045820D01*
X161719665Y-104990000D01*
X161749502Y-104934180D01*
X161785812Y-104814482D01*
X161798072Y-104690000D01*
X161798072Y-103590000D01*
X161785812Y-103465518D01*
X161749502Y-103345820D01*
X161719665Y-103290000D01*
X161749502Y-103234180D01*
X161785812Y-103114482D01*
X161798072Y-102990000D01*
X161798072Y-101890000D01*
X161785812Y-101765518D01*
X161749502Y-101645820D01*
X161690537Y-101535506D01*
X161611185Y-101438815D01*
X161514494Y-101359463D01*
X161404180Y-101300498D01*
X161284482Y-101264188D01*
X161160000Y-101251928D01*
X159160000Y-101251928D01*
X159035518Y-101264188D01*
X158915820Y-101300498D01*
X158805506Y-101359463D01*
X158708815Y-101438815D01*
X158629463Y-101535506D01*
X158570498Y-101645820D01*
X158567713Y-101655000D01*
X157662287Y-101655000D01*
X157659502Y-101645820D01*
X157600537Y-101535506D01*
X157521185Y-101438815D01*
X157424494Y-101359463D01*
X157314180Y-101300498D01*
X157194482Y-101264188D01*
X157070000Y-101251928D01*
X155070000Y-101251928D01*
X154945518Y-101264188D01*
X154825820Y-101300498D01*
X154715506Y-101359463D01*
X154618815Y-101438815D01*
X154539463Y-101535506D01*
X154480498Y-101645820D01*
X154444188Y-101765518D01*
X154431928Y-101890000D01*
X154431928Y-102990000D01*
X154444188Y-103114482D01*
X154480498Y-103234180D01*
X154510335Y-103290000D01*
X154480498Y-103345820D01*
X154444188Y-103465518D01*
X154431928Y-103590000D01*
X154431928Y-104690000D01*
X154444188Y-104814482D01*
X154480498Y-104934180D01*
X154510335Y-104990000D01*
X154480498Y-105045820D01*
X154444188Y-105165518D01*
X154431928Y-105290000D01*
X154431928Y-106226494D01*
X154112451Y-106545971D01*
X154078684Y-106573683D01*
X154050971Y-106607451D01*
X154050968Y-106607454D01*
X153968090Y-106708441D01*
X153885912Y-106862187D01*
X153835305Y-107029010D01*
X153818219Y-107202500D01*
X153822501Y-107245979D01*
X153822501Y-108051004D01*
X153742038Y-108117038D01*
X153736658Y-108123594D01*
X153671185Y-108043815D01*
X153574494Y-107964463D01*
X153464180Y-107905498D01*
X153344482Y-107869188D01*
X153220000Y-107856928D01*
X152918250Y-107860000D01*
X152759500Y-108018750D01*
X152759500Y-109093000D01*
X152779500Y-109093000D01*
X152779500Y-109347000D01*
X152759500Y-109347000D01*
X152759500Y-109367000D01*
X152505500Y-109367000D01*
X152505500Y-109347000D01*
X151568750Y-109347000D01*
X151410000Y-109505750D01*
X151406928Y-109945000D01*
X151419188Y-110069482D01*
X151455498Y-110189180D01*
X151482662Y-110240000D01*
X147051579Y-110240000D01*
X146930523Y-110118944D01*
X146975472Y-110034850D01*
X147026008Y-109868254D01*
X147043072Y-109695000D01*
X147043072Y-108745000D01*
X147026008Y-108571746D01*
X147002728Y-108495000D01*
X151406928Y-108495000D01*
X151410000Y-108934250D01*
X151568750Y-109093000D01*
X152505500Y-109093000D01*
X152505500Y-108018750D01*
X152346750Y-107860000D01*
X152045000Y-107856928D01*
X151920518Y-107869188D01*
X151800820Y-107905498D01*
X151690506Y-107964463D01*
X151593815Y-108043815D01*
X151514463Y-108140506D01*
X151455498Y-108250820D01*
X151419188Y-108370518D01*
X151406928Y-108495000D01*
X147002728Y-108495000D01*
X146975472Y-108405150D01*
X146893405Y-108251614D01*
X146782962Y-108117038D01*
X146702500Y-108051005D01*
X146702500Y-107569078D01*
X147243507Y-107028072D01*
X148180000Y-107028072D01*
X148304482Y-107015812D01*
X148424180Y-106979502D01*
X148534494Y-106920537D01*
X148631185Y-106841185D01*
X148710537Y-106744494D01*
X148769502Y-106634180D01*
X148805812Y-106514482D01*
X148818072Y-106390000D01*
X149631928Y-106390000D01*
X149644188Y-106514482D01*
X149680498Y-106634180D01*
X149739463Y-106744494D01*
X149818815Y-106841185D01*
X149915506Y-106920537D01*
X150025820Y-106979502D01*
X150145518Y-107015812D01*
X150270000Y-107028072D01*
X150984250Y-107025000D01*
X151143000Y-106866250D01*
X151143000Y-105967000D01*
X151397000Y-105967000D01*
X151397000Y-106866250D01*
X151555750Y-107025000D01*
X152270000Y-107028072D01*
X152394482Y-107015812D01*
X152514180Y-106979502D01*
X152624494Y-106920537D01*
X152721185Y-106841185D01*
X152800537Y-106744494D01*
X152859502Y-106634180D01*
X152895812Y-106514482D01*
X152908072Y-106390000D01*
X152905000Y-106125750D01*
X152746250Y-105967000D01*
X151397000Y-105967000D01*
X151143000Y-105967000D01*
X149793750Y-105967000D01*
X149635000Y-106125750D01*
X149631928Y-106390000D01*
X148818072Y-106390000D01*
X148818072Y-105290000D01*
X148805812Y-105165518D01*
X148769502Y-105045820D01*
X148739665Y-104990000D01*
X148769502Y-104934180D01*
X148772287Y-104925000D01*
X149677713Y-104925000D01*
X149680498Y-104934180D01*
X149710335Y-104990000D01*
X149680498Y-105045820D01*
X149644188Y-105165518D01*
X149631928Y-105290000D01*
X149635000Y-105554250D01*
X149793750Y-105713000D01*
X151143000Y-105713000D01*
X151143000Y-105693000D01*
X151397000Y-105693000D01*
X151397000Y-105713000D01*
X152746250Y-105713000D01*
X152905000Y-105554250D01*
X152908072Y-105290000D01*
X152895812Y-105165518D01*
X152859502Y-105045820D01*
X152829665Y-104990000D01*
X152859502Y-104934180D01*
X152895812Y-104814482D01*
X152908072Y-104690000D01*
X152908072Y-103590000D01*
X152895812Y-103465518D01*
X152859502Y-103345820D01*
X152829665Y-103290000D01*
X152859502Y-103234180D01*
X152895812Y-103114482D01*
X152908072Y-102990000D01*
X152908072Y-101890000D01*
X152895812Y-101765518D01*
X152859502Y-101645820D01*
X152800537Y-101535506D01*
X152721185Y-101438815D01*
X152624494Y-101359463D01*
X152514180Y-101300498D01*
X152394482Y-101264188D01*
X152270000Y-101251928D01*
X150270000Y-101251928D01*
X150145518Y-101264188D01*
X150025820Y-101300498D01*
X149915506Y-101359463D01*
X149818815Y-101438815D01*
X149739463Y-101535506D01*
X149680498Y-101645820D01*
X149677713Y-101655000D01*
X148772287Y-101655000D01*
X148769502Y-101645820D01*
X148710537Y-101535506D01*
X148631185Y-101438815D01*
X148534494Y-101359463D01*
X148424180Y-101300498D01*
X148304482Y-101264188D01*
X148180000Y-101251928D01*
X146180000Y-101251928D01*
X146055518Y-101264188D01*
X145935820Y-101300498D01*
X145825506Y-101359463D01*
X145728815Y-101438815D01*
X145649463Y-101535506D01*
X145590498Y-101645820D01*
X145554188Y-101765518D01*
X145541928Y-101890000D01*
X145541928Y-102990000D01*
X145554188Y-103114482D01*
X145590498Y-103234180D01*
X145620335Y-103290000D01*
X145590498Y-103345820D01*
X145554188Y-103465518D01*
X145541928Y-103590000D01*
X145541928Y-104690000D01*
X145554188Y-104814482D01*
X145590498Y-104934180D01*
X145620335Y-104990000D01*
X145590498Y-105045820D01*
X145554188Y-105165518D01*
X145541928Y-105290000D01*
X145541928Y-106226494D01*
X145222451Y-106545971D01*
X145188684Y-106573683D01*
X145160971Y-106607451D01*
X145160968Y-106607454D01*
X145078090Y-106708441D01*
X144995912Y-106862187D01*
X144945305Y-107029010D01*
X144928219Y-107202500D01*
X144932501Y-107245979D01*
X144932501Y-108051004D01*
X144852038Y-108117038D01*
X144846658Y-108123594D01*
X144781185Y-108043815D01*
X144684494Y-107964463D01*
X144574180Y-107905498D01*
X144454482Y-107869188D01*
X144330000Y-107856928D01*
X144028250Y-107860000D01*
X143869500Y-108018750D01*
X143869500Y-109093000D01*
X143889500Y-109093000D01*
X143889500Y-109347000D01*
X143869500Y-109347000D01*
X143869500Y-109367000D01*
X143615500Y-109367000D01*
X143615500Y-109347000D01*
X142678750Y-109347000D01*
X142520000Y-109505750D01*
X142516928Y-109945000D01*
X142529188Y-110069482D01*
X142565498Y-110189180D01*
X142592662Y-110240000D01*
X138161579Y-110240000D01*
X138040523Y-110118944D01*
X138085472Y-110034850D01*
X138136008Y-109868254D01*
X138153072Y-109695000D01*
X138153072Y-108745000D01*
X138136008Y-108571746D01*
X138112728Y-108495000D01*
X142516928Y-108495000D01*
X142520000Y-108934250D01*
X142678750Y-109093000D01*
X143615500Y-109093000D01*
X143615500Y-108018750D01*
X143456750Y-107860000D01*
X143155000Y-107856928D01*
X143030518Y-107869188D01*
X142910820Y-107905498D01*
X142800506Y-107964463D01*
X142703815Y-108043815D01*
X142624463Y-108140506D01*
X142565498Y-108250820D01*
X142529188Y-108370518D01*
X142516928Y-108495000D01*
X138112728Y-108495000D01*
X138085472Y-108405150D01*
X138003405Y-108251614D01*
X137892962Y-108117038D01*
X137812500Y-108051005D01*
X137812500Y-107569078D01*
X138353507Y-107028072D01*
X139290000Y-107028072D01*
X139414482Y-107015812D01*
X139534180Y-106979502D01*
X139644494Y-106920537D01*
X139741185Y-106841185D01*
X139820537Y-106744494D01*
X139879502Y-106634180D01*
X139915812Y-106514482D01*
X139928072Y-106390000D01*
X140741928Y-106390000D01*
X140754188Y-106514482D01*
X140790498Y-106634180D01*
X140849463Y-106744494D01*
X140928815Y-106841185D01*
X141025506Y-106920537D01*
X141135820Y-106979502D01*
X141255518Y-107015812D01*
X141380000Y-107028072D01*
X142094250Y-107025000D01*
X142253000Y-106866250D01*
X142253000Y-105967000D01*
X142507000Y-105967000D01*
X142507000Y-106866250D01*
X142665750Y-107025000D01*
X143380000Y-107028072D01*
X143504482Y-107015812D01*
X143624180Y-106979502D01*
X143734494Y-106920537D01*
X143831185Y-106841185D01*
X143910537Y-106744494D01*
X143969502Y-106634180D01*
X144005812Y-106514482D01*
X144018072Y-106390000D01*
X144015000Y-106125750D01*
X143856250Y-105967000D01*
X142507000Y-105967000D01*
X142253000Y-105967000D01*
X140903750Y-105967000D01*
X140745000Y-106125750D01*
X140741928Y-106390000D01*
X139928072Y-106390000D01*
X139928072Y-105290000D01*
X139915812Y-105165518D01*
X139879502Y-105045820D01*
X139849665Y-104990000D01*
X139879502Y-104934180D01*
X139882287Y-104925000D01*
X140787713Y-104925000D01*
X140790498Y-104934180D01*
X140820335Y-104990000D01*
X140790498Y-105045820D01*
X140754188Y-105165518D01*
X140741928Y-105290000D01*
X140745000Y-105554250D01*
X140903750Y-105713000D01*
X142253000Y-105713000D01*
X142253000Y-105693000D01*
X142507000Y-105693000D01*
X142507000Y-105713000D01*
X143856250Y-105713000D01*
X144015000Y-105554250D01*
X144018072Y-105290000D01*
X144005812Y-105165518D01*
X143969502Y-105045820D01*
X143939665Y-104990000D01*
X143969502Y-104934180D01*
X144005812Y-104814482D01*
X144018072Y-104690000D01*
X144018072Y-103590000D01*
X144005812Y-103465518D01*
X143969502Y-103345820D01*
X143939665Y-103290000D01*
X143969502Y-103234180D01*
X144005812Y-103114482D01*
X144018072Y-102990000D01*
X144018072Y-101890000D01*
X144005812Y-101765518D01*
X143969502Y-101645820D01*
X143910537Y-101535506D01*
X143831185Y-101438815D01*
X143734494Y-101359463D01*
X143624180Y-101300498D01*
X143504482Y-101264188D01*
X143380000Y-101251928D01*
X141380000Y-101251928D01*
X141255518Y-101264188D01*
X141135820Y-101300498D01*
X141025506Y-101359463D01*
X140928815Y-101438815D01*
X140849463Y-101535506D01*
X140790498Y-101645820D01*
X140787713Y-101655000D01*
X139882287Y-101655000D01*
X139879502Y-101645820D01*
X139820537Y-101535506D01*
X139741185Y-101438815D01*
X139644494Y-101359463D01*
X139534180Y-101300498D01*
X139414482Y-101264188D01*
X139290000Y-101251928D01*
X137290000Y-101251928D01*
X137165518Y-101264188D01*
X137045820Y-101300498D01*
X136935506Y-101359463D01*
X136838815Y-101438815D01*
X136759463Y-101535506D01*
X136700498Y-101645820D01*
X136664188Y-101765518D01*
X136651928Y-101890000D01*
X136651928Y-102990000D01*
X136664188Y-103114482D01*
X136700498Y-103234180D01*
X136730335Y-103290000D01*
X136700498Y-103345820D01*
X136664188Y-103465518D01*
X136651928Y-103590000D01*
X136651928Y-104690000D01*
X136664188Y-104814482D01*
X136700498Y-104934180D01*
X136730335Y-104990000D01*
X136700498Y-105045820D01*
X136664188Y-105165518D01*
X136651928Y-105290000D01*
X136651928Y-106226494D01*
X136332451Y-106545971D01*
X136298684Y-106573683D01*
X136270971Y-106607451D01*
X136270968Y-106607454D01*
X136188090Y-106708441D01*
X136105912Y-106862187D01*
X136055305Y-107029010D01*
X136038219Y-107202500D01*
X136042501Y-107245979D01*
X136042501Y-108051004D01*
X135962038Y-108117038D01*
X135956658Y-108123594D01*
X135891185Y-108043815D01*
X135794494Y-107964463D01*
X135684180Y-107905498D01*
X135564482Y-107869188D01*
X135440000Y-107856928D01*
X135138250Y-107860000D01*
X134979500Y-108018750D01*
X134979500Y-109093000D01*
X134999500Y-109093000D01*
X134999500Y-109347000D01*
X134979500Y-109347000D01*
X134979500Y-109367000D01*
X134725500Y-109367000D01*
X134725500Y-109347000D01*
X133788750Y-109347000D01*
X133630000Y-109505750D01*
X133626928Y-109945000D01*
X133639188Y-110069482D01*
X133675498Y-110189180D01*
X133702662Y-110240000D01*
X129271579Y-110240000D01*
X129150523Y-110118944D01*
X129195472Y-110034850D01*
X129246008Y-109868254D01*
X129263072Y-109695000D01*
X129263072Y-108745000D01*
X129246008Y-108571746D01*
X129222728Y-108495000D01*
X133626928Y-108495000D01*
X133630000Y-108934250D01*
X133788750Y-109093000D01*
X134725500Y-109093000D01*
X134725500Y-108018750D01*
X134566750Y-107860000D01*
X134265000Y-107856928D01*
X134140518Y-107869188D01*
X134020820Y-107905498D01*
X133910506Y-107964463D01*
X133813815Y-108043815D01*
X133734463Y-108140506D01*
X133675498Y-108250820D01*
X133639188Y-108370518D01*
X133626928Y-108495000D01*
X129222728Y-108495000D01*
X129195472Y-108405150D01*
X129113405Y-108251614D01*
X129002962Y-108117038D01*
X128922500Y-108051005D01*
X128922500Y-107569078D01*
X129463507Y-107028072D01*
X130400000Y-107028072D01*
X130524482Y-107015812D01*
X130644180Y-106979502D01*
X130754494Y-106920537D01*
X130851185Y-106841185D01*
X130930537Y-106744494D01*
X130989502Y-106634180D01*
X131025812Y-106514482D01*
X131038072Y-106390000D01*
X131851928Y-106390000D01*
X131864188Y-106514482D01*
X131900498Y-106634180D01*
X131959463Y-106744494D01*
X132038815Y-106841185D01*
X132135506Y-106920537D01*
X132245820Y-106979502D01*
X132365518Y-107015812D01*
X132490000Y-107028072D01*
X133204250Y-107025000D01*
X133363000Y-106866250D01*
X133363000Y-105967000D01*
X133617000Y-105967000D01*
X133617000Y-106866250D01*
X133775750Y-107025000D01*
X134490000Y-107028072D01*
X134614482Y-107015812D01*
X134734180Y-106979502D01*
X134844494Y-106920537D01*
X134941185Y-106841185D01*
X135020537Y-106744494D01*
X135079502Y-106634180D01*
X135115812Y-106514482D01*
X135128072Y-106390000D01*
X135125000Y-106125750D01*
X134966250Y-105967000D01*
X133617000Y-105967000D01*
X133363000Y-105967000D01*
X132013750Y-105967000D01*
X131855000Y-106125750D01*
X131851928Y-106390000D01*
X131038072Y-106390000D01*
X131038072Y-105290000D01*
X131025812Y-105165518D01*
X130989502Y-105045820D01*
X130959665Y-104990000D01*
X130989502Y-104934180D01*
X130992287Y-104925000D01*
X131897713Y-104925000D01*
X131900498Y-104934180D01*
X131930335Y-104990000D01*
X131900498Y-105045820D01*
X131864188Y-105165518D01*
X131851928Y-105290000D01*
X131855000Y-105554250D01*
X132013750Y-105713000D01*
X133363000Y-105713000D01*
X133363000Y-105693000D01*
X133617000Y-105693000D01*
X133617000Y-105713000D01*
X134966250Y-105713000D01*
X135125000Y-105554250D01*
X135128072Y-105290000D01*
X135115812Y-105165518D01*
X135079502Y-105045820D01*
X135049665Y-104990000D01*
X135079502Y-104934180D01*
X135115812Y-104814482D01*
X135128072Y-104690000D01*
X135128072Y-103590000D01*
X135115812Y-103465518D01*
X135079502Y-103345820D01*
X135049665Y-103290000D01*
X135079502Y-103234180D01*
X135115812Y-103114482D01*
X135128072Y-102990000D01*
X135128072Y-101890000D01*
X135115812Y-101765518D01*
X135079502Y-101645820D01*
X135020537Y-101535506D01*
X134941185Y-101438815D01*
X134844494Y-101359463D01*
X134734180Y-101300498D01*
X134614482Y-101264188D01*
X134490000Y-101251928D01*
X132490000Y-101251928D01*
X132365518Y-101264188D01*
X132245820Y-101300498D01*
X132135506Y-101359463D01*
X132038815Y-101438815D01*
X131959463Y-101535506D01*
X131900498Y-101645820D01*
X131897713Y-101655000D01*
X130992287Y-101655000D01*
X130989502Y-101645820D01*
X130930537Y-101535506D01*
X130851185Y-101438815D01*
X130754494Y-101359463D01*
X130644180Y-101300498D01*
X130524482Y-101264188D01*
X130400000Y-101251928D01*
X128400000Y-101251928D01*
X128275518Y-101264188D01*
X128155820Y-101300498D01*
X128045506Y-101359463D01*
X127948815Y-101438815D01*
X127869463Y-101535506D01*
X127810498Y-101645820D01*
X127774188Y-101765518D01*
X127761928Y-101890000D01*
X127761928Y-102990000D01*
X127774188Y-103114482D01*
X127810498Y-103234180D01*
X127840335Y-103290000D01*
X127810498Y-103345820D01*
X127774188Y-103465518D01*
X127761928Y-103590000D01*
X127761928Y-104690000D01*
X127774188Y-104814482D01*
X127810498Y-104934180D01*
X127840335Y-104990000D01*
X127810498Y-105045820D01*
X127774188Y-105165518D01*
X127761928Y-105290000D01*
X127761928Y-106226494D01*
X127442451Y-106545971D01*
X127408684Y-106573683D01*
X127380971Y-106607451D01*
X127380968Y-106607454D01*
X127298090Y-106708441D01*
X127215912Y-106862187D01*
X127165305Y-107029010D01*
X127148219Y-107202500D01*
X127152501Y-107245979D01*
X127152501Y-108051004D01*
X127072038Y-108117038D01*
X127066658Y-108123594D01*
X127001185Y-108043815D01*
X126904494Y-107964463D01*
X126794180Y-107905498D01*
X126674482Y-107869188D01*
X126550000Y-107856928D01*
X126248250Y-107860000D01*
X126089500Y-108018750D01*
X126089500Y-109093000D01*
X126109500Y-109093000D01*
X126109500Y-109347000D01*
X126089500Y-109347000D01*
X126089500Y-109367000D01*
X125835500Y-109367000D01*
X125835500Y-109347000D01*
X124898750Y-109347000D01*
X124740000Y-109505750D01*
X124736928Y-109945000D01*
X124749188Y-110069482D01*
X124785498Y-110189180D01*
X124812662Y-110240000D01*
X120381579Y-110240000D01*
X120260523Y-110118944D01*
X120305472Y-110034850D01*
X120356008Y-109868254D01*
X120373072Y-109695000D01*
X120373072Y-108745000D01*
X120356008Y-108571746D01*
X120332728Y-108495000D01*
X124736928Y-108495000D01*
X124740000Y-108934250D01*
X124898750Y-109093000D01*
X125835500Y-109093000D01*
X125835500Y-108018750D01*
X125676750Y-107860000D01*
X125375000Y-107856928D01*
X125250518Y-107869188D01*
X125130820Y-107905498D01*
X125020506Y-107964463D01*
X124923815Y-108043815D01*
X124844463Y-108140506D01*
X124785498Y-108250820D01*
X124749188Y-108370518D01*
X124736928Y-108495000D01*
X120332728Y-108495000D01*
X120305472Y-108405150D01*
X120223405Y-108251614D01*
X120112962Y-108117038D01*
X120032500Y-108051005D01*
X120032500Y-107569078D01*
X120573507Y-107028072D01*
X121510000Y-107028072D01*
X121634482Y-107015812D01*
X121754180Y-106979502D01*
X121864494Y-106920537D01*
X121961185Y-106841185D01*
X122040537Y-106744494D01*
X122099502Y-106634180D01*
X122135812Y-106514482D01*
X122148072Y-106390000D01*
X122961928Y-106390000D01*
X122974188Y-106514482D01*
X123010498Y-106634180D01*
X123069463Y-106744494D01*
X123148815Y-106841185D01*
X123245506Y-106920537D01*
X123355820Y-106979502D01*
X123475518Y-107015812D01*
X123600000Y-107028072D01*
X124314250Y-107025000D01*
X124473000Y-106866250D01*
X124473000Y-105967000D01*
X124727000Y-105967000D01*
X124727000Y-106866250D01*
X124885750Y-107025000D01*
X125600000Y-107028072D01*
X125724482Y-107015812D01*
X125844180Y-106979502D01*
X125954494Y-106920537D01*
X126051185Y-106841185D01*
X126130537Y-106744494D01*
X126189502Y-106634180D01*
X126225812Y-106514482D01*
X126238072Y-106390000D01*
X126235000Y-106125750D01*
X126076250Y-105967000D01*
X124727000Y-105967000D01*
X124473000Y-105967000D01*
X123123750Y-105967000D01*
X122965000Y-106125750D01*
X122961928Y-106390000D01*
X122148072Y-106390000D01*
X122148072Y-105290000D01*
X122135812Y-105165518D01*
X122099502Y-105045820D01*
X122069665Y-104990000D01*
X122099502Y-104934180D01*
X122102287Y-104925000D01*
X123007713Y-104925000D01*
X123010498Y-104934180D01*
X123040335Y-104990000D01*
X123010498Y-105045820D01*
X122974188Y-105165518D01*
X122961928Y-105290000D01*
X122965000Y-105554250D01*
X123123750Y-105713000D01*
X124473000Y-105713000D01*
X124473000Y-105693000D01*
X124727000Y-105693000D01*
X124727000Y-105713000D01*
X126076250Y-105713000D01*
X126235000Y-105554250D01*
X126238072Y-105290000D01*
X126225812Y-105165518D01*
X126189502Y-105045820D01*
X126159665Y-104990000D01*
X126189502Y-104934180D01*
X126225812Y-104814482D01*
X126238072Y-104690000D01*
X126238072Y-103590000D01*
X126225812Y-103465518D01*
X126189502Y-103345820D01*
X126159665Y-103290000D01*
X126189502Y-103234180D01*
X126225812Y-103114482D01*
X126238072Y-102990000D01*
X126238072Y-101890000D01*
X126225812Y-101765518D01*
X126189502Y-101645820D01*
X126130537Y-101535506D01*
X126051185Y-101438815D01*
X125954494Y-101359463D01*
X125844180Y-101300498D01*
X125724482Y-101264188D01*
X125600000Y-101251928D01*
X123600000Y-101251928D01*
X123475518Y-101264188D01*
X123355820Y-101300498D01*
X123245506Y-101359463D01*
X123148815Y-101438815D01*
X123069463Y-101535506D01*
X123010498Y-101645820D01*
X123007713Y-101655000D01*
X122102287Y-101655000D01*
X122099502Y-101645820D01*
X122040537Y-101535506D01*
X121961185Y-101438815D01*
X121864494Y-101359463D01*
X121754180Y-101300498D01*
X121634482Y-101264188D01*
X121510000Y-101251928D01*
X119510000Y-101251928D01*
X119385518Y-101264188D01*
X119265820Y-101300498D01*
X119155506Y-101359463D01*
X119058815Y-101438815D01*
X118979463Y-101535506D01*
X118920498Y-101645820D01*
X118884188Y-101765518D01*
X118871928Y-101890000D01*
X118871928Y-102990000D01*
X118884188Y-103114482D01*
X118920498Y-103234180D01*
X118950335Y-103290000D01*
X118920498Y-103345820D01*
X118884188Y-103465518D01*
X118871928Y-103590000D01*
X118871928Y-104690000D01*
X118884188Y-104814482D01*
X118920498Y-104934180D01*
X118950335Y-104990000D01*
X118920498Y-105045820D01*
X118884188Y-105165518D01*
X118871928Y-105290000D01*
X118871928Y-106226494D01*
X118552451Y-106545971D01*
X118518684Y-106573683D01*
X118490971Y-106607451D01*
X118490968Y-106607454D01*
X118408090Y-106708441D01*
X118325912Y-106862187D01*
X118275305Y-107029010D01*
X118258219Y-107202500D01*
X118262501Y-107245979D01*
X118262501Y-108051004D01*
X118182038Y-108117038D01*
X118176658Y-108123594D01*
X118111185Y-108043815D01*
X118014494Y-107964463D01*
X117904180Y-107905498D01*
X117784482Y-107869188D01*
X117660000Y-107856928D01*
X117358250Y-107860000D01*
X117199500Y-108018750D01*
X117199500Y-109093000D01*
X117219500Y-109093000D01*
X117219500Y-109347000D01*
X117199500Y-109347000D01*
X117199500Y-109367000D01*
X116945500Y-109367000D01*
X116945500Y-109347000D01*
X116008750Y-109347000D01*
X115850000Y-109505750D01*
X115846928Y-109945000D01*
X115859188Y-110069482D01*
X115895498Y-110189180D01*
X115922662Y-110240000D01*
X112126579Y-110240000D01*
X111483072Y-109596494D01*
X111483072Y-108745000D01*
X111466008Y-108571746D01*
X111442728Y-108495000D01*
X115846928Y-108495000D01*
X115850000Y-108934250D01*
X116008750Y-109093000D01*
X116945500Y-109093000D01*
X116945500Y-108018750D01*
X116786750Y-107860000D01*
X116485000Y-107856928D01*
X116360518Y-107869188D01*
X116240820Y-107905498D01*
X116130506Y-107964463D01*
X116033815Y-108043815D01*
X115954463Y-108140506D01*
X115895498Y-108250820D01*
X115859188Y-108370518D01*
X115846928Y-108495000D01*
X111442728Y-108495000D01*
X111415472Y-108405150D01*
X111333405Y-108251614D01*
X111222962Y-108117038D01*
X111142500Y-108051005D01*
X111142500Y-107569078D01*
X111683507Y-107028072D01*
X112620000Y-107028072D01*
X112744482Y-107015812D01*
X112864180Y-106979502D01*
X112974494Y-106920537D01*
X113071185Y-106841185D01*
X113150537Y-106744494D01*
X113209502Y-106634180D01*
X113245812Y-106514482D01*
X113258072Y-106390000D01*
X114071928Y-106390000D01*
X114084188Y-106514482D01*
X114120498Y-106634180D01*
X114179463Y-106744494D01*
X114258815Y-106841185D01*
X114355506Y-106920537D01*
X114465820Y-106979502D01*
X114585518Y-107015812D01*
X114710000Y-107028072D01*
X115424250Y-107025000D01*
X115583000Y-106866250D01*
X115583000Y-105967000D01*
X115837000Y-105967000D01*
X115837000Y-106866250D01*
X115995750Y-107025000D01*
X116710000Y-107028072D01*
X116834482Y-107015812D01*
X116954180Y-106979502D01*
X117064494Y-106920537D01*
X117161185Y-106841185D01*
X117240537Y-106744494D01*
X117299502Y-106634180D01*
X117335812Y-106514482D01*
X117348072Y-106390000D01*
X117345000Y-106125750D01*
X117186250Y-105967000D01*
X115837000Y-105967000D01*
X115583000Y-105967000D01*
X114233750Y-105967000D01*
X114075000Y-106125750D01*
X114071928Y-106390000D01*
X113258072Y-106390000D01*
X113258072Y-105290000D01*
X113245812Y-105165518D01*
X113209502Y-105045820D01*
X113179665Y-104990000D01*
X113209502Y-104934180D01*
X113212287Y-104925000D01*
X114117713Y-104925000D01*
X114120498Y-104934180D01*
X114150335Y-104990000D01*
X114120498Y-105045820D01*
X114084188Y-105165518D01*
X114071928Y-105290000D01*
X114075000Y-105554250D01*
X114233750Y-105713000D01*
X115583000Y-105713000D01*
X115583000Y-105693000D01*
X115837000Y-105693000D01*
X115837000Y-105713000D01*
X117186250Y-105713000D01*
X117345000Y-105554250D01*
X117348072Y-105290000D01*
X117335812Y-105165518D01*
X117299502Y-105045820D01*
X117269665Y-104990000D01*
X117299502Y-104934180D01*
X117335812Y-104814482D01*
X117348072Y-104690000D01*
X117348072Y-103590000D01*
X117335812Y-103465518D01*
X117299502Y-103345820D01*
X117269665Y-103290000D01*
X117299502Y-103234180D01*
X117335812Y-103114482D01*
X117348072Y-102990000D01*
X117348072Y-101890000D01*
X117335812Y-101765518D01*
X117299502Y-101645820D01*
X117240537Y-101535506D01*
X117161185Y-101438815D01*
X117064494Y-101359463D01*
X116954180Y-101300498D01*
X116834482Y-101264188D01*
X116710000Y-101251928D01*
X114710000Y-101251928D01*
X114585518Y-101264188D01*
X114465820Y-101300498D01*
X114355506Y-101359463D01*
X114258815Y-101438815D01*
X114179463Y-101535506D01*
X114120498Y-101645820D01*
X114117713Y-101655000D01*
X113212287Y-101655000D01*
X113209502Y-101645820D01*
X113150537Y-101535506D01*
X113071185Y-101438815D01*
X112974494Y-101359463D01*
X112864180Y-101300498D01*
X112744482Y-101264188D01*
X112620000Y-101251928D01*
X111268229Y-101251928D01*
X115215158Y-97305000D01*
X122623661Y-97305000D01*
X122710363Y-97434759D01*
X122910241Y-97634637D01*
X123145273Y-97791680D01*
X123406426Y-97899853D01*
X123683665Y-97955000D01*
X123966335Y-97955000D01*
X124243574Y-97899853D01*
X124504727Y-97791680D01*
X124739759Y-97634637D01*
X124939637Y-97434759D01*
X125095000Y-97202241D01*
X125250363Y-97434759D01*
X125450241Y-97634637D01*
X125685273Y-97791680D01*
X125946426Y-97899853D01*
X126223665Y-97955000D01*
X126506335Y-97955000D01*
X126783574Y-97899853D01*
X127044727Y-97791680D01*
X127279759Y-97634637D01*
X127479637Y-97434759D01*
X127635000Y-97202241D01*
X127790363Y-97434759D01*
X127990241Y-97634637D01*
X128225273Y-97791680D01*
X128486426Y-97899853D01*
X128763665Y-97955000D01*
X129046335Y-97955000D01*
X129323574Y-97899853D01*
X129584727Y-97791680D01*
X129819759Y-97634637D01*
X130019637Y-97434759D01*
X130175000Y-97202241D01*
X130330363Y-97434759D01*
X130530241Y-97634637D01*
X130765273Y-97791680D01*
X131026426Y-97899853D01*
X131303665Y-97955000D01*
X131586335Y-97955000D01*
X131863574Y-97899853D01*
X132124727Y-97791680D01*
X132359759Y-97634637D01*
X132559637Y-97434759D01*
X132715000Y-97202241D01*
X132870363Y-97434759D01*
X133070241Y-97634637D01*
X133305273Y-97791680D01*
X133566426Y-97899853D01*
X133843665Y-97955000D01*
X134126335Y-97955000D01*
X134403574Y-97899853D01*
X134664727Y-97791680D01*
X134899759Y-97634637D01*
X135099637Y-97434759D01*
X135255000Y-97202241D01*
X135410363Y-97434759D01*
X135610241Y-97634637D01*
X135845273Y-97791680D01*
X136106426Y-97899853D01*
X136383665Y-97955000D01*
X136666335Y-97955000D01*
X136701439Y-97948017D01*
X136914477Y-98161056D01*
X136869528Y-98245150D01*
X136818992Y-98411746D01*
X136801928Y-98585000D01*
X136801928Y-99535000D01*
X136818992Y-99708254D01*
X136869528Y-99874850D01*
X136951595Y-100028386D01*
X137062038Y-100162962D01*
X137196614Y-100273405D01*
X137350150Y-100355472D01*
X137516746Y-100406008D01*
X137690000Y-100423072D01*
X138365000Y-100423072D01*
X138538254Y-100406008D01*
X138704850Y-100355472D01*
X138858386Y-100273405D01*
X138992962Y-100162962D01*
X138998342Y-100156406D01*
X139063815Y-100236185D01*
X139160506Y-100315537D01*
X139270820Y-100374502D01*
X139390518Y-100410812D01*
X139515000Y-100423072D01*
X139816750Y-100420000D01*
X139975500Y-100261250D01*
X139975500Y-99187000D01*
X140229500Y-99187000D01*
X140229500Y-100261250D01*
X140388250Y-100420000D01*
X140690000Y-100423072D01*
X140814482Y-100410812D01*
X140934180Y-100374502D01*
X141044494Y-100315537D01*
X141141185Y-100236185D01*
X141220537Y-100139494D01*
X141279502Y-100029180D01*
X141315812Y-99909482D01*
X141328072Y-99785000D01*
X141325000Y-99345750D01*
X141166250Y-99187000D01*
X140229500Y-99187000D01*
X139975500Y-99187000D01*
X139955500Y-99187000D01*
X139955500Y-98933000D01*
X139975500Y-98933000D01*
X139975500Y-97858750D01*
X139842860Y-97726110D01*
X139979759Y-97634637D01*
X140179637Y-97434759D01*
X140336680Y-97199727D01*
X140341067Y-97189135D01*
X140452615Y-97375131D01*
X140641586Y-97583519D01*
X140810608Y-97708806D01*
X140690000Y-97696928D01*
X140388250Y-97700000D01*
X140229500Y-97858750D01*
X140229500Y-98933000D01*
X141166250Y-98933000D01*
X141325000Y-98774250D01*
X141328072Y-98335000D01*
X141315812Y-98210518D01*
X141279502Y-98090820D01*
X141220537Y-97980506D01*
X141141185Y-97883815D01*
X141128189Y-97873150D01*
X141255961Y-97911904D01*
X141478000Y-97789915D01*
X141478000Y-96647000D01*
X141458000Y-96647000D01*
X141458000Y-96393000D01*
X141478000Y-96393000D01*
X141478000Y-95250085D01*
X141732000Y-95250085D01*
X141732000Y-96393000D01*
X141752000Y-96393000D01*
X141752000Y-96647000D01*
X141732000Y-96647000D01*
X141732000Y-97789915D01*
X141954039Y-97911904D01*
X142088087Y-97871246D01*
X142342420Y-97751037D01*
X142568414Y-97583519D01*
X142757385Y-97375131D01*
X142868933Y-97189135D01*
X142873320Y-97199727D01*
X143030363Y-97434759D01*
X143230241Y-97634637D01*
X143465273Y-97791680D01*
X143726426Y-97899853D01*
X144003665Y-97955000D01*
X144286335Y-97955000D01*
X144563574Y-97899853D01*
X144824727Y-97791680D01*
X145059759Y-97634637D01*
X145259637Y-97434759D01*
X145415000Y-97202241D01*
X145570363Y-97434759D01*
X145770241Y-97634637D01*
X146005273Y-97791680D01*
X146266426Y-97899853D01*
X146543665Y-97955000D01*
X146826335Y-97955000D01*
X147103574Y-97899853D01*
X147364727Y-97791680D01*
X147599759Y-97634637D01*
X147799637Y-97434759D01*
X147955000Y-97202241D01*
X148110363Y-97434759D01*
X148310241Y-97634637D01*
X148545273Y-97791680D01*
X148806426Y-97899853D01*
X149083665Y-97955000D01*
X149366335Y-97955000D01*
X149643574Y-97899853D01*
X149904727Y-97791680D01*
X150139759Y-97634637D01*
X150339637Y-97434759D01*
X150495000Y-97202241D01*
X150650363Y-97434759D01*
X150850241Y-97634637D01*
X151085273Y-97791680D01*
X151346426Y-97899853D01*
X151623665Y-97955000D01*
X151906335Y-97955000D01*
X152183574Y-97899853D01*
X152444727Y-97791680D01*
X152679759Y-97634637D01*
X152879637Y-97434759D01*
X153035000Y-97202241D01*
X153190363Y-97434759D01*
X153390241Y-97634637D01*
X153625273Y-97791680D01*
X153886426Y-97899853D01*
X154163665Y-97955000D01*
X154446335Y-97955000D01*
X154723574Y-97899853D01*
X154984727Y-97791680D01*
X155219759Y-97634637D01*
X155419637Y-97434759D01*
X155575000Y-97202241D01*
X155730363Y-97434759D01*
X155930241Y-97634637D01*
X156165273Y-97791680D01*
X156426426Y-97899853D01*
X156703665Y-97955000D01*
X156986335Y-97955000D01*
X157263574Y-97899853D01*
X157524727Y-97791680D01*
X157759759Y-97634637D01*
X157959637Y-97434759D01*
X158116680Y-97199727D01*
X158224853Y-96938574D01*
X158280000Y-96661335D01*
X158280000Y-96378665D01*
X158224853Y-96101426D01*
X158116680Y-95840273D01*
X157960739Y-95606890D01*
X171913524Y-95606890D01*
X171958175Y-95754099D01*
X172083359Y-96016920D01*
X172257412Y-96250269D01*
X172473645Y-96445178D01*
X172723748Y-96594157D01*
X172998109Y-96691481D01*
X173228000Y-96570814D01*
X173228000Y-95377000D01*
X173482000Y-95377000D01*
X173482000Y-96570814D01*
X173711891Y-96691481D01*
X173986252Y-96594157D01*
X174236355Y-96445178D01*
X174452588Y-96250269D01*
X174626641Y-96016920D01*
X174751825Y-95754099D01*
X174796476Y-95606890D01*
X174675155Y-95377000D01*
X173482000Y-95377000D01*
X173228000Y-95377000D01*
X172034845Y-95377000D01*
X171913524Y-95606890D01*
X157960739Y-95606890D01*
X157959637Y-95605241D01*
X157759759Y-95405363D01*
X157524727Y-95248320D01*
X157263574Y-95140147D01*
X156986335Y-95085000D01*
X156703665Y-95085000D01*
X156426426Y-95140147D01*
X156165273Y-95248320D01*
X155930241Y-95405363D01*
X155730363Y-95605241D01*
X155575000Y-95837759D01*
X155419637Y-95605241D01*
X155219759Y-95405363D01*
X154984727Y-95248320D01*
X154723574Y-95140147D01*
X154446335Y-95085000D01*
X154163665Y-95085000D01*
X153886426Y-95140147D01*
X153625273Y-95248320D01*
X153390241Y-95405363D01*
X153190363Y-95605241D01*
X153035000Y-95837759D01*
X152879637Y-95605241D01*
X152679759Y-95405363D01*
X152444727Y-95248320D01*
X152183574Y-95140147D01*
X151906335Y-95085000D01*
X151623665Y-95085000D01*
X151346426Y-95140147D01*
X151085273Y-95248320D01*
X150850241Y-95405363D01*
X150650363Y-95605241D01*
X150495000Y-95837759D01*
X150339637Y-95605241D01*
X150139759Y-95405363D01*
X149904727Y-95248320D01*
X149643574Y-95140147D01*
X149366335Y-95085000D01*
X149083665Y-95085000D01*
X148806426Y-95140147D01*
X148545273Y-95248320D01*
X148310241Y-95405363D01*
X148110363Y-95605241D01*
X147955000Y-95837759D01*
X147799637Y-95605241D01*
X147599759Y-95405363D01*
X147364727Y-95248320D01*
X147103574Y-95140147D01*
X146826335Y-95085000D01*
X146543665Y-95085000D01*
X146266426Y-95140147D01*
X146005273Y-95248320D01*
X145770241Y-95405363D01*
X145570363Y-95605241D01*
X145415000Y-95837759D01*
X145259637Y-95605241D01*
X145059759Y-95405363D01*
X144824727Y-95248320D01*
X144563574Y-95140147D01*
X144286335Y-95085000D01*
X144003665Y-95085000D01*
X143726426Y-95140147D01*
X143465273Y-95248320D01*
X143230241Y-95405363D01*
X143030363Y-95605241D01*
X142873320Y-95840273D01*
X142868933Y-95850865D01*
X142757385Y-95664869D01*
X142568414Y-95456481D01*
X142342420Y-95288963D01*
X142088087Y-95168754D01*
X141954039Y-95128096D01*
X141732000Y-95250085D01*
X141478000Y-95250085D01*
X141255961Y-95128096D01*
X141121913Y-95168754D01*
X140867580Y-95288963D01*
X140641586Y-95456481D01*
X140452615Y-95664869D01*
X140341067Y-95850865D01*
X140336680Y-95840273D01*
X140179637Y-95605241D01*
X139979759Y-95405363D01*
X139744727Y-95248320D01*
X139483574Y-95140147D01*
X139210708Y-95085870D01*
X142200049Y-92096530D01*
X142233817Y-92068817D01*
X142344411Y-91934059D01*
X142426589Y-91780313D01*
X142477195Y-91613490D01*
X142490000Y-91483477D01*
X142490000Y-91483469D01*
X142494281Y-91440000D01*
X142490000Y-91396531D01*
X142490000Y-90034521D01*
X142519759Y-90014637D01*
X142719637Y-89814759D01*
X142875000Y-89582241D01*
X143030363Y-89814759D01*
X143230241Y-90014637D01*
X143465273Y-90171680D01*
X143726426Y-90279853D01*
X144003665Y-90335000D01*
X144286335Y-90335000D01*
X144563574Y-90279853D01*
X144824727Y-90171680D01*
X145059759Y-90014637D01*
X145259637Y-89814759D01*
X145415000Y-89582241D01*
X145570363Y-89814759D01*
X145770241Y-90014637D01*
X146005273Y-90171680D01*
X146266426Y-90279853D01*
X146543665Y-90335000D01*
X146826335Y-90335000D01*
X147103574Y-90279853D01*
X147364727Y-90171680D01*
X147599759Y-90014637D01*
X147799637Y-89814759D01*
X147955000Y-89582241D01*
X148110363Y-89814759D01*
X148310241Y-90014637D01*
X148545273Y-90171680D01*
X148806426Y-90279853D01*
X149083665Y-90335000D01*
X149366335Y-90335000D01*
X149643574Y-90279853D01*
X149904727Y-90171680D01*
X150139759Y-90014637D01*
X150339637Y-89814759D01*
X150495000Y-89582241D01*
X150650363Y-89814759D01*
X150850241Y-90014637D01*
X151085273Y-90171680D01*
X151346426Y-90279853D01*
X151623665Y-90335000D01*
X151906335Y-90335000D01*
X152183574Y-90279853D01*
X152444727Y-90171680D01*
X152679759Y-90014637D01*
X152879637Y-89814759D01*
X153035000Y-89582241D01*
X153190363Y-89814759D01*
X153390241Y-90014637D01*
X153625273Y-90171680D01*
X153886426Y-90279853D01*
X154163665Y-90335000D01*
X154446335Y-90335000D01*
X154723574Y-90279853D01*
X154984727Y-90171680D01*
X155219759Y-90014637D01*
X155418357Y-89816039D01*
X155419188Y-89824482D01*
X155455498Y-89944180D01*
X155514463Y-90054494D01*
X155593815Y-90151185D01*
X155690506Y-90230537D01*
X155800820Y-90289502D01*
X155920518Y-90325812D01*
X156045000Y-90338072D01*
X157645000Y-90338072D01*
X157769482Y-90325812D01*
X157889180Y-90289502D01*
X157999494Y-90230537D01*
X158096185Y-90151185D01*
X158175537Y-90054494D01*
X158234502Y-89944180D01*
X158270812Y-89824482D01*
X158283072Y-89700000D01*
X158283072Y-89320000D01*
X171866928Y-89320000D01*
X171866928Y-91020000D01*
X171879188Y-91144482D01*
X171915498Y-91264180D01*
X171974463Y-91374494D01*
X172053815Y-91471185D01*
X172150506Y-91550537D01*
X172260820Y-91609502D01*
X172333380Y-91631513D01*
X172201525Y-91763368D01*
X172039010Y-92006589D01*
X171927068Y-92276842D01*
X171870000Y-92563740D01*
X171870000Y-92856260D01*
X171927068Y-93143158D01*
X172039010Y-93413411D01*
X172201525Y-93656632D01*
X172408368Y-93863475D01*
X172590534Y-93985195D01*
X172473645Y-94054822D01*
X172257412Y-94249731D01*
X172083359Y-94483080D01*
X171958175Y-94745901D01*
X171913524Y-94893110D01*
X172034845Y-95123000D01*
X173228000Y-95123000D01*
X173228000Y-95103000D01*
X173482000Y-95103000D01*
X173482000Y-95123000D01*
X174675155Y-95123000D01*
X174796476Y-94893110D01*
X174751825Y-94745901D01*
X174626641Y-94483080D01*
X174452588Y-94249731D01*
X174236355Y-94054822D01*
X174119466Y-93985195D01*
X174301632Y-93863475D01*
X174508475Y-93656632D01*
X174670990Y-93413411D01*
X174782932Y-93143158D01*
X174840000Y-92856260D01*
X174840000Y-92563740D01*
X174782932Y-92276842D01*
X174670990Y-92006589D01*
X174508475Y-91763368D01*
X174376620Y-91631513D01*
X174449180Y-91609502D01*
X174559494Y-91550537D01*
X174656185Y-91471185D01*
X174735537Y-91374494D01*
X174794502Y-91264180D01*
X174830812Y-91144482D01*
X174843072Y-91020000D01*
X174843072Y-89320000D01*
X174830812Y-89195518D01*
X174794502Y-89075820D01*
X174735537Y-88965506D01*
X174656185Y-88868815D01*
X174559494Y-88789463D01*
X174449180Y-88730498D01*
X174329482Y-88694188D01*
X174205000Y-88681928D01*
X172505000Y-88681928D01*
X172380518Y-88694188D01*
X172260820Y-88730498D01*
X172150506Y-88789463D01*
X172053815Y-88868815D01*
X171974463Y-88965506D01*
X171915498Y-89075820D01*
X171879188Y-89195518D01*
X171866928Y-89320000D01*
X158283072Y-89320000D01*
X158283072Y-88100000D01*
X158270812Y-87975518D01*
X158234502Y-87855820D01*
X158175537Y-87745506D01*
X158096185Y-87648815D01*
X157999494Y-87569463D01*
X157889180Y-87510498D01*
X157769482Y-87474188D01*
X157645000Y-87461928D01*
X156045000Y-87461928D01*
X155920518Y-87474188D01*
X155800820Y-87510498D01*
X155690506Y-87569463D01*
X155593815Y-87648815D01*
X155514463Y-87745506D01*
X155455498Y-87855820D01*
X155419188Y-87975518D01*
X155418357Y-87983961D01*
X155219759Y-87785363D01*
X154984727Y-87628320D01*
X154723574Y-87520147D01*
X154446335Y-87465000D01*
X154163665Y-87465000D01*
X153886426Y-87520147D01*
X153625273Y-87628320D01*
X153390241Y-87785363D01*
X153190363Y-87985241D01*
X153035000Y-88217759D01*
X152879637Y-87985241D01*
X152679759Y-87785363D01*
X152444727Y-87628320D01*
X152183574Y-87520147D01*
X151906335Y-87465000D01*
X151623665Y-87465000D01*
X151346426Y-87520147D01*
X151085273Y-87628320D01*
X150850241Y-87785363D01*
X150650363Y-87985241D01*
X150495000Y-88217759D01*
X150339637Y-87985241D01*
X150139759Y-87785363D01*
X149904727Y-87628320D01*
X149643574Y-87520147D01*
X149366335Y-87465000D01*
X149083665Y-87465000D01*
X148806426Y-87520147D01*
X148545273Y-87628320D01*
X148310241Y-87785363D01*
X148110363Y-87985241D01*
X147955000Y-88217759D01*
X147799637Y-87985241D01*
X147599759Y-87785363D01*
X147364727Y-87628320D01*
X147103574Y-87520147D01*
X146826335Y-87465000D01*
X146543665Y-87465000D01*
X146266426Y-87520147D01*
X146005273Y-87628320D01*
X145770241Y-87785363D01*
X145570363Y-87985241D01*
X145415000Y-88217759D01*
X145259637Y-87985241D01*
X145059759Y-87785363D01*
X144824727Y-87628320D01*
X144563574Y-87520147D01*
X144286335Y-87465000D01*
X144003665Y-87465000D01*
X143726426Y-87520147D01*
X143465273Y-87628320D01*
X143230241Y-87785363D01*
X143030363Y-87985241D01*
X142875000Y-88217759D01*
X142719637Y-87985241D01*
X142519759Y-87785363D01*
X142284727Y-87628320D01*
X142236000Y-87608137D01*
X142236000Y-87528995D01*
X142316462Y-87462962D01*
X142426905Y-87328386D01*
X142471476Y-87245000D01*
X163462025Y-87245000D01*
X163613987Y-87396962D01*
X163832641Y-87543061D01*
X164075595Y-87643696D01*
X164333514Y-87695000D01*
X164596486Y-87695000D01*
X164854405Y-87643696D01*
X165097359Y-87543061D01*
X165316013Y-87396962D01*
X165501962Y-87211013D01*
X165648061Y-86992359D01*
X165748696Y-86749405D01*
X165800000Y-86491486D01*
X165800000Y-86276578D01*
X166945050Y-85131529D01*
X166978818Y-85103816D01*
X167011062Y-85064528D01*
X167089411Y-84969059D01*
X167171589Y-84815313D01*
X167171590Y-84815312D01*
X167206844Y-84699096D01*
X167222196Y-84648490D01*
X167226758Y-84602168D01*
X167235001Y-84518476D01*
X167235001Y-84518468D01*
X167239282Y-84474999D01*
X167235001Y-84431530D01*
X167235001Y-80275000D01*
X171816928Y-80275000D01*
X171829188Y-80399482D01*
X171865498Y-80519180D01*
X171924463Y-80629494D01*
X172003815Y-80726185D01*
X172100506Y-80805537D01*
X172210820Y-80864502D01*
X172330518Y-80900812D01*
X172455000Y-80913072D01*
X173069250Y-80910000D01*
X173228000Y-80751250D01*
X173228000Y-79502000D01*
X171978750Y-79502000D01*
X171820000Y-79660750D01*
X171816928Y-80275000D01*
X167235001Y-80275000D01*
X167235001Y-77493466D01*
X167239282Y-77450000D01*
X167235001Y-77406534D01*
X167235001Y-77406524D01*
X167222196Y-77276511D01*
X167171590Y-77109688D01*
X167089412Y-76955942D01*
X167065211Y-76926453D01*
X167006533Y-76854954D01*
X167006531Y-76854952D01*
X166978818Y-76821184D01*
X166945051Y-76793472D01*
X166536145Y-76384566D01*
X166537580Y-76369999D01*
X171886138Y-76369999D01*
X171878989Y-76387257D01*
G37*
%TD.AperFunction*%
D30*
X139192000Y-88773000D02*
X139212000Y-88773000D01*
X139212000Y-89027000D01*
X139192000Y-89027000D01*
X139192000Y-90169915D01*
X139414039Y-90291904D01*
X139548087Y-90251246D01*
X139802420Y-90131037D01*
X140028414Y-89963519D01*
X140217385Y-89755131D01*
X140328933Y-89569135D01*
X140333320Y-89579727D01*
X140490363Y-89814759D01*
X140690241Y-90014637D01*
X140720000Y-90034522D01*
X140720001Y-91073420D01*
X136701439Y-95091983D01*
X136666335Y-95085000D01*
X136383665Y-95085000D01*
X136106426Y-95140147D01*
X135845273Y-95248320D01*
X135610241Y-95405363D01*
X135410363Y-95605241D01*
X135255000Y-95837759D01*
X135099637Y-95605241D01*
X134899759Y-95405363D01*
X134664727Y-95248320D01*
X134403574Y-95140147D01*
X134126335Y-95085000D01*
X133843665Y-95085000D01*
X133566426Y-95140147D01*
X133305273Y-95248320D01*
X133070241Y-95405363D01*
X132870363Y-95605241D01*
X132715000Y-95837759D01*
X132559637Y-95605241D01*
X132359759Y-95405363D01*
X132124727Y-95248320D01*
X131863574Y-95140147D01*
X131586335Y-95085000D01*
X131303665Y-95085000D01*
X131026426Y-95140147D01*
X130765273Y-95248320D01*
X130530241Y-95405363D01*
X130330363Y-95605241D01*
X130175000Y-95837759D01*
X130019637Y-95605241D01*
X129819759Y-95405363D01*
X129584727Y-95248320D01*
X129323574Y-95140147D01*
X129046335Y-95085000D01*
X128763665Y-95085000D01*
X128486426Y-95140147D01*
X128225273Y-95248320D01*
X127990241Y-95405363D01*
X127790363Y-95605241D01*
X127635000Y-95837759D01*
X127479637Y-95605241D01*
X127279759Y-95405363D01*
X127044727Y-95248320D01*
X126783574Y-95140147D01*
X126506335Y-95085000D01*
X126223665Y-95085000D01*
X125946426Y-95140147D01*
X125685273Y-95248320D01*
X125450241Y-95405363D01*
X125250363Y-95605241D01*
X125095000Y-95837759D01*
X124939637Y-95605241D01*
X124739759Y-95405363D01*
X124504727Y-95248320D01*
X124243574Y-95140147D01*
X123966335Y-95085000D01*
X123683665Y-95085000D01*
X123406426Y-95140147D01*
X123145273Y-95248320D01*
X122910241Y-95405363D01*
X122710363Y-95605241D01*
X122623661Y-95735000D01*
X114928552Y-95735000D01*
X114889999Y-95731203D01*
X114851446Y-95735000D01*
X114851439Y-95735000D01*
X114750490Y-95744943D01*
X114736112Y-95746359D01*
X114701672Y-95756806D01*
X114588140Y-95791246D01*
X114568314Y-95801843D01*
X120685157Y-89685000D01*
X122623661Y-89685000D01*
X122710363Y-89814759D01*
X122910241Y-90014637D01*
X123145273Y-90171680D01*
X123406426Y-90279853D01*
X123683665Y-90335000D01*
X123966335Y-90335000D01*
X124243574Y-90279853D01*
X124504727Y-90171680D01*
X124739759Y-90014637D01*
X124939637Y-89814759D01*
X125095000Y-89582241D01*
X125250363Y-89814759D01*
X125450241Y-90014637D01*
X125685273Y-90171680D01*
X125946426Y-90279853D01*
X126223665Y-90335000D01*
X126506335Y-90335000D01*
X126783574Y-90279853D01*
X127044727Y-90171680D01*
X127279759Y-90014637D01*
X127479637Y-89814759D01*
X127635000Y-89582241D01*
X127790363Y-89814759D01*
X127990241Y-90014637D01*
X128225273Y-90171680D01*
X128486426Y-90279853D01*
X128763665Y-90335000D01*
X129046335Y-90335000D01*
X129323574Y-90279853D01*
X129584727Y-90171680D01*
X129819759Y-90014637D01*
X130019637Y-89814759D01*
X130175000Y-89582241D01*
X130330363Y-89814759D01*
X130530241Y-90014637D01*
X130765273Y-90171680D01*
X131026426Y-90279853D01*
X131303665Y-90335000D01*
X131586335Y-90335000D01*
X131863574Y-90279853D01*
X132124727Y-90171680D01*
X132359759Y-90014637D01*
X132559637Y-89814759D01*
X132715000Y-89582241D01*
X132870363Y-89814759D01*
X133070241Y-90014637D01*
X133305273Y-90171680D01*
X133566426Y-90279853D01*
X133843665Y-90335000D01*
X134126335Y-90335000D01*
X134403574Y-90279853D01*
X134664727Y-90171680D01*
X134899759Y-90014637D01*
X135099637Y-89814759D01*
X135255000Y-89582241D01*
X135410363Y-89814759D01*
X135610241Y-90014637D01*
X135845273Y-90171680D01*
X136106426Y-90279853D01*
X136383665Y-90335000D01*
X136666335Y-90335000D01*
X136943574Y-90279853D01*
X137204727Y-90171680D01*
X137439759Y-90014637D01*
X137639637Y-89814759D01*
X137796680Y-89579727D01*
X137801067Y-89569135D01*
X137912615Y-89755131D01*
X138101586Y-89963519D01*
X138327580Y-90131037D01*
X138581913Y-90251246D01*
X138715961Y-90291904D01*
X138938000Y-90169915D01*
X138938000Y-89027000D01*
X138918000Y-89027000D01*
X138918000Y-88773000D01*
X138938000Y-88773000D01*
X138938000Y-88753000D01*
X139192000Y-88753000D01*
X139192000Y-88773000D01*
%TA.AperFunction,Conductor*%
D31*
G36*
X139192000Y-88773000D02*
G01*
X139212000Y-88773000D01*
X139212000Y-89027000D01*
X139192000Y-89027000D01*
X139192000Y-90169915D01*
X139414039Y-90291904D01*
X139548087Y-90251246D01*
X139802420Y-90131037D01*
X140028414Y-89963519D01*
X140217385Y-89755131D01*
X140328933Y-89569135D01*
X140333320Y-89579727D01*
X140490363Y-89814759D01*
X140690241Y-90014637D01*
X140720000Y-90034522D01*
X140720001Y-91073420D01*
X136701439Y-95091983D01*
X136666335Y-95085000D01*
X136383665Y-95085000D01*
X136106426Y-95140147D01*
X135845273Y-95248320D01*
X135610241Y-95405363D01*
X135410363Y-95605241D01*
X135255000Y-95837759D01*
X135099637Y-95605241D01*
X134899759Y-95405363D01*
X134664727Y-95248320D01*
X134403574Y-95140147D01*
X134126335Y-95085000D01*
X133843665Y-95085000D01*
X133566426Y-95140147D01*
X133305273Y-95248320D01*
X133070241Y-95405363D01*
X132870363Y-95605241D01*
X132715000Y-95837759D01*
X132559637Y-95605241D01*
X132359759Y-95405363D01*
X132124727Y-95248320D01*
X131863574Y-95140147D01*
X131586335Y-95085000D01*
X131303665Y-95085000D01*
X131026426Y-95140147D01*
X130765273Y-95248320D01*
X130530241Y-95405363D01*
X130330363Y-95605241D01*
X130175000Y-95837759D01*
X130019637Y-95605241D01*
X129819759Y-95405363D01*
X129584727Y-95248320D01*
X129323574Y-95140147D01*
X129046335Y-95085000D01*
X128763665Y-95085000D01*
X128486426Y-95140147D01*
X128225273Y-95248320D01*
X127990241Y-95405363D01*
X127790363Y-95605241D01*
X127635000Y-95837759D01*
X127479637Y-95605241D01*
X127279759Y-95405363D01*
X127044727Y-95248320D01*
X126783574Y-95140147D01*
X126506335Y-95085000D01*
X126223665Y-95085000D01*
X125946426Y-95140147D01*
X125685273Y-95248320D01*
X125450241Y-95405363D01*
X125250363Y-95605241D01*
X125095000Y-95837759D01*
X124939637Y-95605241D01*
X124739759Y-95405363D01*
X124504727Y-95248320D01*
X124243574Y-95140147D01*
X123966335Y-95085000D01*
X123683665Y-95085000D01*
X123406426Y-95140147D01*
X123145273Y-95248320D01*
X122910241Y-95405363D01*
X122710363Y-95605241D01*
X122623661Y-95735000D01*
X114928552Y-95735000D01*
X114889999Y-95731203D01*
X114851446Y-95735000D01*
X114851439Y-95735000D01*
X114750490Y-95744943D01*
X114736112Y-95746359D01*
X114701672Y-95756806D01*
X114588140Y-95791246D01*
X114568314Y-95801843D01*
X120685157Y-89685000D01*
X122623661Y-89685000D01*
X122710363Y-89814759D01*
X122910241Y-90014637D01*
X123145273Y-90171680D01*
X123406426Y-90279853D01*
X123683665Y-90335000D01*
X123966335Y-90335000D01*
X124243574Y-90279853D01*
X124504727Y-90171680D01*
X124739759Y-90014637D01*
X124939637Y-89814759D01*
X125095000Y-89582241D01*
X125250363Y-89814759D01*
X125450241Y-90014637D01*
X125685273Y-90171680D01*
X125946426Y-90279853D01*
X126223665Y-90335000D01*
X126506335Y-90335000D01*
X126783574Y-90279853D01*
X127044727Y-90171680D01*
X127279759Y-90014637D01*
X127479637Y-89814759D01*
X127635000Y-89582241D01*
X127790363Y-89814759D01*
X127990241Y-90014637D01*
X128225273Y-90171680D01*
X128486426Y-90279853D01*
X128763665Y-90335000D01*
X129046335Y-90335000D01*
X129323574Y-90279853D01*
X129584727Y-90171680D01*
X129819759Y-90014637D01*
X130019637Y-89814759D01*
X130175000Y-89582241D01*
X130330363Y-89814759D01*
X130530241Y-90014637D01*
X130765273Y-90171680D01*
X131026426Y-90279853D01*
X131303665Y-90335000D01*
X131586335Y-90335000D01*
X131863574Y-90279853D01*
X132124727Y-90171680D01*
X132359759Y-90014637D01*
X132559637Y-89814759D01*
X132715000Y-89582241D01*
X132870363Y-89814759D01*
X133070241Y-90014637D01*
X133305273Y-90171680D01*
X133566426Y-90279853D01*
X133843665Y-90335000D01*
X134126335Y-90335000D01*
X134403574Y-90279853D01*
X134664727Y-90171680D01*
X134899759Y-90014637D01*
X135099637Y-89814759D01*
X135255000Y-89582241D01*
X135410363Y-89814759D01*
X135610241Y-90014637D01*
X135845273Y-90171680D01*
X136106426Y-90279853D01*
X136383665Y-90335000D01*
X136666335Y-90335000D01*
X136943574Y-90279853D01*
X137204727Y-90171680D01*
X137439759Y-90014637D01*
X137639637Y-89814759D01*
X137796680Y-89579727D01*
X137801067Y-89569135D01*
X137912615Y-89755131D01*
X138101586Y-89963519D01*
X138327580Y-90131037D01*
X138581913Y-90251246D01*
X138715961Y-90291904D01*
X138938000Y-90169915D01*
X138938000Y-89027000D01*
X138918000Y-89027000D01*
X138918000Y-88773000D01*
X138938000Y-88773000D01*
X138938000Y-88753000D01*
X139192000Y-88753000D01*
X139192000Y-88773000D01*
G37*
%TD.AperFunction*%
%TD*%
M02*
