M48
; DRILL file {KiCad (5.1.9)-1} date 05/12/21 14:50:04
; FORMAT={-:-/ absolute / inch / decimal}
; #@! TF.CreationDate,2021-05-12T14:50:04+07:00
; #@! TF.GenerationSoftware,Kicad,Pcbnew,(5.1.9)-1
; #@! TF.FileFunction,Plated,1,2,PTH
FMAT,2
INCH
T1C0.0276
T2C0.0315
T3C0.0354
T4C0.0394
T5C0.0433
T6C0.0472
T7C0.0512
%
G90
G05
T1
X6.475Y-3.4
X6.775Y-3.4
T2
X4.875Y-3.5
X4.875Y-3.8
X4.975Y-3.5
X4.975Y-3.8
X5.075Y-3.5
X5.075Y-3.8
X5.175Y-3.5
X5.175Y-3.8
X5.275Y-3.5
X5.275Y-3.8
X5.375Y-3.5
X5.375Y-3.8
X5.475Y-3.5
X5.475Y-3.8
X5.575Y-3.5
X5.575Y-3.8
X5.675Y-3.5
X5.675Y-3.8
X5.775Y-2.9781
X5.775Y-3.175
X5.775Y-3.5
X5.775Y-3.8
X5.875Y-3.5
X5.875Y-3.8
X5.975Y-3.5
X5.975Y-3.8
X6.075Y-3.5
X6.075Y-3.8
X6.175Y-3.5
X6.175Y-3.8
X6.5Y-2.975
X6.5Y-3.1719
T3
X4.81Y-3.2
X4.9675Y-3.2
X5.125Y-3.2
X6.825Y-3.025
X6.825Y-3.125
T4
X6.825Y-3.55
X6.825Y-3.65
X6.825Y-3.75
T5
X5.375Y-2.95
X5.375Y-3.35
X6.175Y-3.0
X6.175Y-3.1
X6.175Y-3.2
T6
X4.7313Y-3.0327
X4.7313Y-3.2689
X5.2037Y-3.0327
X5.2037Y-3.2689
T7
X4.4Y-3.15
X4.5378Y-3.15
T0
M30
