%TF.GenerationSoftware,KiCad,Pcbnew,(5.1.9)-1*%
%TF.CreationDate,2021-05-12T14:49:38+07:00*%
%TF.ProjectId,finalProject,66696e61-6c50-4726-9f6a-6563742e6b69,rev?*%
%TF.SameCoordinates,Original*%
%TF.FileFunction,Copper,L2,Bot*%
%TF.FilePolarity,Positive*%
%FSLAX46Y46*%
G04 Gerber Fmt 4.6, Leading zero omitted, Abs format (unit mm)*
G04 Created by KiCad (PCBNEW (5.1.9)-1) date 2021-05-12 14:49:38*
%MOMM*%
%LPD*%
G01*
G04 APERTURE LIST*
%TA.AperFunction,ComponentPad*%
%ADD10O,1.700000X1.700000*%
%TD*%
%TA.AperFunction,ComponentPad*%
%ADD11R,1.700000X1.700000*%
%TD*%
%TA.AperFunction,ComponentPad*%
%ADD12O,2.000000X1.905000*%
%TD*%
%TA.AperFunction,ComponentPad*%
%ADD13R,2.000000X1.905000*%
%TD*%
%TA.AperFunction,ComponentPad*%
%ADD14O,1.600000X1.600000*%
%TD*%
%TA.AperFunction,ComponentPad*%
%ADD15R,1.600000X1.600000*%
%TD*%
%TA.AperFunction,ComponentPad*%
%ADD16C,1.700000*%
%TD*%
%TA.AperFunction,ComponentPad*%
%ADD17C,2.000000*%
%TD*%
%TA.AperFunction,ComponentPad*%
%ADD18O,1.400000X1.400000*%
%TD*%
%TA.AperFunction,ComponentPad*%
%ADD19C,1.400000*%
%TD*%
%TA.AperFunction,ComponentPad*%
%ADD20C,1.800000*%
%TD*%
%TA.AperFunction,ComponentPad*%
%ADD21R,1.800000X1.800000*%
%TD*%
%TA.AperFunction,ComponentPad*%
%ADD22O,2.200000X2.200000*%
%TD*%
%TA.AperFunction,ComponentPad*%
%ADD23R,2.200000X2.200000*%
%TD*%
%TA.AperFunction,ComponentPad*%
%ADD24C,1.600000*%
%TD*%
%TA.AperFunction,ComponentPad*%
%ADD25C,2.600000*%
%TD*%
%TA.AperFunction,ComponentPad*%
%ADD26R,2.600000X2.600000*%
%TD*%
%TA.AperFunction,Conductor*%
%ADD27C,0.500000*%
%TD*%
%TA.AperFunction,Conductor*%
%ADD28C,0.254000*%
%TD*%
%TA.AperFunction,Conductor*%
%ADD29C,0.100000*%
%TD*%
G04 APERTURE END LIST*
D10*
%TO.P,J1,3*%
%TO.N,GND*%
X173355000Y-95250000D03*
%TO.P,J1,2*%
%TO.N,Net-(J1-Pad2)*%
X173355000Y-92710000D03*
D11*
%TO.P,J1,1*%
%TO.N,Net-(J1-Pad1)*%
X173355000Y-90170000D03*
%TD*%
D12*
%TO.P,U2,3*%
%TO.N,+5V*%
X156845000Y-76200000D03*
%TO.P,U2,2*%
%TO.N,GND*%
X156845000Y-78740000D03*
D13*
%TO.P,U2,1*%
%TO.N,Net-(C1-Pad1)*%
X156845000Y-81280000D03*
%TD*%
D14*
%TO.P,U1,28*%
%TO.N,Net-(U1-Pad28)*%
X156845000Y-96520000D03*
%TO.P,U1,14*%
%TO.N,Net-(D1-Pad1)*%
X123825000Y-88900000D03*
%TO.P,U1,27*%
%TO.N,Net-(U1-Pad27)*%
X154305000Y-96520000D03*
%TO.P,U1,13*%
%TO.N,Net-(U1-Pad13)*%
X126365000Y-88900000D03*
%TO.P,U1,26*%
%TO.N,Net-(U1-Pad26)*%
X151765000Y-96520000D03*
%TO.P,U1,12*%
%TO.N,Net-(U1-Pad12)*%
X128905000Y-88900000D03*
%TO.P,U1,25*%
%TO.N,Net-(U1-Pad25)*%
X149225000Y-96520000D03*
%TO.P,U1,11*%
%TO.N,Net-(U1-Pad11)*%
X131445000Y-88900000D03*
%TO.P,U1,24*%
%TO.N,Net-(U1-Pad24)*%
X146685000Y-96520000D03*
%TO.P,U1,10*%
%TO.N,Net-(U1-Pad10)*%
X133985000Y-88900000D03*
%TO.P,U1,23*%
%TO.N,Net-(U1-Pad23)*%
X144145000Y-96520000D03*
%TO.P,U1,9*%
%TO.N,Net-(U1-Pad9)*%
X136525000Y-88900000D03*
%TO.P,U1,22*%
%TO.N,GND*%
X141605000Y-96520000D03*
%TO.P,U1,8*%
X139065000Y-88900000D03*
%TO.P,U1,21*%
%TO.N,Net-(U1-Pad21)*%
X139065000Y-96520000D03*
%TO.P,U1,7*%
%TO.N,+5V*%
X141605000Y-88900000D03*
%TO.P,U1,20*%
X136525000Y-96520000D03*
%TO.P,U1,6*%
%TO.N,Net-(U1-Pad6)*%
X144145000Y-88900000D03*
%TO.P,U1,19*%
%TO.N,Net-(U1-Pad19)*%
X133985000Y-96520000D03*
%TO.P,U1,5*%
%TO.N,Net-(U1-Pad5)*%
X146685000Y-88900000D03*
%TO.P,U1,18*%
%TO.N,Net-(U1-Pad18)*%
X131445000Y-96520000D03*
%TO.P,U1,4*%
%TO.N,Net-(U1-Pad4)*%
X149225000Y-88900000D03*
%TO.P,U1,17*%
%TO.N,Net-(U1-Pad17)*%
X128905000Y-96520000D03*
%TO.P,U1,3*%
%TO.N,Net-(J1-Pad2)*%
X151765000Y-88900000D03*
%TO.P,U1,16*%
%TO.N,Net-(U1-Pad16)*%
X126365000Y-96520000D03*
%TO.P,U1,2*%
%TO.N,Net-(J1-Pad1)*%
X154305000Y-88900000D03*
%TO.P,U1,15*%
%TO.N,Net-(D1-Pad2)*%
X123825000Y-96520000D03*
D15*
%TO.P,U1,1*%
%TO.N,Net-(U1-Pad1)*%
X156845000Y-88900000D03*
%TD*%
D16*
%TO.P,SW1,3*%
%TO.N,N/C*%
X122175000Y-81280000D03*
%TO.P,SW1,2*%
%TO.N,Net-(D9-Pad2)*%
X126175000Y-81280000D03*
%TO.P,SW1,1*%
%TO.N,Net-(BT1-Pad1)*%
X130175000Y-81280000D03*
D17*
%TO.P,SW1,*%
%TO.N,*%
X132175000Y-77030000D03*
X120175000Y-77030000D03*
X120175000Y-83030000D03*
X132175000Y-83030000D03*
%TD*%
D18*
%TO.P,R1,2*%
%TO.N,+5V*%
X164465000Y-86360000D03*
D19*
%TO.P,R1,1*%
%TO.N,Net-(D10-Pad2)*%
X172085000Y-86360000D03*
%TD*%
D20*
%TO.P,D10,2*%
%TO.N,Net-(D10-Pad2)*%
X173355000Y-76835000D03*
D21*
%TO.P,D10,1*%
%TO.N,GND*%
X173355000Y-79375000D03*
%TD*%
D22*
%TO.P,D9,2*%
%TO.N,Net-(D9-Pad2)*%
X136525000Y-74930000D03*
D23*
%TO.P,D9,1*%
%TO.N,Net-(C1-Pad1)*%
X136525000Y-85090000D03*
%TD*%
D24*
%TO.P,C2,2*%
%TO.N,GND*%
X165100000Y-80565000D03*
D15*
%TO.P,C2,1*%
%TO.N,+5V*%
X165100000Y-75565000D03*
%TD*%
D24*
%TO.P,C1,2*%
%TO.N,GND*%
X146685000Y-75645000D03*
D15*
%TO.P,C1,1*%
%TO.N,Net-(C1-Pad1)*%
X146685000Y-80645000D03*
%TD*%
D25*
%TO.P,BT1,2*%
%TO.N,GND*%
X115260000Y-80010000D03*
D26*
%TO.P,BT1,1*%
%TO.N,Net-(BT1-Pad1)*%
X111760000Y-80010000D03*
%TD*%
D27*
%TO.N,GND*%
X153750000Y-75645000D02*
X156845000Y-78740000D01*
X146685000Y-75645000D02*
X153750000Y-75645000D01*
X166290000Y-79375000D02*
X165100000Y-80565000D01*
X173355000Y-79375000D02*
X166290000Y-79375000D01*
X165100000Y-80565000D02*
X163275000Y-78740000D01*
X163275000Y-78740000D02*
X156845000Y-78740000D01*
%TO.N,Net-(C1-Pad1)*%
X140970000Y-80645000D02*
X146685000Y-80645000D01*
X136525000Y-85090000D02*
X140970000Y-80645000D01*
X156210000Y-80645000D02*
X156845000Y-81280000D01*
X146685000Y-80645000D02*
X156210000Y-80645000D01*
%TO.N,+5V*%
X157480000Y-75565000D02*
X156845000Y-76200000D01*
X165100000Y-75565000D02*
X157480000Y-75565000D01*
%TO.N,Net-(D9-Pad2)*%
X136525000Y-74930000D02*
X128905000Y-74930000D01*
X126175000Y-77660000D02*
X126175000Y-81280000D01*
X128905000Y-74930000D02*
X126175000Y-77660000D01*
%TO.N,Net-(J1-Pad2)*%
X173355000Y-92710000D02*
X155575000Y-92710000D01*
X155575000Y-92710000D02*
X151765000Y-88900000D01*
%TO.N,Net-(J1-Pad1)*%
X173355000Y-90170000D02*
X172085000Y-91440000D01*
X172085000Y-91440000D02*
X156845000Y-91440000D01*
X156845000Y-91440000D02*
X154305000Y-88900000D01*
%TD*%
D28*
%TO.N,GND*%
X177775001Y-112370000D02*
X104800000Y-112370000D01*
X104800000Y-96378665D01*
X122390000Y-96378665D01*
X122390000Y-96661335D01*
X122445147Y-96938574D01*
X122553320Y-97199727D01*
X122710363Y-97434759D01*
X122910241Y-97634637D01*
X123145273Y-97791680D01*
X123406426Y-97899853D01*
X123683665Y-97955000D01*
X123966335Y-97955000D01*
X124243574Y-97899853D01*
X124504727Y-97791680D01*
X124739759Y-97634637D01*
X124939637Y-97434759D01*
X125095000Y-97202241D01*
X125250363Y-97434759D01*
X125450241Y-97634637D01*
X125685273Y-97791680D01*
X125946426Y-97899853D01*
X126223665Y-97955000D01*
X126506335Y-97955000D01*
X126783574Y-97899853D01*
X127044727Y-97791680D01*
X127279759Y-97634637D01*
X127479637Y-97434759D01*
X127635000Y-97202241D01*
X127790363Y-97434759D01*
X127990241Y-97634637D01*
X128225273Y-97791680D01*
X128486426Y-97899853D01*
X128763665Y-97955000D01*
X129046335Y-97955000D01*
X129323574Y-97899853D01*
X129584727Y-97791680D01*
X129819759Y-97634637D01*
X130019637Y-97434759D01*
X130175000Y-97202241D01*
X130330363Y-97434759D01*
X130530241Y-97634637D01*
X130765273Y-97791680D01*
X131026426Y-97899853D01*
X131303665Y-97955000D01*
X131586335Y-97955000D01*
X131863574Y-97899853D01*
X132124727Y-97791680D01*
X132359759Y-97634637D01*
X132559637Y-97434759D01*
X132715000Y-97202241D01*
X132870363Y-97434759D01*
X133070241Y-97634637D01*
X133305273Y-97791680D01*
X133566426Y-97899853D01*
X133843665Y-97955000D01*
X134126335Y-97955000D01*
X134403574Y-97899853D01*
X134664727Y-97791680D01*
X134899759Y-97634637D01*
X135099637Y-97434759D01*
X135255000Y-97202241D01*
X135410363Y-97434759D01*
X135610241Y-97634637D01*
X135845273Y-97791680D01*
X136106426Y-97899853D01*
X136383665Y-97955000D01*
X136666335Y-97955000D01*
X136943574Y-97899853D01*
X137204727Y-97791680D01*
X137439759Y-97634637D01*
X137639637Y-97434759D01*
X137795000Y-97202241D01*
X137950363Y-97434759D01*
X138150241Y-97634637D01*
X138385273Y-97791680D01*
X138646426Y-97899853D01*
X138923665Y-97955000D01*
X139206335Y-97955000D01*
X139483574Y-97899853D01*
X139744727Y-97791680D01*
X139979759Y-97634637D01*
X140179637Y-97434759D01*
X140336680Y-97199727D01*
X140341067Y-97189135D01*
X140452615Y-97375131D01*
X140641586Y-97583519D01*
X140867580Y-97751037D01*
X141121913Y-97871246D01*
X141255961Y-97911904D01*
X141478000Y-97789915D01*
X141478000Y-96647000D01*
X141458000Y-96647000D01*
X141458000Y-96393000D01*
X141478000Y-96393000D01*
X141478000Y-95250085D01*
X141732000Y-95250085D01*
X141732000Y-96393000D01*
X141752000Y-96393000D01*
X141752000Y-96647000D01*
X141732000Y-96647000D01*
X141732000Y-97789915D01*
X141954039Y-97911904D01*
X142088087Y-97871246D01*
X142342420Y-97751037D01*
X142568414Y-97583519D01*
X142757385Y-97375131D01*
X142868933Y-97189135D01*
X142873320Y-97199727D01*
X143030363Y-97434759D01*
X143230241Y-97634637D01*
X143465273Y-97791680D01*
X143726426Y-97899853D01*
X144003665Y-97955000D01*
X144286335Y-97955000D01*
X144563574Y-97899853D01*
X144824727Y-97791680D01*
X145059759Y-97634637D01*
X145259637Y-97434759D01*
X145415000Y-97202241D01*
X145570363Y-97434759D01*
X145770241Y-97634637D01*
X146005273Y-97791680D01*
X146266426Y-97899853D01*
X146543665Y-97955000D01*
X146826335Y-97955000D01*
X147103574Y-97899853D01*
X147364727Y-97791680D01*
X147599759Y-97634637D01*
X147799637Y-97434759D01*
X147955000Y-97202241D01*
X148110363Y-97434759D01*
X148310241Y-97634637D01*
X148545273Y-97791680D01*
X148806426Y-97899853D01*
X149083665Y-97955000D01*
X149366335Y-97955000D01*
X149643574Y-97899853D01*
X149904727Y-97791680D01*
X150139759Y-97634637D01*
X150339637Y-97434759D01*
X150495000Y-97202241D01*
X150650363Y-97434759D01*
X150850241Y-97634637D01*
X151085273Y-97791680D01*
X151346426Y-97899853D01*
X151623665Y-97955000D01*
X151906335Y-97955000D01*
X152183574Y-97899853D01*
X152444727Y-97791680D01*
X152679759Y-97634637D01*
X152879637Y-97434759D01*
X153035000Y-97202241D01*
X153190363Y-97434759D01*
X153390241Y-97634637D01*
X153625273Y-97791680D01*
X153886426Y-97899853D01*
X154163665Y-97955000D01*
X154446335Y-97955000D01*
X154723574Y-97899853D01*
X154984727Y-97791680D01*
X155219759Y-97634637D01*
X155419637Y-97434759D01*
X155575000Y-97202241D01*
X155730363Y-97434759D01*
X155930241Y-97634637D01*
X156165273Y-97791680D01*
X156426426Y-97899853D01*
X156703665Y-97955000D01*
X156986335Y-97955000D01*
X157263574Y-97899853D01*
X157524727Y-97791680D01*
X157759759Y-97634637D01*
X157959637Y-97434759D01*
X158116680Y-97199727D01*
X158224853Y-96938574D01*
X158280000Y-96661335D01*
X158280000Y-96378665D01*
X158224853Y-96101426D01*
X158116680Y-95840273D01*
X157960739Y-95606890D01*
X171913524Y-95606890D01*
X171958175Y-95754099D01*
X172083359Y-96016920D01*
X172257412Y-96250269D01*
X172473645Y-96445178D01*
X172723748Y-96594157D01*
X172998109Y-96691481D01*
X173228000Y-96570814D01*
X173228000Y-95377000D01*
X173482000Y-95377000D01*
X173482000Y-96570814D01*
X173711891Y-96691481D01*
X173986252Y-96594157D01*
X174236355Y-96445178D01*
X174452588Y-96250269D01*
X174626641Y-96016920D01*
X174751825Y-95754099D01*
X174796476Y-95606890D01*
X174675155Y-95377000D01*
X173482000Y-95377000D01*
X173228000Y-95377000D01*
X172034845Y-95377000D01*
X171913524Y-95606890D01*
X157960739Y-95606890D01*
X157959637Y-95605241D01*
X157759759Y-95405363D01*
X157524727Y-95248320D01*
X157263574Y-95140147D01*
X156986335Y-95085000D01*
X156703665Y-95085000D01*
X156426426Y-95140147D01*
X156165273Y-95248320D01*
X155930241Y-95405363D01*
X155730363Y-95605241D01*
X155575000Y-95837759D01*
X155419637Y-95605241D01*
X155219759Y-95405363D01*
X154984727Y-95248320D01*
X154723574Y-95140147D01*
X154446335Y-95085000D01*
X154163665Y-95085000D01*
X153886426Y-95140147D01*
X153625273Y-95248320D01*
X153390241Y-95405363D01*
X153190363Y-95605241D01*
X153035000Y-95837759D01*
X152879637Y-95605241D01*
X152679759Y-95405363D01*
X152444727Y-95248320D01*
X152183574Y-95140147D01*
X151906335Y-95085000D01*
X151623665Y-95085000D01*
X151346426Y-95140147D01*
X151085273Y-95248320D01*
X150850241Y-95405363D01*
X150650363Y-95605241D01*
X150495000Y-95837759D01*
X150339637Y-95605241D01*
X150139759Y-95405363D01*
X149904727Y-95248320D01*
X149643574Y-95140147D01*
X149366335Y-95085000D01*
X149083665Y-95085000D01*
X148806426Y-95140147D01*
X148545273Y-95248320D01*
X148310241Y-95405363D01*
X148110363Y-95605241D01*
X147955000Y-95837759D01*
X147799637Y-95605241D01*
X147599759Y-95405363D01*
X147364727Y-95248320D01*
X147103574Y-95140147D01*
X146826335Y-95085000D01*
X146543665Y-95085000D01*
X146266426Y-95140147D01*
X146005273Y-95248320D01*
X145770241Y-95405363D01*
X145570363Y-95605241D01*
X145415000Y-95837759D01*
X145259637Y-95605241D01*
X145059759Y-95405363D01*
X144824727Y-95248320D01*
X144563574Y-95140147D01*
X144286335Y-95085000D01*
X144003665Y-95085000D01*
X143726426Y-95140147D01*
X143465273Y-95248320D01*
X143230241Y-95405363D01*
X143030363Y-95605241D01*
X142873320Y-95840273D01*
X142868933Y-95850865D01*
X142757385Y-95664869D01*
X142568414Y-95456481D01*
X142342420Y-95288963D01*
X142088087Y-95168754D01*
X141954039Y-95128096D01*
X141732000Y-95250085D01*
X141478000Y-95250085D01*
X141255961Y-95128096D01*
X141121913Y-95168754D01*
X140867580Y-95288963D01*
X140641586Y-95456481D01*
X140452615Y-95664869D01*
X140341067Y-95850865D01*
X140336680Y-95840273D01*
X140179637Y-95605241D01*
X139979759Y-95405363D01*
X139744727Y-95248320D01*
X139483574Y-95140147D01*
X139206335Y-95085000D01*
X138923665Y-95085000D01*
X138646426Y-95140147D01*
X138385273Y-95248320D01*
X138150241Y-95405363D01*
X137950363Y-95605241D01*
X137795000Y-95837759D01*
X137639637Y-95605241D01*
X137439759Y-95405363D01*
X137204727Y-95248320D01*
X136943574Y-95140147D01*
X136666335Y-95085000D01*
X136383665Y-95085000D01*
X136106426Y-95140147D01*
X135845273Y-95248320D01*
X135610241Y-95405363D01*
X135410363Y-95605241D01*
X135255000Y-95837759D01*
X135099637Y-95605241D01*
X134899759Y-95405363D01*
X134664727Y-95248320D01*
X134403574Y-95140147D01*
X134126335Y-95085000D01*
X133843665Y-95085000D01*
X133566426Y-95140147D01*
X133305273Y-95248320D01*
X133070241Y-95405363D01*
X132870363Y-95605241D01*
X132715000Y-95837759D01*
X132559637Y-95605241D01*
X132359759Y-95405363D01*
X132124727Y-95248320D01*
X131863574Y-95140147D01*
X131586335Y-95085000D01*
X131303665Y-95085000D01*
X131026426Y-95140147D01*
X130765273Y-95248320D01*
X130530241Y-95405363D01*
X130330363Y-95605241D01*
X130175000Y-95837759D01*
X130019637Y-95605241D01*
X129819759Y-95405363D01*
X129584727Y-95248320D01*
X129323574Y-95140147D01*
X129046335Y-95085000D01*
X128763665Y-95085000D01*
X128486426Y-95140147D01*
X128225273Y-95248320D01*
X127990241Y-95405363D01*
X127790363Y-95605241D01*
X127635000Y-95837759D01*
X127479637Y-95605241D01*
X127279759Y-95405363D01*
X127044727Y-95248320D01*
X126783574Y-95140147D01*
X126506335Y-95085000D01*
X126223665Y-95085000D01*
X125946426Y-95140147D01*
X125685273Y-95248320D01*
X125450241Y-95405363D01*
X125250363Y-95605241D01*
X125095000Y-95837759D01*
X124939637Y-95605241D01*
X124739759Y-95405363D01*
X124504727Y-95248320D01*
X124243574Y-95140147D01*
X123966335Y-95085000D01*
X123683665Y-95085000D01*
X123406426Y-95140147D01*
X123145273Y-95248320D01*
X122910241Y-95405363D01*
X122710363Y-95605241D01*
X122553320Y-95840273D01*
X122445147Y-96101426D01*
X122390000Y-96378665D01*
X104800000Y-96378665D01*
X104800000Y-88758665D01*
X122390000Y-88758665D01*
X122390000Y-89041335D01*
X122445147Y-89318574D01*
X122553320Y-89579727D01*
X122710363Y-89814759D01*
X122910241Y-90014637D01*
X123145273Y-90171680D01*
X123406426Y-90279853D01*
X123683665Y-90335000D01*
X123966335Y-90335000D01*
X124243574Y-90279853D01*
X124504727Y-90171680D01*
X124739759Y-90014637D01*
X124939637Y-89814759D01*
X125095000Y-89582241D01*
X125250363Y-89814759D01*
X125450241Y-90014637D01*
X125685273Y-90171680D01*
X125946426Y-90279853D01*
X126223665Y-90335000D01*
X126506335Y-90335000D01*
X126783574Y-90279853D01*
X127044727Y-90171680D01*
X127279759Y-90014637D01*
X127479637Y-89814759D01*
X127635000Y-89582241D01*
X127790363Y-89814759D01*
X127990241Y-90014637D01*
X128225273Y-90171680D01*
X128486426Y-90279853D01*
X128763665Y-90335000D01*
X129046335Y-90335000D01*
X129323574Y-90279853D01*
X129584727Y-90171680D01*
X129819759Y-90014637D01*
X130019637Y-89814759D01*
X130175000Y-89582241D01*
X130330363Y-89814759D01*
X130530241Y-90014637D01*
X130765273Y-90171680D01*
X131026426Y-90279853D01*
X131303665Y-90335000D01*
X131586335Y-90335000D01*
X131863574Y-90279853D01*
X132124727Y-90171680D01*
X132359759Y-90014637D01*
X132559637Y-89814759D01*
X132715000Y-89582241D01*
X132870363Y-89814759D01*
X133070241Y-90014637D01*
X133305273Y-90171680D01*
X133566426Y-90279853D01*
X133843665Y-90335000D01*
X134126335Y-90335000D01*
X134403574Y-90279853D01*
X134664727Y-90171680D01*
X134899759Y-90014637D01*
X135099637Y-89814759D01*
X135255000Y-89582241D01*
X135410363Y-89814759D01*
X135610241Y-90014637D01*
X135845273Y-90171680D01*
X136106426Y-90279853D01*
X136383665Y-90335000D01*
X136666335Y-90335000D01*
X136943574Y-90279853D01*
X137204727Y-90171680D01*
X137439759Y-90014637D01*
X137639637Y-89814759D01*
X137796680Y-89579727D01*
X137801067Y-89569135D01*
X137912615Y-89755131D01*
X138101586Y-89963519D01*
X138327580Y-90131037D01*
X138581913Y-90251246D01*
X138715961Y-90291904D01*
X138938000Y-90169915D01*
X138938000Y-89027000D01*
X138918000Y-89027000D01*
X138918000Y-88773000D01*
X138938000Y-88773000D01*
X138938000Y-87630085D01*
X139192000Y-87630085D01*
X139192000Y-88773000D01*
X139212000Y-88773000D01*
X139212000Y-89027000D01*
X139192000Y-89027000D01*
X139192000Y-90169915D01*
X139414039Y-90291904D01*
X139548087Y-90251246D01*
X139802420Y-90131037D01*
X140028414Y-89963519D01*
X140217385Y-89755131D01*
X140328933Y-89569135D01*
X140333320Y-89579727D01*
X140490363Y-89814759D01*
X140690241Y-90014637D01*
X140925273Y-90171680D01*
X141186426Y-90279853D01*
X141463665Y-90335000D01*
X141746335Y-90335000D01*
X142023574Y-90279853D01*
X142284727Y-90171680D01*
X142519759Y-90014637D01*
X142719637Y-89814759D01*
X142875000Y-89582241D01*
X143030363Y-89814759D01*
X143230241Y-90014637D01*
X143465273Y-90171680D01*
X143726426Y-90279853D01*
X144003665Y-90335000D01*
X144286335Y-90335000D01*
X144563574Y-90279853D01*
X144824727Y-90171680D01*
X145059759Y-90014637D01*
X145259637Y-89814759D01*
X145415000Y-89582241D01*
X145570363Y-89814759D01*
X145770241Y-90014637D01*
X146005273Y-90171680D01*
X146266426Y-90279853D01*
X146543665Y-90335000D01*
X146826335Y-90335000D01*
X147103574Y-90279853D01*
X147364727Y-90171680D01*
X147599759Y-90014637D01*
X147799637Y-89814759D01*
X147955000Y-89582241D01*
X148110363Y-89814759D01*
X148310241Y-90014637D01*
X148545273Y-90171680D01*
X148806426Y-90279853D01*
X149083665Y-90335000D01*
X149366335Y-90335000D01*
X149643574Y-90279853D01*
X149904727Y-90171680D01*
X150139759Y-90014637D01*
X150339637Y-89814759D01*
X150495000Y-89582241D01*
X150650363Y-89814759D01*
X150850241Y-90014637D01*
X151085273Y-90171680D01*
X151346426Y-90279853D01*
X151623665Y-90335000D01*
X151906335Y-90335000D01*
X151941439Y-90328017D01*
X154918470Y-93305049D01*
X154946183Y-93338817D01*
X154979951Y-93366530D01*
X154979953Y-93366532D01*
X155080941Y-93449411D01*
X155234686Y-93531589D01*
X155401510Y-93582195D01*
X155531523Y-93595000D01*
X155531531Y-93595000D01*
X155575000Y-93599281D01*
X155618469Y-93595000D01*
X172160344Y-93595000D01*
X172201525Y-93656632D01*
X172408368Y-93863475D01*
X172590534Y-93985195D01*
X172473645Y-94054822D01*
X172257412Y-94249731D01*
X172083359Y-94483080D01*
X171958175Y-94745901D01*
X171913524Y-94893110D01*
X172034845Y-95123000D01*
X173228000Y-95123000D01*
X173228000Y-95103000D01*
X173482000Y-95103000D01*
X173482000Y-95123000D01*
X174675155Y-95123000D01*
X174796476Y-94893110D01*
X174751825Y-94745901D01*
X174626641Y-94483080D01*
X174452588Y-94249731D01*
X174236355Y-94054822D01*
X174119466Y-93985195D01*
X174301632Y-93863475D01*
X174508475Y-93656632D01*
X174670990Y-93413411D01*
X174782932Y-93143158D01*
X174840000Y-92856260D01*
X174840000Y-92563740D01*
X174782932Y-92276842D01*
X174670990Y-92006589D01*
X174508475Y-91763368D01*
X174376620Y-91631513D01*
X174449180Y-91609502D01*
X174559494Y-91550537D01*
X174656185Y-91471185D01*
X174735537Y-91374494D01*
X174794502Y-91264180D01*
X174830812Y-91144482D01*
X174843072Y-91020000D01*
X174843072Y-89320000D01*
X174830812Y-89195518D01*
X174794502Y-89075820D01*
X174735537Y-88965506D01*
X174656185Y-88868815D01*
X174559494Y-88789463D01*
X174449180Y-88730498D01*
X174329482Y-88694188D01*
X174205000Y-88681928D01*
X172505000Y-88681928D01*
X172380518Y-88694188D01*
X172260820Y-88730498D01*
X172150506Y-88789463D01*
X172053815Y-88868815D01*
X171974463Y-88965506D01*
X171915498Y-89075820D01*
X171879188Y-89195518D01*
X171866928Y-89320000D01*
X171866928Y-90406494D01*
X171718422Y-90555000D01*
X157211579Y-90555000D01*
X156994651Y-90338072D01*
X157645000Y-90338072D01*
X157769482Y-90325812D01*
X157889180Y-90289502D01*
X157999494Y-90230537D01*
X158096185Y-90151185D01*
X158175537Y-90054494D01*
X158234502Y-89944180D01*
X158270812Y-89824482D01*
X158283072Y-89700000D01*
X158283072Y-88100000D01*
X158270812Y-87975518D01*
X158234502Y-87855820D01*
X158175537Y-87745506D01*
X158096185Y-87648815D01*
X157999494Y-87569463D01*
X157889180Y-87510498D01*
X157769482Y-87474188D01*
X157645000Y-87461928D01*
X156045000Y-87461928D01*
X155920518Y-87474188D01*
X155800820Y-87510498D01*
X155690506Y-87569463D01*
X155593815Y-87648815D01*
X155514463Y-87745506D01*
X155455498Y-87855820D01*
X155419188Y-87975518D01*
X155418357Y-87983961D01*
X155219759Y-87785363D01*
X154984727Y-87628320D01*
X154723574Y-87520147D01*
X154446335Y-87465000D01*
X154163665Y-87465000D01*
X153886426Y-87520147D01*
X153625273Y-87628320D01*
X153390241Y-87785363D01*
X153190363Y-87985241D01*
X153035000Y-88217759D01*
X152879637Y-87985241D01*
X152679759Y-87785363D01*
X152444727Y-87628320D01*
X152183574Y-87520147D01*
X151906335Y-87465000D01*
X151623665Y-87465000D01*
X151346426Y-87520147D01*
X151085273Y-87628320D01*
X150850241Y-87785363D01*
X150650363Y-87985241D01*
X150495000Y-88217759D01*
X150339637Y-87985241D01*
X150139759Y-87785363D01*
X149904727Y-87628320D01*
X149643574Y-87520147D01*
X149366335Y-87465000D01*
X149083665Y-87465000D01*
X148806426Y-87520147D01*
X148545273Y-87628320D01*
X148310241Y-87785363D01*
X148110363Y-87985241D01*
X147955000Y-88217759D01*
X147799637Y-87985241D01*
X147599759Y-87785363D01*
X147364727Y-87628320D01*
X147103574Y-87520147D01*
X146826335Y-87465000D01*
X146543665Y-87465000D01*
X146266426Y-87520147D01*
X146005273Y-87628320D01*
X145770241Y-87785363D01*
X145570363Y-87985241D01*
X145415000Y-88217759D01*
X145259637Y-87985241D01*
X145059759Y-87785363D01*
X144824727Y-87628320D01*
X144563574Y-87520147D01*
X144286335Y-87465000D01*
X144003665Y-87465000D01*
X143726426Y-87520147D01*
X143465273Y-87628320D01*
X143230241Y-87785363D01*
X143030363Y-87985241D01*
X142875000Y-88217759D01*
X142719637Y-87985241D01*
X142519759Y-87785363D01*
X142284727Y-87628320D01*
X142023574Y-87520147D01*
X141746335Y-87465000D01*
X141463665Y-87465000D01*
X141186426Y-87520147D01*
X140925273Y-87628320D01*
X140690241Y-87785363D01*
X140490363Y-87985241D01*
X140333320Y-88220273D01*
X140328933Y-88230865D01*
X140217385Y-88044869D01*
X140028414Y-87836481D01*
X139802420Y-87668963D01*
X139548087Y-87548754D01*
X139414039Y-87508096D01*
X139192000Y-87630085D01*
X138938000Y-87630085D01*
X138715961Y-87508096D01*
X138581913Y-87548754D01*
X138327580Y-87668963D01*
X138101586Y-87836481D01*
X137912615Y-88044869D01*
X137801067Y-88230865D01*
X137796680Y-88220273D01*
X137639637Y-87985241D01*
X137439759Y-87785363D01*
X137204727Y-87628320D01*
X136943574Y-87520147D01*
X136666335Y-87465000D01*
X136383665Y-87465000D01*
X136106426Y-87520147D01*
X135845273Y-87628320D01*
X135610241Y-87785363D01*
X135410363Y-87985241D01*
X135255000Y-88217759D01*
X135099637Y-87985241D01*
X134899759Y-87785363D01*
X134664727Y-87628320D01*
X134403574Y-87520147D01*
X134126335Y-87465000D01*
X133843665Y-87465000D01*
X133566426Y-87520147D01*
X133305273Y-87628320D01*
X133070241Y-87785363D01*
X132870363Y-87985241D01*
X132715000Y-88217759D01*
X132559637Y-87985241D01*
X132359759Y-87785363D01*
X132124727Y-87628320D01*
X131863574Y-87520147D01*
X131586335Y-87465000D01*
X131303665Y-87465000D01*
X131026426Y-87520147D01*
X130765273Y-87628320D01*
X130530241Y-87785363D01*
X130330363Y-87985241D01*
X130175000Y-88217759D01*
X130019637Y-87985241D01*
X129819759Y-87785363D01*
X129584727Y-87628320D01*
X129323574Y-87520147D01*
X129046335Y-87465000D01*
X128763665Y-87465000D01*
X128486426Y-87520147D01*
X128225273Y-87628320D01*
X127990241Y-87785363D01*
X127790363Y-87985241D01*
X127635000Y-88217759D01*
X127479637Y-87985241D01*
X127279759Y-87785363D01*
X127044727Y-87628320D01*
X126783574Y-87520147D01*
X126506335Y-87465000D01*
X126223665Y-87465000D01*
X125946426Y-87520147D01*
X125685273Y-87628320D01*
X125450241Y-87785363D01*
X125250363Y-87985241D01*
X125095000Y-88217759D01*
X124939637Y-87985241D01*
X124739759Y-87785363D01*
X124504727Y-87628320D01*
X124243574Y-87520147D01*
X123966335Y-87465000D01*
X123683665Y-87465000D01*
X123406426Y-87520147D01*
X123145273Y-87628320D01*
X122910241Y-87785363D01*
X122710363Y-87985241D01*
X122553320Y-88220273D01*
X122445147Y-88481426D01*
X122390000Y-88758665D01*
X104800000Y-88758665D01*
X104800000Y-82868967D01*
X118540000Y-82868967D01*
X118540000Y-83191033D01*
X118602832Y-83506912D01*
X118726082Y-83804463D01*
X118905013Y-84072252D01*
X119132748Y-84299987D01*
X119400537Y-84478918D01*
X119698088Y-84602168D01*
X120013967Y-84665000D01*
X120336033Y-84665000D01*
X120651912Y-84602168D01*
X120949463Y-84478918D01*
X121217252Y-84299987D01*
X121444987Y-84072252D01*
X121623918Y-83804463D01*
X121747168Y-83506912D01*
X121810000Y-83191033D01*
X121810000Y-82868967D01*
X121779457Y-82715414D01*
X122028740Y-82765000D01*
X122321260Y-82765000D01*
X122608158Y-82707932D01*
X122878411Y-82595990D01*
X123121632Y-82433475D01*
X123328475Y-82226632D01*
X123490990Y-81983411D01*
X123602932Y-81713158D01*
X123660000Y-81426260D01*
X123660000Y-81133740D01*
X124690000Y-81133740D01*
X124690000Y-81426260D01*
X124747068Y-81713158D01*
X124859010Y-81983411D01*
X125021525Y-82226632D01*
X125228368Y-82433475D01*
X125471589Y-82595990D01*
X125741842Y-82707932D01*
X126028740Y-82765000D01*
X126321260Y-82765000D01*
X126608158Y-82707932D01*
X126878411Y-82595990D01*
X127121632Y-82433475D01*
X127328475Y-82226632D01*
X127490990Y-81983411D01*
X127602932Y-81713158D01*
X127660000Y-81426260D01*
X127660000Y-81133740D01*
X128690000Y-81133740D01*
X128690000Y-81426260D01*
X128747068Y-81713158D01*
X128859010Y-81983411D01*
X129021525Y-82226632D01*
X129228368Y-82433475D01*
X129471589Y-82595990D01*
X129741842Y-82707932D01*
X130028740Y-82765000D01*
X130321260Y-82765000D01*
X130570543Y-82715414D01*
X130540000Y-82868967D01*
X130540000Y-83191033D01*
X130602832Y-83506912D01*
X130726082Y-83804463D01*
X130905013Y-84072252D01*
X131132748Y-84299987D01*
X131400537Y-84478918D01*
X131698088Y-84602168D01*
X132013967Y-84665000D01*
X132336033Y-84665000D01*
X132651912Y-84602168D01*
X132949463Y-84478918D01*
X133217252Y-84299987D01*
X133444987Y-84072252D01*
X133499946Y-83990000D01*
X134786928Y-83990000D01*
X134786928Y-86190000D01*
X134799188Y-86314482D01*
X134835498Y-86434180D01*
X134894463Y-86544494D01*
X134973815Y-86641185D01*
X135070506Y-86720537D01*
X135180820Y-86779502D01*
X135300518Y-86815812D01*
X135425000Y-86828072D01*
X137625000Y-86828072D01*
X137749482Y-86815812D01*
X137869180Y-86779502D01*
X137979494Y-86720537D01*
X138076185Y-86641185D01*
X138155537Y-86544494D01*
X138214502Y-86434180D01*
X138250812Y-86314482D01*
X138259278Y-86228514D01*
X163130000Y-86228514D01*
X163130000Y-86491486D01*
X163181304Y-86749405D01*
X163281939Y-86992359D01*
X163428038Y-87211013D01*
X163613987Y-87396962D01*
X163832641Y-87543061D01*
X164075595Y-87643696D01*
X164333514Y-87695000D01*
X164596486Y-87695000D01*
X164854405Y-87643696D01*
X165097359Y-87543061D01*
X165316013Y-87396962D01*
X165501962Y-87211013D01*
X165648061Y-86992359D01*
X165748696Y-86749405D01*
X165800000Y-86491486D01*
X165800000Y-86228514D01*
X170750000Y-86228514D01*
X170750000Y-86491486D01*
X170801304Y-86749405D01*
X170901939Y-86992359D01*
X171048038Y-87211013D01*
X171233987Y-87396962D01*
X171452641Y-87543061D01*
X171695595Y-87643696D01*
X171953514Y-87695000D01*
X172216486Y-87695000D01*
X172474405Y-87643696D01*
X172717359Y-87543061D01*
X172936013Y-87396962D01*
X173121962Y-87211013D01*
X173268061Y-86992359D01*
X173368696Y-86749405D01*
X173420000Y-86491486D01*
X173420000Y-86228514D01*
X173368696Y-85970595D01*
X173268061Y-85727641D01*
X173121962Y-85508987D01*
X172936013Y-85323038D01*
X172717359Y-85176939D01*
X172474405Y-85076304D01*
X172216486Y-85025000D01*
X171953514Y-85025000D01*
X171695595Y-85076304D01*
X171452641Y-85176939D01*
X171233987Y-85323038D01*
X171048038Y-85508987D01*
X170901939Y-85727641D01*
X170801304Y-85970595D01*
X170750000Y-86228514D01*
X165800000Y-86228514D01*
X165748696Y-85970595D01*
X165648061Y-85727641D01*
X165501962Y-85508987D01*
X165316013Y-85323038D01*
X165097359Y-85176939D01*
X164854405Y-85076304D01*
X164596486Y-85025000D01*
X164333514Y-85025000D01*
X164075595Y-85076304D01*
X163832641Y-85176939D01*
X163613987Y-85323038D01*
X163428038Y-85508987D01*
X163281939Y-85727641D01*
X163181304Y-85970595D01*
X163130000Y-86228514D01*
X138259278Y-86228514D01*
X138263072Y-86190000D01*
X138263072Y-84603506D01*
X141336579Y-81530000D01*
X145255299Y-81530000D01*
X145259188Y-81569482D01*
X145295498Y-81689180D01*
X145354463Y-81799494D01*
X145433815Y-81896185D01*
X145530506Y-81975537D01*
X145640820Y-82034502D01*
X145760518Y-82070812D01*
X145885000Y-82083072D01*
X147485000Y-82083072D01*
X147609482Y-82070812D01*
X147729180Y-82034502D01*
X147839494Y-81975537D01*
X147936185Y-81896185D01*
X148015537Y-81799494D01*
X148074502Y-81689180D01*
X148110812Y-81569482D01*
X148114701Y-81530000D01*
X155206928Y-81530000D01*
X155206928Y-82232500D01*
X155219188Y-82356982D01*
X155255498Y-82476680D01*
X155314463Y-82586994D01*
X155393815Y-82683685D01*
X155490506Y-82763037D01*
X155600820Y-82822002D01*
X155720518Y-82858312D01*
X155845000Y-82870572D01*
X157845000Y-82870572D01*
X157969482Y-82858312D01*
X158089180Y-82822002D01*
X158199494Y-82763037D01*
X158296185Y-82683685D01*
X158375537Y-82586994D01*
X158434502Y-82476680D01*
X158470812Y-82356982D01*
X158483072Y-82232500D01*
X158483072Y-81557702D01*
X164286903Y-81557702D01*
X164358486Y-81801671D01*
X164613996Y-81922571D01*
X164888184Y-81991300D01*
X165170512Y-82005217D01*
X165450130Y-81963787D01*
X165716292Y-81868603D01*
X165841514Y-81801671D01*
X165913097Y-81557702D01*
X165100000Y-80744605D01*
X164286903Y-81557702D01*
X158483072Y-81557702D01*
X158483072Y-80635512D01*
X163659783Y-80635512D01*
X163701213Y-80915130D01*
X163796397Y-81181292D01*
X163863329Y-81306514D01*
X164107298Y-81378097D01*
X164920395Y-80565000D01*
X165279605Y-80565000D01*
X166092702Y-81378097D01*
X166336671Y-81306514D01*
X166457571Y-81051004D01*
X166526300Y-80776816D01*
X166540217Y-80494488D01*
X166507697Y-80275000D01*
X171816928Y-80275000D01*
X171829188Y-80399482D01*
X171865498Y-80519180D01*
X171924463Y-80629494D01*
X172003815Y-80726185D01*
X172100506Y-80805537D01*
X172210820Y-80864502D01*
X172330518Y-80900812D01*
X172455000Y-80913072D01*
X173069250Y-80910000D01*
X173228000Y-80751250D01*
X173228000Y-79502000D01*
X173482000Y-79502000D01*
X173482000Y-80751250D01*
X173640750Y-80910000D01*
X174255000Y-80913072D01*
X174379482Y-80900812D01*
X174499180Y-80864502D01*
X174609494Y-80805537D01*
X174706185Y-80726185D01*
X174785537Y-80629494D01*
X174844502Y-80519180D01*
X174880812Y-80399482D01*
X174893072Y-80275000D01*
X174890000Y-79660750D01*
X174731250Y-79502000D01*
X173482000Y-79502000D01*
X173228000Y-79502000D01*
X171978750Y-79502000D01*
X171820000Y-79660750D01*
X171816928Y-80275000D01*
X166507697Y-80275000D01*
X166498787Y-80214870D01*
X166403603Y-79948708D01*
X166336671Y-79823486D01*
X166092702Y-79751903D01*
X165279605Y-80565000D01*
X164920395Y-80565000D01*
X164107298Y-79751903D01*
X163863329Y-79823486D01*
X163742429Y-80078996D01*
X163673700Y-80353184D01*
X163659783Y-80635512D01*
X158483072Y-80635512D01*
X158483072Y-80327500D01*
X158470812Y-80203018D01*
X158434502Y-80083320D01*
X158375537Y-79973006D01*
X158296185Y-79876315D01*
X158199494Y-79796963D01*
X158107781Y-79747941D01*
X158220969Y-79606923D01*
X158238995Y-79572298D01*
X164286903Y-79572298D01*
X165100000Y-80385395D01*
X165913097Y-79572298D01*
X165841514Y-79328329D01*
X165586004Y-79207429D01*
X165311816Y-79138700D01*
X165029488Y-79124783D01*
X164749870Y-79166213D01*
X164483708Y-79261397D01*
X164358486Y-79328329D01*
X164286903Y-79572298D01*
X158238995Y-79572298D01*
X158364571Y-79331094D01*
X158435563Y-79112980D01*
X158315594Y-78867000D01*
X156972000Y-78867000D01*
X156972000Y-78887000D01*
X156718000Y-78887000D01*
X156718000Y-78867000D01*
X155374406Y-78867000D01*
X155254437Y-79112980D01*
X155325429Y-79331094D01*
X155469031Y-79606923D01*
X155582219Y-79747941D01*
X155559658Y-79760000D01*
X148114701Y-79760000D01*
X148110812Y-79720518D01*
X148074502Y-79600820D01*
X148015537Y-79490506D01*
X147936185Y-79393815D01*
X147839494Y-79314463D01*
X147729180Y-79255498D01*
X147609482Y-79219188D01*
X147485000Y-79206928D01*
X145885000Y-79206928D01*
X145760518Y-79219188D01*
X145640820Y-79255498D01*
X145530506Y-79314463D01*
X145433815Y-79393815D01*
X145354463Y-79490506D01*
X145295498Y-79600820D01*
X145259188Y-79720518D01*
X145255299Y-79760000D01*
X141013465Y-79760000D01*
X140969999Y-79755719D01*
X140926533Y-79760000D01*
X140926523Y-79760000D01*
X140796510Y-79772805D01*
X140629687Y-79823411D01*
X140475941Y-79905589D01*
X140475939Y-79905590D01*
X140475940Y-79905590D01*
X140374953Y-79988468D01*
X140374951Y-79988470D01*
X140341183Y-80016183D01*
X140313470Y-80049951D01*
X137011494Y-83351928D01*
X135425000Y-83351928D01*
X135300518Y-83364188D01*
X135180820Y-83400498D01*
X135070506Y-83459463D01*
X134973815Y-83538815D01*
X134894463Y-83635506D01*
X134835498Y-83745820D01*
X134799188Y-83865518D01*
X134786928Y-83990000D01*
X133499946Y-83990000D01*
X133623918Y-83804463D01*
X133747168Y-83506912D01*
X133810000Y-83191033D01*
X133810000Y-82868967D01*
X133747168Y-82553088D01*
X133623918Y-82255537D01*
X133444987Y-81987748D01*
X133217252Y-81760013D01*
X132949463Y-81581082D01*
X132651912Y-81457832D01*
X132336033Y-81395000D01*
X132013967Y-81395000D01*
X131698088Y-81457832D01*
X131649736Y-81477860D01*
X131660000Y-81426260D01*
X131660000Y-81133740D01*
X131602932Y-80846842D01*
X131490990Y-80576589D01*
X131328475Y-80333368D01*
X131121632Y-80126525D01*
X130878411Y-79964010D01*
X130608158Y-79852068D01*
X130321260Y-79795000D01*
X130028740Y-79795000D01*
X129741842Y-79852068D01*
X129471589Y-79964010D01*
X129228368Y-80126525D01*
X129021525Y-80333368D01*
X128859010Y-80576589D01*
X128747068Y-80846842D01*
X128690000Y-81133740D01*
X127660000Y-81133740D01*
X127602932Y-80846842D01*
X127490990Y-80576589D01*
X127328475Y-80333368D01*
X127121632Y-80126525D01*
X127060000Y-80085344D01*
X127060000Y-78026578D01*
X129271579Y-75815000D01*
X131077761Y-75815000D01*
X130905013Y-75987748D01*
X130726082Y-76255537D01*
X130602832Y-76553088D01*
X130540000Y-76868967D01*
X130540000Y-77191033D01*
X130602832Y-77506912D01*
X130726082Y-77804463D01*
X130905013Y-78072252D01*
X131132748Y-78299987D01*
X131400537Y-78478918D01*
X131698088Y-78602168D01*
X132013967Y-78665000D01*
X132336033Y-78665000D01*
X132651912Y-78602168D01*
X132949463Y-78478918D01*
X133217252Y-78299987D01*
X133444987Y-78072252D01*
X133623918Y-77804463D01*
X133747168Y-77506912D01*
X133810000Y-77191033D01*
X133810000Y-76868967D01*
X133747168Y-76553088D01*
X133623918Y-76255537D01*
X133444987Y-75987748D01*
X133272239Y-75815000D01*
X135029671Y-75815000D01*
X135177337Y-76035998D01*
X135419002Y-76277663D01*
X135703169Y-76467537D01*
X136018919Y-76598325D01*
X136354117Y-76665000D01*
X136695883Y-76665000D01*
X136833119Y-76637702D01*
X145871903Y-76637702D01*
X145943486Y-76881671D01*
X146198996Y-77002571D01*
X146473184Y-77071300D01*
X146755512Y-77085217D01*
X147035130Y-77043787D01*
X147301292Y-76948603D01*
X147426514Y-76881671D01*
X147498097Y-76637702D01*
X146685000Y-75824605D01*
X145871903Y-76637702D01*
X136833119Y-76637702D01*
X137031081Y-76598325D01*
X137346831Y-76467537D01*
X137630998Y-76277663D01*
X137872663Y-76035998D01*
X138062537Y-75751831D01*
X138077580Y-75715512D01*
X145244783Y-75715512D01*
X145286213Y-75995130D01*
X145381397Y-76261292D01*
X145448329Y-76386514D01*
X145692298Y-76458097D01*
X146505395Y-75645000D01*
X146864605Y-75645000D01*
X147677702Y-76458097D01*
X147921671Y-76386514D01*
X148009924Y-76200000D01*
X155202319Y-76200000D01*
X155232970Y-76511204D01*
X155323745Y-76810449D01*
X155471155Y-77086235D01*
X155669537Y-77327963D01*
X155848899Y-77475163D01*
X155663685Y-77630563D01*
X155469031Y-77873077D01*
X155325429Y-78148906D01*
X155254437Y-78367020D01*
X155374406Y-78613000D01*
X156718000Y-78613000D01*
X156718000Y-78593000D01*
X156972000Y-78593000D01*
X156972000Y-78613000D01*
X158315594Y-78613000D01*
X158382899Y-78475000D01*
X171816928Y-78475000D01*
X171820000Y-79089250D01*
X171978750Y-79248000D01*
X173228000Y-79248000D01*
X173228000Y-79228000D01*
X173482000Y-79228000D01*
X173482000Y-79248000D01*
X174731250Y-79248000D01*
X174890000Y-79089250D01*
X174893072Y-78475000D01*
X174880812Y-78350518D01*
X174844502Y-78230820D01*
X174785537Y-78120506D01*
X174706185Y-78023815D01*
X174609494Y-77944463D01*
X174499180Y-77885498D01*
X174480873Y-77879944D01*
X174547312Y-77813505D01*
X174715299Y-77562095D01*
X174831011Y-77282743D01*
X174890000Y-76986184D01*
X174890000Y-76683816D01*
X174831011Y-76387257D01*
X174715299Y-76107905D01*
X174547312Y-75856495D01*
X174333505Y-75642688D01*
X174082095Y-75474701D01*
X173802743Y-75358989D01*
X173506184Y-75300000D01*
X173203816Y-75300000D01*
X172907257Y-75358989D01*
X172627905Y-75474701D01*
X172376495Y-75642688D01*
X172162688Y-75856495D01*
X171994701Y-76107905D01*
X171878989Y-76387257D01*
X171820000Y-76683816D01*
X171820000Y-76986184D01*
X171878989Y-77282743D01*
X171994701Y-77562095D01*
X172162688Y-77813505D01*
X172229127Y-77879944D01*
X172210820Y-77885498D01*
X172100506Y-77944463D01*
X172003815Y-78023815D01*
X171924463Y-78120506D01*
X171865498Y-78230820D01*
X171829188Y-78350518D01*
X171816928Y-78475000D01*
X158382899Y-78475000D01*
X158435563Y-78367020D01*
X158364571Y-78148906D01*
X158220969Y-77873077D01*
X158026315Y-77630563D01*
X157841101Y-77475163D01*
X158020463Y-77327963D01*
X158218845Y-77086235D01*
X158366255Y-76810449D01*
X158457030Y-76511204D01*
X158463058Y-76450000D01*
X163670299Y-76450000D01*
X163674188Y-76489482D01*
X163710498Y-76609180D01*
X163769463Y-76719494D01*
X163848815Y-76816185D01*
X163945506Y-76895537D01*
X164055820Y-76954502D01*
X164175518Y-76990812D01*
X164300000Y-77003072D01*
X165900000Y-77003072D01*
X166024482Y-76990812D01*
X166144180Y-76954502D01*
X166254494Y-76895537D01*
X166351185Y-76816185D01*
X166430537Y-76719494D01*
X166489502Y-76609180D01*
X166525812Y-76489482D01*
X166538072Y-76365000D01*
X166538072Y-74765000D01*
X166525812Y-74640518D01*
X166489502Y-74520820D01*
X166430537Y-74410506D01*
X166351185Y-74313815D01*
X166254494Y-74234463D01*
X166144180Y-74175498D01*
X166024482Y-74139188D01*
X165900000Y-74126928D01*
X164300000Y-74126928D01*
X164175518Y-74139188D01*
X164055820Y-74175498D01*
X163945506Y-74234463D01*
X163848815Y-74313815D01*
X163769463Y-74410506D01*
X163710498Y-74520820D01*
X163674188Y-74640518D01*
X163670299Y-74680000D01*
X157523469Y-74680000D01*
X157480000Y-74675719D01*
X157436531Y-74680000D01*
X157436523Y-74680000D01*
X157371584Y-74686396D01*
X157203704Y-74635470D01*
X156970486Y-74612500D01*
X156719514Y-74612500D01*
X156486296Y-74635470D01*
X156187051Y-74726245D01*
X155911265Y-74873655D01*
X155669537Y-75072037D01*
X155471155Y-75313765D01*
X155323745Y-75589551D01*
X155232970Y-75888796D01*
X155202319Y-76200000D01*
X148009924Y-76200000D01*
X148042571Y-76131004D01*
X148111300Y-75856816D01*
X148125217Y-75574488D01*
X148083787Y-75294870D01*
X147988603Y-75028708D01*
X147921671Y-74903486D01*
X147677702Y-74831903D01*
X146864605Y-75645000D01*
X146505395Y-75645000D01*
X145692298Y-74831903D01*
X145448329Y-74903486D01*
X145327429Y-75158996D01*
X145258700Y-75433184D01*
X145244783Y-75715512D01*
X138077580Y-75715512D01*
X138193325Y-75436081D01*
X138260000Y-75100883D01*
X138260000Y-74759117D01*
X138238753Y-74652298D01*
X145871903Y-74652298D01*
X146685000Y-75465395D01*
X147498097Y-74652298D01*
X147426514Y-74408329D01*
X147171004Y-74287429D01*
X146896816Y-74218700D01*
X146614488Y-74204783D01*
X146334870Y-74246213D01*
X146068708Y-74341397D01*
X145943486Y-74408329D01*
X145871903Y-74652298D01*
X138238753Y-74652298D01*
X138193325Y-74423919D01*
X138062537Y-74108169D01*
X137872663Y-73824002D01*
X137630998Y-73582337D01*
X137346831Y-73392463D01*
X137031081Y-73261675D01*
X136695883Y-73195000D01*
X136354117Y-73195000D01*
X136018919Y-73261675D01*
X135703169Y-73392463D01*
X135419002Y-73582337D01*
X135177337Y-73824002D01*
X135029671Y-74045000D01*
X128948466Y-74045000D01*
X128904999Y-74040719D01*
X128861533Y-74045000D01*
X128861523Y-74045000D01*
X128731510Y-74057805D01*
X128564687Y-74108411D01*
X128410941Y-74190589D01*
X128410939Y-74190590D01*
X128410940Y-74190590D01*
X128309953Y-74273468D01*
X128309951Y-74273470D01*
X128276183Y-74301183D01*
X128248470Y-74334951D01*
X125579956Y-77003466D01*
X125546183Y-77031183D01*
X125435589Y-77165942D01*
X125353411Y-77319688D01*
X125302805Y-77486511D01*
X125290000Y-77616524D01*
X125290000Y-77616531D01*
X125285719Y-77660000D01*
X125290000Y-77703469D01*
X125290001Y-80085343D01*
X125228368Y-80126525D01*
X125021525Y-80333368D01*
X124859010Y-80576589D01*
X124747068Y-80846842D01*
X124690000Y-81133740D01*
X123660000Y-81133740D01*
X123602932Y-80846842D01*
X123490990Y-80576589D01*
X123328475Y-80333368D01*
X123121632Y-80126525D01*
X122878411Y-79964010D01*
X122608158Y-79852068D01*
X122321260Y-79795000D01*
X122028740Y-79795000D01*
X121741842Y-79852068D01*
X121471589Y-79964010D01*
X121228368Y-80126525D01*
X121021525Y-80333368D01*
X120859010Y-80576589D01*
X120747068Y-80846842D01*
X120690000Y-81133740D01*
X120690000Y-81426260D01*
X120700264Y-81477860D01*
X120651912Y-81457832D01*
X120336033Y-81395000D01*
X120013967Y-81395000D01*
X119698088Y-81457832D01*
X119400537Y-81581082D01*
X119132748Y-81760013D01*
X118905013Y-81987748D01*
X118726082Y-82255537D01*
X118602832Y-82553088D01*
X118540000Y-82868967D01*
X104800000Y-82868967D01*
X104800000Y-78710000D01*
X109821928Y-78710000D01*
X109821928Y-81310000D01*
X109834188Y-81434482D01*
X109870498Y-81554180D01*
X109929463Y-81664494D01*
X110008815Y-81761185D01*
X110105506Y-81840537D01*
X110215820Y-81899502D01*
X110335518Y-81935812D01*
X110460000Y-81948072D01*
X113060000Y-81948072D01*
X113184482Y-81935812D01*
X113304180Y-81899502D01*
X113414494Y-81840537D01*
X113511185Y-81761185D01*
X113590537Y-81664494D01*
X113649502Y-81554180D01*
X113685812Y-81434482D01*
X113693224Y-81359224D01*
X114090381Y-81359224D01*
X114222317Y-81654312D01*
X114563045Y-81825159D01*
X114930557Y-81926250D01*
X115310729Y-81953701D01*
X115688951Y-81906457D01*
X116050690Y-81786333D01*
X116297683Y-81654312D01*
X116429619Y-81359224D01*
X115260000Y-80189605D01*
X114090381Y-81359224D01*
X113693224Y-81359224D01*
X113698072Y-81310000D01*
X113698072Y-81084517D01*
X113910776Y-81179619D01*
X115080395Y-80010000D01*
X115439605Y-80010000D01*
X116609224Y-81179619D01*
X116904312Y-81047683D01*
X117075159Y-80706955D01*
X117176250Y-80339443D01*
X117203701Y-79959271D01*
X117156457Y-79581049D01*
X117036333Y-79219310D01*
X116904312Y-78972317D01*
X116609224Y-78840381D01*
X115439605Y-80010000D01*
X115080395Y-80010000D01*
X113910776Y-78840381D01*
X113698072Y-78935483D01*
X113698072Y-78710000D01*
X113693225Y-78660776D01*
X114090381Y-78660776D01*
X115260000Y-79830395D01*
X116429619Y-78660776D01*
X116297683Y-78365688D01*
X115956955Y-78194841D01*
X115589443Y-78093750D01*
X115209271Y-78066299D01*
X114831049Y-78113543D01*
X114469310Y-78233667D01*
X114222317Y-78365688D01*
X114090381Y-78660776D01*
X113693225Y-78660776D01*
X113685812Y-78585518D01*
X113649502Y-78465820D01*
X113590537Y-78355506D01*
X113511185Y-78258815D01*
X113414494Y-78179463D01*
X113304180Y-78120498D01*
X113184482Y-78084188D01*
X113060000Y-78071928D01*
X110460000Y-78071928D01*
X110335518Y-78084188D01*
X110215820Y-78120498D01*
X110105506Y-78179463D01*
X110008815Y-78258815D01*
X109929463Y-78355506D01*
X109870498Y-78465820D01*
X109834188Y-78585518D01*
X109821928Y-78710000D01*
X104800000Y-78710000D01*
X104800000Y-76868967D01*
X118540000Y-76868967D01*
X118540000Y-77191033D01*
X118602832Y-77506912D01*
X118726082Y-77804463D01*
X118905013Y-78072252D01*
X119132748Y-78299987D01*
X119400537Y-78478918D01*
X119698088Y-78602168D01*
X120013967Y-78665000D01*
X120336033Y-78665000D01*
X120651912Y-78602168D01*
X120949463Y-78478918D01*
X121217252Y-78299987D01*
X121444987Y-78072252D01*
X121623918Y-77804463D01*
X121747168Y-77506912D01*
X121810000Y-77191033D01*
X121810000Y-76868967D01*
X121747168Y-76553088D01*
X121623918Y-76255537D01*
X121444987Y-75987748D01*
X121217252Y-75760013D01*
X120949463Y-75581082D01*
X120651912Y-75457832D01*
X120336033Y-75395000D01*
X120013967Y-75395000D01*
X119698088Y-75457832D01*
X119400537Y-75581082D01*
X119132748Y-75760013D01*
X118905013Y-75987748D01*
X118726082Y-76255537D01*
X118602832Y-76553088D01*
X118540000Y-76868967D01*
X104800000Y-76868967D01*
X104800000Y-73050000D01*
X177775000Y-73050000D01*
X177775001Y-112370000D01*
%TA.AperFunction,Conductor*%
D29*
G36*
X177775001Y-112370000D02*
G01*
X104800000Y-112370000D01*
X104800000Y-96378665D01*
X122390000Y-96378665D01*
X122390000Y-96661335D01*
X122445147Y-96938574D01*
X122553320Y-97199727D01*
X122710363Y-97434759D01*
X122910241Y-97634637D01*
X123145273Y-97791680D01*
X123406426Y-97899853D01*
X123683665Y-97955000D01*
X123966335Y-97955000D01*
X124243574Y-97899853D01*
X124504727Y-97791680D01*
X124739759Y-97634637D01*
X124939637Y-97434759D01*
X125095000Y-97202241D01*
X125250363Y-97434759D01*
X125450241Y-97634637D01*
X125685273Y-97791680D01*
X125946426Y-97899853D01*
X126223665Y-97955000D01*
X126506335Y-97955000D01*
X126783574Y-97899853D01*
X127044727Y-97791680D01*
X127279759Y-97634637D01*
X127479637Y-97434759D01*
X127635000Y-97202241D01*
X127790363Y-97434759D01*
X127990241Y-97634637D01*
X128225273Y-97791680D01*
X128486426Y-97899853D01*
X128763665Y-97955000D01*
X129046335Y-97955000D01*
X129323574Y-97899853D01*
X129584727Y-97791680D01*
X129819759Y-97634637D01*
X130019637Y-97434759D01*
X130175000Y-97202241D01*
X130330363Y-97434759D01*
X130530241Y-97634637D01*
X130765273Y-97791680D01*
X131026426Y-97899853D01*
X131303665Y-97955000D01*
X131586335Y-97955000D01*
X131863574Y-97899853D01*
X132124727Y-97791680D01*
X132359759Y-97634637D01*
X132559637Y-97434759D01*
X132715000Y-97202241D01*
X132870363Y-97434759D01*
X133070241Y-97634637D01*
X133305273Y-97791680D01*
X133566426Y-97899853D01*
X133843665Y-97955000D01*
X134126335Y-97955000D01*
X134403574Y-97899853D01*
X134664727Y-97791680D01*
X134899759Y-97634637D01*
X135099637Y-97434759D01*
X135255000Y-97202241D01*
X135410363Y-97434759D01*
X135610241Y-97634637D01*
X135845273Y-97791680D01*
X136106426Y-97899853D01*
X136383665Y-97955000D01*
X136666335Y-97955000D01*
X136943574Y-97899853D01*
X137204727Y-97791680D01*
X137439759Y-97634637D01*
X137639637Y-97434759D01*
X137795000Y-97202241D01*
X137950363Y-97434759D01*
X138150241Y-97634637D01*
X138385273Y-97791680D01*
X138646426Y-97899853D01*
X138923665Y-97955000D01*
X139206335Y-97955000D01*
X139483574Y-97899853D01*
X139744727Y-97791680D01*
X139979759Y-97634637D01*
X140179637Y-97434759D01*
X140336680Y-97199727D01*
X140341067Y-97189135D01*
X140452615Y-97375131D01*
X140641586Y-97583519D01*
X140867580Y-97751037D01*
X141121913Y-97871246D01*
X141255961Y-97911904D01*
X141478000Y-97789915D01*
X141478000Y-96647000D01*
X141458000Y-96647000D01*
X141458000Y-96393000D01*
X141478000Y-96393000D01*
X141478000Y-95250085D01*
X141732000Y-95250085D01*
X141732000Y-96393000D01*
X141752000Y-96393000D01*
X141752000Y-96647000D01*
X141732000Y-96647000D01*
X141732000Y-97789915D01*
X141954039Y-97911904D01*
X142088087Y-97871246D01*
X142342420Y-97751037D01*
X142568414Y-97583519D01*
X142757385Y-97375131D01*
X142868933Y-97189135D01*
X142873320Y-97199727D01*
X143030363Y-97434759D01*
X143230241Y-97634637D01*
X143465273Y-97791680D01*
X143726426Y-97899853D01*
X144003665Y-97955000D01*
X144286335Y-97955000D01*
X144563574Y-97899853D01*
X144824727Y-97791680D01*
X145059759Y-97634637D01*
X145259637Y-97434759D01*
X145415000Y-97202241D01*
X145570363Y-97434759D01*
X145770241Y-97634637D01*
X146005273Y-97791680D01*
X146266426Y-97899853D01*
X146543665Y-97955000D01*
X146826335Y-97955000D01*
X147103574Y-97899853D01*
X147364727Y-97791680D01*
X147599759Y-97634637D01*
X147799637Y-97434759D01*
X147955000Y-97202241D01*
X148110363Y-97434759D01*
X148310241Y-97634637D01*
X148545273Y-97791680D01*
X148806426Y-97899853D01*
X149083665Y-97955000D01*
X149366335Y-97955000D01*
X149643574Y-97899853D01*
X149904727Y-97791680D01*
X150139759Y-97634637D01*
X150339637Y-97434759D01*
X150495000Y-97202241D01*
X150650363Y-97434759D01*
X150850241Y-97634637D01*
X151085273Y-97791680D01*
X151346426Y-97899853D01*
X151623665Y-97955000D01*
X151906335Y-97955000D01*
X152183574Y-97899853D01*
X152444727Y-97791680D01*
X152679759Y-97634637D01*
X152879637Y-97434759D01*
X153035000Y-97202241D01*
X153190363Y-97434759D01*
X153390241Y-97634637D01*
X153625273Y-97791680D01*
X153886426Y-97899853D01*
X154163665Y-97955000D01*
X154446335Y-97955000D01*
X154723574Y-97899853D01*
X154984727Y-97791680D01*
X155219759Y-97634637D01*
X155419637Y-97434759D01*
X155575000Y-97202241D01*
X155730363Y-97434759D01*
X155930241Y-97634637D01*
X156165273Y-97791680D01*
X156426426Y-97899853D01*
X156703665Y-97955000D01*
X156986335Y-97955000D01*
X157263574Y-97899853D01*
X157524727Y-97791680D01*
X157759759Y-97634637D01*
X157959637Y-97434759D01*
X158116680Y-97199727D01*
X158224853Y-96938574D01*
X158280000Y-96661335D01*
X158280000Y-96378665D01*
X158224853Y-96101426D01*
X158116680Y-95840273D01*
X157960739Y-95606890D01*
X171913524Y-95606890D01*
X171958175Y-95754099D01*
X172083359Y-96016920D01*
X172257412Y-96250269D01*
X172473645Y-96445178D01*
X172723748Y-96594157D01*
X172998109Y-96691481D01*
X173228000Y-96570814D01*
X173228000Y-95377000D01*
X173482000Y-95377000D01*
X173482000Y-96570814D01*
X173711891Y-96691481D01*
X173986252Y-96594157D01*
X174236355Y-96445178D01*
X174452588Y-96250269D01*
X174626641Y-96016920D01*
X174751825Y-95754099D01*
X174796476Y-95606890D01*
X174675155Y-95377000D01*
X173482000Y-95377000D01*
X173228000Y-95377000D01*
X172034845Y-95377000D01*
X171913524Y-95606890D01*
X157960739Y-95606890D01*
X157959637Y-95605241D01*
X157759759Y-95405363D01*
X157524727Y-95248320D01*
X157263574Y-95140147D01*
X156986335Y-95085000D01*
X156703665Y-95085000D01*
X156426426Y-95140147D01*
X156165273Y-95248320D01*
X155930241Y-95405363D01*
X155730363Y-95605241D01*
X155575000Y-95837759D01*
X155419637Y-95605241D01*
X155219759Y-95405363D01*
X154984727Y-95248320D01*
X154723574Y-95140147D01*
X154446335Y-95085000D01*
X154163665Y-95085000D01*
X153886426Y-95140147D01*
X153625273Y-95248320D01*
X153390241Y-95405363D01*
X153190363Y-95605241D01*
X153035000Y-95837759D01*
X152879637Y-95605241D01*
X152679759Y-95405363D01*
X152444727Y-95248320D01*
X152183574Y-95140147D01*
X151906335Y-95085000D01*
X151623665Y-95085000D01*
X151346426Y-95140147D01*
X151085273Y-95248320D01*
X150850241Y-95405363D01*
X150650363Y-95605241D01*
X150495000Y-95837759D01*
X150339637Y-95605241D01*
X150139759Y-95405363D01*
X149904727Y-95248320D01*
X149643574Y-95140147D01*
X149366335Y-95085000D01*
X149083665Y-95085000D01*
X148806426Y-95140147D01*
X148545273Y-95248320D01*
X148310241Y-95405363D01*
X148110363Y-95605241D01*
X147955000Y-95837759D01*
X147799637Y-95605241D01*
X147599759Y-95405363D01*
X147364727Y-95248320D01*
X147103574Y-95140147D01*
X146826335Y-95085000D01*
X146543665Y-95085000D01*
X146266426Y-95140147D01*
X146005273Y-95248320D01*
X145770241Y-95405363D01*
X145570363Y-95605241D01*
X145415000Y-95837759D01*
X145259637Y-95605241D01*
X145059759Y-95405363D01*
X144824727Y-95248320D01*
X144563574Y-95140147D01*
X144286335Y-95085000D01*
X144003665Y-95085000D01*
X143726426Y-95140147D01*
X143465273Y-95248320D01*
X143230241Y-95405363D01*
X143030363Y-95605241D01*
X142873320Y-95840273D01*
X142868933Y-95850865D01*
X142757385Y-95664869D01*
X142568414Y-95456481D01*
X142342420Y-95288963D01*
X142088087Y-95168754D01*
X141954039Y-95128096D01*
X141732000Y-95250085D01*
X141478000Y-95250085D01*
X141255961Y-95128096D01*
X141121913Y-95168754D01*
X140867580Y-95288963D01*
X140641586Y-95456481D01*
X140452615Y-95664869D01*
X140341067Y-95850865D01*
X140336680Y-95840273D01*
X140179637Y-95605241D01*
X139979759Y-95405363D01*
X139744727Y-95248320D01*
X139483574Y-95140147D01*
X139206335Y-95085000D01*
X138923665Y-95085000D01*
X138646426Y-95140147D01*
X138385273Y-95248320D01*
X138150241Y-95405363D01*
X137950363Y-95605241D01*
X137795000Y-95837759D01*
X137639637Y-95605241D01*
X137439759Y-95405363D01*
X137204727Y-95248320D01*
X136943574Y-95140147D01*
X136666335Y-95085000D01*
X136383665Y-95085000D01*
X136106426Y-95140147D01*
X135845273Y-95248320D01*
X135610241Y-95405363D01*
X135410363Y-95605241D01*
X135255000Y-95837759D01*
X135099637Y-95605241D01*
X134899759Y-95405363D01*
X134664727Y-95248320D01*
X134403574Y-95140147D01*
X134126335Y-95085000D01*
X133843665Y-95085000D01*
X133566426Y-95140147D01*
X133305273Y-95248320D01*
X133070241Y-95405363D01*
X132870363Y-95605241D01*
X132715000Y-95837759D01*
X132559637Y-95605241D01*
X132359759Y-95405363D01*
X132124727Y-95248320D01*
X131863574Y-95140147D01*
X131586335Y-95085000D01*
X131303665Y-95085000D01*
X131026426Y-95140147D01*
X130765273Y-95248320D01*
X130530241Y-95405363D01*
X130330363Y-95605241D01*
X130175000Y-95837759D01*
X130019637Y-95605241D01*
X129819759Y-95405363D01*
X129584727Y-95248320D01*
X129323574Y-95140147D01*
X129046335Y-95085000D01*
X128763665Y-95085000D01*
X128486426Y-95140147D01*
X128225273Y-95248320D01*
X127990241Y-95405363D01*
X127790363Y-95605241D01*
X127635000Y-95837759D01*
X127479637Y-95605241D01*
X127279759Y-95405363D01*
X127044727Y-95248320D01*
X126783574Y-95140147D01*
X126506335Y-95085000D01*
X126223665Y-95085000D01*
X125946426Y-95140147D01*
X125685273Y-95248320D01*
X125450241Y-95405363D01*
X125250363Y-95605241D01*
X125095000Y-95837759D01*
X124939637Y-95605241D01*
X124739759Y-95405363D01*
X124504727Y-95248320D01*
X124243574Y-95140147D01*
X123966335Y-95085000D01*
X123683665Y-95085000D01*
X123406426Y-95140147D01*
X123145273Y-95248320D01*
X122910241Y-95405363D01*
X122710363Y-95605241D01*
X122553320Y-95840273D01*
X122445147Y-96101426D01*
X122390000Y-96378665D01*
X104800000Y-96378665D01*
X104800000Y-88758665D01*
X122390000Y-88758665D01*
X122390000Y-89041335D01*
X122445147Y-89318574D01*
X122553320Y-89579727D01*
X122710363Y-89814759D01*
X122910241Y-90014637D01*
X123145273Y-90171680D01*
X123406426Y-90279853D01*
X123683665Y-90335000D01*
X123966335Y-90335000D01*
X124243574Y-90279853D01*
X124504727Y-90171680D01*
X124739759Y-90014637D01*
X124939637Y-89814759D01*
X125095000Y-89582241D01*
X125250363Y-89814759D01*
X125450241Y-90014637D01*
X125685273Y-90171680D01*
X125946426Y-90279853D01*
X126223665Y-90335000D01*
X126506335Y-90335000D01*
X126783574Y-90279853D01*
X127044727Y-90171680D01*
X127279759Y-90014637D01*
X127479637Y-89814759D01*
X127635000Y-89582241D01*
X127790363Y-89814759D01*
X127990241Y-90014637D01*
X128225273Y-90171680D01*
X128486426Y-90279853D01*
X128763665Y-90335000D01*
X129046335Y-90335000D01*
X129323574Y-90279853D01*
X129584727Y-90171680D01*
X129819759Y-90014637D01*
X130019637Y-89814759D01*
X130175000Y-89582241D01*
X130330363Y-89814759D01*
X130530241Y-90014637D01*
X130765273Y-90171680D01*
X131026426Y-90279853D01*
X131303665Y-90335000D01*
X131586335Y-90335000D01*
X131863574Y-90279853D01*
X132124727Y-90171680D01*
X132359759Y-90014637D01*
X132559637Y-89814759D01*
X132715000Y-89582241D01*
X132870363Y-89814759D01*
X133070241Y-90014637D01*
X133305273Y-90171680D01*
X133566426Y-90279853D01*
X133843665Y-90335000D01*
X134126335Y-90335000D01*
X134403574Y-90279853D01*
X134664727Y-90171680D01*
X134899759Y-90014637D01*
X135099637Y-89814759D01*
X135255000Y-89582241D01*
X135410363Y-89814759D01*
X135610241Y-90014637D01*
X135845273Y-90171680D01*
X136106426Y-90279853D01*
X136383665Y-90335000D01*
X136666335Y-90335000D01*
X136943574Y-90279853D01*
X137204727Y-90171680D01*
X137439759Y-90014637D01*
X137639637Y-89814759D01*
X137796680Y-89579727D01*
X137801067Y-89569135D01*
X137912615Y-89755131D01*
X138101586Y-89963519D01*
X138327580Y-90131037D01*
X138581913Y-90251246D01*
X138715961Y-90291904D01*
X138938000Y-90169915D01*
X138938000Y-89027000D01*
X138918000Y-89027000D01*
X138918000Y-88773000D01*
X138938000Y-88773000D01*
X138938000Y-87630085D01*
X139192000Y-87630085D01*
X139192000Y-88773000D01*
X139212000Y-88773000D01*
X139212000Y-89027000D01*
X139192000Y-89027000D01*
X139192000Y-90169915D01*
X139414039Y-90291904D01*
X139548087Y-90251246D01*
X139802420Y-90131037D01*
X140028414Y-89963519D01*
X140217385Y-89755131D01*
X140328933Y-89569135D01*
X140333320Y-89579727D01*
X140490363Y-89814759D01*
X140690241Y-90014637D01*
X140925273Y-90171680D01*
X141186426Y-90279853D01*
X141463665Y-90335000D01*
X141746335Y-90335000D01*
X142023574Y-90279853D01*
X142284727Y-90171680D01*
X142519759Y-90014637D01*
X142719637Y-89814759D01*
X142875000Y-89582241D01*
X143030363Y-89814759D01*
X143230241Y-90014637D01*
X143465273Y-90171680D01*
X143726426Y-90279853D01*
X144003665Y-90335000D01*
X144286335Y-90335000D01*
X144563574Y-90279853D01*
X144824727Y-90171680D01*
X145059759Y-90014637D01*
X145259637Y-89814759D01*
X145415000Y-89582241D01*
X145570363Y-89814759D01*
X145770241Y-90014637D01*
X146005273Y-90171680D01*
X146266426Y-90279853D01*
X146543665Y-90335000D01*
X146826335Y-90335000D01*
X147103574Y-90279853D01*
X147364727Y-90171680D01*
X147599759Y-90014637D01*
X147799637Y-89814759D01*
X147955000Y-89582241D01*
X148110363Y-89814759D01*
X148310241Y-90014637D01*
X148545273Y-90171680D01*
X148806426Y-90279853D01*
X149083665Y-90335000D01*
X149366335Y-90335000D01*
X149643574Y-90279853D01*
X149904727Y-90171680D01*
X150139759Y-90014637D01*
X150339637Y-89814759D01*
X150495000Y-89582241D01*
X150650363Y-89814759D01*
X150850241Y-90014637D01*
X151085273Y-90171680D01*
X151346426Y-90279853D01*
X151623665Y-90335000D01*
X151906335Y-90335000D01*
X151941439Y-90328017D01*
X154918470Y-93305049D01*
X154946183Y-93338817D01*
X154979951Y-93366530D01*
X154979953Y-93366532D01*
X155080941Y-93449411D01*
X155234686Y-93531589D01*
X155401510Y-93582195D01*
X155531523Y-93595000D01*
X155531531Y-93595000D01*
X155575000Y-93599281D01*
X155618469Y-93595000D01*
X172160344Y-93595000D01*
X172201525Y-93656632D01*
X172408368Y-93863475D01*
X172590534Y-93985195D01*
X172473645Y-94054822D01*
X172257412Y-94249731D01*
X172083359Y-94483080D01*
X171958175Y-94745901D01*
X171913524Y-94893110D01*
X172034845Y-95123000D01*
X173228000Y-95123000D01*
X173228000Y-95103000D01*
X173482000Y-95103000D01*
X173482000Y-95123000D01*
X174675155Y-95123000D01*
X174796476Y-94893110D01*
X174751825Y-94745901D01*
X174626641Y-94483080D01*
X174452588Y-94249731D01*
X174236355Y-94054822D01*
X174119466Y-93985195D01*
X174301632Y-93863475D01*
X174508475Y-93656632D01*
X174670990Y-93413411D01*
X174782932Y-93143158D01*
X174840000Y-92856260D01*
X174840000Y-92563740D01*
X174782932Y-92276842D01*
X174670990Y-92006589D01*
X174508475Y-91763368D01*
X174376620Y-91631513D01*
X174449180Y-91609502D01*
X174559494Y-91550537D01*
X174656185Y-91471185D01*
X174735537Y-91374494D01*
X174794502Y-91264180D01*
X174830812Y-91144482D01*
X174843072Y-91020000D01*
X174843072Y-89320000D01*
X174830812Y-89195518D01*
X174794502Y-89075820D01*
X174735537Y-88965506D01*
X174656185Y-88868815D01*
X174559494Y-88789463D01*
X174449180Y-88730498D01*
X174329482Y-88694188D01*
X174205000Y-88681928D01*
X172505000Y-88681928D01*
X172380518Y-88694188D01*
X172260820Y-88730498D01*
X172150506Y-88789463D01*
X172053815Y-88868815D01*
X171974463Y-88965506D01*
X171915498Y-89075820D01*
X171879188Y-89195518D01*
X171866928Y-89320000D01*
X171866928Y-90406494D01*
X171718422Y-90555000D01*
X157211579Y-90555000D01*
X156994651Y-90338072D01*
X157645000Y-90338072D01*
X157769482Y-90325812D01*
X157889180Y-90289502D01*
X157999494Y-90230537D01*
X158096185Y-90151185D01*
X158175537Y-90054494D01*
X158234502Y-89944180D01*
X158270812Y-89824482D01*
X158283072Y-89700000D01*
X158283072Y-88100000D01*
X158270812Y-87975518D01*
X158234502Y-87855820D01*
X158175537Y-87745506D01*
X158096185Y-87648815D01*
X157999494Y-87569463D01*
X157889180Y-87510498D01*
X157769482Y-87474188D01*
X157645000Y-87461928D01*
X156045000Y-87461928D01*
X155920518Y-87474188D01*
X155800820Y-87510498D01*
X155690506Y-87569463D01*
X155593815Y-87648815D01*
X155514463Y-87745506D01*
X155455498Y-87855820D01*
X155419188Y-87975518D01*
X155418357Y-87983961D01*
X155219759Y-87785363D01*
X154984727Y-87628320D01*
X154723574Y-87520147D01*
X154446335Y-87465000D01*
X154163665Y-87465000D01*
X153886426Y-87520147D01*
X153625273Y-87628320D01*
X153390241Y-87785363D01*
X153190363Y-87985241D01*
X153035000Y-88217759D01*
X152879637Y-87985241D01*
X152679759Y-87785363D01*
X152444727Y-87628320D01*
X152183574Y-87520147D01*
X151906335Y-87465000D01*
X151623665Y-87465000D01*
X151346426Y-87520147D01*
X151085273Y-87628320D01*
X150850241Y-87785363D01*
X150650363Y-87985241D01*
X150495000Y-88217759D01*
X150339637Y-87985241D01*
X150139759Y-87785363D01*
X149904727Y-87628320D01*
X149643574Y-87520147D01*
X149366335Y-87465000D01*
X149083665Y-87465000D01*
X148806426Y-87520147D01*
X148545273Y-87628320D01*
X148310241Y-87785363D01*
X148110363Y-87985241D01*
X147955000Y-88217759D01*
X147799637Y-87985241D01*
X147599759Y-87785363D01*
X147364727Y-87628320D01*
X147103574Y-87520147D01*
X146826335Y-87465000D01*
X146543665Y-87465000D01*
X146266426Y-87520147D01*
X146005273Y-87628320D01*
X145770241Y-87785363D01*
X145570363Y-87985241D01*
X145415000Y-88217759D01*
X145259637Y-87985241D01*
X145059759Y-87785363D01*
X144824727Y-87628320D01*
X144563574Y-87520147D01*
X144286335Y-87465000D01*
X144003665Y-87465000D01*
X143726426Y-87520147D01*
X143465273Y-87628320D01*
X143230241Y-87785363D01*
X143030363Y-87985241D01*
X142875000Y-88217759D01*
X142719637Y-87985241D01*
X142519759Y-87785363D01*
X142284727Y-87628320D01*
X142023574Y-87520147D01*
X141746335Y-87465000D01*
X141463665Y-87465000D01*
X141186426Y-87520147D01*
X140925273Y-87628320D01*
X140690241Y-87785363D01*
X140490363Y-87985241D01*
X140333320Y-88220273D01*
X140328933Y-88230865D01*
X140217385Y-88044869D01*
X140028414Y-87836481D01*
X139802420Y-87668963D01*
X139548087Y-87548754D01*
X139414039Y-87508096D01*
X139192000Y-87630085D01*
X138938000Y-87630085D01*
X138715961Y-87508096D01*
X138581913Y-87548754D01*
X138327580Y-87668963D01*
X138101586Y-87836481D01*
X137912615Y-88044869D01*
X137801067Y-88230865D01*
X137796680Y-88220273D01*
X137639637Y-87985241D01*
X137439759Y-87785363D01*
X137204727Y-87628320D01*
X136943574Y-87520147D01*
X136666335Y-87465000D01*
X136383665Y-87465000D01*
X136106426Y-87520147D01*
X135845273Y-87628320D01*
X135610241Y-87785363D01*
X135410363Y-87985241D01*
X135255000Y-88217759D01*
X135099637Y-87985241D01*
X134899759Y-87785363D01*
X134664727Y-87628320D01*
X134403574Y-87520147D01*
X134126335Y-87465000D01*
X133843665Y-87465000D01*
X133566426Y-87520147D01*
X133305273Y-87628320D01*
X133070241Y-87785363D01*
X132870363Y-87985241D01*
X132715000Y-88217759D01*
X132559637Y-87985241D01*
X132359759Y-87785363D01*
X132124727Y-87628320D01*
X131863574Y-87520147D01*
X131586335Y-87465000D01*
X131303665Y-87465000D01*
X131026426Y-87520147D01*
X130765273Y-87628320D01*
X130530241Y-87785363D01*
X130330363Y-87985241D01*
X130175000Y-88217759D01*
X130019637Y-87985241D01*
X129819759Y-87785363D01*
X129584727Y-87628320D01*
X129323574Y-87520147D01*
X129046335Y-87465000D01*
X128763665Y-87465000D01*
X128486426Y-87520147D01*
X128225273Y-87628320D01*
X127990241Y-87785363D01*
X127790363Y-87985241D01*
X127635000Y-88217759D01*
X127479637Y-87985241D01*
X127279759Y-87785363D01*
X127044727Y-87628320D01*
X126783574Y-87520147D01*
X126506335Y-87465000D01*
X126223665Y-87465000D01*
X125946426Y-87520147D01*
X125685273Y-87628320D01*
X125450241Y-87785363D01*
X125250363Y-87985241D01*
X125095000Y-88217759D01*
X124939637Y-87985241D01*
X124739759Y-87785363D01*
X124504727Y-87628320D01*
X124243574Y-87520147D01*
X123966335Y-87465000D01*
X123683665Y-87465000D01*
X123406426Y-87520147D01*
X123145273Y-87628320D01*
X122910241Y-87785363D01*
X122710363Y-87985241D01*
X122553320Y-88220273D01*
X122445147Y-88481426D01*
X122390000Y-88758665D01*
X104800000Y-88758665D01*
X104800000Y-82868967D01*
X118540000Y-82868967D01*
X118540000Y-83191033D01*
X118602832Y-83506912D01*
X118726082Y-83804463D01*
X118905013Y-84072252D01*
X119132748Y-84299987D01*
X119400537Y-84478918D01*
X119698088Y-84602168D01*
X120013967Y-84665000D01*
X120336033Y-84665000D01*
X120651912Y-84602168D01*
X120949463Y-84478918D01*
X121217252Y-84299987D01*
X121444987Y-84072252D01*
X121623918Y-83804463D01*
X121747168Y-83506912D01*
X121810000Y-83191033D01*
X121810000Y-82868967D01*
X121779457Y-82715414D01*
X122028740Y-82765000D01*
X122321260Y-82765000D01*
X122608158Y-82707932D01*
X122878411Y-82595990D01*
X123121632Y-82433475D01*
X123328475Y-82226632D01*
X123490990Y-81983411D01*
X123602932Y-81713158D01*
X123660000Y-81426260D01*
X123660000Y-81133740D01*
X124690000Y-81133740D01*
X124690000Y-81426260D01*
X124747068Y-81713158D01*
X124859010Y-81983411D01*
X125021525Y-82226632D01*
X125228368Y-82433475D01*
X125471589Y-82595990D01*
X125741842Y-82707932D01*
X126028740Y-82765000D01*
X126321260Y-82765000D01*
X126608158Y-82707932D01*
X126878411Y-82595990D01*
X127121632Y-82433475D01*
X127328475Y-82226632D01*
X127490990Y-81983411D01*
X127602932Y-81713158D01*
X127660000Y-81426260D01*
X127660000Y-81133740D01*
X128690000Y-81133740D01*
X128690000Y-81426260D01*
X128747068Y-81713158D01*
X128859010Y-81983411D01*
X129021525Y-82226632D01*
X129228368Y-82433475D01*
X129471589Y-82595990D01*
X129741842Y-82707932D01*
X130028740Y-82765000D01*
X130321260Y-82765000D01*
X130570543Y-82715414D01*
X130540000Y-82868967D01*
X130540000Y-83191033D01*
X130602832Y-83506912D01*
X130726082Y-83804463D01*
X130905013Y-84072252D01*
X131132748Y-84299987D01*
X131400537Y-84478918D01*
X131698088Y-84602168D01*
X132013967Y-84665000D01*
X132336033Y-84665000D01*
X132651912Y-84602168D01*
X132949463Y-84478918D01*
X133217252Y-84299987D01*
X133444987Y-84072252D01*
X133499946Y-83990000D01*
X134786928Y-83990000D01*
X134786928Y-86190000D01*
X134799188Y-86314482D01*
X134835498Y-86434180D01*
X134894463Y-86544494D01*
X134973815Y-86641185D01*
X135070506Y-86720537D01*
X135180820Y-86779502D01*
X135300518Y-86815812D01*
X135425000Y-86828072D01*
X137625000Y-86828072D01*
X137749482Y-86815812D01*
X137869180Y-86779502D01*
X137979494Y-86720537D01*
X138076185Y-86641185D01*
X138155537Y-86544494D01*
X138214502Y-86434180D01*
X138250812Y-86314482D01*
X138259278Y-86228514D01*
X163130000Y-86228514D01*
X163130000Y-86491486D01*
X163181304Y-86749405D01*
X163281939Y-86992359D01*
X163428038Y-87211013D01*
X163613987Y-87396962D01*
X163832641Y-87543061D01*
X164075595Y-87643696D01*
X164333514Y-87695000D01*
X164596486Y-87695000D01*
X164854405Y-87643696D01*
X165097359Y-87543061D01*
X165316013Y-87396962D01*
X165501962Y-87211013D01*
X165648061Y-86992359D01*
X165748696Y-86749405D01*
X165800000Y-86491486D01*
X165800000Y-86228514D01*
X170750000Y-86228514D01*
X170750000Y-86491486D01*
X170801304Y-86749405D01*
X170901939Y-86992359D01*
X171048038Y-87211013D01*
X171233987Y-87396962D01*
X171452641Y-87543061D01*
X171695595Y-87643696D01*
X171953514Y-87695000D01*
X172216486Y-87695000D01*
X172474405Y-87643696D01*
X172717359Y-87543061D01*
X172936013Y-87396962D01*
X173121962Y-87211013D01*
X173268061Y-86992359D01*
X173368696Y-86749405D01*
X173420000Y-86491486D01*
X173420000Y-86228514D01*
X173368696Y-85970595D01*
X173268061Y-85727641D01*
X173121962Y-85508987D01*
X172936013Y-85323038D01*
X172717359Y-85176939D01*
X172474405Y-85076304D01*
X172216486Y-85025000D01*
X171953514Y-85025000D01*
X171695595Y-85076304D01*
X171452641Y-85176939D01*
X171233987Y-85323038D01*
X171048038Y-85508987D01*
X170901939Y-85727641D01*
X170801304Y-85970595D01*
X170750000Y-86228514D01*
X165800000Y-86228514D01*
X165748696Y-85970595D01*
X165648061Y-85727641D01*
X165501962Y-85508987D01*
X165316013Y-85323038D01*
X165097359Y-85176939D01*
X164854405Y-85076304D01*
X164596486Y-85025000D01*
X164333514Y-85025000D01*
X164075595Y-85076304D01*
X163832641Y-85176939D01*
X163613987Y-85323038D01*
X163428038Y-85508987D01*
X163281939Y-85727641D01*
X163181304Y-85970595D01*
X163130000Y-86228514D01*
X138259278Y-86228514D01*
X138263072Y-86190000D01*
X138263072Y-84603506D01*
X141336579Y-81530000D01*
X145255299Y-81530000D01*
X145259188Y-81569482D01*
X145295498Y-81689180D01*
X145354463Y-81799494D01*
X145433815Y-81896185D01*
X145530506Y-81975537D01*
X145640820Y-82034502D01*
X145760518Y-82070812D01*
X145885000Y-82083072D01*
X147485000Y-82083072D01*
X147609482Y-82070812D01*
X147729180Y-82034502D01*
X147839494Y-81975537D01*
X147936185Y-81896185D01*
X148015537Y-81799494D01*
X148074502Y-81689180D01*
X148110812Y-81569482D01*
X148114701Y-81530000D01*
X155206928Y-81530000D01*
X155206928Y-82232500D01*
X155219188Y-82356982D01*
X155255498Y-82476680D01*
X155314463Y-82586994D01*
X155393815Y-82683685D01*
X155490506Y-82763037D01*
X155600820Y-82822002D01*
X155720518Y-82858312D01*
X155845000Y-82870572D01*
X157845000Y-82870572D01*
X157969482Y-82858312D01*
X158089180Y-82822002D01*
X158199494Y-82763037D01*
X158296185Y-82683685D01*
X158375537Y-82586994D01*
X158434502Y-82476680D01*
X158470812Y-82356982D01*
X158483072Y-82232500D01*
X158483072Y-81557702D01*
X164286903Y-81557702D01*
X164358486Y-81801671D01*
X164613996Y-81922571D01*
X164888184Y-81991300D01*
X165170512Y-82005217D01*
X165450130Y-81963787D01*
X165716292Y-81868603D01*
X165841514Y-81801671D01*
X165913097Y-81557702D01*
X165100000Y-80744605D01*
X164286903Y-81557702D01*
X158483072Y-81557702D01*
X158483072Y-80635512D01*
X163659783Y-80635512D01*
X163701213Y-80915130D01*
X163796397Y-81181292D01*
X163863329Y-81306514D01*
X164107298Y-81378097D01*
X164920395Y-80565000D01*
X165279605Y-80565000D01*
X166092702Y-81378097D01*
X166336671Y-81306514D01*
X166457571Y-81051004D01*
X166526300Y-80776816D01*
X166540217Y-80494488D01*
X166507697Y-80275000D01*
X171816928Y-80275000D01*
X171829188Y-80399482D01*
X171865498Y-80519180D01*
X171924463Y-80629494D01*
X172003815Y-80726185D01*
X172100506Y-80805537D01*
X172210820Y-80864502D01*
X172330518Y-80900812D01*
X172455000Y-80913072D01*
X173069250Y-80910000D01*
X173228000Y-80751250D01*
X173228000Y-79502000D01*
X173482000Y-79502000D01*
X173482000Y-80751250D01*
X173640750Y-80910000D01*
X174255000Y-80913072D01*
X174379482Y-80900812D01*
X174499180Y-80864502D01*
X174609494Y-80805537D01*
X174706185Y-80726185D01*
X174785537Y-80629494D01*
X174844502Y-80519180D01*
X174880812Y-80399482D01*
X174893072Y-80275000D01*
X174890000Y-79660750D01*
X174731250Y-79502000D01*
X173482000Y-79502000D01*
X173228000Y-79502000D01*
X171978750Y-79502000D01*
X171820000Y-79660750D01*
X171816928Y-80275000D01*
X166507697Y-80275000D01*
X166498787Y-80214870D01*
X166403603Y-79948708D01*
X166336671Y-79823486D01*
X166092702Y-79751903D01*
X165279605Y-80565000D01*
X164920395Y-80565000D01*
X164107298Y-79751903D01*
X163863329Y-79823486D01*
X163742429Y-80078996D01*
X163673700Y-80353184D01*
X163659783Y-80635512D01*
X158483072Y-80635512D01*
X158483072Y-80327500D01*
X158470812Y-80203018D01*
X158434502Y-80083320D01*
X158375537Y-79973006D01*
X158296185Y-79876315D01*
X158199494Y-79796963D01*
X158107781Y-79747941D01*
X158220969Y-79606923D01*
X158238995Y-79572298D01*
X164286903Y-79572298D01*
X165100000Y-80385395D01*
X165913097Y-79572298D01*
X165841514Y-79328329D01*
X165586004Y-79207429D01*
X165311816Y-79138700D01*
X165029488Y-79124783D01*
X164749870Y-79166213D01*
X164483708Y-79261397D01*
X164358486Y-79328329D01*
X164286903Y-79572298D01*
X158238995Y-79572298D01*
X158364571Y-79331094D01*
X158435563Y-79112980D01*
X158315594Y-78867000D01*
X156972000Y-78867000D01*
X156972000Y-78887000D01*
X156718000Y-78887000D01*
X156718000Y-78867000D01*
X155374406Y-78867000D01*
X155254437Y-79112980D01*
X155325429Y-79331094D01*
X155469031Y-79606923D01*
X155582219Y-79747941D01*
X155559658Y-79760000D01*
X148114701Y-79760000D01*
X148110812Y-79720518D01*
X148074502Y-79600820D01*
X148015537Y-79490506D01*
X147936185Y-79393815D01*
X147839494Y-79314463D01*
X147729180Y-79255498D01*
X147609482Y-79219188D01*
X147485000Y-79206928D01*
X145885000Y-79206928D01*
X145760518Y-79219188D01*
X145640820Y-79255498D01*
X145530506Y-79314463D01*
X145433815Y-79393815D01*
X145354463Y-79490506D01*
X145295498Y-79600820D01*
X145259188Y-79720518D01*
X145255299Y-79760000D01*
X141013465Y-79760000D01*
X140969999Y-79755719D01*
X140926533Y-79760000D01*
X140926523Y-79760000D01*
X140796510Y-79772805D01*
X140629687Y-79823411D01*
X140475941Y-79905589D01*
X140475939Y-79905590D01*
X140475940Y-79905590D01*
X140374953Y-79988468D01*
X140374951Y-79988470D01*
X140341183Y-80016183D01*
X140313470Y-80049951D01*
X137011494Y-83351928D01*
X135425000Y-83351928D01*
X135300518Y-83364188D01*
X135180820Y-83400498D01*
X135070506Y-83459463D01*
X134973815Y-83538815D01*
X134894463Y-83635506D01*
X134835498Y-83745820D01*
X134799188Y-83865518D01*
X134786928Y-83990000D01*
X133499946Y-83990000D01*
X133623918Y-83804463D01*
X133747168Y-83506912D01*
X133810000Y-83191033D01*
X133810000Y-82868967D01*
X133747168Y-82553088D01*
X133623918Y-82255537D01*
X133444987Y-81987748D01*
X133217252Y-81760013D01*
X132949463Y-81581082D01*
X132651912Y-81457832D01*
X132336033Y-81395000D01*
X132013967Y-81395000D01*
X131698088Y-81457832D01*
X131649736Y-81477860D01*
X131660000Y-81426260D01*
X131660000Y-81133740D01*
X131602932Y-80846842D01*
X131490990Y-80576589D01*
X131328475Y-80333368D01*
X131121632Y-80126525D01*
X130878411Y-79964010D01*
X130608158Y-79852068D01*
X130321260Y-79795000D01*
X130028740Y-79795000D01*
X129741842Y-79852068D01*
X129471589Y-79964010D01*
X129228368Y-80126525D01*
X129021525Y-80333368D01*
X128859010Y-80576589D01*
X128747068Y-80846842D01*
X128690000Y-81133740D01*
X127660000Y-81133740D01*
X127602932Y-80846842D01*
X127490990Y-80576589D01*
X127328475Y-80333368D01*
X127121632Y-80126525D01*
X127060000Y-80085344D01*
X127060000Y-78026578D01*
X129271579Y-75815000D01*
X131077761Y-75815000D01*
X130905013Y-75987748D01*
X130726082Y-76255537D01*
X130602832Y-76553088D01*
X130540000Y-76868967D01*
X130540000Y-77191033D01*
X130602832Y-77506912D01*
X130726082Y-77804463D01*
X130905013Y-78072252D01*
X131132748Y-78299987D01*
X131400537Y-78478918D01*
X131698088Y-78602168D01*
X132013967Y-78665000D01*
X132336033Y-78665000D01*
X132651912Y-78602168D01*
X132949463Y-78478918D01*
X133217252Y-78299987D01*
X133444987Y-78072252D01*
X133623918Y-77804463D01*
X133747168Y-77506912D01*
X133810000Y-77191033D01*
X133810000Y-76868967D01*
X133747168Y-76553088D01*
X133623918Y-76255537D01*
X133444987Y-75987748D01*
X133272239Y-75815000D01*
X135029671Y-75815000D01*
X135177337Y-76035998D01*
X135419002Y-76277663D01*
X135703169Y-76467537D01*
X136018919Y-76598325D01*
X136354117Y-76665000D01*
X136695883Y-76665000D01*
X136833119Y-76637702D01*
X145871903Y-76637702D01*
X145943486Y-76881671D01*
X146198996Y-77002571D01*
X146473184Y-77071300D01*
X146755512Y-77085217D01*
X147035130Y-77043787D01*
X147301292Y-76948603D01*
X147426514Y-76881671D01*
X147498097Y-76637702D01*
X146685000Y-75824605D01*
X145871903Y-76637702D01*
X136833119Y-76637702D01*
X137031081Y-76598325D01*
X137346831Y-76467537D01*
X137630998Y-76277663D01*
X137872663Y-76035998D01*
X138062537Y-75751831D01*
X138077580Y-75715512D01*
X145244783Y-75715512D01*
X145286213Y-75995130D01*
X145381397Y-76261292D01*
X145448329Y-76386514D01*
X145692298Y-76458097D01*
X146505395Y-75645000D01*
X146864605Y-75645000D01*
X147677702Y-76458097D01*
X147921671Y-76386514D01*
X148009924Y-76200000D01*
X155202319Y-76200000D01*
X155232970Y-76511204D01*
X155323745Y-76810449D01*
X155471155Y-77086235D01*
X155669537Y-77327963D01*
X155848899Y-77475163D01*
X155663685Y-77630563D01*
X155469031Y-77873077D01*
X155325429Y-78148906D01*
X155254437Y-78367020D01*
X155374406Y-78613000D01*
X156718000Y-78613000D01*
X156718000Y-78593000D01*
X156972000Y-78593000D01*
X156972000Y-78613000D01*
X158315594Y-78613000D01*
X158382899Y-78475000D01*
X171816928Y-78475000D01*
X171820000Y-79089250D01*
X171978750Y-79248000D01*
X173228000Y-79248000D01*
X173228000Y-79228000D01*
X173482000Y-79228000D01*
X173482000Y-79248000D01*
X174731250Y-79248000D01*
X174890000Y-79089250D01*
X174893072Y-78475000D01*
X174880812Y-78350518D01*
X174844502Y-78230820D01*
X174785537Y-78120506D01*
X174706185Y-78023815D01*
X174609494Y-77944463D01*
X174499180Y-77885498D01*
X174480873Y-77879944D01*
X174547312Y-77813505D01*
X174715299Y-77562095D01*
X174831011Y-77282743D01*
X174890000Y-76986184D01*
X174890000Y-76683816D01*
X174831011Y-76387257D01*
X174715299Y-76107905D01*
X174547312Y-75856495D01*
X174333505Y-75642688D01*
X174082095Y-75474701D01*
X173802743Y-75358989D01*
X173506184Y-75300000D01*
X173203816Y-75300000D01*
X172907257Y-75358989D01*
X172627905Y-75474701D01*
X172376495Y-75642688D01*
X172162688Y-75856495D01*
X171994701Y-76107905D01*
X171878989Y-76387257D01*
X171820000Y-76683816D01*
X171820000Y-76986184D01*
X171878989Y-77282743D01*
X171994701Y-77562095D01*
X172162688Y-77813505D01*
X172229127Y-77879944D01*
X172210820Y-77885498D01*
X172100506Y-77944463D01*
X172003815Y-78023815D01*
X171924463Y-78120506D01*
X171865498Y-78230820D01*
X171829188Y-78350518D01*
X171816928Y-78475000D01*
X158382899Y-78475000D01*
X158435563Y-78367020D01*
X158364571Y-78148906D01*
X158220969Y-77873077D01*
X158026315Y-77630563D01*
X157841101Y-77475163D01*
X158020463Y-77327963D01*
X158218845Y-77086235D01*
X158366255Y-76810449D01*
X158457030Y-76511204D01*
X158463058Y-76450000D01*
X163670299Y-76450000D01*
X163674188Y-76489482D01*
X163710498Y-76609180D01*
X163769463Y-76719494D01*
X163848815Y-76816185D01*
X163945506Y-76895537D01*
X164055820Y-76954502D01*
X164175518Y-76990812D01*
X164300000Y-77003072D01*
X165900000Y-77003072D01*
X166024482Y-76990812D01*
X166144180Y-76954502D01*
X166254494Y-76895537D01*
X166351185Y-76816185D01*
X166430537Y-76719494D01*
X166489502Y-76609180D01*
X166525812Y-76489482D01*
X166538072Y-76365000D01*
X166538072Y-74765000D01*
X166525812Y-74640518D01*
X166489502Y-74520820D01*
X166430537Y-74410506D01*
X166351185Y-74313815D01*
X166254494Y-74234463D01*
X166144180Y-74175498D01*
X166024482Y-74139188D01*
X165900000Y-74126928D01*
X164300000Y-74126928D01*
X164175518Y-74139188D01*
X164055820Y-74175498D01*
X163945506Y-74234463D01*
X163848815Y-74313815D01*
X163769463Y-74410506D01*
X163710498Y-74520820D01*
X163674188Y-74640518D01*
X163670299Y-74680000D01*
X157523469Y-74680000D01*
X157480000Y-74675719D01*
X157436531Y-74680000D01*
X157436523Y-74680000D01*
X157371584Y-74686396D01*
X157203704Y-74635470D01*
X156970486Y-74612500D01*
X156719514Y-74612500D01*
X156486296Y-74635470D01*
X156187051Y-74726245D01*
X155911265Y-74873655D01*
X155669537Y-75072037D01*
X155471155Y-75313765D01*
X155323745Y-75589551D01*
X155232970Y-75888796D01*
X155202319Y-76200000D01*
X148009924Y-76200000D01*
X148042571Y-76131004D01*
X148111300Y-75856816D01*
X148125217Y-75574488D01*
X148083787Y-75294870D01*
X147988603Y-75028708D01*
X147921671Y-74903486D01*
X147677702Y-74831903D01*
X146864605Y-75645000D01*
X146505395Y-75645000D01*
X145692298Y-74831903D01*
X145448329Y-74903486D01*
X145327429Y-75158996D01*
X145258700Y-75433184D01*
X145244783Y-75715512D01*
X138077580Y-75715512D01*
X138193325Y-75436081D01*
X138260000Y-75100883D01*
X138260000Y-74759117D01*
X138238753Y-74652298D01*
X145871903Y-74652298D01*
X146685000Y-75465395D01*
X147498097Y-74652298D01*
X147426514Y-74408329D01*
X147171004Y-74287429D01*
X146896816Y-74218700D01*
X146614488Y-74204783D01*
X146334870Y-74246213D01*
X146068708Y-74341397D01*
X145943486Y-74408329D01*
X145871903Y-74652298D01*
X138238753Y-74652298D01*
X138193325Y-74423919D01*
X138062537Y-74108169D01*
X137872663Y-73824002D01*
X137630998Y-73582337D01*
X137346831Y-73392463D01*
X137031081Y-73261675D01*
X136695883Y-73195000D01*
X136354117Y-73195000D01*
X136018919Y-73261675D01*
X135703169Y-73392463D01*
X135419002Y-73582337D01*
X135177337Y-73824002D01*
X135029671Y-74045000D01*
X128948466Y-74045000D01*
X128904999Y-74040719D01*
X128861533Y-74045000D01*
X128861523Y-74045000D01*
X128731510Y-74057805D01*
X128564687Y-74108411D01*
X128410941Y-74190589D01*
X128410939Y-74190590D01*
X128410940Y-74190590D01*
X128309953Y-74273468D01*
X128309951Y-74273470D01*
X128276183Y-74301183D01*
X128248470Y-74334951D01*
X125579956Y-77003466D01*
X125546183Y-77031183D01*
X125435589Y-77165942D01*
X125353411Y-77319688D01*
X125302805Y-77486511D01*
X125290000Y-77616524D01*
X125290000Y-77616531D01*
X125285719Y-77660000D01*
X125290000Y-77703469D01*
X125290001Y-80085343D01*
X125228368Y-80126525D01*
X125021525Y-80333368D01*
X124859010Y-80576589D01*
X124747068Y-80846842D01*
X124690000Y-81133740D01*
X123660000Y-81133740D01*
X123602932Y-80846842D01*
X123490990Y-80576589D01*
X123328475Y-80333368D01*
X123121632Y-80126525D01*
X122878411Y-79964010D01*
X122608158Y-79852068D01*
X122321260Y-79795000D01*
X122028740Y-79795000D01*
X121741842Y-79852068D01*
X121471589Y-79964010D01*
X121228368Y-80126525D01*
X121021525Y-80333368D01*
X120859010Y-80576589D01*
X120747068Y-80846842D01*
X120690000Y-81133740D01*
X120690000Y-81426260D01*
X120700264Y-81477860D01*
X120651912Y-81457832D01*
X120336033Y-81395000D01*
X120013967Y-81395000D01*
X119698088Y-81457832D01*
X119400537Y-81581082D01*
X119132748Y-81760013D01*
X118905013Y-81987748D01*
X118726082Y-82255537D01*
X118602832Y-82553088D01*
X118540000Y-82868967D01*
X104800000Y-82868967D01*
X104800000Y-78710000D01*
X109821928Y-78710000D01*
X109821928Y-81310000D01*
X109834188Y-81434482D01*
X109870498Y-81554180D01*
X109929463Y-81664494D01*
X110008815Y-81761185D01*
X110105506Y-81840537D01*
X110215820Y-81899502D01*
X110335518Y-81935812D01*
X110460000Y-81948072D01*
X113060000Y-81948072D01*
X113184482Y-81935812D01*
X113304180Y-81899502D01*
X113414494Y-81840537D01*
X113511185Y-81761185D01*
X113590537Y-81664494D01*
X113649502Y-81554180D01*
X113685812Y-81434482D01*
X113693224Y-81359224D01*
X114090381Y-81359224D01*
X114222317Y-81654312D01*
X114563045Y-81825159D01*
X114930557Y-81926250D01*
X115310729Y-81953701D01*
X115688951Y-81906457D01*
X116050690Y-81786333D01*
X116297683Y-81654312D01*
X116429619Y-81359224D01*
X115260000Y-80189605D01*
X114090381Y-81359224D01*
X113693224Y-81359224D01*
X113698072Y-81310000D01*
X113698072Y-81084517D01*
X113910776Y-81179619D01*
X115080395Y-80010000D01*
X115439605Y-80010000D01*
X116609224Y-81179619D01*
X116904312Y-81047683D01*
X117075159Y-80706955D01*
X117176250Y-80339443D01*
X117203701Y-79959271D01*
X117156457Y-79581049D01*
X117036333Y-79219310D01*
X116904312Y-78972317D01*
X116609224Y-78840381D01*
X115439605Y-80010000D01*
X115080395Y-80010000D01*
X113910776Y-78840381D01*
X113698072Y-78935483D01*
X113698072Y-78710000D01*
X113693225Y-78660776D01*
X114090381Y-78660776D01*
X115260000Y-79830395D01*
X116429619Y-78660776D01*
X116297683Y-78365688D01*
X115956955Y-78194841D01*
X115589443Y-78093750D01*
X115209271Y-78066299D01*
X114831049Y-78113543D01*
X114469310Y-78233667D01*
X114222317Y-78365688D01*
X114090381Y-78660776D01*
X113693225Y-78660776D01*
X113685812Y-78585518D01*
X113649502Y-78465820D01*
X113590537Y-78355506D01*
X113511185Y-78258815D01*
X113414494Y-78179463D01*
X113304180Y-78120498D01*
X113184482Y-78084188D01*
X113060000Y-78071928D01*
X110460000Y-78071928D01*
X110335518Y-78084188D01*
X110215820Y-78120498D01*
X110105506Y-78179463D01*
X110008815Y-78258815D01*
X109929463Y-78355506D01*
X109870498Y-78465820D01*
X109834188Y-78585518D01*
X109821928Y-78710000D01*
X104800000Y-78710000D01*
X104800000Y-76868967D01*
X118540000Y-76868967D01*
X118540000Y-77191033D01*
X118602832Y-77506912D01*
X118726082Y-77804463D01*
X118905013Y-78072252D01*
X119132748Y-78299987D01*
X119400537Y-78478918D01*
X119698088Y-78602168D01*
X120013967Y-78665000D01*
X120336033Y-78665000D01*
X120651912Y-78602168D01*
X120949463Y-78478918D01*
X121217252Y-78299987D01*
X121444987Y-78072252D01*
X121623918Y-77804463D01*
X121747168Y-77506912D01*
X121810000Y-77191033D01*
X121810000Y-76868967D01*
X121747168Y-76553088D01*
X121623918Y-76255537D01*
X121444987Y-75987748D01*
X121217252Y-75760013D01*
X120949463Y-75581082D01*
X120651912Y-75457832D01*
X120336033Y-75395000D01*
X120013967Y-75395000D01*
X119698088Y-75457832D01*
X119400537Y-75581082D01*
X119132748Y-75760013D01*
X118905013Y-75987748D01*
X118726082Y-76255537D01*
X118602832Y-76553088D01*
X118540000Y-76868967D01*
X104800000Y-76868967D01*
X104800000Y-73050000D01*
X177775000Y-73050000D01*
X177775001Y-112370000D01*
G37*
%TD.AperFunction*%
%TD*%
M02*
